<?xml version="1.0" encoding="utf-8"?><!--Generator: Adobe Illustrator 24.3.0, SVG Export Plug-In . SVG Version: 6.00 Build 0)--><svg version="1.1" id="Capa_1" xmlns="http://www.w3.org/2000/svg" xmlns:xlink="http://www.w3.org/1999/xlink" x="0px" y="0px" viewBox="0 0 386.94 385.63" style="enable-background:new 0 0 386.94 385.63" xml:space="preserve"><style type="text/css">.st0{fill:#0000FF;stroke:#0000FF;stroke-width:4.5395;stroke-miterlimit:10;}</style><g><g><path class="st0" d="M254.11,111.1l4.52-8.21c1.55-2.75,0.5-6.32-2.24-7.71c-2.88-1.71-6.39-0.68-7.95,2.08l-4.7,8.39
			c-1.74-0.5-3.47-0.68-5.39-0.68h-53.44c-12.83,0-23.29,10.29-23.29,23.1v52.74c0,8.21,4.25,15.25,10.64,19.35l-18.45,27.75
			c-1.74-2.57-4.07-4.65-6.76-6.5c-4.8-3.07-10.6-4.47-16.31-3.79c-1.92-3.79-4.8-7.04-8.31-9.25c-7.81-5.14-17.68-5.32-25.49-1.04
			c-1.28-1.35-2.79-2.57-4.34-3.61c-10.64-6.86-24.76-4.78-32.57,4.96c-0.41,0.36-0.87,0.86-1.19,1.53l-38.64,57.84
			c-15.44,23.28-8.82,54.41,14.57,69.66l37.87,24.68c13.02,8.39,24.21,6.99,36.13,5.64c6.67-0.68,14.3-1.53,23.39-1.04
			c22.7,1.53,48.96,15.56,49.19,15.75c0.87,0.32,1.83,0.68,2.79,0.68c0.23,0,0.5-0.18,0.78-0.18c1.1-0.18,11.1-1.89,15.53-16.29
			c5.44-17.64-10.6-33.57-28.96-41.6c-11.01-4.96-18.32-6.5-23.39-7.35l76.14-114.14h14.11c12.93,0,23.29-10.47,23.29-23.1v-52.74
			C261.65,121.21,258.73,115.21,254.11,111.1z M173.17,180.76v-52.74c0-6.5,5.3-11.64,11.69-11.64h52.76l-25.53,45.57l-17.27-26.35
			c-1.74-2.75-5.39-3.43-8.04-1.71c-2.79,1.71-3.56,5.32-1.83,7.9l14.98,22.92c-3.84,1.89-7.08,4.47-9.46,8.03l-11.88,17.64
			C175.41,188.3,173.17,184.87,173.17,180.76z M218.21,191.73L133.3,319.09c-0.96,1.53-1.19,3.43-0.59,5.14
			c0.59,1.71,2.01,3.07,3.75,3.61c2.15,0.68,4.34,1.04,6.58,1.17c4.8,0.68,11.37,1.35,23.75,6.86
			c11.01,4.78,25.99,16.29,22.43,27.88c-1.46,4.6-3.47,6.68-4.8,7.53c-7.45-3.74-30.33-14.21-51.57-15.75
			c-2.51-0.18-4.84-0.18-7.13-0.18c-6.99,0-12.97,0.68-18.45,1.35c-11.33,1.22-18.86,2.03-28.23-4.11l-37.96-24.5
			c-18.04-11.78-23.07-35.78-11.19-53.55l38.64-58.02l-4.93-3.25l5.3,2.75c4.25-5.14,11.6-6.32,17.27-2.75
			c1.83,1.17,3.29,2.75,4.34,4.78c0.87,1.53,2.42,2.75,4.25,3.07c1.83,0.18,3.65-0.36,4.93-1.71c4.34-4.11,11.19-4.78,16.21-1.53
			c2.79,1.71,4.7,4.65,5.44,7.71c0.46,1.53,1.46,2.89,2.92,3.79c1.46,0.68,3.2,0.86,4.8,0.32c3.88-1.35,8.04-1.04,11.51,1.35
			c3.47,2.08,5.57,5.82,5.8,9.93c0.14,2.39,1.92,4.47,4.34,5.14c2.42,0.68,5.02-0.36,6.39-2.39l43.07-64.7
			c1.74-2.57,4.34-4.29,7.26-4.78c3.01-0.5,6.08,0.18,8.59,2.03C220.77,179.54,221.73,186.58,218.21,191.73z M250.05,180.76
			c0,6.36-5.25,11.64-11.69,11.64h-7.63c3.11-9.43,0.23-19.67-7.72-25.49c0,0-0.18,0-0.27-0.18l25.3-45.02
			c1.19,1.71,2.01,3.93,2.01,6.32V180.76z"/></g><g><path class="st0" d="M193.77,72.58h35.63c9.64,0,17.49-7.85,17.49-17.46v-35.1c0-9.61-7.9-17.28-17.49-17.28h-35.63
			c-9.68,0-17.49,7.71-17.49,17.28v35.1C176.28,64.73,184.09,72.58,193.77,72.58z M187.97,20.02c0-3.25,2.6-5.64,5.8-5.64h35.63
			c3.2,0,5.8,2.39,5.8,5.64v35.1c0,3.25-2.6,5.82-5.8,5.82h-35.63c-3.2,0-5.8-2.57-5.8-5.82L187.97,20.02L187.97,20.02z"/></g><g><path class="st0" d="M229.4,236.21h-9.45c-3.2,0-5.8,2.57-5.8,5.82c0,3.07,2.6,5.82,5.8,5.82h9.45c3.2,0,5.8,2.39,5.8,5.64v35.23
			c0,3.07-2.6,5.64-5.8,5.64h-35.63c-1.83,0-3.56-0.68-4.66-2.21c-1.92-2.57-5.57-2.89-8.13-1.04c-2.6,1.89-3.01,5.5-1.05,8.03
			c3.29,4.29,8.31,6.86,13.84,6.86h35.63c9.64,0,17.49-7.9,17.49-17.28v-35.23C246.94,243.92,239.04,236.21,229.4,236.21z"/></g><g><path class="st0" d="M75.61,189.33h35.63c9.64,0,17.49-7.9,17.49-17.28v-35.28c0-9.56-7.86-17.28-17.49-17.28H75.61
			c-9.73,0-17.49,7.71-17.49,17.28v35.28C58.12,181.44,65.93,189.33,75.61,189.33z M69.72,136.78c0-3.25,2.69-5.82,5.89-5.82h35.63
			c3.2,0,5.8,2.57,5.8,5.82v35.28c0,3.07-2.6,5.64-5.8,5.64H75.61c-3.2,0-5.89-2.57-5.89-5.64V136.78z"/></g><g><path class="st0" d="M75.61,72.58h35.63c9.64,0,17.49-7.85,17.49-17.46v-35.1c0-9.61-7.86-17.28-17.49-17.28H75.61
			c-9.73,0-17.49,7.71-17.49,17.28v35.1C58.12,64.73,65.93,72.58,75.61,72.58z M69.72,20.02c0-3.25,2.69-5.64,5.89-5.64h35.63
			c3.2,0,5.8,2.39,5.8,5.64v35.1c0,3.25-2.6,5.82-5.8,5.82H75.61c-3.2,0-5.89-2.57-5.89-5.82V20.02z"/></g><g><path class="st0" d="M347.61,119.5h-35.58c-9.64,0-17.49,7.71-17.49,17.28v35.28c0,9.43,7.9,17.28,17.49,17.28h35.58
			c9.68,0,17.49-7.9,17.49-17.28v-35.28C365.11,127.21,357.3,119.5,347.61,119.5z M353.41,172.01c0,3.07-2.6,5.64-5.8,5.64h-35.58
			c-3.2,0-5.8-2.57-5.8-5.64v-35.28c0-3.25,2.6-5.82,5.8-5.82h35.58c3.2,0,5.8,2.57,5.8,5.82V172.01z"/></g><g><path class="st0" d="M347.61,2.74h-35.58c-9.64,0-17.49,7.71-17.49,17.28v35.1c0,9.61,7.9,17.46,17.49,17.46h35.58
			c9.68,0,17.49-7.85,17.49-17.46v-35.1C365.11,10.45,357.3,2.74,347.61,2.74z M353.41,55.12c0,3.25-2.6,5.82-5.8,5.82h-35.58
			c-3.2,0-5.8-2.57-5.8-5.82v-35.1c0-3.25,2.6-5.64,5.8-5.64h35.58c3.2,0,5.8,2.39,5.8,5.64V55.12z"/></g><g><path class="st0" d="M347.61,236.21h-35.58c-9.64,0-17.49,7.71-17.49,17.28v35.23c0,9.43,7.9,17.28,17.49,17.28h35.58
			c9.68,0,17.49-7.9,17.49-17.28v-35.23C365.11,243.92,357.3,236.21,347.61,236.21z M353.41,288.77c0,3.07-2.6,5.64-5.8,5.64h-35.58
			c-3.2,0-5.8-2.57-5.8-5.64v-35.23c0-3.25,2.6-5.64,5.8-5.64h35.58c3.2,0,5.8,2.39,5.8,5.64V288.77z"/></g></g></svg>