<?xml version="1.0" encoding="utf-8"?><!--Generator: Adobe Illustrator 24.3.0, SVG Export Plug-In . SVG Version: 6.00 Build 0)--><svg version="1.1" id="Capa_1" xmlns="http://www.w3.org/2000/svg" xmlns:xlink="http://www.w3.org/1999/xlink" x="0px" y="0px" viewBox="0 0 386.94 385.63" style="enable-background:new 0 0 386.94 385.63" xml:space="preserve"><style type="text/css">.st0{fill:#0000FF;stroke:#0000FF;stroke-width:3.846;stroke-miterlimit:10;}
	.st1{fill:#0000FF;}</style><g><g><path class="st0" d="M379.09,308.28c-3.19,0-5.73,2.58-5.73,5.85v57.65H15.07v-57.65c0-3.23-2.58-5.85-5.85-5.85
			c-3.15,0-5.73,2.58-5.73,5.85v63.46c0,3.23,2.58,5.85,5.73,5.85h369.87c3.15,0,5.73-2.58,5.73-5.85v-63.46
			C384.82,310.9,382.24,308.28,379.09,308.28z"/></g><g><path class="st0" d="M379.09,82.95h-56.42l-105.92-53c0.35-1.54,0.5-3.08,0.5-4.81c0-12.69-10.38-23.15-23.08-23.15
			c-12.77,0-23.15,10.46-23.15,23.15c0,1.73,0.19,3.27,0.5,4.81l-105.88,53H9.22c-3.15,0-5.73,2.58-5.73,5.85v63.46
			c0,3.23,2.58,5.85,5.73,5.85c3.27,0,5.85-2.58,5.85-5.85V94.45h358.29v57.81c0,3.23,2.58,5.85,5.73,5.85
			c3.15,0,5.73-2.58,5.73-5.85V88.79C384.82,85.52,382.24,82.95,379.09,82.95z M194.21,13.64c6.35,0,11.58,5.15,11.58,11.5
			s-5.23,11.5-11.58,11.5c-6.42,0-11.58-5.15-11.58-11.5S187.75,13.64,194.21,13.64z M176.79,40.26c4.27,4.81,10.46,8.08,17.42,8.08
			s13.11-3.27,17.35-8.08l85.3,42.69H91.56L176.79,40.26z"/></g><g><path class="st1" d="M26.91,300.59c20.85,26.42,52.04,41.69,85.69,41.69c33.69,0,64.92-15.27,85.77-41.69
			c10.04-12.69,17.23-27.77,20.65-43.38c1.81-7.88,2.73-15.96,2.73-24c0-8.04-0.96-16.11-2.73-24
			c-3.46-15.81-10.65-30.69-20.65-43.38l0,0c-20.85-26.58-52.04-41.69-85.77-41.69c-33.61,0-64.81,15.08-85.69,41.69l0,0
			c-15.35,19.38-23.42,42.73-23.42,67.42S11.57,281.21,26.91,300.59L26.91,300.59z M135.79,327.86
			c11.5-10.11,20.92-22.11,27.96-35.34c0.5,0.19,1.04,0.19,1.54,0.35c1.88,0.54,3.69,1.04,5.46,1.73c1.23,0.19,2.42,0.69,3.62,1.04
			c1.88,0.69,3.85,1.38,5.77,2.04c1,0.35,2.04,0.69,3.08,1.19c0.35,0,0.69,0.19,1.12,0.35
			C171.14,313.44,154.33,323.24,135.79,327.86z M207.75,254.63c-2.85,12.54-8.31,24.69-15.81,35.15c-0.92-0.35-1.81-0.69-2.73-1.04
			c-1.46-0.69-2.92-1.04-4.46-1.73c-1.62-0.69-3.35-1.19-5.08-1.69c-1.46-0.69-3-1.04-4.54-1.54c-1.81-0.5-3.5-1.23-5.23-1.54
			c-0.42-0.19-0.85-0.35-1.31-0.35c5.58-13.38,8.85-27.96,9.42-42.88h31.73C209.48,244.17,208.87,249.48,207.75,254.63z
			 M189.06,177.63c0.96-0.35,2-0.69,2.92-1.19c7.46,10.61,12.96,22.81,15.81,35.31c1.12,5.15,1.73,10.31,2.04,15.61h-31.81
			c-0.69-14.92-4.12-29.35-9.88-42.73c0.5-0.15,0.96-0.35,1.46-0.5c1.88-0.5,3.77-1.04,5.73-1.54c1.38-0.5,2.73-1,4.19-1.54
			c1.81-0.5,3.62-1.19,5.42-1.69C186.33,178.63,187.67,178.13,189.06,177.63z M184.33,167.14c-0.35,0-0.69,0.19-1.04,0.35
			c-1.12,0.5-2.31,0.85-3.42,1.19c-1.81,0.69-3.62,1.38-5.5,2.04c-1.12,0.35-2.38,0.69-3.5,1.04c-1.88,0.69-3.77,1.19-5.65,1.73
			c-0.69,0.15-1.46,0.35-2.15,0.5c-7.38-13.58-17.15-25.92-29.08-36.04C153.29,142.29,170.71,152.25,184.33,167.14z M118.41,140.41
			c13.54,9.62,24.69,22.11,32.92,36.19c-1.81,0.35-3.69,0.69-5.5,1.04c-1.12,0.19-2.31,0.35-3.42,0.5c-2.23,0.35-4.46,0.5-6.77,0.85
			c-1,0-1.96,0.19-3,0.35c-2.65,0.15-5.23,0.35-7.88,0.5c-0.69,0-1.38,0.19-2.04,0.19c-1.46,0-2.85,0-4.27,0.15v-39.77H118.41z
			 M118.41,191.67c1.62,0,3.35-0.19,4.96-0.19c1.04-0.19,1.96-0.19,3-0.19c2.58-0.19,5.15-0.35,7.73-0.69
			c1.27,0,2.46-0.19,3.77-0.35c2.23-0.35,4.54-0.54,6.88-0.85c1.38-0.19,2.65-0.54,4.04-0.69c2.15-0.35,4.27-0.69,6.42-1.23
			c0.5,0,1-0.15,1.54-0.15c5.58,12.5,8.92,26.08,9.69,39.96h-48v-35.61H118.41z M118.41,239.02h48.11
			c-0.62,14.08-3.85,27.61-9.27,40.11c-0.69-0.19-1.46-0.35-2.23-0.5c-1.88-0.35-3.85-0.69-5.85-1.04c-1.54-0.19-3.08-0.5-4.65-0.69
			c-2.04-0.35-4.12-0.5-6.15-0.85c-1.46-0.15-2.92-0.35-4.38-0.5c-2.31-0.19-4.65-0.35-6.96-0.5c-1.19,0-2.46-0.19-3.77-0.19
			c-1.62-0.19-3.23-0.19-4.88-0.19v-35.65H118.41z M118.41,286.17c1.38,0.15,2.65,0.15,4.04,0.15c1.23,0,2.42,0.19,3.62,0.19
			c2.15,0.19,4.19,0.35,6.35,0.5c1.38,0.19,2.65,0.19,4.04,0.35c1.88,0.35,3.85,0.5,5.77,0.69c1.38,0.35,2.73,0.5,4.12,0.69
			c1.88,0.35,3.77,0.69,5.58,1.04c0.08,0,0.08,0,0.08,0c-8.08,14.58-19.46,27.11-33.54,37.23v-40.84H118.41z M40.87,299.21
			c0.42-0.19,0.77-0.35,1.12-0.35c1.04-0.5,2.08-0.85,3-1.19c2-0.69,3.85-1.38,5.85-2.04c1.12-0.35,2.31-0.69,3.54-1.04
			c1.81-0.69,3.65-1.19,5.58-1.73c0.77-0.15,1.62-0.35,2.31-0.69c7.54,13.73,17.58,26.08,29.85,36.38
			C72.45,324.44,54.68,314.13,40.87,299.21z M106.83,325.48c-13.58-9.77-24.61-21.96-32.77-35.84c1.62-0.35,3.23-0.5,4.88-0.85
			c1.38-0.19,2.73-0.35,4.04-0.69c2-0.19,3.96-0.35,5.92-0.69c1.31-0.19,2.58-0.19,3.96-0.35c2.15-0.15,4.19-0.35,6.35-0.5
			c1.23,0,2.31-0.19,3.5-0.19c1.38,0,2.77,0,4.12-0.15V325.48z M106.83,274.67c-1.73,0-3.35,0-4.96,0.19
			c-1.23,0-2.31,0.19-3.46,0.19c-2.46,0.19-4.88,0.35-7.31,0.5c-1.38,0.19-2.73,0.35-4.12,0.5c-2.15,0.35-4.27,0.54-6.42,0.85
			c-1.54,0.19-2.92,0.5-4.38,0.69c-2.08,0.35-4.04,0.69-6.08,1.04c-0.5,0.19-1.04,0.19-1.54,0.35c-5.73-12.54-9.15-26.08-9.85-39.96
			h48.11V274.67z M106.83,227.36H58.72c0.77-13.88,4.19-27.46,9.77-39.96c0.5,0,1.12,0.15,1.62,0.35c1.96,0.35,3.96,0.69,6,0.85
			c1.46,0.35,2.92,0.69,4.46,0.85c2.04,0.35,4.19,0.5,6.35,0.85c1.38,0,2.85,0.15,4.19,0.35c2.42,0.35,4.88,0.35,7.31,0.69
			c1.12,0,2.23,0,3.46,0.19c1.62,0,3.23,0.19,4.96,0.19V227.36z M106.83,180.17c-1.46-0.15-2.85-0.15-4.27-0.15
			c-0.77,0-1.54-0.19-2.23-0.19c-2.58-0.19-5.15-0.35-7.65-0.5c-1.12-0.19-2.23-0.35-3.23-0.35c-2.23-0.35-4.38-0.5-6.5-0.85
			c-1.31-0.19-2.5-0.35-3.69-0.5c-1.81-0.35-3.62-0.69-5.31-1.04c8.15-14.04,19.38-26.58,32.92-36.19v39.77H106.83z M91.22,137.98
			c-11.85,10.11-21.69,22.46-29.08,36.04c-0.77-0.19-1.46-0.35-2.23-0.5c-1.81-0.54-3.69-1.04-5.5-1.54
			c-1.19-0.54-2.46-0.85-3.69-1.23c-1.81-0.69-3.62-1.38-5.31-1.88c-1.23-0.5-2.42-0.85-3.62-1.38c-0.27-0.19-0.62-0.35-0.96-0.35
			C54.41,152.25,71.91,142.29,91.22,137.98z M33.22,176.4c0.96,0.5,2,0.85,2.92,1.19c1.38,0.5,2.77,1,4.12,1.73
			c1.69,0.5,3.5,1.19,5.31,1.69c1.46,0.54,2.92,1.04,4.38,1.54c1.81,0.5,3.65,1.04,5.46,1.54c0.62,0.19,1.12,0.35,1.62,0.5
			c-5.73,13.38-9.19,27.77-9.96,42.73H15.18C16.33,209.02,22.45,191.52,33.22,176.4z M47.14,239.02
			c0.69,14.77,4.12,29.15,9.96,42.73c-0.54,0.15-1.04,0.35-1.62,0.5c-1.88,0.35-3.69,1.04-5.46,1.54c-1.46,0.5-3,0.85-4.46,1.54
			c-1.73,0.5-3.46,1-5.15,1.69c-1.46,0.69-2.92,1.04-4.38,1.73c-0.85,0.35-1.81,0.69-2.77,1.04c-10.81-14.92-16.88-32.42-18-50.77
			H47.14z"/></g><g><path class="st1" d="M382.21,209.17c-3.54-15.61-10.65-30.69-20.65-43.38l0,0l0,0c-20.92-26.58-52.15-41.69-85.77-41.69
			c-26,0-51.11,9.27-70.84,26.08c-2.42,2.08-2.65,5.85-0.62,8.23c2.04,2.42,5.73,2.73,8.12,0.5c12.11-10.27,26.5-17.31,41.77-20.73
			c-12.96,10.96-23.58,24.5-31.19,39.96c-0.08,0.19-0.08,0.5-0.19,0.69c-0.08,0.19-0.23,0.35-0.23,0.54c-0.08,0.15,0,0.35,0,0.5
			c-0.08,0.35-0.08,0.85-0.08,1.19c0.08,0.35,0.08,0.69,0.15,1.04c0.08,0.35,0.27,0.69,0.42,1c0.08,0.35,0.27,0.69,0.5,1.04
			c0.19,0.19,0.42,0.5,0.69,0.69c0.35,0.35,0.62,0.5,0.96,0.69c0.19,0.19,0.27,0.35,0.42,0.35c0.19,0.15,0.42,0.15,0.62,0.15
			c0.23,0.19,0.42,0.19,0.62,0.35c13.96,3.23,28.46,4.81,43.15,5.15v35.84H238.4c-3.19,0-5.85,2.58-5.85,5.85
			c0,3.27,2.65,5.85,5.85,5.85h31.65v35.65c-3.35,0-6.69,0.19-9.96,0.35c-0.42,0.19-0.77,0.19-1.19,0.19
			c-5.23,0.5-10.46,1-15.61,1.69c-0.15,0-0.35,0-0.5,0c-5.42,0.85-10.62,1.88-15.85,3.08c-0.19,0-0.42,0.19-0.62,0.19
			c-0.27,0.19-0.42,0.19-0.62,0.35c-0.15,0-0.23,0.19-0.42,0.19c-0.35,0.19-0.62,0.5-0.96,0.85c-0.23,0.19-0.5,0.35-0.69,0.69
			c-0.23,0.35-0.42,0.69-0.5,1.04c-0.19,0.35-0.35,0.5-0.42,0.85c-0.08,0.19-0.15,0.35-0.15,0.54c-0.08,0.15,0,0.35,0,0.69
			c0,0.35,0,0.69,0.08,1.19c0,0-0.08,0.19,0,0.35c0,0.35,0.15,0.5,0.23,0.69c0.08,0.15,0.08,0.35,0.19,0.5
			c7.65,15.61,18.35,29.15,31.38,40.11c-15.35-3.42-29.85-10.46-41.92-20.92c-2.38-2.04-6.08-1.73-8.12,0.69
			c-2.08,2.38-1.81,6,0.62,8.08c19.73,17,44.84,26.23,70.84,26.23c33.61,0,64.92-15.27,85.77-41.69
			c10.04-12.69,17.15-27.77,20.65-43.38c1.81-7.88,2.65-15.96,2.65-24l0,0l0,0C384.82,224.94,383.97,217.06,382.21,209.17z
			 M373.01,227.36h-31.81c-0.62-15.27-3.54-29.85-8.5-43.23c7.73-2.04,15.19-4.65,22.23-7.69c7.62,10.61,13.19,22.81,16.04,35.31
			C372.05,216.9,372.67,222.02,373.01,227.36z M328.05,173.33c-6.5-13.19-15-24.88-25.19-33.81c17,4.96,32.42,14.23,44.58,27.61
			C341.36,169.56,334.75,171.6,328.05,173.33z M281.52,138.67c14.23,7.54,26.35,20.92,34.84,37.38c-11.23,2.23-23,3.62-34.84,3.96
			V138.67z M236.98,176.6c8.23-14.38,19.46-26.58,33-36.19v39.61C258.86,179.67,247.79,178.63,236.98,176.6z M281.52,191.52
			c13.58-0.35,26.92-1.88,39.69-4.46c4.88,12.35,7.81,26.08,8.38,40.31h-48.11v-35.84H281.52z M329.59,239.02
			c-0.62,14.08-3.5,27.77-8.38,40.31c-3.5-0.85-7.19-1.38-10.88-1.88c-0.62-0.15-1.38-0.35-2-0.35c-4.81-0.69-9.69-1.38-14.5-1.73
			c-0.69,0-1.27,0-1.96-0.15c-3.42-0.19-6.88-0.35-10.38-0.54v-35.65C281.48,239.02,329.59,239.02,329.59,239.02z M337.67,295.78
			c2.08,0.69,4.04,1.38,5.92,2.08c1.27,0.5,2.5,1,3.77,1.54c-12.27,13.19-27.69,22.65-44.58,27.46
			c10.19-8.92,18.77-20.58,25.23-33.96c0.5,0.19,1,0.35,1.46,0.35C332.28,294.09,335.02,294.94,337.67,295.78z M292.56,286.86
			c2.15,0.15,4.27,0.35,6.42,0.69c3,0.35,6.08,0.69,9.12,1.19c2.15,0.35,4.27,0.69,6.42,1.04c0.62,0.15,1.19,0.35,1.81,0.35
			c-8.58,16.61-20.58,30-34.84,37.38v-41.15c0.5,0,0.96,0,1.38,0C286.13,286.52,289.29,286.71,292.56,286.86z M236.98,289.78
			c2.65-0.54,5.31-1.04,8.08-1.38c1.38-0.35,2.85-0.35,4.19-0.5c3.85-0.5,7.65-0.85,11.58-1.19c1.88-0.19,3.69-0.19,5.58-0.19
			c1.19-0.19,2.38-0.19,3.62-0.19v39.46C256.44,316.21,245.25,304.01,236.98,289.78z M355.09,289.78c-0.19,0-0.54-0.19-0.69-0.19
			c-4.12-1.73-8.38-3.27-12.77-4.81c-0.62-0.15-1.19-0.35-1.88-0.5c-2.31-0.85-4.65-1.54-7.04-2.23c4.96-13.19,7.88-27.96,8.5-43.04
			h31.81c-0.35,5.15-0.96,10.46-2.04,15.61C368.13,267.13,362.63,279.32,355.09,289.78z"/></g></g></svg>