<?xml version="1.0" encoding="utf-8"?><!--Generator: Adobe Illustrator 24.3.0, SVG Export Plug-In . SVG Version: 6.00 Build 0)--><svg version="1.1" id="Capa_1" xmlns="http://www.w3.org/2000/svg" xmlns:xlink="http://www.w3.org/1999/xlink" x="0px" y="0px" viewBox="0 0 382.64 382.55" style="enable-background:new 0 0 382.64 382.55" xml:space="preserve"><style type="text/css">.st0{fill:#0000FF;stroke:#0000FF;stroke-width:4.47;stroke-miterlimit:10;}</style><g><path class="st0" d="M379.4,96.78c0-0.67-0.09-1.34-0.31-2.01c0,0-0.18-0.18-0.18-0.36c-0.18-0.36-0.31-0.67-0.58-1.03
		l-35.89-46.71V31.61C342.43,15.87,329.64,3,313.91,3H68.59C52.9,3,40.17,15.87,40.17,31.61v15.06L4.27,93.38
		c-0.36,0.36-0.45,0.67-0.67,1.03c0,0.18-0.09,0.36-0.09,0.36c-0.27,0.67-0.45,1.34-0.45,2.01c0,0,0,0,0,0.18
		c0,18.77,16.18,34.02,36.07,34.02c0.36,0,0.67,0,1.03,0v151.53c0,15.73,12.78,28.61,28.43,28.61h85.74l-4.74,33.7
		c-19.4,4.74-37.64,12.87-53.06,24.41c-1.92,1.52-2.68,4.07-1.92,6.44c0.76,2.19,2.95,3.89,5.41,3.89h182.51
		c2.46,0,4.65-1.7,5.41-3.89c0.76-2.37,0-4.92-1.92-6.44c-15.42-11.53-33.7-19.62-53.06-24.41l-4.65-33.7h85.65
		c15.73,0,28.52-12.87,28.52-28.61V130.98c0.22,0,0.58,0,0.94,0c19.89,0,36.16-15.24,36.16-34.02
		C379.48,96.78,379.4,96.78,379.4,96.78z M283.2,48.68l20.56,42.51H256.6l-10.59-42.51C246.01,48.68,283.2,48.68,283.2,48.68z
		 M234.3,48.68l10.5,42.51h-47.83V48.68H234.3z M185.53,91.19h-47.92l10.59-42.51h37.32V91.19z M125.95,91.19H78.65L99.3,48.68
		h37.15L125.95,91.19z M123.93,102.55c-2.77,9.83-12.43,17.08-23.96,17.08s-21.19-7.29-23.96-17.08H123.93z M184.68,102.55
		c-2.68,9.83-12.38,17.08-23.87,17.08c-11.49,0-21.19-7.29-23.96-17.08H184.68z M245.56,102.55c-2.73,9.83-12.43,17.08-23.87,17.08
		c-11.53,0-21.23-7.29-23.96-17.08H245.56z M306.49,102.55c-2.77,9.83-12.43,17.08-23.96,17.08s-21.14-7.29-23.96-17.08H306.49z
		 M316.59,91.19l-20.65-42.51h33.7l32.59,42.51H316.59z M68.59,14.49h245.32c9.39,0,17.08,7.6,17.08,17.08v5.59h-44.12h-48.05
		h-47.47h-0.09l0,0h-47.47h-48.1H51.47v-5.59C51.47,22.13,59.16,14.49,68.59,14.49z M52.9,48.68h33.7L65.96,91.19H20.32L52.9,48.68z
		 M15.22,102.55h47.83c-2.68,9.83-12.43,17.08-23.96,17.08C27.69,119.62,17.95,112.34,15.22,102.55z M119.51,367.98
		c42.82-22.66,100.67-22.66,143.4,0H119.51z M221.02,342.23c-19.53-3.4-39.96-3.4-59.59,0l4.43-31.16h50.87L221.02,342.23z
		 M313.86,299.59H221.6h-60.79H68.55c-9.39,0-17.12-7.6-17.12-17.08l0,0h279.51l0,0C330.94,291.99,323.25,299.59,313.86,299.59z
		 M143.2,262.48c0-4.74,3.89-8.45,8.63-8.45c4.65,0,8.54,3.71,8.54,8.45s-3.89,8.63-8.54,8.63
		C147.13,271.16,143.2,267.27,143.2,262.48z M218.56,262.48c0-4.74,3.89-8.45,8.63-8.45c4.65,0,8.45,3.71,8.45,8.45
		s-3.8,8.63-8.45,8.63C222.45,271.16,218.56,267.27,218.56,262.48z M241.58,191.54H138.6l-4.47-17.08h111.04L241.58,191.54z
		 M239.22,203.08l-3.62,17.08h-89.45l-4.47-17.08H239.22z M330.94,271.16h-85.82c1.21-2.68,1.92-5.59,1.92-8.63
		c0-5.41-2.19-10.33-5.77-14.04l4.47-21.5l0,0l11.93-57.08l0,0l0.49-2.55c2.01-9.48,10.5-16.4,20.16-16.4
		c3.13,0,5.68-2.55,5.68-5.77c0-3.04-2.55-5.59-5.68-5.59c-14.39,0-26.91,9.66-30.71,23.56H126.57c-1.7,0-3.4,0.85-4.47,2.19
		c-1.07,1.34-1.43,3.22-0.98,4.92l15.06,57.04c0.58,2.55,2.86,4.25,5.5,4.25h91.5l-2.37,11.53c-1.16-0.31-2.46-0.49-3.62-0.49
		c-11,0-19.98,8.98-19.98,19.98c0,3.04,0.76,5.95,1.92,8.63h-39.38c1.3-2.68,2.06-5.59,2.06-8.63c0-11-8.98-19.98-19.98-19.98
		c-11,0-19.98,8.98-19.98,19.98c0,3.04,0.76,5.95,2.01,8.63H51.43V128.92c7.55-2.55,13.9-7.42,18.1-13.72
		c6.44,9.48,17.61,15.73,30.4,15.73s23.96-6.26,30.4-15.73c6.44,9.48,17.7,15.73,30.49,15.73c12.78,0,23.96-6.26,30.4-15.73
		c6.44,9.48,17.7,15.73,30.49,15.73s23.96-6.26,30.4-15.73c6.44,9.48,17.7,15.73,30.44,15.73c12.78,0,23.96-6.26,30.4-15.56
		c4.25,6.12,10.59,11,18.01,13.54L330.94,271.16L330.94,271.16z M343.32,119.62c-11.53,0-21.14-7.29-23.96-17.08h47.92
		C364.47,112.34,354.81,119.62,343.32,119.62z"/></g></svg>