<?xml version="1.0" encoding="utf-8"?><!--Generator: Adobe Illustrator 24.3.0, SVG Export Plug-In . SVG Version: 6.00 Build 0)--><svg version="1.1" id="Capa_1" xmlns="http://www.w3.org/2000/svg" xmlns:xlink="http://www.w3.org/1999/xlink" x="0px" y="0px" viewBox="0 0 313.28 384.43" style="enable-background:new 0 0 313.28 384.43" xml:space="preserve"><style type="text/css">.st0{fill:#0000FF;stroke:#0000FF;stroke-width:4.3884;stroke-miterlimit:10;}</style><g><path class="st0" d="M302.08,352.87h-88.47c-2.46-10.05-11.41-17.55-22.25-17.55h-29.53v-29.71c36.86-1.36,73.37-16.06,101.5-44.19
		c59.2-59.2,59.2-155.44,0-214.64c-59.11-59.2-155.44-59.2-214.64,0c-59.11,59.2-59.11,155.44,0,214.64
		c28.13,28.13,64.69,42.83,101.59,44.19v29.71h-29.58c-10.58,0-19.53,7.33-22.21,17.55H10.03c-3.25,0-5.79,2.59-5.79,5.66
		c0,3.25,2.55,5.79,5.79,5.79H98.5c2.41,10.05,11.45,17.6,22.21,17.6h70.65c10.66,0,19.62-7.33,22.16-17.6h88.56
		c3.16,0,5.79-2.59,5.79-5.79C307.87,355.46,305.24,352.87,302.08,352.87z M258.9,249.31c-9.04-8.56-18.96-15.71-29.36-21.5
		c10.01-20.98,15.71-44.02,16.63-67.89h49.72C294.62,192.17,282.33,224.07,258.9,249.31z M214,233.11
		c-12.64,22.34-30.37,41.95-52.22,56.65v-69.12C179.64,221.53,197.37,225.61,214,233.11z M161.78,209.07v-49.15h72.85
		c-0.83,21.99-6.23,43.31-15.36,62.8C201.06,214.33,181.44,209.9,161.78,209.07z M224.23,238.25c9.39,5.31,18.26,11.59,26.51,19.13
		c-21.15,19.44-46.74,31.25-73.37,35.33C196.71,277.66,212.64,259.23,224.23,238.25z M161.78,148.46V99.18
		c19.7-0.7,39.32-5.31,57.58-13.65c9.3,19.62,14.57,40.94,15.27,62.97h-72.85V148.46z M161.78,87.55V18.61
		c21.9,14.66,39.67,34.32,52.22,56.65C197.46,82.77,179.73,86.89,161.78,87.55z M177.14,15.71c26.81,4.08,52.4,15.71,73.64,35.15
		c-8.25,7.5-17.07,14-26.42,19.13C212.64,49.15,196.63,30.55,177.14,15.71z M87.84,70.17c-9.39-5.31-18.34-11.59-26.51-19.31
		c21.15-19.27,46.74-31.07,73.37-35.15C115.35,30.55,99.42,49.15,87.84,70.17z M150.28,18.61v68.94
		c-17.9-0.7-35.59-4.78-52.22-12.29C110.61,52.75,128.34,33.13,150.28,18.61z M92.75,85.71c18.26,8.16,37.78,12.77,57.49,13.47
		v49.33H77.39C78.27,126.48,83.62,105.15,92.75,85.71z M150.28,159.92v49.15c-19.7,0.88-39.32,5.31-57.58,13.65
		c-9.3-19.44-14.57-40.94-15.36-62.8H150.28z M150.28,220.65v69.12c-21.94-14.83-39.76-34.32-52.31-56.65
		C114.61,225.61,132.38,221.53,150.28,220.65z M134.92,292.67c-26.68-4.08-52.49-15.89-73.59-35.33
		c8.16-7.33,17.07-13.82,26.42-19.13C99.42,259.23,115.44,277.66,134.92,292.67z M295.89,148.46h-49.68
		c-0.75-23.87-6.54-46.91-16.63-68.06c10.4-5.79,20.23-12.95,29.27-21.33C282.24,84.3,294.62,116.25,295.89,148.46z M53.08,59.07
		c9.13,8.38,19.05,15.53,29.45,21.33c-9.96,21.15-15.8,44.19-16.63,68.06H16.09C17.45,116.25,29.73,84.3,53.08,59.07z M16.09,159.92
		h49.81c0.7,23.7,6.49,46.91,16.54,68.06c-10.4,5.79-20.23,12.95-29.36,21.33C29.73,224.07,17.45,192.17,16.09,159.92z
		 M191.32,370.3h-70.65c-6.32,0-11.41-5.13-11.41-11.94c0-6.32,5.13-11.41,11.41-11.41h70.65c6.41,0,11.5,5.13,11.5,11.94
		C202.81,365.21,197.72,370.3,191.32,370.3z"/></g></svg>