<?xml version="1.0" encoding="utf-8"?><!--Generator: Adobe Illustrator 24.3.0, SVG Export Plug-In . SVG Version: 6.00 Build 0)--><svg version="1.1" id="Capa_1" xmlns="http://www.w3.org/2000/svg" xmlns:xlink="http://www.w3.org/1999/xlink" x="0px" y="0px" viewBox="0 0 386.94 385.63" style="enable-background:new 0 0 386.94 385.63" xml:space="preserve"><style type="text/css">.st0{fill:#0000FF;stroke:#0000FF;stroke-width:3.7487;stroke-miterlimit:10;}</style><g><g><polygon class="st0" points="89.9,241.06 91.59,240.24 95.14,238.53 		"/></g><g><path class="st0" d="M306.95,205.19c-2.94-1.19-6.38,0.19-7.66,3.05c-4.15,9.54-9.13,19.37-13.85,29.09
			c-7.92,15.79-16.03,32.14-21.54,48.46h-51.31v-32.96c0-9.68,8.11-17.69,18-17.69c3.21,0,5.77-2.72,5.77-5.77
			c0-3.24-2.57-5.77-5.77-5.77c-16.34,0-29.62,13.26-29.62,29.24v32.96h-16.79v-32.96c0-15.98-13.36-29.24-29.62-29.24
			c-3.21,0-5.77,2.53-5.77,5.77c0,3.05,2.57,5.77,5.77,5.77c9.88,0,18,8.01,18,17.69v32.96h-56.4
			c-5.36-15.64-13.24-31.77-21.01-47.27l-3.55,1.71l-6.87,3.39c6.98,13.93,13.96,28.23,19.02,42.16h-3.62
			c-3.21,0-5.77,2.57-5.77,5.77c0,3.05,2.57,5.77,5.77,5.77h6.45v17.02h-6.45c-3.21,0-5.77,2.53-5.77,5.62
			c0,3.24,2.57,5.77,5.77,5.77h6.45v11.4c0,9.35,7.77,17.02,17.39,17.02h20.26c3.51,15.64,24.18,27.19,50.03,27.19
			c24.98,0,44.86-11.73,47.01-27.19h15.66c9.66,0,17.39-7.64,17.39-17.02v-11.4h5.7c3.21,0,5.77-2.53,5.77-5.77
			c0-3.05-2.57-5.62-5.77-5.62h-5.7v-17.02h5.7c3.21,0,5.77-2.72,5.77-5.77c0-3.2-2.57-5.77-5.77-5.77h-3.77
			c5.17-14.45,12.49-29.09,19.54-43.36c4.9-9.68,9.88-19.74,14.19-29.76C311.29,209.78,309.89,206.57,306.95,205.19z M194.25,369.76
			c-17.73,0-33.58-6.78-37.8-15.64h72.93C226.7,362.12,213.01,369.76,194.25,369.76z M262.81,337.13c0,3.05-2.68,5.62-5.89,5.62
			h-21.28h-86.17h-25.5c-3.24,0-5.85-2.57-5.85-5.62v-11.4h144.69C262.81,325.73,262.81,337.13,262.81,337.13z M118.12,314.37
			v-17.02h144.69v17.02H118.12z"/></g><g><path class="st0" d="M333.66,94.34c0.08-0.67,0.26-1.34,0.34-2.05c2.15-13.07-1.06-26.52-9.05-37.4
			c-7.92-10.88-19.73-18.03-33.16-20.04c-13.85-2.2-27.88,1.34-38.82,9.54c-5.77-20.56-23.43-36.88-45.46-40.3
			c-27.05-4.28-52.71,11.21-61.72,35.68c-7.66-8.01-17.73-13.41-29.13-15.12c-13.43-2.2-26.86,1.04-37.88,8.83
			C67.75,41.3,60.51,52.85,58.36,66.11c-0.68,4.25-0.87,8.34-0.53,12.4c-24.45,9.87-41.92,31.47-46.14,57.29
			c-3.17,19.74,1.55,39.45,13.36,55.76c11.88,16.17,29.35,26.71,49.35,29.91c4.04,0.67,8.19,1.01,12.22,1.01
			c20,0,39.01-7.82,53.24-22.09c7.24,6.44,16.19,10.69,25.84,12.25c19.35,3.05,38.56-5.1,49.69-20.75
			c4.64,2.38,9.66,3.91,14.83,4.77c19.73,3.05,39.2-5.44,50.1-21.27c7.73,8.68,18.34,14.64,30.22,16.5
			c13.43,2.05,26.86-1.04,37.88-8.83c11.02-8.01,18.26-19.56,20.41-32.82C372.82,125.45,357.36,101.65,333.66,94.34z M357.36,148.43
			c-1.62,10.17-7.24,19.22-15.77,25.33c-8.53,6.11-18.86,8.49-29.28,6.97c-10.75-1.86-20.22-7.82-26.26-16.65
			c1.02-3.05,1.89-5.96,2.41-9.01c0.68-4.25,0.83-8.49,0.42-12.74c-0.26-3.05-3.09-5.44-6.26-5.1c-3.21,0.34-5.62,3.05-5.24,6.29
			c0.34,3.24,0.15,6.44-0.34,9.68c-0.53,3.24-1.47,6.29-2.75,9.35l0,0c-7.06,16.17-24.56,25.66-42.29,22.8
			c-3.85-0.52-7.58-1.86-11.09-3.43c1.47-3.58,2.49-7.15,3.09-10.88c0.94-5.62,0.87-11.4-0.08-16.99c-0.6-3.05-3.62-5.1-6.79-4.58
			c-3.09,0.67-5.17,3.58-4.64,6.63c0.79,4.25,0.87,8.68,0.08,13.07c-0.68,4.43-2.08,8.49-4.23,12.4l0,0c0,0.19-0.08,0.19-0.08,0.19
			c-8.11,14.27-24.37,22.09-40.63,19.56c-7.58-1.19-14.56-4.58-20.15-9.68c6.11-8.31,10.56-17.84,12.83-27.9
			c0.68-3.05-1.28-6.11-4.38-6.78c-3.21-0.67-6.26,1.19-6.98,4.43c-2.15,9.87-6.9,19.37-13.54,27.19h-0.08
			c-0.08,0-0.26,0.19-0.34,0.34c-14.64,16.84-36.52,24.84-58.74,21.23c-16.86-2.53-31.65-11.73-41.77-25.33
			c-10-13.6-14.04-30.43-11.28-47.08c3.43-21.23,17.58-38.92,37.28-47.6c3.51,10.54,10.68,19.89,20.22,26
			c0.94,0.67,2.08,1.04,3.21,1.04c1.89,0,3.7-1.04,4.83-2.57c1.81-2.72,1.06-6.29-1.62-8.01c-8.87-5.77-15.17-14.97-17.05-25.33
			h-0.08v-0.19v-0.15c-0.79-4.28-0.79-8.68-0.08-12.93c1.62-10.21,7.24-19.22,15.77-25.33c8.53-5.92,18.86-8.49,29.28-6.78
			c11.7,1.86,21.77,8.68,27.73,18.88c-0.79,9.87,1.06,19.56,5.36,28.57c1.02,1.86,3.09,3.05,5.24,3.05c0.87,0,1.7-0.19,2.57-0.52
			c2.83-1.34,4.07-4.77,2.68-7.67c-3.77-7.64-5.17-15.98-4.23-24.29l0,0c0.08-0.67,0.19-1.34,0.26-2.05
			c3.89-23.99,26.94-40.3,51.24-36.58c19.88,3.24,35.31,19.56,37.35,39.11c-4.9,6.44-8.26,13.93-9.55,22.13
			c-0.53,3.05,1.62,5.92,4.75,6.63c0.34,0,0.68,0,0.94,0c2.83,0,5.24-2.05,5.77-4.77c1.09-6.97,4.04-13.41,8.53-18.7l0,0
			c0.08-0.19,0.26-0.34,0.45-0.52c8.87-10.21,22.56-15.16,36.07-13.07c10.34,1.68,19.39,7.3,25.58,15.64
			c6.19,8.34,8.6,18.7,6.98,28.9c-0.08,0.67-0.26,1.04-0.34,1.71c-7.85-0.52-15.7,0.52-22.9,3.39c-2.94,1.19-4.38,4.58-3.21,7.49
			c0.94,2.2,3.09,3.58,5.43,3.58c0.68,0,1.47-0.19,2.15-0.34c6.64-2.72,13.96-3.58,21.09-2.38l0.79,0.15
			C346.41,107.79,360.68,127.68,357.36,148.43z"/></g></g></svg>