<?xml version="1.0" encoding="utf-8"?>
<!-- Generator: Adobe Illustrator 24.3.0, SVG Export Plug-In . SVG Version: 6.00 Build 0)  -->
<svg version="1.1" id="Capa_1" xmlns="http://www.w3.org/2000/svg" xmlns:xlink="http://www.w3.org/1999/xlink" x="0px" y="0px"
	 viewBox="0 0 451.37 472.85" style="enable-background:new 0 0 451.37 472.85;" xml:space="preserve">
<style type="text/css">
	.st0{fill:#0000FF;}
</style>
<g>
	<g>
		<path class="st0" d="M107.31,93.77c-0.12-0.86-0.31-1.71-0.62-2.53h-0.12L60.07,3.81c-2.53-4.67-10.23-4.67-12.65,0L0.86,91.24
			l0,0c-0.43,0.86-0.62,1.71-0.74,2.53C0.12,93.77,0,94,0,94.2c0,0.19,0,0.19,0,0.43V399.2l0,0l0,0c0,0,0,0,0,0.23v58.91
			c0,3.19,2.02,5.95,4.9,6.81c16.07,5.1,32.45,7.63,48.83,7.63c16.38,0,32.88-2.53,48.83-7.63c3-0.86,4.9-3.62,4.9-6.81V399.2V94.62
			c0-0.23,0-0.23,0-0.43C107.43,94,107.43,93.77,107.31,93.77z M85.4,395.62c-2.14,0.66-4.24,1.05-6.38,1.28
			c-1.36,0.43-2.76,0.62-4.12,0.86c-2.33,0.23-4.79,0.43-7.16,0.62c-1.17,0.23-2.22,0.43-3.38,0.43c-1.17,0.23-2.33,0.23-3.5,0.23
			V108.9c10.86-0.43,21.71-1.91,32.33-4.67v289.48c-1.17,0.19-2.33,0.62-3.5,0.86C88.28,394.96,86.77,395.42,85.4,395.62z
			 M39.76,398.58c-2.45-0.43-4.86-0.62-7.24-0.86c-1.36-0.23-2.65-0.43-4.05-0.62c-2.14-0.43-4.4-0.86-6.5-1.52
			c-1.4-0.19-2.88-0.62-4.28-1.05c-1.17-0.23-2.22-0.66-3.5-0.86V104.2c10.66,2.76,21.52,4.24,32.25,4.67V399
			c-1.05,0-2.26,0-3.38-0.23C42.02,398.81,40.85,398.58,39.76,398.58z M31.48,64c7.35,2.1,14.79,3.19,22.26,3.19
			c7.43,0,14.86-1.05,22.22-3.19l13.81,26.15c-11.79,3-23.81,4.67-35.95,4.67c0,0,0,0-0.12,0h-0.23c-12.02,0-24.01-1.71-35.83-4.67
			L31.48,64z M53.69,22.33l15.21,28.71c-10,2.33-20.43,2.33-30.39,0L53.69,22.33z M93.15,453.05c-25.95,7.43-52.95,7.43-78.91,0
			v-44.47c0.54,0.23,1.05,0.23,1.6,0.43c1.17,0.19,2.45,0.43,3.62,0.86c2.53,0.43,5.1,1.05,7.63,1.48c1.4,0.23,2.65,0.43,4.05,0.62
			c2.53,0.43,5.1,0.66,7.63,0.86c1.17,0,2.45,0.23,3.74,0.43c3.5,0.23,7.12,0.23,10.62,0.43c0.23,0,0.43,0,0.43,0
			c0.23,0,0.43,0,0.43,0c3.7-0.23,7.31-0.23,10.86-0.43c1.25-0.23,2.53-0.43,3.81-0.43c2.57-0.19,5.02-0.43,7.55-0.86
			c1.4-0.19,2.76-0.43,4.12-0.86c2.45-0.19,5.02-0.86,7.43-1.25c1.28-0.43,2.53-0.66,3.74-0.86c0.54-0.23,1.05-0.23,1.6-0.43v44.47
			H93.15z"/>
	</g>
	<g>
		<path class="st0" d="M257.92,35.95V7.24c0-4.05-3.19-7.24-7.12-7.24h-47.43h-0.12h-31.24c-3.93,0-7.24,3.19-7.24,7.04l0,0
			c0,0,0,0,0,0.19v458.38l0,0c0,0.23,0,0.23,0,0.23c0,3.85,3.31,7,7.24,7h31.24h0.12h47.43c3.93,0,7.12-3.19,7.12-7.24V436.9
			c107.31-3.85,193.45-92.29,193.45-200.38C451.37,128.24,365.23,39.76,257.92,35.95z M250.8,422.82c-4.05,0-7.24,3.19-7.24,7.04
			v28.71h-64.43v-42.95h24.12c3.93,0,7.12-3.19,7.12-7.24c0-4.05-3.19-7-7.12-7h-24.12v-43.19h24.12c3.93,0,7.12-3.19,7.12-7.04
			c0-4.05-3.19-7.24-7.12-7.24h-24.12v-42.95h24.12c3.93,0,7.12-3.19,7.12-7.24c0-3.85-3.19-7.04-7.12-7.04h-24.12v-43.19h24.12
			c3.93,0,7.12-3,7.12-7c0-4.05-3.19-7.24-7.12-7.24h-24.12v-42.95h24.12c3.93,0,7.12-3.19,7.12-7.24c0-4.05-3.19-7.24-7.12-7.24
			h-24.12v-42.95h24.12c3.93,0,7.12-3.19,7.12-7c0-4.05-3.19-7.24-7.12-7.24h-24.12V71.67h24.12c3.93,0,7.12-3.19,7.12-7.24
			c0-3.81-3.19-7.24-7.12-7.24h-24.12V14.24h64.43v28.71c0,4.05,3.19,7.24,7.24,7.24c102.76,0,186.33,83.61,186.33,186.33
			C437.09,339.24,353.52,422.82,250.8,422.82z"/>
	</g>
	<g>
		<path class="st0" d="M250.8,107.39c-4.05,0-7.24,3.19-7.24,7.24v243.57c0,4.05,3.19,7.24,7.24,7.24
			c71.05,0,128.9-57.86,128.9-128.9C379.67,165.24,321.81,107.39,250.8,107.39z M257.92,350.72V122.05
			c59.88,3.62,107.5,53.62,107.5,114.43C365.43,297.14,317.8,347.14,257.92,350.72z"/>
	</g>
</g>
</svg>
