<?xml version="1.0" encoding="utf-8"?>
<!-- Generator: Adobe Illustrator 24.3.0, SVG Export Plug-In . SVG Version: 6.00 Build 0)  -->
<svg version="1.1" id="Capa_1" xmlns="http://www.w3.org/2000/svg" xmlns:xlink="http://www.w3.org/1999/xlink" x="0px" y="0px"
	 viewBox="0 0 504.43 472.85" style="enable-background:new 0 0 504.43 472.85;" xml:space="preserve">
<style type="text/css">
	.st0{fill:#0000FF;stroke:#0000FF;stroke-width:4.8902;stroke-miterlimit:10;}
</style>
<g>
	<path class="st0" d="M501.54,94.14l-13.71-50.73c0,0,0,0,0-0.22l0,0L478.5,8.87c-1.12-4.03-5.29-6.5-9.32-5.38L73.01,110.77
		c-1.79,0.45-3.45,1.79-4.48,3.36c-1.03,1.79-1.34,4.03-0.76,5.83l5.06,18.64l-64.44,17.3c-4.17,1.12-6.5,5.38-5.42,9.41l9.1,33.43
		c0.54,2.02,1.79,3.58,3.45,4.71c1.25,0.67,2.46,0.9,3.81,0.9c0.67,0,1.34,0,2.02-0.22l64.44-17.3l5.06,18.42
		c0.9,3.36,3.94,5.6,7.3,5.6c0.67,0,1.34-0.22,1.93-0.22l177-48.04v32.53c-17.16,3.58-30.16,18.87-30.16,37.01
		c0,10.8,4.62,20.43,11.79,27.38L152.41,428.52c-2.24,3.58-1.21,8.29,2.38,10.53c1.25,0.67,2.55,1.12,4.03,1.12
		c2.46,0,4.93-1.12,6.41-3.63l106.29-169.03c1.79,0.67,3.72,1.34,5.6,1.79V462.8c0,4.26,3.36,7.62,7.62,7.62
		c4.17,0,7.53-3.36,7.53-7.62V269.44c2.02-0.45,3.81-1.12,5.74-1.79L404.3,436.68c1.48,2.46,3.94,3.63,6.41,3.63
		c1.34,0,2.82-0.45,4.03-1.12c3.45-2.24,4.62-6.95,2.33-10.53L310.78,259.63c7.21-6.95,11.79-16.58,11.79-27.38
		c0-18.19-13.04-33.43-30.34-37.01v-36.61l204.02-55.25c1.93-0.45,3.63-1.79,4.62-3.36C501.89,98.17,502.12,96.16,501.54,94.14z
		 M24.79,187.53l-5.15-19.09l57.13-15.28l5.15,18.87L24.79,187.53z M307.41,232.2c0,12.59-10.22,22.9-22.67,22.9
		c-12.59,0-22.67-10.31-22.67-22.9c0-12.32,10.08-22.67,22.67-22.67C297.15,209.53,307.41,219.84,307.41,232.2z M103.57,194.02
		l-19.18-70.71L465.87,20.02l5.42,19.99L126.06,133.4c-4.03,0.9-6.41,5.15-5.24,9.19c0.9,3.36,3.9,5.65,7.3,5.65
		c0.67,0,1.34,0,2.02-0.22l345.09-93.39l9.9,36.16L103.57,194.02z"/>
</g>
</svg>
