<?xml version="1.0" encoding="utf-8"?>
<!-- Generator: Adobe Illustrator 24.3.0, SVG Export Plug-In . SVG Version: 6.00 Build 0)  -->
<svg version="1.1" id="Capa_1" xmlns="http://www.w3.org/2000/svg" xmlns:xlink="http://www.w3.org/1999/xlink" x="0px" y="0px"
	 viewBox="0 0 396.32 473.17" style="enable-background:new 0 0 396.32 473.17;" xml:space="preserve">
<style type="text/css">
	.st0{fill:#0000FF;}
</style>
<g>
	<g>
		<path class="st0" d="M180.9,454.81c-13.19-2.76-24.48-6.83-32.54-11.5c-4.03-2.37-6.51-6.83-6.51-11.71v-53.84
			c0-7.89-5.73-16.17-21.82-16.17c-1.17,0-2.02,0.21-2.02,0.21c-0.42,0-2.48,0-5.41,0c-30.46,0-52.14-6.15-53.84-15.74
			c-4.35-22.78,0.64-69.61,0.64-70.04c0.42-3.4-1.49-6.4-4.46-7.68c-0.21,0-19.17-7.25-34.88-16.38c-3.22-1.91-5.13-4.03-5.52-6.15
			c-0.74-2.97,0.85-6.15,1.7-7.46c39.37-61.3,42.13-79.38,42.24-81.92C65.83,93.23,94.55,50.26,143.62,28.5
			c3.71-1.7,5.31-5.94,3.71-9.55c-1.59-3.61-5.84-5.31-9.44-3.61c-37.25,16.38-83.66,53.84-93.77,139.62
			c0,0.85-2.44,17.23-39.79,75.34c-0.64,1.06-5.94,8.95-3.82,18.54c0.96,4.24,3.82,10.65,12.35,15.53
			c11.81,6.79,24.9,12.56,31.84,15.53c-1.17,13.41-3.82,48.74,0,68.94c4.56,23.81,44.57,27.24,67.99,27.24c3.71,0,6.05,0,6.26,0
			c0,0,0.53,0,1.17,0c4.67,0,7.15,1.06,7.46,1.7v53.84c0,10.01,5.24,19.14,13.51,24.05c9.69,5.77,22.14,10.22,37.04,13.19
			c0.53,0.21,0.96,0.21,1.49,0.21c3.29,0,6.26-2.33,7-5.73C187.27,459.52,184.83,455.66,180.9,454.81z"/>
	</g>
	<g>
		<path class="st0" d="M396.28,157.93c-0.42-85.57-48.85-124.09-89.39-141.31c-3.61-1.52-7.89,0.21-9.37,3.82
			c-1.59,3.61,0.11,7.89,3.71,9.37c53.31,22.57,80.44,65.76,80.65,128.33l0.11,0.85c0,86.59-24.27,116.2-43.61,139.83
			c-7.75,9.55-15,18.5-20.02,29.57c-18.32,40.22-15.74,82.56-12.56,104.1c0.64,4.46-1.38,9.16-5.13,11.28
			c-9.06,5.13-21.61,9.16-36.36,11.92c-3.96,0.64-6.61,4.46-5.87,8.31c0.64,3.4,3.71,5.94,7.11,5.94c0.32,0,0.74,0,1.27-0.21
			c16.59-2.97,30.42-7.46,40.96-13.62c8.84-5.13,13.72-15.35,12.24-25.75c-2.97-20.02-5.41-59.18,11.28-95.97
			c4.24-9.37,10.65-17.47,18.08-26.39c20.87-25.54,46.94-57.48,46.94-148.99L396.28,157.93z"/>
	</g>
	<g>
		<path class="st0" d="M273.58,378.87c0.42-0.85,0.64-1.91,0.64-2.97V65.36l0,0v-0.21v-0.21V17.89c0-2.76-1.52-5.09-3.96-6.4
			c-30.84-15.32-64.91-15.32-95.79,0c-2.55,1.27-4.03,3.61-4.03,6.4v47.47V375.9c0,1.06,0.21,2.12,0.64,2.97l0.11,0.21l44.71,90.02
			c1.27,2.55,3.71,4.07,6.51,4.07c2.65,0,5.2-1.52,6.4-4.07l44.68-90.02L273.58,378.87z M243.69,406.96
			c-13.62-4.92-29.04-4.92-42.66,0l-13.62-27.45c11.5-4.67,23.1-7.25,34.81-7.25c0.11,0,0.11,0,0.11,0h0.11
			c11.71,0,23.42,2.55,34.88,7.25L243.69,406.96z M192.5,67.06c2.02-0.85,4.03-1.27,6.05-1.91c1.27-0.42,2.55-0.85,3.82-1.06
			c2.23-0.42,4.56-0.85,6.9-1.27c1.06,0,2.02-0.42,2.97-0.42c0.96-0.21,1.91-0.21,2.87-0.21v296.28
			c-10.22,0.64-20.45,2.76-30.35,6.61V70.1c1.17-0.42,2.44-1.06,3.61-1.52C189.85,67.91,191.12,67.48,192.5,67.06z M235.48,62.81
			c2.23,0.42,4.56,0.85,6.83,1.27c1.27,0.21,2.55,0.64,3.82,1.06c2.02,0.64,4.03,1.06,6.05,1.91c1.38,0.42,2.76,0.85,4.03,1.49
			c1.27,0.42,2.48,1.06,3.61,1.52v294.97c-9.9-3.82-20.09-5.98-30.31-6.61V62.14c0.96,0,1.91,0,2.87,0.21
			C233.5,62.35,234.42,62.81,235.48,62.81z M184.83,22.35c24.58-11.07,50.44-11.07,75.03,0V54.5c-0.21-0.21-0.42-0.21-0.74-0.21
			c-0.85-0.42-1.7-0.64-2.55-0.85c-2.76-1.06-5.52-1.91-8.31-2.55c-1.27-0.42-2.44-0.64-3.71-0.85c-2.55-0.64-5.09-1.06-7.64-1.52
			c-1.17-0.21-2.37-0.21-3.5-0.42c-3.61-0.42-7.25-0.64-10.86-0.64c-0.11,0-0.21,0-0.32,0c-3.61,0-7.25,0.21-10.86,0.64
			c-1.17,0.21-2.23,0.21-3.4,0.42c-2.58,0.42-5.24,0.85-7.78,1.52c-1.27,0.21-2.44,0.42-3.71,0.85c-2.76,0.64-5.55,1.49-8.31,2.55
			c-0.85,0.21-1.7,0.42-2.55,0.85c-0.21,0-0.53,0-0.74,0.21V22.35H184.83z M222.43,449.93l-14.89-30c9.59-2.97,20.23-2.97,29.68,0
			L222.43,449.93z"/>
	</g>
</g>
</svg>
