<?xml version="1.0" encoding="utf-8"?>
<!-- Generator: Adobe Illustrator 24.3.0, SVG Export Plug-In . SVG Version: 6.00 Build 0)  -->
<svg version="1.1" id="Layer_1" xmlns="http://www.w3.org/2000/svg" xmlns:xlink="http://www.w3.org/1999/xlink" x="0px" y="0px"
	 viewBox="0 0 612 792" style="enable-background:new 0 0 612 792;" xml:space="preserve">
<style type="text/css">
	.st0{fill:url(#SVGID_1_);}
	.st1{fill:url(#SVGID_2_);}
	.st2{fill:url(#SVGID_3_);}
	.st3{fill:url(#SVGID_4_);}
	.st4{fill:url(#SVGID_5_);}
	.st5{fill:url(#SVGID_6_);}
	.st6{fill:url(#SVGID_7_);}
	.st7{fill:url(#SVGID_8_);}
	.st8{fill:url(#SVGID_9_);}
	.st9{fill:url(#SVGID_10_);}
	.st10{fill:#2EB78D;}
	.st11{fill:#FFFFFF;}
	.st12{fill:#1B966D;}
	.st13{fill:#41D8AD;}
	.st14{fill:#D31D49;}
	.st15{fill:#00213D;}
	.st16{fill:#001324;}
	.st17{fill:#FFE0DB;}
	.st18{fill:#FFF2F0;}
	.st19{fill:#F24848;}
	.st20{fill:#FFC052;}
	.st21{fill:#FF6C03;}
	.st22{fill:#C90000;}
	.st23{fill:#FFC45E;}
	.st24{fill:#FFEDB2;}
	.st25{fill:#4D2700;}
	.st26{fill:#261000;}
	.st27{fill:#7A3F04;}
	.st28{fill:#002342;}
	.st29{fill:#23233A;stroke:#323249;stroke-miterlimit:10;}
	.st30{fill:#FF5703;}
	.st31{fill:#3C3C56;}
	.st32{fill:#FFDF97;}
	.st33{fill:none;stroke:#10111E;stroke-miterlimit:10;}
	.st34{fill:#FCFCFC;}
</style>
<g>
	
		<linearGradient id="SVGID_1_" gradientUnits="userSpaceOnUse" x1="-593.0833" y1="468.4901" x2="-535.9833" y2="472.5901" gradientTransform="matrix(1.224 0 0 1.224 1034.7062 -243.4519)">
		<stop  offset="0" style="stop-color:#000000"/>
		<stop  offset="1" style="stop-color:#FFFFFF"/>
	</linearGradient>
	<rect x="354.3" y="299.5" class="st0" width="24.4" height="69.2"/>
</g>
<g>
	
		<linearGradient id="SVGID_2_" gradientUnits="userSpaceOnUse" x1="-532.1697" y1="434.1739" x2="-538.8098" y2="501.0339" gradientTransform="matrix(1.224 0 0 1.224 1003.2052 -222.2331)">
		<stop  offset="0" style="stop-color:#000000"/>
		<stop  offset="1" style="stop-color:#FFFFFF"/>
	</linearGradient>
	<rect x="322.9" y="331.9" class="st1" width="47.6" height="58"/>
</g>
<g>
	
		<linearGradient id="SVGID_3_" gradientUnits="userSpaceOnUse" x1="-582.949" y1="499.9423" x2="-469.0991" y2="455.3922" gradientTransform="matrix(1.224 0 0 1.224 1070.5286 -170.1569)">
		<stop  offset="0" style="stop-color:#000000"/>
		<stop  offset="1" style="stop-color:#FFFFFF"/>
	</linearGradient>
	<rect x="390.2" y="369.1" class="st2" width="118.7" height="72.9"/>
</g>
<g>
	
		<linearGradient id="SVGID_4_" gradientUnits="userSpaceOnUse" x1="-484.3118" y1="394.1582" x2="-498.912" y2="488.129" gradientTransform="matrix(1.224 0 0 1.224 1036.4318 -131.1101)">
		<stop  offset="0" style="stop-color:#000000"/>
		<stop  offset="1" style="stop-color:#FFFFFF"/>
	</linearGradient>
	<rect x="356.1" y="379.1" class="st3" width="150.7" height="102"/>
</g>
<g>
	
		<linearGradient id="SVGID_5_" gradientUnits="userSpaceOnUse" x1="-479.3669" y1="478.6049" x2="-534.2267" y2="411.8949" gradientTransform="matrix(1.224 0 0 1.224 1097.0872 -3.8151)">
		<stop  offset="0" style="stop-color:#000000"/>
		<stop  offset="1" style="stop-color:#FFFFFF"/>
	</linearGradient>
	<rect x="416.8" y="452.9" class="st4" width="102.6" height="155.3"/>
</g>
<g>
	
		<linearGradient id="SVGID_6_" gradientUnits="userSpaceOnUse" x1="-479.3669" y1="478.6049" x2="-534.2267" y2="411.8949" gradientTransform="matrix(1.224 0 0 1.224 1097.0872 -3.8151)">
		<stop  offset="0" style="stop-color:#000000"/>
		<stop  offset="1" style="stop-color:#FFFFFF"/>
	</linearGradient>
	<rect x="416.8" y="452.9" class="st5" width="102.6" height="155.3"/>
</g>
<g>
	
		<linearGradient id="SVGID_7_" gradientUnits="userSpaceOnUse" x1="-496.3799" y1="375.3305" x2="-543.2698" y2="478.8103" gradientTransform="matrix(1.224 0 0 1.224 1149.3489 -186.7214)">
		<stop  offset="0" style="stop-color:#000000"/>
		<stop  offset="1" style="stop-color:#FFFFFF"/>
	</linearGradient>
	<rect x="469" y="293.3" class="st6" width="67" height="132.1"/>
</g>
<g>
	
		<linearGradient id="SVGID_8_" gradientUnits="userSpaceOnUse" x1="-496.3799" y1="375.3305" x2="-543.2698" y2="478.8103" gradientTransform="matrix(1.224 0 0 1.224 1149.3489 -186.7214)">
		<stop  offset="0" style="stop-color:#000000"/>
		<stop  offset="1" style="stop-color:#FFFFFF"/>
	</linearGradient>
	<rect x="469" y="293.3" class="st7" width="67" height="132.1"/>
</g>
<g>
	
		<linearGradient id="SVGID_9_" gradientUnits="userSpaceOnUse" x1="-519.9209" y1="518.0877" x2="-535.971" y2="454.3276" gradientTransform="matrix(1.224 0 0 1.224 989.715 -172.6921)">
		<stop  offset="0" style="stop-color:#000000"/>
		<stop  offset="1" style="stop-color:#FFFFFF"/>
	</linearGradient>
	<rect x="309.4" y="355.9" class="st8" width="55.7" height="83.6"/>
</g>
<g>
	
		<linearGradient id="SVGID_10_" gradientUnits="userSpaceOnUse" x1="-533.8344" y1="498.4854" x2="-563.0743" y2="483.9454" gradientTransform="matrix(1.224 0 0 1.224 1049.9094 -410.0671)">
		<stop  offset="0" style="stop-color:#000000"/>
		<stop  offset="1" style="stop-color:#FFFFFF"/>
	</linearGradient>
	<rect x="369.6" y="183.5" class="st9" width="24.2" height="18.5"/>
</g>
<g>
	<path class="st10" d="M237.6,558.5c-10.9,64.7,19.7,129.5,76.7,162.1c10.2,2.4,15.3,3.7,15.3,3.7
		C339.2,654.8,301.7,587.3,237.6,558.5z"/>
	<path class="st11" d="M244.9,568.8c-0.4-0.6-1.1-0.9-1.8-0.6c-0.6,0.4-0.9,1.1-0.6,1.8l78.2,153c0.4,0.6,1.1,0.9,1.8,0.6
		c0.6-0.4,0.9-1.1,0.6-1.8L244.9,568.8z"/>
	<path class="st12" d="M132.2,689.6c48,44.8,118.9,55.1,177.5,25.5c7.6-7.1,11.5-10.8,11.5-10.8
		C268.4,658.2,191.4,652.2,132.2,689.6z"/>
	<path class="st11" d="M315.5,708.5l-170.7-19.2c-0.7-0.1-1.3,0.5-1.5,1.2s0.5,1.3,1.2,1.5l170.7,19.2c0.7,0.1,1.3-0.5,1.5-1.2
		C316.8,709.2,316.3,708.6,315.5,708.5z"/>
	<path class="st13" d="M150.2,603c20.9,62.2,78.5,104.8,144.1,106.7c10.2-2.7,15.2-4,15.2-4C285.1,639.9,220.2,598.1,150.2,603z"/>
	<path class="st11" d="M161.4,608.6c-0.6-0.4-1.5-0.2-1.8,0.4s-0.2,1.5,0.4,1.8l141.2,97.9c0.6,0.4,1.5,0.2,1.8-0.4s0.2-1.5-0.4-1.8
		L161.4,608.6z"/>
	<path class="st11" d="M233.2,644.7c-1.2,0-2.2,1-2.2,2.2s1,2.2,2.2,2.2s2.2-1,2.2-2.2C235.4,645.7,234.4,644.7,233.2,644.7z"/>
</g>
<g>
	<path class="st10" d="M440.5,706.4c0,0,5-1.5,15.1-4.5c55.1-35.9,81.9-102.2,67.3-166.2C460.6,568.1,427.1,637.5,440.5,706.4z"/>
	<path class="st11" d="M518,545.7c-0.6-0.2-1.5,0-1.7,0.7l-69.4,157.2c-0.2,0.6,0,1.5,0.7,1.7c0.6,0.2,1.5,0,1.7-0.7l69.4-157.2
		C519,546.8,518.7,546.1,518,545.7z"/>
	<path class="st12" d="M416.6,682.2c0,0,3.4,3.9,10.3,11.9c55.3,35.4,126.8,32.6,179.2-7.1C551,643.5,473.9,641.5,416.6,682.2z"/>
	<path class="st11" d="M593.6,685.2l-171.9,1.5c-0.7,0-1.3,0.6-1.3,1.3s0.6,1.3,1.3,1.3l171.9-1.5c0.7,0,1.3-0.6,1.3-1.3
		S594.4,685.2,593.6,685.2z"/>
	<path class="st13" d="M439.4,703.8c0,0,5,1.3,15.2,4c65.6-1.8,123.1-44.4,144.1-106.7C528.8,596.2,463.9,638.1,439.4,703.8z"/>
	<path class="st11" d="M587.5,606.8l-141.2,97.9c-0.6,0.4-0.7,1.2-0.4,1.8s1.2,0.7,1.8,0.4L589,609c0.6-0.4,0.7-1.2,0.4-1.8
		C588.9,606.5,588.1,606.4,587.5,606.8z"/>
	<path class="st11" d="M518.6,640.8c-1.2,0-2.2,1-2.2,2.2s1,2.2,2.2,2.2s2.2-1,2.2-2.2C520.8,641.8,519.8,640.8,518.6,640.8z"/>
	<path class="st11" d="M502.7,650.6c-1.5,0-2.6,1.1-2.6,2.6s1.1,2.6,2.6,2.6s2.6-1.1,2.6-2.6C505.3,651.8,504,650.6,502.7,650.6z"/>
</g>
<path class="st11" d="M326.1,193.1c-3.4-0.9-7,0.1-9.5,2.4c-0.7-7.2-6.2-13.1-13.3-14.2c-7.2-1.1-14.2,2.7-17.1,9.4
	c-2.3-19.5-19.1-33.8-38.7-33.2c-19.6,0.6-35.4,16.2-36.4,35.7c-3.8-3.2-8.7-4.7-13.6-4.2c-4.9,0.5-9.4,2.9-12.5,6.7
	c-3.2-2.9-7.6-4.3-11.9-3.4c-4.3,0.9-8,3.6-9.8,7.5c0,0,56.7-0.1,170.1-0.4C332.2,196.2,329.5,193.8,326.1,193.1z"/>
<path class="st11" d="M118.2,225.4c-1.8-0.5-3.7,0-5,1.3c-0.4-3.8-3.3-7-7.1-7.6c-3.8-0.6-7.6,1.5-9.1,5
	c-1.2-10.3-10.2-18-20.6-17.6s-18.8,8.6-19.3,19c-2-1.7-4.7-2.4-7.2-2.2c-2.6,0.2-5,1.6-6.6,3.6c-1.7-1.6-4-2.2-6.4-1.8
	c-2.3,0.4-4.2,2-5.3,4c0,0,30.2-0.1,90.6-0.2C121.4,227.1,120,225.7,118.2,225.4z"/>
<path class="st14" d="M203.2,98.1c5.1,6,7.8,8.9,7.8,8.9c2.9-7.1,4.4-10.8,4.4-10.8c-3.3,4-5,6-5,6S208,100.9,203.2,98.1z"/>
<path class="st14" d="M232.1,129.7c3.8,4.3,5.6,6.4,5.6,6.4c2.1-5.1,3.2-7.7,3.2-7.7c-2.4,2.9-3.7,4.3-3.7,4.3
	S235.5,131.6,232.1,129.7z"/>
<path class="st14" d="M297.4,115.9c3.8,4.3,5.6,6.4,5.6,6.4c2.1-5.1,3.2-7.7,3.2-7.7c-2.4,2.9-3.7,4.3-3.7,4.3
	S300.9,118,297.4,115.9z"/>
<path class="st14" d="M169.9,131.5c3.1,3.4,4.5,5.3,4.5,5.3c1.7-4.2,2.6-6.2,2.6-6.2c-2,2.3-2.9,3.6-2.9,3.6
	S172.6,133.2,169.9,131.5z"/>
<path class="st14" d="M507.1,138.6c5.1,6,7.8,8.9,7.8,8.9c2.9-7.1,4.4-10.8,4.4-10.8c-3.3,4-5,6-5,6S511.9,141.4,507.1,138.6z"/>
<path class="st15" d="M457.4,539.3c-36.4-20.1-79.9-19.5-114.4,1.3c-34.5,20.9-53.1,34.6-51.3,75.5c-6.1,54.3-10.8,105.9-10.8,105.9
	c69.9,0,104.8,0,104.8,0c11.9-34.9,17.9-52.3,17.9-52.3c4.5,34.9,6.7,52.3,6.7,52.3c65,0,97.4,0,97.4,0s3.7-28.2,11.1-84.3
	C517.1,596.9,493.6,559.3,457.4,539.3z"/>
<path class="st16" d="M388.1,597.5c2.7,52.1-25.6,101-72.2,124.7c0,0,20.9,0,62.8,0c0,0,7.3-19.7,21.9-59.2c0,0-1-9.1-2.9-27.1
	C393.1,627.5,389.8,614.7,388.1,597.5z"/>
<path d="M388.3,659.7c-14.9-9.3-29.1-19.8-42.5-31.2c-13.3-11.4-25.8-23.9-37.3-37.2c-0.6-0.7-1.6-0.7-2.3-0.1
	c-0.7,0.6-0.7,1.6-0.1,2.3c11.6,13.5,24.2,25.9,37.7,37.6c13.5,11.5,27.8,22,42.8,31.5c0.7,0.5,1.7,0.2,2.2-0.5
	C389.4,661.1,389.1,660.1,388.3,659.7z"/>
<path d="M384.1,669.1c-9.3-3.1-18.6-6.2-27.8-9.5c-9.2-3.3-18.2-6.9-27.4-10.5c-0.9-0.4-1.8,0.1-2.1,0.9c-0.4,0.9,0.1,1.8,0.9,2.1
	c9.1,3.7,18.2,7.2,27.5,10.5c9.3,3.4,18.5,6.6,27.9,9.7c0.9,0.2,1.7-0.2,2.1-1C385.4,670.3,384.9,669.4,384.1,669.1z"/>
<path d="M472.6,636.9c-8.1,7.2-17.3,13.2-27.1,17.6c-9.8,4.4-20.3,7.3-31.1,8.6c-0.9,0.1-1.5,0.9-1.5,1.8c0.1,0.9,0.9,1.5,1.8,1.5
	c11.1-1.3,21.9-4.3,32.1-8.8s19.6-10.6,27.9-18.1c0.6-0.6,0.7-1.6,0.1-2.3C474.3,636.3,473.2,636.3,472.6,636.9z"/>
<path d="M399.4,636.5c0-0.1-0.1-0.2-0.1-0.4c-3.5-8.2-5.9-16.8-7.1-25.5c-1.1-8.7-1.1-17.5,0.2-26.3c0.1-0.9-0.5-1.7-1.3-1.8
	s-1.7,0.5-1.8,1.3c-1.3,9.1-1.3,18.1-0.2,27.2c1.2,8.9,3.7,17.7,7.2,26.2l5.9,32.9c0.1,0.9,1,1.5,1.8,1.3c0.9-0.1,1.5-1,1.3-1.8
	L399.4,636.5z"/>
<path class="st17" d="M349.7,291.2c0,0-2.8,84.8-8.3,254.5c31.6,21.5,72.1,25.2,107,9.7c10.8-180.5,16.2-270.9,16.2-270.9
	C427.2,268.8,384.8,271.4,349.7,291.2z"/>
<path class="st18" d="M442.2,287.4c-6-9.9-18.6-13.3-28.6-8l-3.5-1.7c-18.9-23.5-41.2-2.6-37.2,18.2c-3.3,5.5-4,12.4-1.7,18.6
	c0.2,0.9,0.5,1.7,0.9,2.4c0.4,1,0.7,1.8,1.1,2.8c-0.5,0.2-0.9,0.4-1.3,0.6c-0.9,0.4-1.6,0.9-2.4,1.2c-2.3,1.1-4.3,2.6-5.9,4.4
	l-1.3,1.3c-4.3,4.3-6.4,9.8-6.4,15.3l0,0v0.7c0,12,9.7,21.7,21.7,21.7c5.6,0,10.8-2.2,14.7-5.8c1.5-0.1,2.9-0.2,4.4-0.6
	c0.5,0.2,1,0.6,1.5,0.9c0.2,0.1,0.4,0.2,0.6,0.4c0.5,0.2,1,0.6,1.5,0.9c1.7,1.1,3.8,2.1,5.6,2.7l0.4,0.1
	c11.4,3.8,23.6-2.3,27.4-13.7c1.3-3.9,1.5-8,0.5-11.8c0.2-0.4,0.6-0.7,0.9-1.1c0.9-1.2,1.6-2.3,2.3-3.7l0.2-0.5
	c2.9-5.8,2.9-12.2,0.7-17.7C445.7,308,447.6,296.6,442.2,287.4z"/>
<path class="st14" d="M555.1,286.1c-6.4-6.2-15.8-11.9-28.9-17.3c-19.7-8.1-47.5-21.3-58.5-25.1L362.1,262l-51.8,14.2l13.1,319.1
	c29.9-49.8,45.2-107.1,45.8-171.7c7.8,4.5,21.1,12.9,39.9,24.8c3.8,67.1,22.2,132.6,53.7,191.9c35.3,3.5,70.7-3.7,101.8-20.8
	l-39.8-161.3C547.5,397.1,586.7,317.1,555.1,286.1z M437.3,332.5l-0.2,0.5c-0.6,1.3-1.5,2.4-2.3,3.7c-0.2,0.4-0.5,0.7-0.9,1.1
	c0.9,3.8,0.7,7.8-0.5,11.8c-3.8,11.4-16,17.5-27.4,13.7l-0.4-0.1c-1.8-0.6-4-1.6-5.6-2.7c-0.5-0.2-1-0.6-1.5-0.9
	c-0.2-0.1-0.4-0.2-0.6-0.4c-0.5-0.2-1-0.5-1.5-0.9c-1.5,0.4-2.8,0.6-4.4,0.6c-3.9,3.5-9.1,5.8-14.7,5.8c-12,0-21.7-9.7-21.7-21.7
	v-0.7l0,0c0-5.5,2.1-11.1,6.4-15.3l1.3-1.3c1.7-1.7,3.7-3.2,5.9-4.4c0.9-0.4,1.6-0.9,2.4-1.2c0.5-0.2,0.9-0.5,1.3-0.6
	c-0.5-0.9-0.9-1.8-1.1-2.8c-0.4-0.9-0.6-1.6-0.9-2.4c-2.3-6.2-1.5-13.1,1.7-18.6c-4-20.8,18.4-41.7,37.2-18.2l3.5,1.7
	c10.2-5.4,22.8-2,28.6,8c5.5,9.1,3.4,20.6-4.2,27.3C440.3,320.4,440.2,326.7,437.3,332.5z"/>
<polygon class="st14" points="403.6,306.2 384.6,363.7 413.2,379.1 424,364.3 419.8,307.1 "/>
<path class="st19" d="M391.2,436.9l0.2,0.1L391.2,436.9z"/>
<path class="st14" d="M407,446.1c-0.7-0.1-1.3-0.4-2-0.7c-0.4-0.2-0.7-0.4-1.1-0.6c-0.2-0.1-0.4-0.2-0.6-0.5
	c-0.1-0.1-0.2-0.1-0.4-0.2c-0.1-0.1-0.4-0.2-0.5-0.4c-0.2-0.1-0.4-0.2-0.6-0.4c-0.2-0.1-0.5-0.4-0.6-0.5c-0.1-0.1-0.2-0.1-0.4-0.2
	c-0.1-0.1-0.4-0.2-0.5-0.4c-0.1-0.1-0.4-0.2-0.5-0.4c-0.2-0.1-0.4-0.2-0.6-0.2c-0.4-0.1-1-0.5-1.2-0.7c-0.2-0.1-0.4-0.2-0.6-0.4
	h-0.1c-0.2-0.1-0.5-0.2-0.7-0.4c-0.2-0.1-0.5-0.2-0.7-0.5c-0.2-0.1-0.5-0.2-0.6-0.4c-0.1,0-0.2-0.1-0.2-0.2
	c-0.2-0.1-0.4-0.2-0.6-0.4c-0.4-0.1-0.6-0.4-0.9-0.5c-0.4-0.1-0.6-0.2-0.9-0.5c-0.2-0.1-0.5-0.2-0.9-0.5c-0.2-0.1-0.4-0.2-0.6-0.4
	c-0.4-0.2-0.7-0.4-1-0.6c-0.5-0.2-0.9-0.4-1.3-0.7c-0.2-0.1-0.5-0.4-0.7-0.5c-0.1-0.1-0.2-0.1-0.4-0.2c-0.4-0.1-0.6-0.4-0.9-0.6
	c-0.4-0.2-0.7-0.5-1.2-0.7c-0.2-0.1-0.4-0.2-0.6-0.4c-0.5-0.2-0.9-0.4-1.2-0.7c-0.4-0.2-0.7-0.4-1-0.7c-0.1-0.1-0.2-0.1-0.4-0.2
	c-1.2-0.2-2.2-0.9-2.8-1.8c-1,0-2,0-3.1,0l-9.2,83.1l21.9,21.2l19.2-18.5l-1.6-68.4C407.1,446.8,407.1,446.4,407,446.1z"/>
<path class="st14" d="M410.7,282.9c-6.7,0.2-13,3.3-17,8.4c0.5,6.4,4.3,12.2,10,15.2c5.8,3.1,12.6,2.7,17.9-0.7
	c5.3-3.4,8.1-9.5,7.5-15.9C424,285.2,417.4,282.7,410.7,282.9z"/>
<path class="st18" d="M419.1,251.2c-20.6-2.7-34-4.2-40.1-4.2c-5.3,16.6-8,25-8,25s4.4,8.1,13.3,24.1c0,0,9.3-3.9,27.9-11.8
	c19.2,7,28.8,10.5,28.8,10.5c10.9-33.9,16.4-50.9,16.4-50.9C446.3,236.3,433.5,238.7,419.1,251.2z"/>
<path class="st20" d="M451.7,208.7c0,0-25.1,5.1-75.2,15.4c0.9,7.6,1.6,15.2,2.4,22.8c3.9,15.9,16.9,28.2,33,31.2
	c19.5-3.8,35.3-18.2,40.8-37.3C450.7,230.3,450.3,219.4,451.7,208.7z"/>
<path class="st21" d="M451.7,208.7c-45.7,17.7-68.5,26.6-68.5,26.6c25.3,26.8,37.9,40.1,37.9,40.1c7.2-2.8,13.7-7.2,19.1-12.7
	c5.9-6.1,10.3-13.7,12.6-21.9C450.8,231.1,450.3,220.4,451.7,208.7z"/>
<path class="st22" d="M451.7,208.7c-29.4,15.7-48.1,28.3-56.1,37.6c8.6,6.6,19.6,9.4,30.2,7.7c10.8-1.7,20.2-7.8,26.3-16.8
	C450.7,228.9,450.6,219.5,451.7,208.7z"/>
<path class="st23" d="M464.3,175.4c-7.3,0.4-14.6,7.8-16.3,16.8c-1.6,8.9,3.1,15.9,10.4,15.7c7.3-0.2,14.6-7.8,16.3-16.8
	C476.4,182.2,471.7,175.1,464.3,175.4z"/>
<path class="st21" d="M461.7,181.8c-4.5,0.2-8.9,4.8-9.9,10.3c-1,5.5,1.8,9.8,6.4,9.5c4.5-0.2,8.9-4.8,9.9-10.3
	C469,185.8,466.2,181.6,461.7,181.8z"/>
<path class="st22" d="M458.3,186.7c-2.3,0.1-4.6,2.4-5.1,5.3c-0.5,2.8,1,5,3.3,4.9c2.3-0.1,4.7-2.4,5.1-5.3
	C462.1,188.8,460.6,186.6,458.3,186.7z"/>
<ellipse transform="matrix(0.8679 -0.4967 0.4967 0.8679 -49.1127 204.8977)" class="st23" cx="360.7" cy="194.8" rx="12.6" ry="17"/>
<path class="st21" d="M360,185c-4.5,0-7.2,4.4-6,9.8c1.2,5.4,5.9,9.8,10.4,9.8c4.5,0,7.2-4.4,6-9.8S364.5,185,360,185z"/>
<path class="st22" d="M363.7,189.6c-2.3,0-3.7,2.3-3.1,5.1s3.1,5.1,5.4,5.1s3.7-2.3,3.1-5.1C368.3,192,366,189.6,363.7,189.6z"/>
<path class="st23" d="M436,133.7c-16.9-11-38.8-10.6-54.3,2.1c-15.2,12.2-18.4,32.4-14.1,52.5c-1.5,19.1,5.6,37.8,19.5,51.2
	c5.9,6.9,14.4,10.8,23.5,10.8s17.6-3.9,23.5-10.8c14.1-14.4,21.3-34.3,19.8-54.3C456.1,160.7,451.9,144,436,133.7z"/>
<path class="st24" d="M436,133.7c-2-1.3-4.2-2.4-6.2-3.4c8.4,15.4,13.3,33,13.3,52c0,25.1-8.4,48.1-22.8,66.5
	c5.3-1.7,10-4.9,13.8-9.2c14.1-14.4,21.3-34.3,19.8-54.3C456.1,160.7,451.9,144,436,133.7z"/>
<path class="st21" d="M380.2,144.7c-11.8,4-19.6,15.3-19.1,27.7c0,0,2.8,3.7,8.4,11.1c0.2,22,5.8,39.2,16.5,51.2
	c-3.5-14.4,13.3-18.4,10.4-33.8c-1.3-7.2-6.7-13.3-9.1-20.3c-5-15.4,8.9-29.3,24.7-25.7C404.9,144.8,391.9,140.7,380.2,144.7z"/>
<path class="st25" d="M441.5,117.8c-9.7-23.1-42.8-21.3-31.7-10.2c-24.7-9.5-42.8,2.4-51.8,15.5c-11.1,16.3-10.2,36.8-0.5,31.6
	c-0.5,8.6,1,17.1,4.3,25c3.2,1.8,5.3,4.9,5.6,8.6c-1.7-10.5-0.6-19.8,3.1-27.9c-0.9,6.5,20.2-1.7,26.4-9.7
	c3.5,8.1,28.8,6.1,43.1-10.5c0.7,13.1,13.3,18.1,13.8,44.9c-0.1-4.4,3.8-8.1,7.8-9.2c2.8-8.2,2.3-17.9,1-26.4
	c7.1,4.2,11.8-14.4,1.2-25.6C458.3,117.8,449.6,115.5,441.5,117.8z"/>
<path class="st26" d="M409.8,107.6c-24.7-9.5-42.8,2.4-51.8,15.5c-11.1,16.3-10.2,36.8-0.5,31.6c-0.5,8.6,1,17.1,4.3,25
	c3.2,1.8,5.3,4.9,5.6,8.6c-1.7-10.5-0.6-19.8,3.1-27.9c-0.5,4,7.7,2.3,15.4-1.6c-1.2-6.9-0.7-14.1,1.6-21.2
	c6.7-20.3,27.2-32.3,47.7-29.1C422.4,95.5,400.5,98.3,409.8,107.6z"/>
<path class="st27" d="M441.5,117.8c-8.8-20.9-36.8-21.4-33.7-13c22.3,0.2,41,17.5,42.6,40.1c0.4,5.4-0.2,10.8-1.7,15.7
	c2.7,5.8,5,13.2,5.3,24.4c-0.1-4.4,3.8-8.1,7.8-9.2c2.8-8.2,2.3-17.9,1-26.4c7.1,4.2,11.8-14.4,1.2-25.6
	C458.3,117.8,449.6,115.5,441.5,117.8z"/>
<path class="st25" d="M431.2,162.9c-4.7-0.6-9.3,0.2-13.6,2.6c-0.7,0.4-1,1.2-0.6,2s1.2,1,2,0.6c3.8-2.1,8-2.7,12-2.2
	c4,0.5,8,2.2,11,5.1c0.6,0.5,1.5,0.5,2-0.1c0.5-0.6,0.5-1.5-0.1-2C440.3,165.4,435.9,163.4,431.2,162.9z"/>
<path class="st25" d="M400.6,166.6c-4.3-2.3-9.1-3.2-13.6-2.6c-4.7,0.6-9.1,2.6-12.6,5.9c-0.6,0.5-0.6,1.5-0.1,2
	c0.5,0.6,1.5,0.6,2,0.1c3.2-2.9,7-4.6,11-5.1c4-0.5,8.2,0.2,12,2.2c0.7,0.4,1.6,0.1,2-0.6C401.6,167.8,401.3,167,400.6,166.6z"/>
<path d="M389.2,180.3c-1.3,0-2.4,1.1-2.4,2.4s1.1,2.4,2.4,2.4s2.4-1.1,2.4-2.4S390.6,180.3,389.2,180.3z"/>
<path d="M429.9,180.2c-1.2,0-2.2,1-2.2,2.2c0,1.2,1,2.2,2.2,2.2c1.2,0,2.2-1,2.2-2.2C432.2,181.3,431.2,180.2,429.9,180.2z"/>
<path class="st11" d="M434.6,173.4c-1.8,0-3.3,1.5-3.3,3.3s1.5,3.3,3.3,3.3s3.3-1.5,3.3-3.3S436.5,173.4,434.6,173.4z"/>
<path class="st11" d="M395.4,175.2c-1.8,0-3.3,1.5-3.3,3.3s1.5,3.3,3.3,3.3s3.3-1.5,3.3-3.3S397.2,175.2,395.4,175.2z"/>
<path class="st22" d="M424,213.7c-4,3.8-8.8,5.8-13.6,5.8c-4.8,0-9.5-2-13.6-5.8c-0.5-0.5-1.3-0.5-1.8,0c-0.5,0.5-0.5,1.3,0,1.8
	c4.5,4.3,9.9,6.5,15.3,6.5s10.8-2.2,15.3-6.5c0.5-0.5,0.5-1.3,0-1.8C425.3,213.3,424.6,213.3,424,213.7z"/>
<path class="st22" d="M417.1,224.4c-2,1.8-4.4,2.8-6.7,2.8c-2.3,0-4.6-1-6.7-2.8c-0.2-0.2-0.6-0.2-0.9,0c-0.2,0.2-0.2,0.6,0,0.9
	c2.2,2.1,4.9,3.2,7.6,3.2c2.7,0,5.4-1.1,7.6-3.2c0.2-0.2,0.2-0.6,0-0.9C417.9,224.1,417.4,224.1,417.1,224.4z"/>
<path class="st22" d="M374.3,184.5c0,0-1.6-0.4-4.8-1c0,3.4,0.2,6.9,0.5,10.3c2.2,4.2,6.1,7,10.8,8c4.5,0.9,9.3-0.2,13-3.3
	C384.7,199.4,376.4,193.4,374.3,184.5z"/>
<path class="st11" d="M461.3,174.8l-15.8,8c-0.1-4.2-1.8-7.8-4.6-10.5c-2.8-2.8-6.9-4.7-11.1-4.7c-4.4,0-8.3,1.7-11.1,4.7
	c-1.6,1.6-2.8,3.4-3.5,5.5c-0.5-0.4-1-0.7-1.5-1.1c-1.2-0.7-2.6-1.1-3.9-1.1c-1.3,0-2.7,0.4-3.9,1.1c-0.5,0.4-1,0.7-1.5,1.1
	c-0.9-2.1-2.1-3.9-3.5-5.5c-2.8-2.8-6.9-4.7-11.1-4.7c-4.4,0-8.3,1.7-11.1,4.7c-2.8,2.8-4.5,6.7-4.7,11l-15.5-7.7
	c-0.5-0.2-1.2,0-1.5,0.5c-0.2,0.5,0,1.2,0.5,1.5l16.6,8.3c0.5,3.4,2.1,6.5,4.4,8.9c2.8,2.8,6.9,4.7,11.1,4.7c4.4,0,8.3-1.7,11.1-4.7
	c2.8-2.8,4.7-6.9,4.7-11.1c0-1.1-0.1-2.2-0.4-3.2c0.5-0.7,1.1-1.2,1.8-1.7c0.9-0.5,1.8-0.7,2.8-0.7s2,0.2,2.8,0.7
	c0.7,0.4,1.3,1,1.8,1.6c-0.2,1.1-0.4,2.2-0.4,3.3c0,4.4,1.7,8.3,4.7,11.1c2.8,2.8,6.9,4.7,11.1,4.7c4.4,0,8.3-1.7,11.1-4.7
	c2.4-2.4,4-5.6,4.5-9.3l16.9-8.4c0.5-0.2,0.7-0.9,0.5-1.5C462.4,174.8,461.8,174.6,461.3,174.8z M399,192.9c-2.4,2.4-5.9,4-9.7,4
	c-3.8,0-7.2-1.5-9.7-4c-2.4-2.4-4-5.9-4-9.7c0-3.8,1.5-7.2,4-9.7c2.4-2.4,5.9-4,9.7-4c3.8,0,7.2,1.5,9.7,4c2.4,2.4,4,5.9,4,9.7
	C403.1,187.1,401.5,190.5,399,192.9z M439.3,192.9c-2.4,2.4-5.9,4-9.7,4c-3.8,0-7.2-1.5-9.7-4c-2.4-2.4-4-5.9-4-9.7
	c0-3.8,1.5-7.2,4-9.7c2.4-2.4,5.9-4,9.7-4c3.8,0,7.2,1.5,9.7,4c2.4,2.4,4,5.9,4,9.7C443.3,187.1,441.7,190.5,439.3,192.9z"/>
<path class="st21" d="M418,194.4c-3.3-8.1-4.9-12.1-4.9-12.1c-0.6-1.5-2.1-2.4-3.7-2.4c-1.6,0-2.9,1.1-3.4,2.6c0,0-1.2,3.8-3.9,12.2
	c-9.4,2.6-9.7,8-0.7,10.6c5.5,5.1,10.9,5.4,15.9,0.1C426.8,202.5,427.7,196.9,418,194.4z"/>
<path class="st14" d="M356.1,281.2c10.4,2.1,15.5,3.1,15.5,3.1c-14.7,4.7-22,6.9-22,6.9c10,45.4,14.9,68.2,14.9,68.2
	c8.4,3.1,12.7,4.5,12.7,4.5s0.5-39,1.6-117c-11.3,10-17,15.1-17,15.1C358,274.8,356.1,281.2,356.1,281.2z"/>
<path class="st14" d="M465.7,249.2c-13.7,27.9-20.6,42-20.6,42c-23.4,64-33.9,93-31.6,87.1c0,0,16.8,8,50.3,23.7c0,0,0.1-1.7,0.4-5
	c-22.6-20.4-23.4-55.4-1-76.4c3.1-2.8,6.1-5.4,9.3-7.8c12.2-9.5,24-17.7,22.6-36C494.3,262.6,483,250.6,465.7,249.2z"/>
<path class="st14" d="M354.8,386.5c3.3-7.5,2.2-16-2.8-22.4c-5-6.4-13.2-9.3-21.2-7.8c-8,1.6-14.4,7.5-16.6,15.3
	c-7.2,14.3-6.1,31.3,2.8,44.6c18.1,26.9,42.1,14.2,47.7,23.3c0.4-11.9,0.5-17.7,0.5-17.7c-11.4-7.8-17.1-11.8-17.1-11.8
	C356.4,396.1,358.6,388.3,354.8,386.5z"/>
<path class="st28" d="M502.6,418.4c1.2,2.4,2.8,4.9,4.6,7C506,422.9,504.4,420.5,502.6,418.4z"/>
<path class="st14" d="M536,293.4c-13.8-1.1-26.1,8.6-28.2,22.3C482,375.3,469,405.2,469,405.2c12.9-1.6,25.5,3.5,33.5,13.2
	c-3.5-7.1-4.4-15.3-2.3-23.1c3.9-14.7,13.3-18.5,21.5-23.5c17.6-10.5,18-27.7,5-42.5c-4.8-5.4-9.2-10.6-6.7-20.6
	C521.9,301,528.2,295,536,293.4z"/>
<path class="st14" d="M466.7,479.5c-18.7-10.6-35.4-19.6-49.9-26.4c2.8,47.5,13.7,95.8,32.7,144.8c-2.2-8.3-2.3-17.1,0-25.6
	c13.5-49.2,85.4-26.8,66.7-95.2C498.9,491.7,482.4,492.5,466.7,479.5z"/>
<path class="st28" d="M449.5,597.7c1,3.7,2.3,7.2,4.2,10.5C452.3,604.8,450.8,601.3,449.5,597.7z"/>
<path class="st14" d="M457,430.5c-13.1-5.1-29-3.4-42.8-3.3c-10.5,0.1-20.7-1.7-29.9-10.4c-10.2-9.7-14.4-24.1-11-37.8
	c-7.2,8.4-13.1,18-17.1,28.3c32.4,20.4,69.2,41.9,110.2,64.3c15.8,11.3,29.3,12.4,40.5,3.2C474.1,482.9,486.7,442.1,457,430.5z"/>
<path class="st14" d="M472.7,272.4l-5.1-28.5l-16.4-13.5c0.4,3.5,0.9,7.1,1.5,10.5l-44.9,134.9l3.4,2.7c0.6-0.1,1.5-0.2,2.1,0
	l0.5,0.1c0.5,0.1,1,0.2,1.5,0.6c0.4,0.1,0.6,0.2,1,0.5l0.7,0.4c0.4,0.1,0.6,0.4,1,0.6c0.2,0.1,0.6,0.4,0.9,0.5l0,0
	c0.5,0.1,0.9,0.4,1.2,0.7c0.4,0.1,0.7,0.2,1.1,0.5c0.1,0.1,0.4,0.1,0.5,0.2c17.4-32.7,35.7-64.7,55.1-96.3l-24.6-3.5L472.7,272.4z"
	/>
<path class="st14" d="M558.8,290.4c-24.1,12-6.9,32.3-4.4,53.4c4.3,36.2-37.1,28-42.5,66.8c-2.2,15.3,3.8,30.7,15.8,40.5
	c9.2-23.1,17.4-44.6,24.5-64.3c6.1-17,10.5-32.9,13.1-47.5c2-11.4,2.2-21.2,1.1-29.5C565.4,302.6,562.8,296.1,558.8,290.4z"/>
<path class="st14" d="M496.2,412.5c-8.3-6.9-19.3-9.5-29.9-7.2c-16.9-10.6-42.2-22.6-76-36.2c-2.2,25.1,18.5,48,44.1,45.8
	c10-0.9,19-4,28.5,0.5c16.8,8.1,15.7,33.2,46,25.1C509.2,429.7,504.5,419.4,496.2,412.5z"/>
<path class="st29" d="M323.1,253.4H38.1c-3.5,0-6.5,2.9-6.5,6.5v365.7c0,3.5,2.9,6.5,6.5,6.5h285.1c3.5,0,6.5-2.9,6.5-6.5V259.9
	C329.6,256.3,326.7,253.4,323.1,253.4z"/>
<path class="st11" d="M521.2,505.7L449,533.1c-0.9,0.4-1.2,1.2-1,2.1c0.4,0.9,1.2,1.2,2.1,1l72.2-27.4c0.9-0.4,1.2-1.2,1-2.1
	C522.9,505.8,521.9,505.3,521.2,505.7z"/>
<path class="st11" d="M525.5,456.8c-0.9-0.4-1.8,0-2.1,0.9c-6.7,16.3-15.1,25.3-24.6,28.3c-9.5,2.8-20.4-0.4-32.7-8.6H466l0,0
	c-11.4-6.6-23.7-13.6-36-20.6c-24.6-14-49.2-27.9-73.1-42.1c-1-0.6-2.3-1.5-4.2-2.4c-1-0.6-2-1.1-2.9-1.8c1.2-3.1,2.7-6.1,4.2-9.2
	c1.7-3.4,3.5-6.7,5.4-10c0.5-0.7,0.2-1.7-0.6-2.2c-0.7-0.5-1.7-0.2-2.2,0.6c-2,3.3-3.8,6.7-5.5,10.3c-1.7,3.4-3.3,7-4.8,10.6
	c-0.4,0.7,0,1.6,0.6,2.1c1.2,0.7,2.7,1.6,4.2,2.6c1,0.6,2.4,1.5,4.2,2.4c24.2,14.4,48.7,28.3,73.1,42.1c11.8,6.6,23.5,13.3,36,20.6
	c13,8.7,24.7,12.1,35.3,8.9s19.5-12.7,26.7-30.1C526.7,458.1,526.3,457.1,525.5,456.8z"/>
<path class="st11" d="M469.5,470.9c0.9,0.2,1.7-0.4,2-1.2s-0.4-1.7-1.2-2c-7.2-1.6-14.7-8.6-22.5-21.1c-8-12.7-16.3-31.1-24.8-55
	c-0.2-0.9-1.2-1.3-2.1-1c-0.9,0.2-1.3,1.2-1,2.1c8.6,24.1,17,42.7,25.1,55.6C453.2,461.7,461.4,469.2,469.5,470.9z"/>
<path class="st11" d="M543.2,286.9c-4.7-1.3-9.4-1.7-14.1-1.1c-4.7,0.6-9.2,2.2-13.2,4.8c-4,2.6-7.5,5.9-10.2,9.8
	c-2.6,3.8-4.4,8.2-5.1,12.9l-37.7,86.9L385.4,363c-0.2-0.1-0.6-0.2-1-0.2c-1.1,0.1-2.2,0.2-3.2,0.6c-1,0.2-2.1,0.6-3.1,1.1
	c-0.9,0.4-1.1,1.3-0.7,2.2c0.4,0.9,1.3,1.1,2.2,0.7c0.7-0.4,1.6-0.7,2.4-1c0.7-0.2,1.5-0.4,2.2-0.4l81.3,39c0.2,0.1,0.6,0.1,0.9,0.1
	l0,0c6.4-0.7,12.6,0.1,18.2,2.4c5.6,2.3,10.8,6.1,14.8,11c4,4.9,6.6,10.8,7.6,16.8c1.1,6.1,0.6,12.4-1.5,18.4
	c-0.2,0.9,0.1,1.7,1,2.1c0.9,0.2,1.7-0.1,2.1-1c2.2-6.5,2.7-13.5,1.6-20c-1.1-6.6-3.9-12.9-8.3-18.2c-4.3-5.4-9.9-9.4-16-12
	c-5.8-2.3-12-3.4-18.4-2.9c3.5-4.8,8.1-8.4,13.3-11c5.4-2.6,11.5-3.8,17.7-3.4s12.1,2.3,17.1,5.6c5,3.3,9.3,7.8,12.2,13.3
	c0.4,0.7,1.3,1.1,2.2,0.7c0.7-0.4,1.1-1.3,0.7-2.2c-3.2-6-7.8-10.9-13.3-14.4s-11.9-5.8-18.7-6.1c-6.7-0.5-13.3,0.9-19.3,3.8
	c-4.3,2.1-8.1,4.8-11.4,8.2l35.5-81.8c0-0.1,0.1-0.2,0.1-0.4l0,0c0.7-4.3,2.3-8.3,4.8-11.9c2.3-3.5,5.5-6.6,9.2-8.8
	c3.7-2.3,7.8-3.8,12-4.3c4.2-0.6,8.6-0.2,12.7,1c0.9,0.2,1.7-0.2,2-1.1C544.6,288.2,544.1,287.3,543.2,286.9z"/>
<path class="st14" d="M512.1,557.7c-4,2.8-8.2,5.5-12,8.8c-21.8,18.8-20,54.5,0.5,73.7c22.5-2.6,44.3-9.5,64.1-20.4
	c0,0-9.1-37-27.3-110.8C535.1,539.8,523.7,549.5,512.1,557.7z"/>
<path class="st23" d="M173,629.8c-1.3-0.2-2.8,0.4-3.7,1.5c-0.6-3.7-5.1-5.1-8-2.7c-0.5-2.2-2.3-3.7-4.5-3.9s-4.3,1.1-5.1,3.1
	c-1.2-1.6-3.2-2.4-5.3-2.4c-2.1,0-3.9,1-5.1,2.6l-2.6,4.4h-23.9c3.8,6.1,11,4.8,17.1,5c0,0,0,2.6,0,7.8c0.2,2.2,1.6,4,3.7,4.9
	s4.4,0.5,6.1-0.9c-0.5,2.8,1,5.8,3.7,6.9c2.7,1.1,5.8,0.2,7.5-2.1c0,0,0.2-0.5,0.9-1.6c1,2.4,3.4,4.2,6.1,4c2.7,0,5-1.7,6-4.3
	c1.6,1.8,3.9,2.7,6.2,2.4c2.3-0.4,4.4-1.8,5.4-4c6-4.9,10.8-11.3,14-18.4c-0.7,0-5.8,0-15.2,0C175.6,630.9,174.4,629.9,173,629.8z"
	/>
<path class="st30" d="M151.8,626.5c-0.7-0.4-1.6,0-1.8,0.7l-9.5,20.3c-0.4,0.7,0,1.6,0.7,1.8c0.7,0.4,1.6,0,1.8-0.7l9.5-20.3
	C152.9,627.7,152.5,626.8,151.8,626.5z"/>
<path class="st30" d="M139.4,630.8c-0.7-0.4-1.6,0-1.8,0.6l-4.3,8.7c-0.4,0.7,0,1.6,0.6,1.8c0.7,0.4,1.6,0,1.8-0.6l4.3-8.7
	C140.4,632,140.1,631.1,139.4,630.8z"/>
<path class="st30" d="M168.2,629.7c-0.7-0.1-1.5,0.4-1.6,1.1l-3.3,19.8c-0.1,0.7,0.4,1.5,1.1,1.6s1.5-0.4,1.6-1.1l3.3-19.8
	C169.4,630.5,168.9,629.9,168.2,629.7z"/>
<path class="st30" d="M160.8,627.2c-0.7-0.2-1.5,0.1-1.7,0.9l-7.2,22.6c-0.2,0.7,0.1,1.5,0.9,1.7c0.7,0.2,1.5-0.1,1.7-0.9l7.2-22.6
	C161.9,628.3,161.6,627.5,160.8,627.2z"/>
<path class="st30" d="M181.8,636.9c-1.2,0-2.4-0.2-3.4-0.7h-0.1c-1-0.5-1.8-1.1-2.4-1.8l0.1-2.2c0-0.7-0.6-1.5-1.3-1.5
	s-1.5,0.6-1.5,1.3l-0.6,12.9c0,0.4,0.1,0.7,0.4,1l1.8,2.2c0.5,0.6,1.3,0.7,2,0.1c0.6-0.5,0.7-1.3,0.1-2l-1.5-1.8l0.2-6.6
	c0.5,0.4,1,0.6,1.5,0.9c0,0,0,0,0.1,0c1.5,0.7,3.1,1.1,4.7,1.1c0.7,0,1.3-0.6,1.5-1.3C183.2,637.6,182.6,636.9,181.8,636.9z"/>
<path class="st23" d="M366,309.6c0.2-2.9-1-5.9-3.3-7.8c-2.3-2-5.4-2.6-8.2-1.8c-13.8-3.8-20.8-5.8-20.8-5.8
	c-18.9,5.6-28.4,8.4-28.4,8.4c-1.2,1.2-1.5,3.1-0.7,4.7c0.7,1.6,2.3,2.6,3.9,2.4c3.7-0.2,5.5-0.5,5.5-0.5c-6.9,8-10.3,12-10.3,12
	c-0.4,1.6,0.2,3.2,1.6,4.2c1.2,1,3.1,1.1,4.4,0.4c-1.1,4.7-1.6,6.9-1.6,6.9c-0.4,1.6,0.5,3.3,1.8,4.2c0,2.4,0,3.7,0,3.7
	c0.6,1.7,2.1,2.8,3.9,2.9s3.4-0.9,4.3-2.4c1.2-4.5,1.8-6.7,1.8-6.7c1.8,8.3,2.7,12.6,2.7,12.6c1.6,14.3,7,22.8,16.2,25.6
	c12.1,14.4,18.1,21.7,18.1,21.7c7.7-14.3,15.5-23.5,23.5-27.4c-9.2-12.2-13.7-18.4-13.7-18.4C366.2,322.4,366,309.6,366,309.6z"/>
<path class="st30" d="M350.3,301.3c-2.1-0.9-4.5-1.1-6.9-0.4l-19.7-2.2l0,0c-0.4,0-0.7,0.1-1,0.4l-9.8,9.3c-0.5,0.5-0.5,1.2,0,1.7
	c0.5,0.5,1.2,0.5,1.7,0l9.4-8.9l19.3,2.2c0.2,0,0.4,0,0.6-0.1c1.8-0.6,3.7-0.5,5.3,0.2s3.1,2,3.8,3.8c0.2,0.6,1,0.9,1.6,0.6
	c0.6-0.2,0.9-1,0.6-1.6C354.3,304,352.5,302.2,350.3,301.3z"/>
<path class="st30" d="M320.3,333c-1-0.2-1.8-1-2.3-1.7c-0.5-0.9-0.7-1.8-0.6-2.8c0.1-0.6-0.4-1.2-1-1.3c-0.6-0.1-1.2,0.4-1.3,1
	c-0.2,1.6,0.1,3.2,1,4.5c0.9,1.3,2.1,2.3,3.7,2.8c0.6,0.2,1.3-0.1,1.5-0.9C321.3,333.8,320.9,333.2,320.3,333z"/>
<path class="st30" d="M344.1,308.5c-1.7-0.6-3.7-0.7-5.5-0.2l-18.4-1.6l0,0c-0.4,0-0.9,0.1-1.1,0.5l-8,10.2l0,0
	c-0.1,0.1-0.1,0.2-0.2,0.5l-2.1,7.7c-0.1,0.6,0.2,1.3,0.9,1.5c0.4,0.1,0.6,0,1-0.1l-2,9.8c-0.1,0.6,0.2,1.3,1,1.5
	c0.6,0.1,1.3-0.2,1.5-1l2.9-14.8l14.4-3.8c0.2-0.1,0.5-0.2,0.6-0.4l0,0c1-1.2,2.3-2,3.7-2.3c1.5-0.4,2.9-0.1,4.4,0.5
	c0.6,0.2,1.3,0,1.6-0.6c0.2-0.6,0-1.3-0.6-1.6c-2-0.9-4-1.1-5.9-0.6c-1.8,0.4-3.5,1.3-4.8,2.8l-14.7,3.9l0.4-1.5l7.5-9.4l18,1.6
	c0.1,0,0.4,0,0.5,0c1.5-0.4,2.9-0.4,4.3,0.1s2.6,1.3,3.5,2.4c0.4,0.5,1.2,0.6,1.7,0.2c0.5-0.4,0.6-1.2,0.2-1.7
	C347.5,310.2,345.9,309,344.1,308.5z"/>
<path class="st21" d="M355.3,373.5c-4.7-2.7-7.6-7.6-8-12.9c3.5-7.6,2-16.6-3.9-22.6c-5.4-5.5-13.5-7.5-20.7-5.1
	c1.8,8.4,2.8,12.7,2.8,12.7c1.6,13.3,6.9,21.5,15.5,24.5c10.9,13.2,16.4,19.8,16.4,19.8c1.2-0.2,1.8-0.4,1.8-0.4
	c3.7-6.2,7.3-11.4,11.1-15.4C365.7,376.4,360,376.2,355.3,373.5z"/>
<path class="st24" d="M366,308.4c-0.1-2.8-1.6-5.3-3.8-7c-2.2-1.6-5.1-2.2-7.7-1.5c2.4,0.4,4.7,1.8,5.8,4s1.1,4.8,0,7
	c0,0-0.7,11.5-2.2,34.6c-2.6,5.9-1.5,12.6,2.7,17.4c4.2,4.8,10.8,6.9,16.9,5.1c0.4-0.2,0.6-0.4,1-0.6c0.1-2.2,0.2-3.3,0.2-3.3
	s-4-5.4-12-16.2C366.7,348.1,366.5,334.8,366,308.4z"/>
<path class="st11" d="M440.5,699.7c-1.7,0-3.2,1.5-3.2,3.2s1.5,3.2,3.2,3.2c1.7,0,3.2-1.5,3.2-3.2S442.2,699.7,440.5,699.7z"/>
<path class="st11" d="M428.4,687.3c-0.9,0-1.6,0.7-1.6,1.6s0.7,1.6,1.6,1.6s1.6-0.7,1.6-1.6C430,687.9,429.3,687.3,428.4,687.3z"/>
<path class="st11" d="M454.5,614.6c-0.9,0-1.6,0.7-1.6,1.6c0,0.9,0.7,1.6,1.6,1.6s1.6-0.7,1.6-1.6S455.3,614.6,454.5,614.6z"/>
<path class="st11" d="M352.6,688c-0.9,0-1.6,0.7-1.6,1.6s0.7,1.6,1.6,1.6s1.6-0.7,1.6-1.6C354.2,688.7,353.6,688,352.6,688z"/>
<path class="st11" d="M482.7,535.5c-1.1,0-2.1,1-2.1,2.1s1,2.1,2.1,2.1s2.1-1,2.1-2.1S483.8,535.5,482.7,535.5z"/>
<path class="st11" d="M349.9,474.7c-0.9,0-1.6,0.7-1.6,1.6s0.7,1.6,1.6,1.6c0.9,0,1.6-0.7,1.6-1.6
	C351.4,475.3,350.8,474.7,349.9,474.7z"/>
<path class="st11" d="M497.6,432.6c-0.9,0-1.6,0.7-1.6,1.6c0,0.9,0.7,1.6,1.6,1.6s1.6-0.7,1.6-1.6S498.4,432.6,497.6,432.6z"/>
<path class="st11" d="M530.5,376c-1.5,0-2.6,1.1-2.6,2.6s1.1,2.6,2.6,2.6s2.6-1.1,2.6-2.6C533.1,377.3,532,376,530.5,376z"/>
<path class="st11" d="M453.1,266.9c-0.4,0-0.7,0.4-0.7,0.7s0.4,0.7,0.7,0.7s0.7-0.4,0.7-0.7C454,267.2,453.6,266.9,453.1,266.9z"/>
<path class="st11" d="M369.5,301.4c-0.4,0-0.7,0.4-0.7,0.7s0.4,0.7,0.7,0.7s0.7-0.4,0.7-0.7S369.9,301.4,369.5,301.4z"/>
<path class="st11" d="M514.4,358.3c-0.7,0-1.3,0.6-1.3,1.3s0.6,1.3,1.3,1.3s1.3-0.6,1.3-1.3C515.7,358.9,515.2,358.3,514.4,358.3z"
	/>
<path class="st11" d="M530.8,333c-0.4,0-0.6,0.2-0.6,0.6s0.2,0.6,0.6,0.6s0.6-0.2,0.6-0.6C531.5,333.3,531.2,333,530.8,333z"/>
<g>
	<rect x="57.5" y="298.7" class="st31" width="246" height="97.9"/>
	<rect x="57.5" y="279.8" class="st31" width="246" height="6.4"/>
	<rect x="57.5" y="409.1" class="st31" width="246" height="6.4"/>
	<rect x="57.5" y="423.5" class="st31" width="103.1" height="112.1"/>
	<rect x="168.5" y="423.5" class="st31" width="134.5" height="4.7"/>
	<rect x="168.5" y="434.2" class="st31" width="134.5" height="4.7"/>
	<rect x="168.5" y="444.5" class="st31" width="130.4" height="4.7"/>
	<rect x="168.5" y="455.2" class="st31" width="134.5" height="4.7"/>
	<rect x="168.5" y="467.1" class="st31" width="128.2" height="4.6"/>
	<rect x="168.5" y="477.9" class="st31" width="134.5" height="4.7"/>
	<rect x="168.5" y="488.2" class="st31" width="122.8" height="4.6"/>
	<rect x="168.5" y="498.8" class="st31" width="134.5" height="4.7"/>
	<rect x="168.5" y="509.6" class="st31" width="107" height="4.7"/>
	<rect x="168.5" y="519.9" class="st31" width="126.2" height="4.7"/>
	<rect x="168.5" y="530.6" class="st31" width="85.7" height="4.7"/>
	<rect x="57.5" y="564.8" class="st31" width="51.5" height="11.9"/>
	<rect x="119.2" y="564.8" class="st31" width="51.5" height="11.9"/>
</g>
<rect x="216.3" y="564.8" class="st32" width="51.5" height="11.9"/>
<path class="st33" d="M220,575.3c5.1,0,10.2-1.7,14.2-4.9c1.1-0.9,2.3-2,2.7-3.4s-0.2-3.2-1.6-3.7c-1-0.2-2.1,0.1-2.8,0.9
	s-1.2,1.7-1.6,2.7c-0.5,1.1-0.9,2.3-0.7,3.4c0,1.2,0.5,2.4,1.3,3.2c1,0.7,2.2,1,3.4,1c5.5,0.1,11.5-2.2,14.3-7.1
	c0.6-1.1,1-2.8-0.2-3.4c-0.7-0.4-1.6,0-2.3,0.5c-2.1,1.3-3.6,3.8-3.7,6.4c-0.1,1,0,2,0.6,2.7c0.6,0.9,1.6,1.2,2.6,1.5
	c2.8,0.6,5.8-0.2,8.4-1.5s5.4-2.8,6.9-5.5c0.7-1.3,0.9-3.2-0.4-4c-1.2-0.7-2.9,0.2-3.8,1.5c-1.5,2-2,4.5-1.1,6.9
	c0.9,2.2,3.3,3.8,5.8,3.4"/>
<circle class="st14" cx="180.5" cy="409.3" r="44.4"/>
<g>
	<path class="st34" d="M176.9,421.2c-0.9,0-1.6-0.4-2.2-1l-9.5-9.8c-1.2-1.2-1.1-3.2,0-4.3c1.2-1.2,3.2-1.1,4.3,0l7.5,7.7l17.7-16.5
		c1.2-1.1,3.2-1.1,4.3,0.1c1.1,1.2,1.1,3.2-0.1,4.3l-20,18.5C178.5,421,177.7,421.2,176.9,421.2z"/>
</g>
</svg>
