<?xml version="1.0" encoding="utf-8"?>
<!-- Generator: Adobe Illustrator 16.0.3, SVG Export Plug-In . SVG Version: 6.00 Build 0)  -->
<!DOCTYPE svg PUBLIC "-//W3C//DTD SVG 1.1//EN" "http://www.w3.org/Graphics/SVG/1.1/DTD/svg11.dtd">
<svg version="1.1" id="Layer_1" xmlns="http://www.w3.org/2000/svg" xmlns:xlink="http://www.w3.org/1999/xlink" x="0px" y="0px"
	 width="612px" height="792px" viewBox="0 0 612 792" enable-background="new 0 0 612 792" xml:space="preserve">
<g>
	
		<linearGradient id="SVGID_1_" gradientUnits="userSpaceOnUse" x1="-576.0637" y1="149.0784" x2="-518.9637" y2="144.9784" gradientTransform="matrix(1.224 0 0 -1.224 1013.8742 512.4521)">
		<stop  offset="0" style="stop-color:#000000"/>
		<stop  offset="1" style="stop-color:#FFFFFF"/>
	</linearGradient>
	<rect x="354.348" y="299.549" fill="url(#SVGID_1_)" width="24.357" height="69.156"/>
</g>
<g>
	
		<linearGradient id="SVGID_2_" gradientUnits="userSpaceOnUse" x1="-515.1506" y1="183.3948" x2="-521.7906" y2="116.5348" gradientTransform="matrix(1.224 0 0 -1.224 982.3732 533.6709)">
		<stop  offset="0" style="stop-color:#000000"/>
		<stop  offset="1" style="stop-color:#FFFFFF"/>
	</linearGradient>
	<rect x="322.891" y="331.862" fill="url(#SVGID_2_)" width="47.613" height="58.018"/>
</g>
<g>
	
		<linearGradient id="SVGID_3_" gradientUnits="userSpaceOnUse" x1="-565.9294" y1="117.6262" x2="-452.0794" y2="162.1763" gradientTransform="matrix(1.224 0 0 -1.224 1049.6965 585.7471)">
		<stop  offset="0" style="stop-color:#000000"/>
		<stop  offset="1" style="stop-color:#FFFFFF"/>
	</linearGradient>
	<rect x="390.211" y="369.072" fill="url(#SVGID_3_)" width="118.728" height="72.95"/>
</g>
<g>
	
		<linearGradient id="SVGID_4_" gradientUnits="userSpaceOnUse" x1="-467.2922" y1="223.4104" x2="-481.8924" y2="129.4396" gradientTransform="matrix(1.224 0 0 -1.224 1015.5998 624.7939)">
		<stop  offset="0" style="stop-color:#000000"/>
		<stop  offset="1" style="stop-color:#FFFFFF"/>
	</linearGradient>
	<rect x="356.062" y="379.109" fill="url(#SVGID_4_)" width="150.674" height="101.959"/>
</g>
<g>
	
		<linearGradient id="SVGID_5_" gradientUnits="userSpaceOnUse" x1="-462.3474" y1="138.9636" x2="-517.2073" y2="205.6736" gradientTransform="matrix(1.224 0 0 -1.224 1076.2551 752.0889)">
		<stop  offset="0" style="stop-color:#000000"/>
		<stop  offset="1" style="stop-color:#FFFFFF"/>
	</linearGradient>
	<rect x="416.772" y="452.916" fill="url(#SVGID_5_)" width="102.571" height="155.326"/>
</g>
<g>
	
		<linearGradient id="SVGID_6_" gradientUnits="userSpaceOnUse" x1="-462.3474" y1="138.9636" x2="-517.2073" y2="205.6736" gradientTransform="matrix(1.224 0 0 -1.224 1076.2551 752.0889)">
		<stop  offset="0" style="stop-color:#000000"/>
		<stop  offset="1" style="stop-color:#FFFFFF"/>
	</linearGradient>
	<rect x="416.772" y="452.916" fill="url(#SVGID_6_)" width="102.571" height="155.326"/>
</g>
<g>
	
		<linearGradient id="SVGID_7_" gradientUnits="userSpaceOnUse" x1="-479.3601" y1="242.238" x2="-526.25" y2="138.7582" gradientTransform="matrix(1.224 0 0 -1.224 1128.5168 569.1826)">
		<stop  offset="0" style="stop-color:#000000"/>
		<stop  offset="1" style="stop-color:#FFFFFF"/>
	</linearGradient>
	<rect x="469.036" y="293.306" fill="url(#SVGID_7_)" width="66.953" height="132.07"/>
</g>
<g>
	
		<linearGradient id="SVGID_8_" gradientUnits="userSpaceOnUse" x1="-479.3601" y1="242.238" x2="-526.25" y2="138.7582" gradientTransform="matrix(1.224 0 0 -1.224 1128.5168 569.1826)">
		<stop  offset="0" style="stop-color:#000000"/>
		<stop  offset="1" style="stop-color:#FFFFFF"/>
	</linearGradient>
	<rect x="469.036" y="293.306" fill="url(#SVGID_8_)" width="66.953" height="132.07"/>
</g>
<g>
	
		<linearGradient id="SVGID_9_" gradientUnits="userSpaceOnUse" x1="-502.9021" y1="99.4807" x2="-518.9522" y2="163.2408" gradientTransform="matrix(1.224 0 0 -1.224 968.883 583.2119)">
		<stop  offset="0" style="stop-color:#000000"/>
		<stop  offset="1" style="stop-color:#FFFFFF"/>
	</linearGradient>
	<rect x="309.427" y="355.853" fill="url(#SVGID_9_)" width="55.692" height="83.599"/>
</g>
<g>
	
		<linearGradient id="SVGID_10_" gradientUnits="userSpaceOnUse" x1="-516.8152" y1="119.0823" x2="-546.0552" y2="133.6223" gradientTransform="matrix(1.224 0 0 -1.224 1029.0774 345.8369)">
		<stop  offset="0" style="stop-color:#000000"/>
		<stop  offset="1" style="stop-color:#FFFFFF"/>
	</linearGradient>
	<rect x="369.648" y="183.513" fill="url(#SVGID_10_)" width="24.235" height="18.482"/>
</g>
<g>
	<path fill="#2EB78D" d="M237.578,558.548c-10.894,64.749,19.706,129.499,76.744,162.058c10.159,2.447,15.301,3.672,15.301,3.672
		C339.17,654.754,301.716,587.311,237.578,558.548z"/>
	<path fill="#FFFFFF" d="M244.922,568.829c-0.367-0.611-1.102-0.856-1.836-0.611c-0.611,0.366-0.856,1.102-0.611,1.836l78.213,153
		c0.367,0.611,1.102,0.856,1.836,0.611c0.612-0.367,0.856-1.102,0.612-1.836L244.922,568.829z"/>
	<path fill="#1B966D" d="M132.192,689.637c47.981,44.799,118.851,55.08,177.48,25.46c7.589-7.1,11.505-10.771,11.505-10.771
		C268.423,658.181,191.434,652.183,132.192,689.637z"/>
	<path fill="#FFFFFF" d="M315.547,708.487L144.799,689.27c-0.734-0.122-1.347,0.49-1.469,1.225s0.489,1.346,1.224,1.469
		l170.748,19.217c0.734,0.122,1.347-0.49,1.469-1.225C316.771,709.221,316.281,708.61,315.547,708.487z"/>
	<path fill="#41D8AD" d="M150.185,602.978c20.931,62.18,78.458,104.774,144.064,106.733c10.159-2.693,15.178-4.039,15.178-4.039
		C285.07,639.943,220.198,598.083,150.185,602.978z"/>
	<path fill="#FFFFFF" d="M161.446,608.609c-0.612-0.367-1.469-0.245-1.836,0.367s-0.245,1.469,0.367,1.836l141.249,97.92
		c0.612,0.367,1.469,0.245,1.836-0.367s0.245-1.469-0.367-1.836L161.446,608.609z"/>
	<path fill="#FFFFFF" d="M233.172,644.718c-1.225,0-2.203,0.979-2.203,2.203c0,1.224,0.979,2.203,2.203,2.203
		c1.224,0,2.203-0.979,2.203-2.203C235.375,645.696,234.396,644.718,233.172,644.718z"/>
</g>
<g>
	<path fill="#2EB78D" d="M440.518,706.407c0,0,5.018-1.469,15.055-4.529c55.08-35.863,81.886-102.204,67.32-166.219
		C460.591,568.094,427.053,637.496,440.518,706.407z"/>
	<path fill="#FFFFFF" d="M517.996,545.695c-0.611-0.244-1.469,0-1.713,0.734l-69.401,157.162c-0.245,0.612,0,1.469,0.734,1.714
		c0.612,0.244,1.469,0,1.714-0.734l69.4-157.162C518.976,546.797,518.731,546.062,517.996,545.695z"/>
	<path fill="#1B966D" d="M416.65,682.172c0,0,3.427,3.917,10.281,11.873c55.325,35.373,126.807,32.558,179.193-7.1
		C551.044,643.493,473.933,641.535,416.65,682.172z"/>
	<path fill="#FFFFFF" d="M593.64,685.231L421.79,686.7c-0.734,0-1.347,0.612-1.347,1.347s0.612,1.347,1.347,1.347l171.85-1.469
		c0.734,0,1.347-0.612,1.347-1.347S594.374,685.231,593.64,685.231z"/>
	<path fill="#41D8AD" d="M439.415,703.837c0,0,5.019,1.346,15.178,4.039c65.606-1.836,123.135-44.432,144.065-106.733
		C528.768,596.247,463.896,638.107,439.415,703.837z"/>
	<path fill="#FFFFFF" d="M587.52,606.773l-141.25,97.92c-0.611,0.367-0.734,1.224-0.367,1.836s1.225,0.734,1.836,0.367l141.25-97.92
		c0.612-0.367,0.734-1.224,0.367-1.836C588.866,606.528,588.132,606.406,587.52,606.773z"/>
	<path fill="#FFFFFF" d="M518.609,640.801c-1.224,0-2.203,0.979-2.203,2.203c0,1.224,0.979,2.203,2.203,2.203
		s2.203-0.979,2.203-2.203C520.812,641.779,519.832,640.801,518.609,640.801z"/>
	<path fill="#FFFFFF" d="M502.697,650.593c-1.469,0-2.57,1.102-2.57,2.57s1.102,2.57,2.57,2.57s2.57-1.102,2.57-2.57
		C505.267,651.816,504.043,650.593,502.697,650.593z"/>
</g>
<path fill="#FFFFFF" d="M326.073,193.061c-3.428-0.857-6.977,0.122-9.547,2.447c-0.735-7.222-6.243-13.097-13.342-14.198
	c-7.222-1.102-14.198,2.693-17.136,9.425c-2.326-19.462-19.095-33.782-38.679-33.17c-19.584,0.611-35.374,16.156-36.353,35.74
	c-3.795-3.183-8.69-4.651-13.587-4.161c-4.896,0.489-9.425,2.938-12.484,6.731c-3.183-2.938-7.589-4.284-11.873-3.427
	c-4.284,0.856-7.956,3.55-9.792,7.466c0,0,56.671-0.122,170.136-0.367C332.194,196.243,329.5,193.796,326.073,193.061z"/>
<path fill="#FFFFFF" d="M118.239,225.375c-1.836-0.49-3.672,0-5.019,1.346c-0.367-3.794-3.305-6.977-7.1-7.589
	c-3.794-0.611-7.588,1.469-9.058,5.019c-1.224-10.281-10.159-17.992-20.563-17.625c-10.404,0.367-18.85,8.567-19.34,18.972
	c-1.958-1.714-4.65-2.448-7.222-2.203c-2.57,0.245-5.018,1.591-6.609,3.55c-1.713-1.592-4.039-2.203-6.364-1.836
	c-2.326,0.367-4.162,1.958-5.264,4.039c0,0,30.233-0.123,90.576-0.245C121.421,227.088,119.952,225.742,118.239,225.375z"/>
<path fill="#0000FF" d="M203.184,98.079c5.141,5.997,7.834,8.935,7.834,8.935c2.938-7.099,4.406-10.771,4.406-10.771
	c-3.305,4.04-5.019,5.998-5.019,5.998S207.957,100.893,203.184,98.079z"/>
<path fill="#0000FF" d="M232.071,129.658c3.794,4.283,5.63,6.364,5.63,6.364c2.081-5.141,3.183-7.711,3.183-7.711
	c-2.448,2.938-3.672,4.284-3.672,4.284S235.497,131.616,232.071,129.658z"/>
<path fill="#0000FF" d="M297.432,115.949c3.794,4.284,5.63,6.364,5.63,6.364c2.081-5.141,3.183-7.711,3.183-7.711
	c-2.448,2.938-3.672,4.284-3.672,4.284S300.859,118.03,297.432,115.949z"/>
<path fill="#0000FF" d="M169.891,131.494c3.061,3.427,4.529,5.263,4.529,5.263c1.714-4.161,2.57-6.242,2.57-6.242
	c-1.958,2.325-2.938,3.55-2.938,3.55S172.584,133.207,169.891,131.494z"/>
<path fill="#0000FF" d="M507.103,138.593c5.141,5.998,7.834,8.936,7.834,8.936c2.938-7.1,4.406-10.771,4.406-10.771
	c-3.305,4.039-5.019,5.998-5.019,5.998S511.876,141.408,507.103,138.593z"/>
<path fill="#00213D" d="M457.408,539.331c-36.353-20.074-79.927-19.462-114.444,1.347c-34.517,20.93-53.121,34.639-51.285,75.521
	c-6.12,54.346-10.771,105.876-10.771,105.876c69.89,0,104.773,0,104.773,0c11.873-34.884,17.871-52.265,17.871-52.265
	c4.528,34.884,6.731,52.265,6.731,52.265c64.994,0,97.431,0,97.431,0s3.672-28.152,11.139-84.334
	C517.14,596.859,493.639,559.282,457.408,539.331z"/>
<path fill="#001324" d="M388.13,597.47c2.692,52.143-25.582,100.98-72.216,124.726c0,0,20.931,0,62.791,0
	c0,0,7.344-19.706,21.909-59.241c0,0-0.979-9.058-2.938-27.051C393.149,627.459,389.844,614.729,388.13,597.47z"/>
<path d="M388.252,659.65c-14.933-9.303-29.131-19.829-42.473-31.212c-13.342-11.384-25.826-23.868-37.332-37.21
	c-0.611-0.734-1.591-0.734-2.325-0.122c-0.734,0.611-0.734,1.591-0.122,2.325c11.628,13.464,24.234,25.949,37.698,37.577
	c13.465,11.505,27.785,22.031,42.841,31.456c0.734,0.49,1.713,0.245,2.203-0.489C389.354,661.119,389.11,660.139,388.252,659.65z"/>
<path d="M384.091,669.075c-9.303-3.061-18.604-6.243-27.785-9.548c-9.18-3.305-18.237-6.854-27.417-10.526
	c-0.857-0.367-1.836,0.123-2.081,0.857c-0.367,0.856,0.122,1.836,0.856,2.08c9.058,3.673,18.238,7.222,27.54,10.526
	c9.303,3.428,18.482,6.61,27.907,9.67c0.857,0.245,1.714-0.245,2.081-0.979C385.438,670.299,384.948,669.442,384.091,669.075z"/>
<path d="M472.586,636.884c-8.078,7.222-17.259,13.219-27.051,17.625c-9.792,4.407-20.318,7.345-31.089,8.568
	c-0.857,0.122-1.469,0.856-1.469,1.836c0.122,0.857,0.856,1.469,1.836,1.469c11.138-1.346,21.909-4.284,32.068-8.813
	c10.159-4.529,19.584-10.648,27.907-18.115c0.612-0.612,0.734-1.591,0.122-2.325C474.3,636.271,473.198,636.271,472.586,636.884z"/>
<path d="M399.391,636.516c0-0.122-0.122-0.245-0.122-0.367c-3.55-8.201-5.875-16.769-7.1-25.459
	c-1.102-8.69-1.102-17.504,0.245-26.316c0.122-0.856-0.49-1.714-1.347-1.836s-1.714,0.489-1.836,1.347
	c-1.347,9.058-1.347,18.115-0.245,27.173c1.225,8.935,3.672,17.748,7.222,26.193l5.875,32.926c0.123,0.856,0.979,1.469,1.837,1.346
	c0.856-0.122,1.469-0.979,1.346-1.836L399.391,636.516z"/>
<path fill="#FFE0DB" d="M349.697,291.225c0,0-2.815,84.823-8.323,254.47c31.579,21.543,72.094,25.215,106.978,9.67
	c10.771-180.54,16.157-270.871,16.157-270.871C427.176,268.827,384.825,271.397,349.697,291.225z"/>
<path fill="#FFF2F0" d="M442.231,287.431c-5.997-9.915-18.604-13.342-28.642-7.956l-3.55-1.714
	c-18.85-23.501-41.248-2.57-37.209,18.237c-3.305,5.509-4.039,12.363-1.714,18.605c0.245,0.856,0.489,1.713,0.856,2.448
	c0.367,0.979,0.735,1.836,1.103,2.814c-0.49,0.245-0.857,0.367-1.347,0.612c-0.857,0.367-1.592,0.856-2.448,1.224
	c-2.325,1.102-4.284,2.57-5.875,4.407l-1.347,1.346c-4.284,4.284-6.364,9.792-6.364,15.3l0,0v0.734
	c0,11.996,9.669,21.665,21.664,21.665c5.631,0,10.771-2.203,14.688-5.753c1.469-0.122,2.938-0.244,4.406-0.611
	c0.489,0.244,0.979,0.611,1.469,0.856c0.245,0.122,0.367,0.245,0.612,0.367c0.489,0.245,0.979,0.612,1.469,0.856
	c1.714,1.102,3.794,2.081,5.63,2.693l0.367,0.122c11.384,3.795,23.623-2.325,27.418-13.709c1.347-3.916,1.469-7.956,0.489-11.75
	c0.245-0.367,0.612-0.734,0.857-1.102c0.856-1.224,1.591-2.326,2.325-3.672l0.245-0.49c2.938-5.752,2.938-12.239,0.734-17.748
	C445.658,307.995,447.616,296.611,442.231,287.431z"/>
<path fill="#3B3BF2" d="M555.084,286.085c-6.365-6.242-15.79-11.873-28.887-17.259c-19.707-8.078-47.491-21.297-58.508-25.092
	l-105.631,18.238l-51.775,14.198l13.097,319.097c29.866-49.816,45.166-107.1,45.778-171.728
	c7.833,4.529,21.053,12.853,39.902,24.848c3.794,67.075,22.154,132.56,53.733,191.923c35.251,3.55,70.747-3.672,101.837-20.808
	l-39.78-161.323C547.495,397.101,586.663,317.052,555.084,286.085z M437.335,332.474l-0.245,0.489
	c-0.612,1.347-1.469,2.448-2.325,3.673c-0.245,0.367-0.49,0.734-0.857,1.102c0.857,3.794,0.734,7.833-0.489,11.75
	c-3.795,11.383-16.034,17.503-27.418,13.709l-0.367-0.123c-1.836-0.611-4.039-1.591-5.63-2.692c-0.49-0.245-0.979-0.612-1.469-0.856
	c-0.245-0.123-0.367-0.245-0.612-0.367c-0.489-0.245-0.979-0.49-1.469-0.857c-1.469,0.367-2.815,0.612-4.406,0.612
	c-3.917,3.55-9.058,5.753-14.688,5.753c-11.995,0-21.665-9.67-21.665-21.665v-0.734l0,0c0-5.508,2.081-11.139,6.365-15.3
	l1.347-1.347c1.714-1.714,3.672-3.183,5.875-4.406c0.856-0.367,1.591-0.856,2.448-1.224c0.489-0.245,0.856-0.49,1.346-0.612
	c-0.489-0.856-0.856-1.836-1.102-2.815c-0.367-0.856-0.611-1.591-0.856-2.448c-2.325-6.242-1.469-13.097,1.714-18.604
	c-4.039-20.808,18.359-41.738,37.209-18.237l3.55,1.714c10.159-5.386,22.767-1.959,28.642,7.955
	c5.508,9.058,3.428,20.563-4.161,27.296C440.273,320.357,440.151,326.721,437.335,332.474z"/>
<polygon fill="#3A3AF9" points="403.553,306.158 384.58,363.686 413.222,379.109 423.993,364.299 419.831,307.137 "/>
<path fill="#F24848" d="M391.19,436.882l0.245,0.123L391.19,436.882z"/>
<path fill="#3A3AF9" d="M406.98,446.062c-0.734-0.123-1.347-0.367-1.958-0.734c-0.367-0.245-0.734-0.367-1.102-0.612
	c-0.245-0.122-0.367-0.245-0.612-0.489c-0.122-0.123-0.245-0.123-0.367-0.245c-0.122-0.123-0.367-0.245-0.489-0.367
	c-0.245-0.123-0.367-0.245-0.612-0.367c-0.245-0.123-0.489-0.367-0.612-0.49c-0.122-0.122-0.245-0.122-0.367-0.244
	c-0.122-0.123-0.367-0.245-0.489-0.367c-0.123-0.123-0.367-0.245-0.489-0.367c-0.245-0.123-0.367-0.245-0.612-0.245
	c-0.367-0.122-0.979-0.489-1.225-0.734c-0.244-0.122-0.367-0.245-0.611-0.367h-0.123c-0.244-0.122-0.489-0.245-0.734-0.367
	c-0.244-0.122-0.489-0.245-0.734-0.489c-0.244-0.123-0.489-0.245-0.611-0.367c-0.123,0-0.245-0.123-0.245-0.245
	c-0.245-0.122-0.367-0.245-0.612-0.367c-0.367-0.122-0.611-0.367-0.856-0.489c-0.367-0.123-0.612-0.245-0.857-0.49
	c-0.244-0.122-0.489-0.244-0.856-0.489c-0.245-0.122-0.367-0.245-0.612-0.367c-0.367-0.245-0.734-0.367-0.979-0.612
	c-0.49-0.244-0.857-0.367-1.347-0.734c-0.245-0.122-0.489-0.367-0.734-0.489c-0.122-0.122-0.245-0.122-0.367-0.245
	c-0.367-0.122-0.612-0.367-0.856-0.611c-0.367-0.245-0.734-0.49-1.225-0.734c-0.244-0.123-0.367-0.245-0.611-0.367
	c-0.49-0.245-0.857-0.367-1.225-0.735c-0.367-0.244-0.734-0.367-0.979-0.734c-0.123-0.122-0.245-0.122-0.367-0.244
	c-1.225-0.245-2.204-0.857-2.815-1.836c-0.979,0-1.959,0-3.061,0l-9.18,83.109l21.909,21.175l19.217-18.482l-1.591-68.421
	C407.102,446.797,407.102,446.429,406.98,446.062z"/>
<path fill="#3B3BF2" d="M410.652,282.902c-6.731,0.245-12.975,3.305-17.014,8.446c0.49,6.364,4.284,12.239,10.037,15.177
	c5.753,3.061,12.607,2.693,17.87-0.734c5.264-3.427,8.078-9.547,7.467-15.911C423.993,285.228,417.384,282.658,410.652,282.902z"/>
<path fill="#FFF2F0" d="M419.097,251.201c-20.563-2.693-34.026-4.162-40.146-4.162c-5.264,16.646-7.956,24.97-7.956,24.97
	s4.406,8.079,13.342,24.113c0,0,9.302-3.917,27.906-11.751c19.218,6.978,28.765,10.526,28.765,10.526
	c10.894-33.904,16.401-50.918,16.401-50.918C446.27,236.268,433.54,238.716,419.097,251.201z"/>
<path fill="#FFC052" d="M451.656,208.728c0,0-25.092,5.141-75.153,15.422c0.856,7.589,1.591,15.178,2.448,22.767
	c3.917,15.912,16.891,28.152,33.048,31.212c19.462-3.794,35.251-18.237,40.759-37.332
	C450.677,230.27,450.309,219.377,451.656,208.728z"/>
<path fill="#FF6C03" d="M451.656,208.728c-45.655,17.748-68.544,26.561-68.544,26.561c25.337,26.806,37.944,40.147,37.944,40.147
	c7.222-2.815,13.709-7.222,19.095-12.729c5.875-6.12,10.281-13.709,12.606-21.91C450.799,231.128,450.309,220.356,451.656,208.728z"
	/>
<path fill="#C90000" d="M451.656,208.728c-29.376,15.667-48.103,28.274-56.059,37.576c8.567,6.61,19.584,9.425,30.232,7.712
	c10.771-1.714,20.196-7.834,26.316-16.77C450.677,228.924,450.554,219.499,451.656,208.728z"/>
<path fill="#FFC45E" d="M464.263,175.435c-7.344,0.367-14.565,7.834-16.279,16.769c-1.591,8.936,3.061,15.912,10.404,15.667
	c7.344-0.244,14.565-7.833,16.279-16.769C476.38,182.167,471.73,175.068,464.263,175.435z"/>
<path fill="#FF6C03" d="M461.693,181.8c-4.529,0.245-8.936,4.774-9.914,10.282c-0.979,5.508,1.836,9.792,6.364,9.547
	c4.529-0.244,8.936-4.773,9.914-10.281C469.036,185.84,466.221,181.555,461.693,181.8z"/>
<path fill="#C90000" d="M458.265,186.696c-2.325,0.122-4.65,2.448-5.141,5.264c-0.489,2.814,0.979,5.018,3.305,4.896
	c2.326-0.122,4.651-2.448,5.142-5.264C462.06,188.777,460.591,186.574,458.265,186.696z"/>
<ellipse transform="matrix(-0.4967 -0.8679 0.8679 -0.4967 370.8204 604.6069)" fill="#FFC45E" cx="360.711" cy="194.787" rx="17.013" ry="12.607"/>
<path fill="#FF6C03" d="M359.978,184.982c-4.528,0-7.222,4.406-5.997,9.792c1.224,5.386,5.875,9.792,10.404,9.792
	c4.528,0,7.221-4.406,5.997-9.792S364.507,184.982,359.978,184.982z"/>
<path fill="#C90000" d="M363.651,189.634c-2.326,0-3.673,2.326-3.061,5.141c0.612,2.815,3.061,5.141,5.386,5.141
	s3.672-2.325,3.06-5.141C368.301,191.96,365.976,189.634,363.651,189.634z"/>
<path fill="#FFC45E" d="M435.989,133.697c-16.892-11.017-38.801-10.649-54.346,2.081c-15.178,12.239-18.359,32.436-14.076,52.509
	c-1.469,19.095,5.631,37.822,19.462,51.163c5.875,6.854,14.443,10.771,23.501,10.771s17.625-3.917,23.501-10.771
	c14.075-14.442,21.297-34.271,19.828-54.345C456.062,160.747,451.901,143.978,435.989,133.697z"/>
<path fill="#FFEDB2" d="M435.989,133.697c-1.958-1.347-4.161-2.448-6.242-3.428c8.445,15.423,13.342,33.049,13.342,52.021
	c0,25.092-8.446,48.104-22.767,66.463c5.263-1.714,10.036-4.896,13.831-9.18c14.076-14.443,21.298-34.272,19.829-54.346
	C456.062,160.747,451.901,143.978,435.989,133.697z"/>
<path fill="#FF6C03" d="M380.174,144.713c-11.75,4.039-19.584,15.3-19.095,27.662c0,0,2.815,3.673,8.446,11.139
	c0.244,22.032,5.753,39.168,16.523,51.163c-3.549-14.443,13.342-18.359,10.404-33.782c-1.347-7.222-6.732-13.342-9.058-20.318
	c-5.019-15.422,8.936-29.254,24.725-25.704C404.899,144.836,391.924,140.674,380.174,144.713z"/>
<path fill="#4D2700" d="M441.496,117.785c-9.669-23.134-42.84-21.298-31.701-10.159c-24.725-9.547-42.84,2.448-51.775,15.545
	c-11.139,16.279-10.159,36.842-0.489,31.579c-0.49,8.568,0.979,17.136,4.284,24.97c3.182,1.836,5.263,4.896,5.63,8.567
	c-1.714-10.526-0.612-19.828,3.06-27.907c-0.856,6.487,20.196-1.713,26.438-9.669c3.55,8.078,28.765,6.12,43.085-10.526
	c0.734,13.097,13.342,18.115,13.831,44.921c-0.122-4.407,3.795-8.079,7.834-9.181c2.815-8.2,2.325-17.87,0.979-26.438
	c7.099,4.162,11.75-14.442,1.224-25.581C458.265,117.785,449.574,115.46,441.496,117.785z"/>
<path fill="#261000" d="M409.795,107.626c-24.725-9.547-42.84,2.448-51.775,15.545c-11.139,16.279-10.159,36.842-0.489,31.579
	c-0.49,8.567,0.979,17.136,4.283,24.97c3.183,1.836,5.264,4.896,5.631,8.567c-1.714-10.526-0.612-19.828,3.06-27.907
	c-0.489,4.04,7.712,2.326,15.423-1.591c-1.224-6.854-0.734-14.076,1.591-21.175c6.732-20.318,27.173-32.314,47.736-29.132
	C422.403,95.508,400.492,98.323,409.795,107.626z"/>
<path fill="#7A3F04" d="M441.496,117.785c-8.813-20.931-36.842-21.42-33.66-12.975c22.277,0.245,41.004,17.503,42.596,40.147
	c0.367,5.386-0.245,10.771-1.714,15.667c2.693,5.753,5.019,13.22,5.264,24.357c-0.123-4.406,3.794-8.078,7.833-9.18
	c2.815-8.201,2.326-17.87,0.979-26.438c7.099,4.161,11.75-14.443,1.224-25.582C458.265,117.785,449.574,115.46,441.496,117.785z"/>
<path fill="#4D2700" d="M431.215,162.95c-4.651-0.611-9.303,0.245-13.587,2.571c-0.734,0.367-0.979,1.224-0.611,1.958
	s1.224,0.979,1.958,0.612c3.795-2.081,7.956-2.693,11.995-2.203c4.039,0.489,7.956,2.203,11.017,5.141
	c0.611,0.489,1.469,0.489,1.958-0.123c0.489-0.611,0.489-1.469-0.122-1.958C440.273,165.398,435.866,163.44,431.215,162.95z"/>
<path fill="#4D2700" d="M400.615,166.623c-4.283-2.326-9.058-3.183-13.586-2.57c-4.651,0.611-9.058,2.57-12.607,5.875
	c-0.612,0.489-0.612,1.469-0.122,1.958c0.489,0.612,1.469,0.612,1.958,0.122c3.183-2.938,6.978-4.65,11.017-5.141
	c4.039-0.489,8.2,0.245,11.995,2.203c0.734,0.367,1.591,0.123,1.958-0.611C401.594,167.846,401.349,166.99,400.615,166.623z"/>
<path d="M389.232,180.331c-1.347,0-2.448,1.102-2.448,2.448s1.102,2.448,2.448,2.448s2.448-1.102,2.448-2.448
	S390.578,180.331,389.232,180.331z"/>
<path d="M429.868,180.209c-1.224,0-2.203,0.979-2.203,2.203c0,1.225,0.979,2.203,2.203,2.203c1.225,0,2.203-0.979,2.203-2.203
	C432.195,181.31,431.215,180.209,429.868,180.209z"/>
<path fill="#FFFFFF" d="M434.642,173.354c-1.836,0-3.305,1.469-3.305,3.305s1.469,3.305,3.305,3.305s3.305-1.469,3.305-3.305
	S436.478,173.354,434.642,173.354z"/>
<path fill="#FFFFFF" d="M395.352,175.19c-1.836,0-3.305,1.469-3.305,3.305s1.469,3.305,3.305,3.305s3.305-1.469,3.305-3.305
	S397.188,175.19,395.352,175.19z"/>
<path fill="#C90000" d="M423.993,213.747c-4.039,3.794-8.813,5.752-13.587,5.752c-4.773,0-9.547-1.958-13.586-5.752
	c-0.489-0.49-1.347-0.49-1.836,0c-0.489,0.489-0.489,1.346,0,1.836c4.528,4.283,9.914,6.487,15.3,6.487s10.771-2.204,15.3-6.487
	c0.49-0.49,0.49-1.347,0-1.836C425.34,213.257,424.606,213.257,423.993,213.747z"/>
<path fill="#C90000" d="M417.139,224.395c-1.958,1.836-4.406,2.815-6.732,2.815c-2.325,0-4.65-0.979-6.731-2.815
	c-0.245-0.245-0.612-0.245-0.856,0c-0.245,0.245-0.245,0.612,0,0.856c2.203,2.081,4.896,3.183,7.588,3.183
	c2.693,0,5.386-1.102,7.589-3.183c0.245-0.244,0.245-0.611,0-0.856C417.873,224.15,417.384,224.15,417.139,224.395z"/>
<path fill="#C90000" d="M374.299,184.493c0,0-1.592-0.367-4.773-0.979c0,3.428,0.244,6.854,0.489,10.282
	c2.203,4.161,6.12,6.977,10.771,7.956c4.528,0.856,9.302-0.245,12.975-3.306C384.703,199.426,376.38,193.428,374.299,184.493z"/>
<path fill="#FFFFFF" d="M461.325,174.823l-15.79,7.956c-0.122-4.161-1.836-7.833-4.65-10.526c-2.815-2.815-6.854-4.651-11.139-4.651
	c-4.406,0-8.323,1.714-11.139,4.651c-1.591,1.592-2.815,3.428-3.55,5.508c-0.489-0.367-0.979-0.734-1.469-1.102
	c-1.224-0.734-2.57-1.102-3.917-1.102c-1.346,0-2.692,0.367-3.916,1.102c-0.49,0.367-0.979,0.734-1.469,1.102
	c-0.857-2.08-2.081-3.916-3.55-5.508c-2.815-2.815-6.854-4.651-11.139-4.651c-4.406,0-8.323,1.714-11.139,4.651
	c-2.814,2.815-4.528,6.732-4.651,11.017l-15.544-7.712c-0.49-0.244-1.225,0-1.469,0.49c-0.245,0.489,0,1.224,0.489,1.469
	l16.646,8.323c0.489,3.427,2.081,6.487,4.406,8.935c2.815,2.815,6.854,4.651,11.139,4.651c4.406,0,8.323-1.714,11.138-4.651
	c2.815-2.814,4.651-6.854,4.651-11.138c0-1.102-0.122-2.204-0.367-3.183c0.49-0.734,1.102-1.225,1.836-1.714
	c0.857-0.489,1.836-0.734,2.815-0.734s1.958,0.245,2.815,0.734c0.734,0.367,1.346,0.979,1.836,1.591
	c-0.245,1.102-0.367,2.204-0.367,3.306c0,4.406,1.714,8.323,4.651,11.138c2.814,2.815,6.854,4.651,11.138,4.651
	c4.407,0,8.323-1.714,11.139-4.651c2.448-2.447,4.039-5.63,4.529-9.302l16.891-8.446c0.49-0.244,0.734-0.856,0.49-1.469
	C462.427,174.823,461.815,174.579,461.325,174.823z M399.024,192.938c-2.448,2.448-5.875,4.039-9.67,4.039
	c-3.794,0-7.221-1.469-9.669-4.039c-2.448-2.448-4.039-5.875-4.039-9.669c0-3.795,1.469-7.222,4.039-9.67
	c2.448-2.448,5.875-4.039,9.669-4.039c3.795,0,7.222,1.469,9.67,4.039c2.448,2.448,4.039,5.875,4.039,9.67
	C403.063,187.063,401.472,190.49,399.024,192.938z M439.293,192.938c-2.448,2.448-5.875,4.039-9.67,4.039
	c-3.794,0-7.221-1.469-9.669-4.039c-2.448-2.448-4.039-5.875-4.039-9.669c0-3.795,1.469-7.222,4.039-9.67
	c2.448-2.448,5.875-4.039,9.669-4.039c3.795,0,7.222,1.469,9.67,4.039c2.448,2.448,4.039,5.875,4.039,9.67
	C443.332,187.063,441.741,190.49,439.293,192.938z"/>
<path fill="#FF6C03" d="M417.995,194.407c-3.305-8.078-4.896-12.117-4.896-12.117c-0.612-1.469-2.081-2.448-3.672-2.448
	c-1.592,0-2.938,1.102-3.428,2.57c0,0-1.224,3.795-3.916,12.24c-9.426,2.57-9.67,7.956-0.735,10.648
	c5.509,5.141,10.894,5.386,15.912,0.123C426.809,202.486,427.665,196.855,417.995,194.407z"/>
<path fill="#3030F9" d="M356.062,281.189c10.403,2.08,15.544,3.06,15.544,3.06c-14.688,4.651-22.031,6.854-22.031,6.854
	c10.036,45.41,14.933,68.177,14.933,68.177c8.445,3.06,12.729,4.528,12.729,4.528s0.489-39.045,1.591-117.014
	c-11.261,10.036-17.014,15.055-17.014,15.055C358.02,274.824,356.062,281.189,356.062,281.189z"/>
<path fill="#3A3AF9" d="M465.732,249.243c-13.709,27.906-20.563,41.982-20.563,41.982c-23.378,64.016-33.904,93.024-31.579,87.149
	c0,0,16.77,7.956,50.307,23.745c0,0,0.122-1.714,0.367-5.019c-22.644-20.44-23.378-55.447-0.979-76.377
	c3.061-2.815,6.12-5.386,9.303-7.834c12.24-9.547,23.99-17.748,22.644-35.985C494.251,262.584,482.99,250.589,465.732,249.243z"/>
<path fill="#3A3AF9" d="M354.837,386.453c3.305-7.467,2.203-16.034-2.815-22.399c-5.018-6.364-13.219-9.303-21.175-7.833
	c-7.956,1.591-14.443,7.466-16.646,15.3c-7.222,14.32-6.12,31.334,2.815,44.554c18.115,26.928,42.105,14.198,47.736,23.256
	c0.367-11.873,0.489-17.748,0.489-17.748c-11.384-7.834-17.136-11.751-17.136-11.751
	C356.429,396.123,358.632,388.289,354.837,386.453z"/>
<path fill="#002342" d="M502.574,418.399c1.224,2.448,2.814,4.896,4.65,6.978C506.001,422.928,504.41,420.48,502.574,418.399z"/>
<path fill="#3A3AF9" d="M535.99,293.428c-13.831-1.102-26.071,8.568-28.152,22.277c-25.826,59.608-38.801,89.475-38.801,89.475
	c12.853-1.592,25.459,3.549,33.538,13.219c-3.55-7.1-4.407-15.3-2.326-23.134c3.917-14.688,13.342-18.482,21.543-23.501
	c17.625-10.526,17.992-27.662,5.018-42.473c-4.773-5.386-9.18-10.648-6.731-20.563C521.913,301.017,528.156,295.02,535.99,293.428z"
	/>
<path fill="#3A3AF9" d="M466.711,479.477c-18.728-10.649-35.374-19.584-49.939-26.438c2.815,47.491,13.709,95.839,32.681,144.799
	c-2.203-8.323-2.325-17.136,0-25.581c13.464-49.205,85.436-26.806,66.708-95.228C498.903,491.717,482.378,492.451,466.711,479.477z"
	/>
<path fill="#002342" d="M449.452,597.716c0.979,3.672,2.326,7.222,4.162,10.526C452.268,604.814,450.799,601.265,449.452,597.716z"
	/>
<path fill="#3A3AF9" d="M457.041,430.517c-13.097-5.141-29.009-3.428-42.84-3.305c-10.526,0.122-20.686-1.714-29.865-10.404
	c-10.159-9.67-14.443-24.113-11.017-37.822c-7.222,8.446-13.097,17.993-17.136,28.274c32.436,20.441,69.156,41.861,110.16,64.261
	c15.789,11.261,29.253,12.362,40.514,3.183C474.055,482.904,486.662,442.145,457.041,430.517z"/>
<path fill="#3030F9" d="M472.708,272.376l-5.141-28.519l-16.401-13.464c0.367,3.549,0.856,7.099,1.469,10.526l-44.921,134.885
	l3.427,2.692c0.612-0.122,1.47-0.245,2.081,0l0.49,0.122c0.489,0.123,0.979,0.245,1.469,0.612c0.367,0.122,0.611,0.245,0.979,0.489
	l0.734,0.367c0.367,0.123,0.612,0.367,0.979,0.612c0.245,0.122,0.612,0.367,0.856,0.489l0,0c0.49,0.123,0.857,0.367,1.225,0.734
	c0.367,0.123,0.734,0.245,1.102,0.49c0.122,0.122,0.367,0.122,0.489,0.244c17.381-32.681,35.741-64.749,55.08-96.328l-24.603-3.55
	L472.708,272.376z"/>
<path fill="#0000FF" d="M558.756,290.369c-24.113,11.995-6.854,32.313-4.406,53.366c4.283,36.23-37.088,28.029-42.474,66.83
	c-2.203,15.301,3.795,30.723,15.79,40.515c9.18-23.133,17.381-44.554,24.479-64.26c6.12-17.014,10.526-32.926,13.097-47.491
	c1.959-11.383,2.204-21.175,1.103-29.498C565.365,302.609,562.795,296.122,558.756,290.369z"/>
<path fill="#0000FF" d="M496.209,412.524c-8.323-6.854-19.339-9.548-29.865-7.222c-16.892-10.648-42.229-22.645-76.011-36.23
	c-2.203,25.092,18.482,47.98,44.064,45.777c10.036-0.856,18.972-4.039,28.519,0.49c16.77,8.078,15.667,33.17,46.022,25.092
	C509.184,429.66,504.532,419.379,496.209,412.524z"/>
<path fill="#FFFFFF" stroke="#E4E6ED" stroke-miterlimit="10" d="M323.136,253.404H38.067c-3.55,0-6.487,2.938-6.487,6.487v365.731
	c0,3.55,2.938,6.487,6.487,6.487h285.069c3.55,0,6.487-2.938,6.487-6.487V259.891C329.623,256.342,326.686,253.404,323.136,253.404z
	"/>
<path fill="#0000FF" d="M521.179,505.671l-72.216,27.418c-0.857,0.367-1.225,1.224-0.979,2.08c0.367,0.857,1.224,1.225,2.081,0.979
	l72.216-27.418c0.856-0.367,1.224-1.224,0.979-2.08C522.893,505.793,521.913,505.303,521.179,505.671z"/>
<path fill="#0000FF" d="M525.463,456.833c-0.857-0.367-1.836,0-2.081,0.857c-6.731,16.279-15.056,25.337-24.603,28.274
	c-9.547,2.814-20.44-0.367-32.681-8.568h-0.122l0,0c-11.384-6.609-23.746-13.586-35.986-20.563
	c-24.602-13.953-49.204-27.907-73.072-42.105c-0.979-0.612-2.326-1.469-4.162-2.448c-0.979-0.611-1.958-1.102-2.938-1.836
	c1.225-3.06,2.693-6.12,4.162-9.18c1.713-3.428,3.55-6.732,5.386-10.037c0.489-0.734,0.244-1.714-0.612-2.203
	c-0.734-0.489-1.714-0.245-2.203,0.612c-1.959,3.305-3.795,6.731-5.508,10.281c-1.714,3.428-3.305,6.977-4.773,10.649
	c-0.367,0.734,0,1.591,0.611,2.08c1.225,0.734,2.693,1.592,4.162,2.57c0.979,0.612,2.447,1.469,4.161,2.448
	c24.235,14.443,48.716,28.274,73.073,42.105c11.75,6.61,23.501,13.342,35.985,20.563c12.975,8.69,24.725,12.118,35.251,8.936
	s19.462-12.729,26.684-30.11C526.687,458.057,526.32,457.078,525.463,456.833z"/>
<path fill="#0000FF" d="M469.527,470.909c0.856,0.245,1.713-0.367,1.958-1.224c0.245-0.857-0.367-1.714-1.224-1.959
	c-7.222-1.591-14.688-8.567-22.522-21.053c-7.955-12.729-16.278-31.09-24.847-54.958c-0.245-0.856-1.224-1.346-2.081-0.979
	c-0.856,0.244-1.347,1.224-0.979,2.08c8.567,24.113,17.013,42.719,25.092,55.57C453.247,461.729,461.448,469.195,469.527,470.909z"
	/>
<path fill="#0000FF" d="M543.211,286.941c-4.651-1.346-9.425-1.713-14.076-1.102c-4.651,0.612-9.18,2.204-13.219,4.774
	c-4.04,2.57-7.467,5.875-10.16,9.792c-2.57,3.794-4.406,8.2-5.141,12.852l-37.699,86.904l-77.479-37.21
	c-0.245-0.122-0.612-0.245-0.979-0.245c-1.102,0.123-2.203,0.245-3.183,0.612c-0.979,0.245-2.081,0.612-3.06,1.102
	c-0.857,0.367-1.102,1.347-0.734,2.203c0.367,0.857,1.346,1.102,2.203,0.734c0.734-0.367,1.591-0.734,2.448-0.979
	c0.734-0.245,1.469-0.367,2.203-0.367l81.273,39.045c0.244,0.123,0.611,0.123,0.856,0.123l0,0
	c6.365-0.734,12.607,0.122,18.237,2.447c5.631,2.326,10.771,6.12,14.811,11.017c4.039,4.896,6.609,10.771,7.589,16.769
	c1.102,6.12,0.612,12.362-1.469,18.36c-0.245,0.856,0.122,1.714,0.979,2.081c0.856,0.244,1.713-0.123,2.081-0.979
	c2.203-6.487,2.692-13.464,1.591-19.951c-1.102-6.609-3.917-12.853-8.323-18.238c-4.284-5.385-9.914-9.425-16.034-11.995
	c-5.753-2.325-11.995-3.427-18.36-2.938c3.55-4.773,8.078-8.445,13.342-11.016c5.386-2.57,11.506-3.795,17.748-3.428
	s12.117,2.326,17.136,5.631s9.303,7.834,12.24,13.342c0.367,0.734,1.347,1.102,2.203,0.734c0.734-0.367,1.102-1.347,0.734-2.203
	c-3.183-5.998-7.834-10.894-13.342-14.443s-11.873-5.753-18.727-6.12c-6.732-0.489-13.342,0.856-19.34,3.794
	c-4.284,2.081-8.078,4.774-11.383,8.201l35.496-81.763c0-0.123,0.122-0.245,0.122-0.367l0,0c0.734-4.284,2.325-8.323,4.773-11.873
	c2.326-3.55,5.508-6.609,9.181-8.813c3.672-2.325,7.833-3.794,11.995-4.283c4.161-0.612,8.567-0.245,12.729,0.979
	c0.856,0.245,1.713-0.244,1.958-1.102C544.557,288.166,544.068,287.308,543.211,286.941z"/>
<path fill="#0000FF" d="M512.121,557.69c-4.039,2.815-8.201,5.509-11.995,8.813c-21.787,18.85-19.951,54.468,0.489,73.685
	c22.521-2.57,44.309-9.547,64.138-20.44c0,0-9.058-36.965-27.295-110.772C535.133,539.82,523.749,549.49,512.121,557.69z"/>
<path fill="#FFC45E" d="M172.951,629.784c-1.347-0.244-2.815,0.367-3.672,1.469c-0.612-3.672-5.142-5.141-7.956-2.692
	c-0.49-2.203-2.326-3.672-4.529-3.917s-4.284,1.102-5.141,3.061c-1.224-1.592-3.183-2.448-5.263-2.448
	c-2.081,0-3.917,0.979-5.142,2.57l-2.57,4.406h-23.868c3.795,6.12,11.017,4.773,17.137,5.019c0,0,0,2.57,0,7.833
	c0.244,2.204,1.591,4.04,3.672,4.896s4.406,0.489,6.12-0.856c-0.49,2.814,0.979,5.753,3.672,6.854
	c2.692,1.102,5.753,0.244,7.466-2.081c0,0,0.245-0.49,0.857-1.592c0.979,2.448,3.427,4.162,6.12,4.04
	c2.692,0,5.019-1.714,5.997-4.284c1.592,1.836,3.917,2.692,6.242,2.447c2.326-0.367,4.407-1.836,5.386-4.039
	c5.998-4.896,10.771-11.261,13.954-18.359c-0.734,0-5.753,0-15.178,0C175.644,630.885,174.42,629.907,172.951,629.784z"/>
<path fill="#FF5703" d="M151.776,626.479c-0.734-0.367-1.591,0-1.836,0.734l-9.547,20.318c-0.367,0.734,0,1.592,0.734,1.836
	c0.734,0.367,1.591,0,1.836-0.734l9.547-20.318C152.877,627.704,152.51,626.846,151.776,626.479z"/>
<path fill="#FF5703" d="M139.413,630.763c-0.734-0.367-1.591,0-1.836,0.612l-4.284,8.69c-0.367,0.734,0,1.591,0.612,1.836
	c0.734,0.367,1.591,0,1.836-0.612l4.284-8.69C140.393,631.987,140.148,631.131,139.413,630.763z"/>
<path fill="#FF5703" d="M168.178,629.662c-0.734-0.122-1.469,0.367-1.592,1.102l-3.305,19.829c-0.122,0.734,0.367,1.469,1.102,1.591
	s1.469-0.367,1.592-1.102l3.305-19.829C169.402,630.518,168.912,629.907,168.178,629.662z"/>
<path fill="#FF5703" d="M160.833,627.214c-0.734-0.244-1.469,0.123-1.713,0.857l-7.222,22.644c-0.245,0.734,0.122,1.469,0.856,1.714
	c0.734,0.244,1.469-0.123,1.714-0.857l7.222-22.644C161.935,628.315,161.568,627.459,160.833,627.214z"/>
<path fill="#FF5703" d="M181.764,636.884c-1.224,0-2.448-0.245-3.427-0.734h-0.123c-0.979-0.489-1.836-1.102-2.447-1.836
	l0.122-2.203c0-0.734-0.612-1.469-1.347-1.469s-1.469,0.611-1.469,1.346l-0.612,12.853c0,0.367,0.123,0.734,0.367,0.979l1.836,2.204
	c0.49,0.611,1.347,0.734,1.959,0.122c0.612-0.489,0.734-1.347,0.122-1.959l-1.469-1.836l0.245-6.609
	c0.489,0.367,0.979,0.612,1.469,0.857c0,0,0,0,0.122,0c1.469,0.734,3.061,1.102,4.651,1.102c0.734,0,1.347-0.612,1.469-1.347
	C183.233,637.618,182.62,636.884,181.764,636.884z"/>
<rect x="57.528" y="298.692" fill="#E4E6ED" width="246.024" height="97.92"/>
<rect x="57.528" y="279.843" fill="#E4E6ED" width="246.024" height="6.364"/>
<rect x="57.528" y="409.096" fill="#E4E6ED" width="246.024" height="6.365"/>
<path fill="#FFC45E" d="M365.976,309.586c0.245-2.938-0.979-5.875-3.305-7.834c-2.326-1.958-5.386-2.57-8.201-1.836
	c-13.831-3.794-20.808-5.753-20.808-5.753c-18.85,5.631-28.397,8.446-28.397,8.446c-1.224,1.224-1.469,3.06-0.734,4.651
	c0.734,1.591,2.326,2.57,3.917,2.447c3.672-0.244,5.508-0.489,5.508-0.489c-6.854,7.956-10.281,11.995-10.281,11.995
	c-0.367,1.591,0.245,3.183,1.591,4.161c1.225,0.979,3.061,1.103,4.407,0.367c-1.102,4.651-1.592,6.854-1.592,6.854
	c-0.367,1.592,0.49,3.306,1.836,4.162c0,2.448,0,3.672,0,3.672c0.612,1.714,2.081,2.815,3.917,2.938s3.428-0.856,4.284-2.448
	c1.224-4.528,1.836-6.731,1.836-6.731c1.836,8.323,2.692,12.607,2.692,12.607c1.592,14.32,6.978,22.766,16.157,25.581
	c12.117,14.443,18.115,21.665,18.115,21.665c7.711-14.321,15.545-23.501,23.501-27.418c-9.181-12.24-13.709-18.359-13.709-18.359
	C366.221,322.437,365.976,309.586,365.976,309.586z"/>
<path fill="#FF5703" d="M350.309,301.262c-2.081-0.856-4.529-1.102-6.854-0.367l-19.707-2.203l0,0c-0.367,0-0.734,0.122-0.979,0.367
	l-9.792,9.303c-0.49,0.489-0.49,1.224,0,1.713c0.489,0.49,1.224,0.49,1.713,0l9.425-8.935l19.34,2.203c0.245,0,0.367,0,0.612-0.123
	c1.836-0.611,3.672-0.489,5.263,0.245s3.06,1.958,3.794,3.795c0.245,0.611,0.979,0.856,1.592,0.611
	c0.612-0.244,0.856-0.979,0.612-1.591C354.348,303.955,352.512,302.242,350.309,301.262z"/>
<path fill="#FF5703" d="M320.321,332.964c-0.979-0.244-1.836-0.979-2.325-1.713c-0.49-0.857-0.734-1.836-0.612-2.815
	c0.122-0.612-0.367-1.224-0.979-1.347c-0.611-0.122-1.224,0.367-1.347,0.979c-0.244,1.591,0.123,3.183,0.979,4.528
	c0.857,1.347,2.081,2.326,3.672,2.815c0.612,0.245,1.347-0.122,1.469-0.856C321.3,333.821,320.933,333.209,320.321,332.964z"/>
<path fill="#FF5703" d="M344.067,308.484c-1.714-0.612-3.673-0.734-5.509-0.245l-18.359-1.591l0,0c-0.367,0-0.857,0.122-1.102,0.489
	l-7.956,10.159l0,0c-0.123,0.123-0.123,0.245-0.245,0.49l-2.081,7.711c-0.122,0.611,0.245,1.347,0.857,1.469
	c0.367,0.122,0.611,0,0.979-0.123l-1.958,9.793c-0.122,0.611,0.245,1.346,0.979,1.469c0.611,0.122,1.346-0.245,1.469-0.979
	l2.938-14.811l14.443-3.794c0.244-0.123,0.489-0.245,0.611-0.367l0,0c0.979-1.225,2.326-1.959,3.672-2.326
	c1.469-0.367,2.938-0.122,4.407,0.489c0.611,0.245,1.346,0,1.591-0.611c0.245-0.612,0-1.347-0.612-1.592
	c-1.958-0.856-4.039-1.102-5.875-0.611c-1.836,0.367-3.55,1.346-4.773,2.814l-14.688,3.917l0.367-1.469l7.467-9.425l17.993,1.592
	c0.122,0,0.367,0,0.489,0c1.469-0.367,2.938-0.367,4.284,0.122s2.57,1.347,3.55,2.448c0.367,0.489,1.224,0.611,1.713,0.244
	c0.49-0.367,0.612-1.224,0.245-1.713C347.493,310.198,345.903,308.973,344.067,308.484z"/>
<path fill="#FF6C03" d="M355.327,373.478c-4.651-2.692-7.589-7.589-7.956-12.852c3.549-7.589,1.958-16.646-3.917-22.645
	c-5.386-5.508-13.464-7.466-20.686-5.141c1.836,8.445,2.814,12.729,2.814,12.729c1.592,13.342,6.854,21.543,15.545,24.48
	c10.894,13.219,16.402,19.828,16.402,19.828c1.224-0.244,1.836-0.367,1.836-0.367c3.672-6.242,7.344-11.383,11.138-15.422
	C365.731,376.416,359.978,376.172,355.327,373.478z"/>
<path fill="#FFEDB2" d="M365.976,308.362c-0.122-2.815-1.591-5.264-3.795-6.978c-2.203-1.591-5.141-2.203-7.711-1.469
	c2.448,0.367,4.651,1.836,5.753,4.039s1.102,4.774,0,6.978c0,0-0.734,11.505-2.203,34.639c-2.57,5.875-1.469,12.607,2.692,17.381
	c4.162,4.773,10.771,6.854,16.892,5.141c0.367-0.244,0.612-0.367,0.979-0.611c0.122-2.203,0.244-3.306,0.244-3.306
	s-4.039-5.385-11.995-16.156C366.71,348.141,366.465,334.8,365.976,308.362z"/>
<rect x="57.528" y="423.54" fill="#E4E6ED" width="103.062" height="112.119"/>
<rect x="168.545" y="423.54" fill="#E4E6ED" width="134.517" height="4.651"/>
<rect x="168.545" y="434.189" fill="#E4E6ED" width="134.517" height="4.651"/>
<rect x="168.545" y="444.47" fill="#E4E6ED" width="130.355" height="4.651"/>
<rect x="168.545" y="455.242" fill="#E4E6ED" width="134.517" height="4.651"/>
<rect x="168.545" y="467.115" fill="#E4E6ED" width="128.152" height="4.65"/>
<rect x="168.545" y="477.885" fill="#E4E6ED" width="134.517" height="4.651"/>
<rect x="168.545" y="488.168" fill="#E4E6ED" width="122.767" height="4.65"/>
<rect x="168.545" y="498.816" fill="#E4E6ED" width="134.517" height="4.651"/>
<rect x="168.545" y="509.588" fill="#E4E6ED" width="106.978" height="4.651"/>
<rect x="168.545" y="519.869" fill="#E4E6ED" width="126.194" height="4.651"/>
<rect x="168.545" y="530.64" fill="#E4E6ED" width="85.68" height="4.651"/>
<path fill="#FFFFFF" d="M440.518,699.675c-1.714,0-3.183,1.469-3.183,3.183s1.469,3.183,3.183,3.183
	c1.713,0,3.182-1.469,3.182-3.183S442.231,699.675,440.518,699.675z"/>
<path fill="#FFFFFF" d="M428.4,687.312c-0.856,0-1.591,0.734-1.591,1.591c0,0.857,0.734,1.592,1.591,1.592s1.591-0.734,1.591-1.592
	C429.99,687.925,429.256,687.312,428.4,687.312z"/>
<path fill="#FFFFFF" d="M454.471,614.606c-0.856,0-1.591,0.734-1.591,1.592c0,0.856,0.734,1.591,1.591,1.591
	s1.591-0.734,1.591-1.591C456.062,615.341,455.327,614.606,454.471,614.606z"/>
<path fill="#FFFFFF" d="M352.634,688.047c-0.856,0-1.591,0.734-1.591,1.591c0,0.857,0.734,1.592,1.591,1.592
	s1.591-0.734,1.591-1.592C354.225,688.659,353.614,688.047,352.634,688.047z"/>
<path fill="#FFFFFF" d="M482.745,535.536c-1.102,0-2.081,0.979-2.081,2.081s0.979,2.081,2.081,2.081s2.081-0.979,2.081-2.081
	S483.847,535.536,482.745,535.536z"/>
<path fill="#FFFFFF" d="M349.942,474.704c-0.857,0-1.592,0.734-1.592,1.591s0.734,1.591,1.592,1.591
	c0.856,0,1.591-0.734,1.591-1.591C351.41,475.315,350.798,474.704,349.942,474.704z"/>
<path fill="#FFFFFF" d="M497.556,432.597c-0.857,0-1.592,0.734-1.592,1.592c0,0.856,0.735,1.591,1.592,1.591
	s1.591-0.734,1.591-1.591C499.147,433.332,498.412,432.597,497.556,432.597z"/>
<path fill="#FFFFFF" d="M530.482,376.049c-1.469,0-2.57,1.102-2.57,2.57s1.102,2.57,2.57,2.57s2.57-1.102,2.57-2.57
	C533.052,377.273,531.95,376.049,530.482,376.049z"/>
<path fill="#FFFFFF" d="M453.124,266.868c-0.367,0-0.734,0.367-0.734,0.734s0.367,0.734,0.734,0.734s0.734-0.367,0.734-0.734
	C453.982,267.235,453.615,266.868,453.124,266.868z"/>
<path fill="#FFFFFF" d="M369.526,301.385c-0.367,0-0.734,0.367-0.734,0.734s0.367,0.734,0.734,0.734s0.734-0.367,0.734-0.734
	S369.893,301.385,369.526,301.385z"/>
<path fill="#FFFFFF" d="M514.447,358.301c-0.734,0-1.346,0.612-1.346,1.347s0.611,1.347,1.346,1.347s1.347-0.612,1.347-1.347
	C515.671,358.913,515.181,358.301,514.447,358.301z"/>
<path fill="#FFFFFF" d="M530.849,332.964c-0.367,0-0.612,0.245-0.612,0.612s0.245,0.612,0.612,0.612s0.611-0.245,0.611-0.612
	C531.46,333.331,531.216,332.964,530.849,332.964z"/>
<rect x="57.528" y="564.79" fill="#E4E6ED" width="51.531" height="11.873"/>
<rect x="119.218" y="564.79" fill="#E4E6ED" width="51.53" height="11.873"/>
<rect x="216.281" y="564.79" fill="#FFDF97" width="51.53" height="11.873"/>
<path fill="none" stroke="#10111E" stroke-miterlimit="10" d="M219.952,575.316c5.142,0,10.159-1.714,14.199-4.896
	c1.102-0.857,2.325-1.959,2.692-3.428s-0.245-3.183-1.591-3.672c-0.979-0.245-2.081,0.122-2.815,0.856s-1.225,1.714-1.592,2.693
	c-0.489,1.102-0.856,2.325-0.734,3.427c0,1.225,0.49,2.448,1.347,3.183c0.979,0.734,2.203,0.979,3.428,0.979
	c5.508,0.122,11.505-2.203,14.32-7.1c0.612-1.102,0.979-2.815-0.245-3.427c-0.734-0.367-1.591,0-2.325,0.489
	c-2.081,1.347-3.55,3.795-3.672,6.365c-0.122,0.979,0,1.958,0.612,2.692c0.611,0.856,1.591,1.224,2.57,1.469
	c2.814,0.612,5.753-0.245,8.445-1.469s5.386-2.815,6.854-5.508c0.734-1.347,0.856-3.183-0.367-4.039
	c-1.225-0.734-2.938,0.244-3.795,1.469c-1.469,1.958-1.958,4.528-1.102,6.854c0.857,2.203,3.305,3.794,5.753,3.427"/>
<circle fill="#40BF91" cx="180.54" cy="409.342" r="44.432"/>
<g>
	<path fill="#FCFCFC" d="M176.868,421.215c-0.857,0-1.592-0.367-2.204-0.979l-9.547-9.792c-1.224-1.224-1.102-3.183,0-4.284
		c1.225-1.224,3.183-1.102,4.284,0l7.467,7.712l17.748-16.524c1.224-1.102,3.182-1.102,4.283,0.122
		c1.102,1.225,1.102,3.183-0.122,4.284l-19.951,18.482C178.459,420.969,177.725,421.215,176.868,421.215z"/>
</g>
</svg>
