<?xml version="1.0" encoding="utf-8"?>
<!-- Generator: Adobe Illustrator 24.3.0, SVG Export Plug-In . SVG Version: 6.00 Build 0)  -->
<svg version="1.1" id="Layer_1" xmlns="http://www.w3.org/2000/svg" xmlns:xlink="http://www.w3.org/1999/xlink" x="0px" y="0px"
	 viewBox="0 0 800 625" style="enable-background:new 0 0 800 625;" xml:space="preserve">
<style type="text/css">
	.st0{fill-rule:evenodd;clip-rule:evenodd;fill:#FCEFF2;}
	.st1{fill-rule:evenodd;clip-rule:evenodd;fill:#F7D7DF;}
	.st2{opacity:0.62;fill-rule:evenodd;clip-rule:evenodd;fill:#FFFFFF;enable-background:new    ;}
	.st3{fill-rule:evenodd;clip-rule:evenodd;fill:#E67F98;}
	.st4{fill-rule:evenodd;clip-rule:evenodd;fill:#E05E7D;}
	.st5{fill-rule:evenodd;clip-rule:evenodd;fill:#D8345B;}
	.st6{fill-rule:evenodd;clip-rule:evenodd;fill:#DC4C6E;}
	.st7{fill-rule:evenodd;clip-rule:evenodd;fill:#D62B54;}
	.st8{fill-rule:evenodd;clip-rule:evenodd;fill:#D21643;}
	.st9{fill-rule:evenodd;clip-rule:evenodd;fill:#D41F4B;}
	.st10{fill-rule:evenodd;clip-rule:evenodd;fill:#DC496C;}
	.st11{fill-rule:evenodd;clip-rule:evenodd;fill:#ED9FB2;}
	.st12{fill-rule:evenodd;clip-rule:evenodd;fill:#D93B61;}
	.st13{fill-rule:evenodd;clip-rule:evenodd;fill:#E4718C;}
	.st14{fill-rule:evenodd;clip-rule:evenodd;fill:#D31D49;}
	.st15{fill-rule:evenodd;clip-rule:evenodd;fill:#F2BECA;}
	.st16{fill-rule:evenodd;clip-rule:evenodd;fill:#E7849B;}
	.st17{fill-rule:evenodd;clip-rule:evenodd;fill:#DB4267;}
	.st18{fill-rule:evenodd;clip-rule:evenodd;fill:#FFFFFF;}
	.st19{fill-rule:evenodd;clip-rule:evenodd;fill:#D8375D;}
	.st20{fill-rule:evenodd;clip-rule:evenodd;fill:#F2B9C7;}
	.st21{fill:#E7849B;}
	.st22{fill-rule:evenodd;clip-rule:evenodd;fill:#D21845;}
	.st23{fill-rule:evenodd;clip-rule:evenodd;fill:#D5244E;}
	.st24{fill-rule:evenodd;clip-rule:evenodd;fill:#D73058;}
	.st25{fill-rule:evenodd;clip-rule:evenodd;fill:#F5C9D4;}
	.st26{fill-rule:evenodd;clip-rule:evenodd;fill:#FAE3E8;}
	.st27{fill:#D21643;}
	.st28{fill:#FFFFFF;}
	.st29{fill:#DB4267;}
	.st30{fill-rule:evenodd;clip-rule:evenodd;fill:#E8889F;}
	.st31{fill-rule:evenodd;clip-rule:evenodd;fill:#F9DEE5;}
	.st32{fill:#F9DEE5;}
	.st33{opacity:0.12;fill-rule:evenodd;clip-rule:evenodd;fill:#FFFFFF;enable-background:new    ;}
</style>
<g>
	<path class="st0" d="M563.5,503.2c42-3.2,79.9-21.2,108.4-48.7l0,0c31.4-30.3,51.5-85.7,52.2-118.9s-2.5-38.7-8.4-56.5
		C699.6,230,661.9,190.8,613.9,172l0,0l-2-0.8c-8.4-3.2-16.8-6.4-25.3-9.5c-7.6-2.9-15.2-5.8-22.8-8.9c-1.7-0.7-3.4-1.4-5.2-2.2l0,0
		c-1.7-0.7-3.4-1.5-5.1-2.2l0,0c-4.6-2-9.1-4.2-13.5-6.4l0,0c-5.1-2.6-10.1-5.3-14.9-8.3c-3.9-2.4-7.7-4.8-11.4-7.4
		c-0.5-0.4-1.1-0.8-1.6-1.1l-1.6-1.2c-0.5-0.4-1.1-0.8-1.6-1.2l0,0c-0.5-0.4-1.1-0.8-1.6-1.2l0,0c-0.5-0.4-1.1-0.8-1.6-1.2
		c-0.5-0.4-1.1-0.8-1.6-1.3l0,0C486.8,104.4,467.6,92,447,82.3c-6.7-3.1-13.4-6-20.3-8.6c-10.5-3.9-21.2-7.1-32.1-9.7
		c-1.8-0.4-3.7-0.8-5.5-1.2c-2.8-0.6-5.6-1.1-8.4-1.6c-4.7-0.8-9.4-1.5-14.1-2.1c-2.9-0.3-5.7-0.6-8.6-0.9
		c-5.8-0.5-11.6-0.8-17.4-0.9l0,0c-2.2,0-4.4-0.1-6.5-0.1c-0.7,0-1.4,0-2.1,0c-1.5,0-2.9,0-4.3,0.1c-0.9,0-1.7,0.1-2.6,0.1
		c-1.3,0-2.6,0.1-3.9,0.2c-0.9,0-1.8,0.1-2.7,0.2c-1.2,0.1-2.5,0.2-3.7,0.2c-0.9,0.1-1.9,0.2-2.8,0.2c-3.3,0.3-6.6,0.6-9.9,1
		c-19.6,2.5-39,7.1-57.5,13.9c-3,1.1-5.9,2.2-8.9,3.4c-0.9,0.4-1.7,0.7-2.6,1.1C232,78,231,78.5,230,79c-0.8,0.4-1.7,0.7-2.5,1.1
		c-1.1,0.5-2.2,1-3.3,1.5c-0.7,0.3-1.5,0.7-2.2,1c-2.4,1.2-4.8,2.4-7.2,3.6c-1.2,0.6-2.4,1.2-3.6,1.9c-0.8,0.4-1.6,0.9-2.4,1.3
		c-1,0.5-2,1.1-2.9,1.6c-0.8,0.5-1.7,1-2.5,1.5c-2.7,1.6-5.3,3.1-7.9,4.8c-19.6,12.4-37.6,27.4-53.2,44.5
		c-28.1,30.8-48.4,68-58.6,108.5c-0.2,0.8-0.4,1.5-0.6,2.3c-0.3,1.2-0.6,2.5-0.9,3.7c-0.2,0.7-0.3,1.5-0.5,2.2
		c-0.7,3.3-1.4,6.7-2,10c-0.1,0.4-0.1,0.8-0.2,1.1c-2.1,12.1-3,9-3.6,37.2s9.3,85.1,28.2,121.5c7.8-3,17-2.3,24.5,2.7
		c1.9,1.3,3.9,2.5,5.6,4l7.1,6.1c2.5,2.2,4.4,5,6.6,7.5c2.9,3.2,6,6,9.1,9.1c0.7,0.7,1.4,1.4,2,2.2l4,5.1c1.2,1.5,4.5,6.3,3.1,4.9
		l-0.1-0.1l4,4c1.6,1.6,2.7,3.1,3.9,4.9l4.2,4.2c2.6,2.6,4.6,5.6,6,9c1.2,1.3,2.3,2.8,3.2,4.4c3,2.5,5.5,5.6,7.2,9.2
		c0.9,0.8,1.8,1.6,2.7,2.6c2.8,1.4,5.2,3.1,7.4,5.3c2.4,1,4.7,2.3,6.8,4c3.3,0.9,6.5,2.4,9.4,4.5l0.6,0.4l-1.1-0.4
		c-1.5-0.5,2.8,1.6,4.3,1.9l1.5,0.3c2,0.4,4,1.1,5.9,1.7c1.3,0.4,2.6,0.9,3.9,1.6l2.3,1.2c1.1,0.4,2.2,0.7,3.3,1.2l1.7,0.3
		c2.1,0.4,4.3,0.8,6.3,1.3l8.1,2c0.3,0.1,0.6,0.1,0.9,0.2l7.1,2c0.4,0.1,0.7,0.2,1.1,0.3l7.5,2.5l8.5,1.7c1.6,0.3,3.2,0.8,4.7,1.4
		l6.5,2.6l7.2,0.7c1.4,0.1,2.7,0.4,4.1,0.7l8.1,2c0.4,0.1,0.8,0.2,1.2,0.3l9.5,2.9l12.4,3.1h1.7c2.8,0,5,1,7.7,1h30.7l-6.6,6.6
		c3.3-3.2,7.4-5.6,12.2-6.8l3.6-0.9l2.6-0.7l-0.5,0.3c-1.7,1.2,3.4-2,5.2-2.7c0.9-0.7,1.8-1.3,2.8-1.9c0.2-0.2,0.4-0.4,0.7-0.6
		c2.8-3.3,6.4-5.9,10.5-7.5c1.2-0.7,2.3-1.3,3.5-1.9c0.9-0.5,1.8-0.9,2.8-1.3c1.4-1.1,3-2.1,4.7-3l4.6-2.3c1.1-0.7,2.1-1.4,3.2-2.1
		c1.3-1,2.8-1.9,4.4-2.7l2-1c1.3-0.7,2.6-1.4,4-1.9c1.8-1.6,3.8-3,6.1-4.2c1.8-0.9,3.6-1.8,5.5-2.5l1.7-0.6c2.1-1.3,4.4-2.3,6.9-2.9
		h0.1c3.7-2.3,8-3.6,12.5-3.9c0.7-0.2,1.5-0.4,2.2-0.5c3.6-2,7.6-3.3,12-3.5c1.2-0.3,2.4-0.6,3.6-0.8c3.1-1.7,6.5-2.8,10.2-3.2
		c2.5-0.7,5.1-1.1,7.8-1.1H522l-6.9,6.9c4.3-4.3,9.9-7.1,16.3-7.7c0.3-0.1,0.5-0.2,0.8-0.2c3.1-1.2,6.5-1.9,10-1.9h6.1
		C553.9,498.3,559.2,500.1,563.5,503.2"/>
	<path class="st1" d="M142.1,449.7c0.4,0.5,0.7,1.1,1,1.6c0.5,0.7,1,1.4,1.4,2.1c1.3,1.8,2.4,3.8,3.3,5.8c1,1.3,1.9,2.6,2.8,3.9
		c0.5,0.7,0.9,1.4,1.3,2.1c0.9,1.1,1.7,2.2,2.6,3.4c0.7,1,1.4,2,2,3.1c1.5,1.2,2.8,2.6,3.9,4.1l2.3,2.9c0.1,0.1,0.6,0.8,0.5,0.6
		c1.1,0.9,2.1,1.7,3,2.7c0.5,0.3,1,0.7,1.5,1.1l2.3,1.7c1,0.8,2,1.6,2.9,2.5c1.4,1.1,2.8,2.1,4,3.4l2.4,2.4c2.3,1.3,4.3,2.9,6.1,4.7
		l1.8,1.8c1.3,0.9,2.5,1.8,3.7,2.8c0.4,0.3,0.9,0.7,1.3,1c1.6,1.1,3.1,2.2,4.4,3.6c2.1,1.4,3.9,3.1,5.5,5c0.4,0.3,0.8,0.7,1.2,1.1
		l0.5,0.3c1.7,0.8,3.1,1.6,4.7,2.7l1.2,0.6c2,1,3.6,2.1,5.3,3.5c2.4,1,4.5,2.1,6.8,3.3c1.8,0.9,3.4,1.9,4.8,3.1
		c0.9,0.4,1.7,0.9,2.5,1.4c2.8,1.1,5.3,2.6,7.4,4.5c1.9,0.7,3.6,1.6,5.4,2.5c0.9,0.5,1.9,1,2.8,1.6c1.4,0.5,2.7,1.1,3.9,1.8
		c1,0.3,1.9,0.6,3,0.9l1.3,0.3c1.7,0.1,3.4,0.3,5.1,0.8l2.2,0.5h1.4c1.4,0,2.8,0.1,4.2,0.3l4.3,0.6c2.5,0.4,4.6,1,6.9,1.9
		c2.3,0.4,4.6,0.7,6.8,1.2H389l0.8-0.2c2-0.4,3.7-0.5,5.6-0.5c1.4-0.5,2.9-0.8,4.3-1l3.7-0.6c3.2-0.5,6.6-0.4,9.8-0.4l9.6-3.1
		l2.6-1.1c1.5-0.6,3.1-1,4.7-1.4c1.6-0.8,3.1-1.6,4.8-2.2c2.6-1.7,5.3-2.9,8.2-3.6c0.7-0.3,1.4-0.6,2.2-0.8c1.2-0.6,2.4-1,3.6-1.4
		s2.4-0.8,3.6-1.1c0.4-0.2,0.9-0.4,1.3-0.5c2.1-1.3,4.4-2.4,6.6-3.5c1.7-0.9,3.5-1.5,5.3-2c1.1-0.6,2.3-1,3.5-1.5l1.5-0.9
		c1.9-1.1,3.8-2,5.8-2.6c0.6-0.2,1.3-0.4,1.9-0.6c1.6-0.9,3.2-1.6,4.9-2.1l1.6-0.5c1.2-0.4,2.3-0.7,3.5-0.9c1.6-0.6,3.2-1.1,4.9-1.4
		l1.3-0.3c0.7-0.3,1.5-0.5,2.2-0.7c1.9-1,3.9-1.7,6.1-2.2l2.2-0.6l2-0.7c2.3-0.8,4.6-1.1,7.1-1.5c1.6-0.4,3-0.7,4.6-1l2.5-0.8
		c1.2-0.4,2.4-0.7,3.7-1l2.3-0.8l2.6-1.1c2-0.8,4.1-1.3,6.2-1.8c0.5-0.1,1-0.2,1.5-0.3c3.1-1.2,6.4-1.8,9.7-1.8l0,0h2.7
		c6.7,0,12.8,2.4,17.5,6.5c40.4-4,76.9-21.7,104.5-48.3l0,0c31.4-30.3,51.2-72.2,52.2-118.9c0.4-19.7-2.5-38.7-8.4-56.5
		C699.7,230.1,662,190.9,614,172.1l0,0l-2-0.8c-8.4-3.2-16.8-6.4-25.3-9.5c-7.6-2.9-15.2-5.8-22.8-8.9c-1.7-0.7-3.4-1.4-5.2-2.2l0,0
		c-1.7-0.7-3.4-1.5-5.1-2.2l0,0c-1.7-0.8-3.4-1.5-5.1-2.3c-2.8-1.3-5.6-2.7-8.4-4.1l0,0c-5.1-2.6-10.1-5.3-14.9-8.3
		c-3.9-2.4-7.7-4.8-11.4-7.4c-0.5-0.4-1.1-0.8-1.6-1.1c-0.5-0.4-1.1-0.8-1.6-1.2c-0.5-0.4-1.1-0.8-1.6-1.2l0,0
		c-0.5-0.4-1.1-0.8-1.6-1.2l0,0c-0.5-0.4-1.1-0.8-1.6-1.2l0,0c-0.5-0.4-1.1-0.8-1.6-1.3l0,0c-23-19.5-49.2-34.8-77.4-45.4
		c-6.1-2.3-12.3-4.3-18.5-6.1c-6.3-1.8-12.7-3.4-19.1-4.8c-2.8-0.6-5.6-1.1-8.4-1.6c-1.9-0.3-3.7-0.6-5.6-0.9
		c-0.9-0.1-1.9-0.3-2.8-0.4c-1.9-0.3-3.8-0.5-5.7-0.7c-2.9-0.3-5.7-0.6-8.6-0.9c-5.8-0.5-11.6-0.8-17.4-0.9c-2.2,0-4.4-0.1-6.5-0.1
		c-0.7,0-1.4,0-2.1,0c-1.5,0-2.9,0-4.3,0.1c-0.9,0-1.7,0.1-2.6,0.1c-1.3,0-2.6,0.1-3.9,0.2c-0.9,0-1.8,0.1-2.7,0.2
		c-1.2,0.1-2.5,0.2-3.7,0.2c-0.9,0.1-1.9,0.2-2.8,0.2c-3.3,0.3-6.6,0.6-9.9,1c-19.6,2.5-39,7.1-57.5,13.9c-3,1.1-5.9,2.2-8.9,3.4
		c-0.9,0.4-1.7,0.7-2.6,1.1c-1.1,0.4-2.1,0.9-3.1,1.4c-0.8,0.4-1.7,0.7-2.5,1.1c-1.1,0.5-2.2,1-3.3,1.5c-0.7,0.3-1.5,0.7-2.2,1
		c-2.4,1.2-4.8,2.4-7.2,3.6c-1.2,0.6-2.4,1.2-3.6,1.9c-0.8,0.4-1.6,0.9-2.4,1.3c-1,0.5-2,1.1-2.9,1.6c-0.8,0.5-1.7,1-2.5,1.5
		c-2.7,1.6-5.3,3.1-7.9,4.8C176,109.9,158,124.9,142.4,142c-28.1,30.8-48.4,68-58.6,108.5c-0.2,0.8-0.4,1.5-0.6,2.3
		c-0.3,1.2-0.6,2.5-0.9,3.7c-0.2,0.7-0.3,1.5-0.5,2.2c-0.7,3.3-1.4,6.7-2,10c-0.1,0.4-0.1,0.8-0.2,1.1c-2.1,12.1-3.3,24.6-3.6,37.2
		c-0.9,40.7,8,79.4,24.5,114c2.6-0.9,5.4-1.3,8.4-1.3c11.1,0,20.6,6.7,24.7,16.2c1,1.7,1.8,3.6,2.4,5.5c0.2,0.3,0.4,0.6,0.6,0.9l0,0
		C138.7,444.3,140.7,446.9,142.1,449.7"/>
	<path class="st2" d="M499.6,115.1c-0.6-0.4-1.1-0.9-1.7-1.3c-0.7-0.6-1.4-1.1-2.1-1.7s-1.4-1.1-2.1-1.7c-0.7-0.5-1.4-1.1-2.2-1.6
		c-0.7-0.5-1.5-1.1-2.2-1.6s-1.5-1.1-2.2-1.6s-1.5-1-2.2-1.6c-0.7-0.5-1.5-1-2.2-1.5s-1.5-1-2.3-1.5s-1.5-1-2.3-1.5s-1.5-1-2.3-1.5
		s-1.5-1-2.3-1.5l-0.6-0.3L223,517.4l28,16.6L499.6,115.1z M371.8,565.4c1.3-0.2,2.6-0.4,3.9-0.6l231.7-395.4l-0.9-0.4l-1.8-0.7
		l-1.8-0.7L601,167l-1.8-0.7l-1.8-0.7l-1.8-0.7l-1.8-0.7l-1.8-0.7l-1.8-0.7l-1.8-0.7l-1.8-0.7l0,0l-1.8-0.7L583,160l-1.8-0.7l0,0
		l-1.8-0.7l-1.8-0.7l-1.8-0.7l-1.8-0.7l-1.7-0.7c-0.6-0.2-1.2-0.5-1.7-0.7c-0.6-0.2-1.2-0.5-1.7-0.7c-0.6-0.2-1.2-0.5-1.7-0.7l0,0
		c-0.6-0.2-1.2-0.5-1.7-0.7l0,0c-0.6-0.2-1.2-0.5-1.7-0.7c-0.6-0.2-1.2-0.5-1.7-0.7c-0.6-0.2-1.1-0.5-1.7-0.7
		c-0.6-0.2-1.1-0.5-1.7-0.7l0,0c-0.6-0.2-1.1-0.5-1.7-0.7c-0.6-0.2-1.1-0.5-1.7-0.7c-0.6-0.3-1.1-0.5-1.7-0.8
		c-0.6-0.3-1.1-0.5-1.7-0.8l0,0c-0.6-0.3-1.1-0.5-1.7-0.8c-0.6-0.3-1.1-0.5-1.7-0.8l0,0c-0.6-0.3-1.1-0.5-1.7-0.8l0,0
		c-0.6-0.3-1.1-0.5-1.7-0.8l0,0c-0.5-0.3-1.1-0.5-1.6-0.8L315.7,532.5L371.8,565.4z"/>
	<path class="st3" d="M344.9,87.6C246.8,124,163,167.9,93.5,219.4c-8.7,22-14.3,45.2-16.6,68.8c4.1,2.9,9.4,3.4,14,1.4
		c4.6-2.1,7.7-6.4,8.2-11.4c1.5,3.2,4.5,5.4,7.9,6c3.5,0.6,7-0.6,9.4-3.2c2.9,2.1,6.7,2.6,10.1,1.3c3.4-1.3,5.9-4.1,6.7-7.7
		c4.1,1.7,8.8,1.4,12.7-0.8c3.9-2.2,6.6-6.1,7.3-10.5c2.4,1.5,5.3,1.9,7.9,1.1c2.7-0.8,4.9-2.7,6-5.3c2.6,4.7,7.2,7.8,12.5,8.4
		s10.5-1.4,14-5.4c2.6,2.2,5.9,3.2,9.3,2.7c3.3-0.4,6.3-2.3,8.2-5.1c3,3.4,7.4,5.1,11.8,4.7c4.5-0.4,8.4-2.9,10.7-6.8
		c4.7,2.2,10.3,1.1,13.8-2.8c3.5-3.9,4-9.6,1.3-14c5.3,0.5,10.5-1.3,14.4-4.9c3.9-3.6,6-8.7,5.9-14c0,0,24.1-20.9,72.3-62.6
		c3.5-0.8,6.6-3.1,8.3-6.2c1.8-3.2,2.1-6.9,1-10.4c2.4-1.9,3.8-4.8,3.9-7.9c0.1-3.1-1.1-6.1-3.4-8.1c2.6-3,3.8-6.9,3.4-10.9
		c-0.4-3.9-2.5-7.5-5.7-9.9C353,99.8,351.1,91.6,344.9,87.6"/>
	<path class="st4" d="M152.8,130.8c-27.2,26.5-48.2,58.7-61.4,94.3c2.7,3.4,7.2,4.8,11.4,3.8c4.2-1,7.5-4.4,8.4-8.6
		c4.8,2.8,10.8,2.8,15.6,0c0.1,5,3.2,9.3,7.8,11.1s9.9,0.5,13.2-3.1c8,7.3,19.6,9.2,29.5,4.9c6.8,3.8,15,3.8,21.8,0
		s11.1-10.8,11.4-18.6c4.2,1.1,8.8,0,12-2.9c3.2-3,4.7-7.4,3.9-11.7c12.5,2.4,24.9-5,28.6-17.2c0,0,15.3-14,46-41.9
		c6.6-3,10-10.4,7.8-17.4c3.1,1.1,6.5,0.8,9.4-0.8c2.9-1.6,5-4.3,5.8-7.5c5.6-0.2,10.7-3.3,13.4-8.2c2.7-4.9,2.8-10.8,0-15.7
		c5.7-0.6,10.1-5.4,10.1-11.2c4.3-1.6,7.6-5.2,8.7-9.6c1.2-4.4,0.2-9.2-2.7-12.7c-32-2.3-64.1,1.3-94.8,10.5
		C219.1,80.3,182.7,101.7,152.8,130.8"/>
	<path class="st5" d="M218.7,227.4c-1.7,3.3-4.5,5.2-6.3,4.3c-1.7-0.9-1.7-4.3,0-7.6s4.5-5.2,6.3-4.3
		C220.5,220.7,220.5,224.1,218.7,227.4"/>
	<path class="st5" d="M150.2,250c2.2,2.3,3,5,1.8,6.2s-4,0.3-6.2-2c-2.2-2.3-3-5-1.8-6.2C145.2,246.8,148,247.7,150.2,250"/>
	<path class="st5" d="M133.5,320.3c-1.4,2.1-3.5,3.2-4.6,2.4c-1.1-0.8-0.8-3.1,0.6-5.2c1.4-2.1,3.5-3.2,4.6-2.4
		C135.2,315.9,134.9,318.2,133.5,320.3"/>
	<path class="st5" d="M349.3,79.1c3.7,0,6.7,1.6,6.7,3.5c0,2-3,3.5-6.7,3.5s-6.7-1.6-6.7-3.5C342.6,80.7,345.6,79.1,349.3,79.1"/>
	<path class="st5" d="M328.7,91.3c2.7,1.5,4.3,3.9,3.5,5.3s-3.6,1.4-6.4-0.1c-2.7-1.5-4.3-3.9-3.5-5.3S325.9,89.8,328.7,91.3"/>
	<path class="st5" d="M391.3,100.3c2.5-1,5-0.8,5.6,0.6c0.5,1.3-1.1,3.2-3.6,4.3c-2.5,1-5,0.8-5.6-0.6
		C387.1,103.2,388.8,101.3,391.3,100.3"/>
	<path class="st5" d="M200.5,94.1C229.7,76.6,262.1,65,295.7,60c2.1,2.2,3.2,5.2,2.9,8.3c-0.2,3-1.8,5.9-4.2,7.7
		c2.8,3.4,3.5,8,1.9,12c-1.6,4.1-5.3,6.9-9.6,7.5c1.5,2.8,1.7,6,0.5,8.9s-3.6,5.1-6.6,6c2.6,4.1,3,9.2,0.9,13.6
		c-2.1,4.4-6.2,7.4-11,7.9c-1.2,5.1-4.9,9.3-9.9,11.1c-4.9,1.8-10.5,1.1-14.7-2c-1.4,4.5-4.5,8.2-8.6,10.4c-4.2,2.1-9,2.5-13.5,1
		c-2,5.9-8.1,9.3-14.2,7.9c1.6,3.4,0.5,7.5-2.5,9.7s-7.2,2-10-0.6c-2.4,7.2-8.7,12.3-16.2,13.1s-14.8-2.8-18.7-9.2
		c-2.1,3-5.4,4.9-9.1,5.1c-3.6,0.3-7.2-1.2-9.7-3.8c-0.8,5.5-5.2,9.8-10.7,10.5c2.1,3.5,2.1,7.7,0.2,11.3c-1.9,3.5-5.5,5.8-9.6,6
		c-0.7,3-2.9,5.5-5.8,6.5s-6.2,0.5-8.6-1.4c-0.1,3.2-1.9,6.2-4.7,7.8c-2.8,1.6-6.3,1.6-9.1,0.1c8.1-19.4,18.5-37.6,31.1-54.4
		C146.4,134.1,171.6,111.4,200.5,94.1"/>
	<path class="st6" d="M469.9,530.9c2.9-1.7,5.8-3.3,8.8-4.9V190.9h170.9l-0.4-0.3c-0.3-0.2-0.5-0.3-0.8-0.5c-0.8-0.5-1.6-1-2.3-1.6
		H646l0,0l-0.1-0.1c-0.8-0.5-1.6-1-2.4-1.5c-0.2-0.2-0.5-0.3-0.8-0.5c-0.6-0.4-1.2-0.8-1.9-1.2c-0.2-0.1-0.5-0.3-0.7-0.4
		c-0.8-0.5-1.7-1-2.5-1.5l-0.4-0.2l-0.7-0.4h-158v-83l-0.5-0.3c-0.8-0.5-1.5-1-2.3-1.5s-1.5-1-2.3-1.5s-1.5-1-2.3-1.4
		c-0.5-0.3-0.9-0.6-1.4-0.8v88.5H111.6l-0.2,0.3c-0.4,0.7-0.8,1.4-1.2,2.1c-0.6,1-1.2,2.1-1.8,3.1c-0.4,0.7-0.8,1.4-1.2,2.1
		l-0.2,0.4h362.9V530.9z"/>
	<path class="st7" d="M433.3,421.8c-53.4,17-80.2,25.4-80.2,25.4s35.9,7.8,107.8,23.3C460.9,470.5,451.7,454.3,433.3,421.8"/>
	<path class="st8" d="M307.6,324.3c8.8,53.6,13.2,80.4,13.2,80.4c43.7,13.7,84-30.9,120.9-133.8c0,0-22.4-10.2-67.3-30.5
		C312,262.6,289.8,290.6,307.6,324.3"/>
	<path class="st9" d="M282.9,562.7c4.6-4.2,6.9-6.3,6.9-6.3c3.9-9-30.1-20.3-102.1-33.8C216.4,542.1,248.8,555.8,282.9,562.7"/>
	<path class="st10" d="M461.6,535.6c9-5.2,15.3-8.8,18.9-10.6c-1.7-11.8-69.3-4.8-202.8,21c0.1,10.4,0.2,15.6,0.2,15.6
		c30.6,6.8,62.2,8.1,93.2,3.9c19.4-2.6,38.4-7.4,56.7-14.3C439.4,546.8,450.7,541.6,461.6,535.6"/>
	<path class="st11" d="M502.1,507.6c43.4-15,65.1-22.4,65.1-22.4c-165.1-32.6-247.6-48.8-247.6-48.8c-80.9-29-121.3-43.4-121.3-43.4
		c-8.8,12.6-13.2,18.9-13.2,18.9c-0.2-6.4,0.2-7.3,1-2.9c-58.7,4.6-88.1,6.9-88.1,6.9c10,22.1,23.1,42.7,38.9,61.2
		c79.4,39.3,134.5,57.7,165.2,55.1C435.4,515.8,502.1,507.6,502.1,507.6"/>
	<path class="st12" d="M266,519.2l-124.8-42.6c-4.5-1.6-6.8-2.5-6.8-2.5c11.3,13.6,23.9,25.9,37.7,36.9c8.3,6.6,17,12.8,26.1,18.3
		c22.4,8.3,45.1,15.8,67.8,23.5c2.4,0.8,4.3-0.7,4.3-3.3v-24.1C270.3,522.8,268.4,520,266,519.2"/>
	<path class="st13" d="M268.4,519.5l298.8-34.3c2.6-0.3,4.7,1.6,4.7,4.2v11.2c0,1.1,0,1.7,0,1.7c-3.7,0.5-9.1,1-16.2,1.4
		c0,0-1.3,0.1-3.9,0.4c-7.4,0.8-15.3,2.1-23.6,3.9c-10.4,2.3-20.1,5.3-29,8.7c-10.6,4.2-19.9,8.6-27.8,13.3c0,0-3.4,0.4-10.2,1.1
		l-192.7,22.1c-2.6,0.3-4.7-1.6-4.7-4.2v-24.1C263.7,522.2,265.8,519.8,268.4,519.5"/>
	<path class="st10" d="M176.1,415c113.7,18.6,170.6,27.9,170.6,27.9c42.4,4.9,19.1,19.7-39.9,21c-4.5,0.1-9.2,0.2-14.1,0.2
		c-44.4,0-79.6-1.2-105.5-3.7C118.7,453.9,75.4,430.6,176.1,415"/>
	<path class="st14" d="M317.4,306.9c8.3,8,12.4,12.1,12.4,12.1c17.5,0.7,33.9-8.2,43-23.1s9.4-33.6,0.7-48.8
		c-7,8-10.6,11.9-10.6,11.9C358.1,282.3,340.5,300.9,317.4,306.9"/>
	<path class="st14" d="M372.8,242c-5.7,6.8-5.4,14.8,0.9,23.9c7.6-2.9,14.5-7.6,19.9-13.7C379.8,245.4,372.8,242,372.8,242"/>
	<path class="st14" d="M393.5,334.2c-2.3,35.6-3.5,53.4-3.5,53.4c-9.5,17.5-29.2,26.8-48.7,23.1c-19.5-3.7-34.4-19.6-36.8-39.4
		c-2.4-19.7,8.2-38.8,26.3-47c-1.5,16.7,10.2,31.7,26.7,34.3C374.1,361.3,389.9,350.6,393.5,334.2"/>
	<path class="st8" d="M207.3,266.5c14,131,54.3,177.7,121.4,141c0,0,0.3-26.4,1-79.1c-0.3-9.7-8.6-20.2-25-31.7
		c-14.3-15.9-24-35.4-28-56.5C276.7,240.2,253.8,249.2,207.3,266.5"/>
	<path class="st15" d="M332.6,298.4c18.7-17.2,26.9-31.2,24.7-41.8c3.7-5.8-12.1-16-47.5-30.7c-3.2-3.2-7.5-5-12-4.9
		c-4.5,0-8.8,1.8-11.9,5c0,0-1.1,5-3.3,15.1c-2,24.5,9.5,48.1,30,61.6C319.6,304.5,327.1,303,332.6,298.4"/>
	<path class="st16" d="M350.4,278.8c19.5-23.1,7.5-42.6-36-58.3c0,0-6.3,0.9-18.8,2.7C296.1,253.4,320.2,277.9,350.4,278.8"/>
	<path class="st17" d="M302,223.7c44.4,0.6,63.9,15,58.5,43.2C333.3,267.9,306.7,251.8,302,223.7"/>
	<path class="st18" d="M338.4,292.5l11.7-12.5c-9.7,6.4-21.5,8.6-32.8,6.1s-21.1-9.4-27.2-19.2c1.8,6.2,3.7,11.6,5.8,16.2
		c-2.7-2.5-5.1-5.5-7.2-8.7c3.4,11.8,7.4,20.7,11.9,26.8c1.8-1.2,4.3-1.1,6,0.4h0.1l0.4,0.2c0.2,0.1,0.5,0.2,0.7,0.4h-0.1
		c0.3,0.1,0.6,0.3,0.9,0.4c0,0,0.6,0.2,0.8,0.3c0.2,0.1,0.7,0.3,0.7,0.3c0.3,0.1,0.6,0.3,0.9,0.4l0.7,0.2c0.3,0.1,0.7,0.2,1,0.4
		c0.5,0.1,0.9,0.3,1.3,0.4c0.7,0,1.4,0.2,2,0.4h0.6l-0.2,0.1l0,0c0.4-0.2,0.8-0.2,1.2-0.3c0.4-0.2,0.8-0.4,1.2-0.6l0.7-0.2
		c0.3-0.1,0.5-0.1,0.8-0.2c0.5-0.3,1-0.4,1.6-0.5l0.1-0.1c0.7-0.5,1.4-0.8,2.3-0.9c0.1,0,0.2-0.1,0.3-0.1c0.4-0.2,0.8-0.3,1.3-0.4
		c0.5-0.3,1.1-0.4,1.7-0.5c0.4-0.2,0.9-0.3,1.3-0.4c0.9-0.4,1.6-0.5,2.6-0.5c1.4,0,2.7,0.6,3.6,1.5l13.7-14.5
		C345.5,289.7,342,291.3,338.4,292.5"/>
	<path class="st19" d="M316.8,303.3c1,1.9,1.5,2.9,1.5,2.9c6.1-0.3,26.7-5.9,33.8-12.7c3.5-3.3,1.6-8,5.8-7.5
		c2.5,0.3,6.2,2.4,11.3,6.5c3.1,2.4,5.1,2.2,5.2-3.4c0.4-13.7-0.8-27.4-3.3-40.8c0,0-5.6,1.4-16.7,4.3
		C350.4,274.3,336.5,293.1,316.8,303.3"/>
	<path class="st20" d="M360.8,418.9l-4.2,28.1c0,0,12.5,0.6,37.4,1.9c9.1,2.1,34.8,7.5,37.6-6.8c2.9-2.8,4.5-6.9,4.4-11.2
		c3-3.6,4.2-8.8,3.1-13.7c0.5-4.5-0.7-8-3.4-10.5c-2-1.9-4.3-2.5-7.2-3.3c-2.8-0.8-7.3-2-13.6-3.7c-2.4-0.6-4.1-0.6-6.2-0.1
		c-4.7,1.1-9.1,4.4-12.5,6.9l-12,8.8c-17.8-2.5-26.7-3.7-26.7-3.7C356.2,414.6,357.3,417.1,360.8,418.9"/>
	<path class="st21" d="M437,418.4c0.7,0.2,1.4-0.2,1.6-0.8c0.2-0.7-0.2-1.4-0.8-1.6l-14.5-4.5c-0.7-0.2-1.4,0.2-1.6,0.8
		c-0.2,0.7,0.2,1.4,0.8,1.6L437,418.4z"/>
	<path class="st21" d="M435.4,429.5c0.7,0.2,1.4-0.2,1.6-0.8c0.2-0.7-0.2-1.4-0.8-1.6l-15.4-4.9c-0.7-0.2-1.4,0.2-1.6,0.8
		c-0.2,0.7,0.2,1.4,0.8,1.6L435.4,429.5z"/>
	<path class="st21" d="M431.3,440.4c0.7,0.2,1.4-0.2,1.6-0.8c0.2-0.7-0.2-1.4-0.8-1.6l-12-3.8c-0.7-0.2-1.4,0.2-1.6,0.8
		c-0.2,0.7,0.2,1.4,0.8,1.6L431.3,440.4z"/>
	<path class="st22" d="M214.7,270.1c8.2,100.3,39.2,143.5,92.9,129.6c5.9-7.6,7.8-17.5,5.1-26.7c-4.4-15-17.2-18.3-26.5-24.5
		c-19.9-13.2-10-43.9,12.8-46.6c12.3-1.5,24,5.7,28.1,17.4c-35-38-50.7-62.7-47.3-73.9C236.5,261.9,214.7,270.1,214.7,270.1"/>
	<path class="st23" d="M183.3,408.7c40.2,14.9,78,15.7,113.3,2.4c18.7,1,32.3-1.4,40.9-7.5c0,0-24.9-5.5-74.8-16.6
		c-6.5-1.3-8.3-2.4-8.3-8.7c0.4-30,2.8-52.9-7.8-76.3c-13.2-29.2-42.8-58.8-53.1-11.6C186,325,182.9,389.4,183.3,408.7"/>
	<path class="st24" d="M188.5,407.9c37.2,14.7,70.8,15,101,0.9c-19.6-29-43.6,2.5-62.6-16.5c-14.5-14.5,0.8-30.9-4.8-48.5
		c-5.5-17.4-29.9-23.2-25.6-46.4C191.8,331,189.1,367.9,188.5,407.9"/>
	<path class="st20" d="M258,418.9l4.2,28.1l-4.3,0.2l3.9,3.1c0,0-12.3-0.5-37-1.4c-9.1,2.1-34.8,7.5-37.6-6.8
		c-2.9-2.8-4.5-6.9-4.4-11.2c-3-3.6-4.2-8.8-3.1-13.7c-0.5-4.5,0.7-8,3.4-10.5c2-1.9,4.3-2.5,7.2-3.3c2.8-0.8,7.3-2,13.6-3.7
		c2.4-0.6,4.1-0.6,6.2-0.1c4.7,1.1,9.1,4.4,12.5,6.9l12,8.8c17.8-2.5,26.7-3.7,26.7-3.7C262.5,414.6,261.4,417.1,258,418.9"/>
	<path class="st21" d="M183.4,429.5c-0.7,0.2-1.4-0.2-1.6-0.8c-0.2-0.7,0.2-1.4,0.8-1.6l15.4-4.9c0.7-0.2,1.4,0.2,1.6,0.8
		c0.2,0.7-0.2,1.4-0.8,1.6L183.4,429.5z M187.4,440.4c-0.7,0.2-1.4-0.2-1.6-0.8s0.2-1.4,0.8-1.6l12-3.8c0.7-0.2,1.4,0.2,1.6,0.8
		c0.2,0.7-0.2,1.4-0.8,1.6L187.4,440.4z M181.7,418.4c-0.7,0.2-1.4-0.2-1.6-0.8c-0.2-0.7,0.2-1.4,0.8-1.6l14.5-4.5
		c0.7-0.2,1.4,0.2,1.6,0.8c0.2,0.7-0.2,1.4-0.8,1.6L181.7,418.4z"/>
	<path class="st23" d="M265.9,409.9c0.6,14.3,3.3,28.4,7.9,42c38.3-0.4,75.1-1,113.1-5.2c30.8-3.4,46.1-10,54.6-49.8
		c8.2-38.1,14.2-101.2,10.3-114.9c-2.8-10.1-9.6-13.6-20-10.5c-14.4,4.3-32.6,20.8-38.8,33.6c-2.3,4.8-4.3,10.4-6.4,17.8
		c-4.3,14.3-8.3,28.6-12.8,42.8c-7.7,24.2-6.1,25.1-36.2,30.8C289.8,405.5,265.9,409.9,265.9,409.9"/>
	<path class="st19" d="M257.8,385.7c1.5,0.6,3.1,1,4.8,1.3c-7.8,4.2-17.5,2.7-23.8-3.6c-13-13.3,0.6-27.3,2.2-42.2
		c2.5-23.2-39-34.1-15.9-69.4c11.8,11,20.4,24.9,25.2,40.3c2.8,8.8,4.3,20.2,4.5,34.3c0,7.2-0.1,15.6-0.4,25.3
		c0,1.9-0.1,4.1-0.1,6.7c0,1.1,0,2.2,0.3,3.5C255.4,384.1,256.4,385.4,257.8,385.7"/>
	<path class="st14" d="M325.9,319.6c-33-34.9-50.4-59.6-52.1-74.1c-20.6,38.4-20.3,60,0.7,64.8C291.9,314.2,312.6,303.2,325.9,319.6
		"/>
	<path class="st19" d="M328.3,326.9c0,1.8,0.9,2.2,1.7,1.2c1.4-1.9,0.9-5.4,0.3-7.5c-2.7-9.9-14.2-22.2-24.6-34.4
		c-13.5-15.7-22.2-28-21.6-49.7c0.1-3.9-1.3-4-4.5-0.2c-12.4,14.4-20.9,58.9-10.8,55.6c0.7-0.2,1.5-0.8,2.5-1.5
		c9.9-7.7,14.1-8.3,12.5-1.6C280.9,299.5,328.2,307.4,328.3,326.9"/>
	<path class="st24" d="M356.8,251.9c8.5-1.4,12.7-2.2,12.7-2.2s0.7,5.5,2.2,16.6c-6.3,0.7-12.7,0.8-19,0.3
		C354.1,262.6,355.5,257.7,356.8,251.9"/>
	<path class="st8" d="M358.8,161.3c10.8,7.6,16.2,11.4,16.2,11.4c18.2-11.7,24.6-20.7,19.1-27C380.6,145.4,367.7,151.1,358.8,161.3"
		/>
	<path class="st22" d="M358.8,161.3l16.2,11.4c2.3-1.5,4.3-2.9,6.2-4.2c4.3-7.4-6-9.9,1.8-21.7C373.7,148.9,365.2,153.9,358.8,161.3
		"/>
	<path class="st25" d="M302,223.7c-1.2-35.7,25.9-66,61.4-68.9c9.8,8.9,14.2,17.3,13.4,25.3c-2,12,6.5,10.8,6.1,25.4
		c-0.5,13.5-1.1,23.8-1.4,31.4c-1.1,28.6-47.4,17.1-62.1,9.1C310,240.9,304.3,233.5,302,223.7"/>
	<path class="st26" d="M345.7,158.7c5.6-2.1,11.5-3.4,17.7-3.9c9.8,8.9,14.2,17.3,13.4,25.3c-2,12,6.5,10.8,6.1,25.4
		c-0.5,13.5-1.1,23.8-1.4,31.4c-0.3,7.6-3.8,12.4-9,15.1c4-17.4,3.5-36-2.6-54.2C364.8,182.6,356.4,169.4,345.7,158.7"/>
	<path class="st16" d="M365.5,159c-24.5,8.7-36.8,13.1-36.8,13.1c-21.7,6.3-29.4,23.9-23.1,52.8c3.7,14.5,20,23.7,48.9,27.7
		c-6.3-2-11.3-6.8-13.8-12.9c-7.2-17.7,13-27.2,0.3-51.6c0,0,10.2-7.6,30.5-22.8C369.9,163,367.9,161,365.5,159"/>
	<path class="st17" d="M327,187.7c-15.7-4.8-2.4-14,39.9-27.5c0,0-7.8,6.9-23.4,20.8C339.1,184.7,333.6,187,327,187.7"/>
	<path class="st17" d="M319.9,195.1c-2.1,0.5-3.7,2.2-3.9,4.4c-0.2,2.2,1,4.2,3,5.1c15.8-3,23.7-4.4,23.7-4.4
		c4.3,6.3,12.2,9.2,19.6,7.1c-8-1.4-13.4-9-12-17.1C330,193.4,319.9,195.1,319.9,195.1"/>
	<path class="st8" d="M310.1,215.7c-11.1-12.9-16.7-19.4-16.7-19.4c4.3-12.8,17.3-20.6,30.6-18.4c2.6,3.9,3.5,8.6,2.6,13.1
		s-3.7,8.5-7.6,11c-0.2,7.5-0.3,11.3-0.3,11.3c0,2.1-1.4,4-3.5,4.5C313.2,218.4,311.1,217.5,310.1,215.7 M266.1,217
		c1.6-7.4,8.8-12.2,16.2-11c7.5,1.2,12.7,8.1,11.8,15.6C288.1,239.9,278.7,238.4,266.1,217z"/>
	<path class="st8" d="M284.5,129.8c1.9,0,3.5,1.6,3.5,3.5s-1.6,3.5-3.5,3.5s-3.5-1.6-3.5-3.5C281,131.4,282.5,129.8,284.5,129.8"/>
	<path class="st8" d="M300.7,198.9c3.8,5.5,6.5,8,8.1,7.6c6.8-1.3,10.1-1.9,10.1-1.9c0-1.6,0.1-2.5,0.1-2.5c2.7-1.8,4.9-4.3,6.3-7.2
		L300.7,198.9c7.7-6.4,16.8-10.1,26.3-11.2c0-3.5-1-6.9-2.9-9.8c-13.3-2.2-26.3,5.6-30.6,18.4l4.5,5.2
		C298.8,200.6,299.8,199.7,300.7,198.9 M266.1,217c1.6-7.4,8.8-12.2,16.2-11c3.3,0.5,6.1,2.2,8.2,4.5c-4.7,7.3-7.2,15.4-7.8,23.7
		C278,233.5,272.5,227.8,266.1,217z"/>
	<path class="st19" d="M287.9,131.3c19.7,31.9,29.6,47.9,29.6,47.9s-13.7,11.9-41.1,35.8c-6.5,5.5-10.9,5.9-14.4-0.8
		C246.2,184.1,257.9,147.1,287.9,131.3"/>
	<path class="st18" d="M313.9,181.5c32.5-20.7,48.7-31.1,48.7-31.1c-12.9-23.4-41.2-33.5-66-23.6c-11.2,4.7-12.8,7-9.9,13.4
		C298.1,162.3,313.9,181.5,313.9,181.5"/>
	<path class="st19" d="M390.5,143c4.8,1.2,5.8,3.4,3.9,3.7c-1.1,0.2-2.2-0.3-3.5-0.1c-1.6,0.2-3.4,1-6,2.3
		c-13.1,6.4-36.6,25.7-44.1,30c-2.7,1.6-5.7,2.8-9.2,3.4c-2.9,0.5-6,0.5-9.1,0.4c-1.5-0.1-7.7-0.3-8.7-1.2c-0.7-0.7-0.1-1.8,1.9-3.4
		C349.2,150.8,374.1,139.1,390.5,143"/>
	<path class="st8" d="M361,189.6c1.5,0,2.7,1.2,2.7,2.7s-1.2,2.7-2.7,2.7s-2.7-1.2-2.7-2.7S359.5,189.6,361,189.6"/>
	<path class="st8" d="M377.8,186c1.4,0,2.5,1.1,2.5,2.5s-1.1,2.5-2.5,2.5s-2.5-1.1-2.5-2.5S376.4,186,377.8,186"/>
	<path class="st27" d="M358.6,175.4c0.8-0.2,1.6,0.3,1.8,1.1c0.2,0.8-0.3,1.6-1.1,1.8c-1.5,0.4-2.9,1-4.1,1.8
		c-1.3,0.8-2.4,1.8-3.4,3c-0.5,0.6-1.5,0.7-2.1,0.2s-0.7-1.5-0.2-2.1c1.2-1.4,2.5-2.6,4.1-3.6C355.2,176.6,356.9,175.8,358.6,175.4"
		/>
	<path class="st27" d="M372.8,175.6c-0.8,0.2-1.6-0.2-1.9-1c-0.2-0.8,0.2-1.6,1-1.9c1.3-0.4,2.6-0.6,3.9-0.5s2.6,0.4,3.9,0.9
		c0.8,0.3,1.1,1.2,0.8,2c-0.3,0.8-1.2,1.1-2,0.8c-0.9-0.4-1.9-0.6-2.8-0.7C374.7,175.2,373.8,175.3,372.8,175.6"/>
	<path class="st28" d="M384.8,183.5c-1.4-1.7-3.1-2.7-4.9-2.5c-1.8,0.1-3.4,1.4-4.5,3.2c-1.2,2-1.8,4.6-1.6,7.6
		c0.2,2.9,1.2,5.5,2.6,7.2s3.1,2.7,4.9,2.5c1.8-0.1,3.4-1.4,4.5-3.2c1.2-2,1.8-4.6,1.6-7.6C387.2,187.8,386.2,185.3,384.8,183.5
		 M379.7,179.1c2.5-0.2,4.8,1.1,6.5,3.2c1.7,2.1,2.8,5,3.1,8.3c0.2,3.3-0.5,6.4-1.8,8.6c-1.4,2.4-3.5,4-6,4.1
		c-2.5,0.2-4.8-1.1-6.5-3.2c-1.7-2.1-2.8-5-3.1-8.3c-0.2-3.3,0.5-6.4,1.8-8.6C375.1,180.8,377.2,179.2,379.7,179.1z"/>
	<path class="st16" d="M370.7,190.7c-1.4-6.7,0.5-7.5,4.6-2.2c6.3,8.2,9.5,12.4,9.5,12.4c3.8,5.2,2.6,8.6-3.8,10.2
		c-3.1,0.8-1.7-0.5-3.9-0.7c-0.8-0.1-1.7,0.2-2.8,0.7c-1.5,0.8-1.8,1.5-3.8,1.1c-1.2-0.3-2.2-0.9-2.9-2c-1.1-1.6-1.1-3.8,0.1-5.4
		c1.2-1.6,3.2-2.3,5.1-1.8C371.4,194.7,370.7,190.7,370.7,190.7"/>
	<path class="st28" d="M367.8,184.9c-1.8-2.1-4.2-3.5-6.9-3.5s-5.1,1.3-6.9,3.5l0,0c-1.8,2.2-2.9,5.2-2.9,8.6c0,3.4,1.1,6.4,2.9,8.6
		c1.8,2.1,4.2,3.5,6.9,3.5c2.7,0,5.1-1.3,6.9-3.5s2.9-5.2,2.9-8.6C370.7,190.1,369.6,187.1,367.8,184.9L367.8,184.9z M360.9,179.5
		c3.3,0,6.2,1.6,8.4,4.1l0,0c1.1,1.4,2,3,2.6,4.8c0.3-0.2,0.6-0.5,0.9-0.6c0.9-0.4,1.9-0.6,3-0.4c0.5,0.1,0.8,0.6,0.7,1.1
		c-0.1,0.5-0.6,0.8-1.1,0.7c-0.6-0.1-1.2,0-1.7,0.2c-0.5,0.3-1,0.7-1.2,1.3l0,0c0.1,0.9,0.2,1.7,0.2,2.6c0,3.8-1.3,7.3-3.4,9.8
		c-2.1,2.6-5.1,4.1-8.4,4.1s-6.2-1.6-8.4-4.1c-2.1-2.5-3.4-6-3.4-9.8c0-0.9,0.1-1.9,0.2-2.7l-54.8,9.5l-0.3-1.8l55.6-9.7
		c0.6-1.9,1.5-3.6,2.7-5l0,0C354.6,181.1,357.6,179.5,360.9,179.5z"/>
	<path class="st18" d="M382.6,183.6c1.1,0,2,0.9,2,2s-0.9,2-2,2s-2-0.9-2-2C380.5,184.5,381.4,183.6,382.6,183.6"/>
	<path class="st18" d="M365.6,185.6c1.4,0,2.6,1.2,2.6,2.6c0,1.4-1.2,2.6-2.6,2.6s-2.6-1.2-2.6-2.6S364.2,185.6,365.6,185.6"/>
	<path class="st29" d="M364.8,224.8c-0.6-0.2-1-0.9-0.9-1.5c0.1-0.7,0.7-1.1,1.2-0.9c2.6,0.8,6,1.2,9,0.7c2.3-0.4,4.5-1.2,5.9-2.9
		c0.4-0.5,1.1-0.4,1.5,0.1s0.5,1.3,0.1,1.8c-1.7,2-4.3,3.1-7,3.5C371.3,226,367.7,225.6,364.8,224.8"/>
	<path class="st29" d="M370.6,229.9c-0.3-0.1-0.5-0.5-0.5-0.8c0.1-0.4,0.3-0.6,0.7-0.5c1.4,0.4,3.2,0.6,4.8,0.4
		c1.3-0.2,2.4-0.7,3.1-1.5c0.2-0.2,0.6-0.2,0.8,0c0.2,0.3,0.2,0.7,0,0.9c-0.9,1.1-2.3,1.6-3.7,1.9
		C374,230.5,372.1,230.3,370.6,229.9"/>
	<path class="st8" d="M308.9,182.8L276,211.5c-5.6,4.8-9.4,5.1-12.4-0.7c-6.5-12.5-7.6-26.5-4-39.1
		C274.5,190,289.3,168.2,308.9,182.8"/>
	<path class="st25" d="M287.2,199.7c5-4.4,13.7-2.7,19.5,3.8c5.7,6.5,6.3,15.4,1.3,19.8c-5,4.4-13.7,2.7-19.5-3.8
		C282.8,213,282.2,204.2,287.2,199.7"/>
	<path class="st16" d="M290.4,205.2c3.1-2.7,8.5-1.7,12.1,2.3s3.9,9.5,0.8,12.3c-3.1,2.7-8.5,1.7-12.1-2.3
		C287.6,213.5,287.3,208,290.4,205.2"/>
	<path class="st17" d="M295.4,206.4c1.8-1.6,5-1,7.1,1.4s2.3,5.6,0.5,7.2c-1.8,1.6-5,1-7.1-1.4S293.6,208,295.4,206.4"/>
	<path class="st8" d="M357.9,164.6c-7.4,5.3-14.4,10.8-17.6,12.6c-2.1,1.3-4.4,2.2-7.2,2.7c-2.3,0.4-4.7,0.4-7.1,0.3
		c-1.2-0.1-6.1-0.2-6.8-0.9c-0.6-0.5-0.1-1.4,1.5-2.6c6.8-5.6,13.2-10.3,19.1-14.2C345.5,164.6,351.8,165.3,357.9,164.6"/>
	<path class="st30" d="M224.3,446.6c-11.9,2.7-20.8,3.5-26.8,2.3c4.6-9.8,16-2.9,23.8-3.6c12.7-1.2,14.2-16.7,22.5-21.2
		c3.7-2,8.1-2.4,12.2-1c-0.6,16.2-0.8,24.2-0.8,24.2C234.5,446.9,224.3,446.6,224.3,446.6"/>
	<path class="st7" d="M312.8,406.4c11.6-2.1,50.9,28.6,65.4-13.8c4.5-13.3-0.3-27.2,4.8-41.3c-5.6,18.1-8.4,27.2-8.4,27.2
		C367.9,402.8,356.5,395.9,312.8,406.4"/>
	<path class="st7" d="M270.7,415.4c1.4,22.1,2.1,33.1,2.1,33.1c43.6-0.5,85.2-2.8,124.8-6.8c-19.1-19.5-34,2.3-60.2-2
		C309.9,435.1,299,405.5,270.7,415.4"/>
	<path class="st19" d="M266.2,456.9c2,0,4,0,6-0.1c9.3-0.2,8.3,0.4,6.3-12c-1.8-11.3-3.6-22.3-4.9-33.3c-0.9-7.2-1.4-7.2-6.8-7
		c-3,0.1-6.1,0.5-9.1,1c-5.6,0.9-7.6,1.4-8.1,3.9c-1.1,5.9,5.1,40.4,7.4,44.8C258.3,456.8,260.4,457.1,266.2,456.9"/>
	<path class="st19" d="M391.8,446.1c27.5-3.6,41.6-11.6,49.7-49.2c8.2-38.1,14.2-101.2,10.3-114.9c-2-7-5.9-10.8-11.6-11.5
		C440.4,401.7,377,398.6,391.8,446.1"/>
	<path class="st10" d="M289.4,481.2c35.4,0,64.1,5.2,64.1,11.7s-28.7,11.7-64.1,11.7s-64.1-5.2-64.1-11.7
		C225.3,486.4,254,481.2,289.4,481.2"/>
	<path class="st31" d="M301.1,421c7.4,0,14.9,0,22.3,0s14.9,0,22.3,0c3.3,0,5.8,2.7,5.5,6c-0.8,9.9-1.7,19.7-2.5,29.6
		s-1.7,19.7-2.5,29.6c-0.3,3.3-2.7,5.3-5.3,5.9c-11.3,3-25.6,2-35.2,0c-2.6-0.5-5-2.7-5.3-5.9c-0.8-9.9-1.7-19.7-2.5-29.6
		s-1.7-19.7-2.5-29.6C295.2,423.7,297.7,421,301.1,421"/>
	<path class="st10" d="M323,417.2c16.2,0,29.4,2.5,29.4,5.5c0,3.1-13.2,5.5-29.4,5.5c-16.2,0-29.4-2.5-29.4-5.5
		S306.8,417.2,323,417.2"/>
	<path class="st28" d="M343.5,420.2c-5.2-1-12.5-1.6-20.5-1.6s-15.3,0.6-20.5,1.6c-4.6,0.9-7,1.8-7,2.5c0,0.8,2.4,1.7,7,2.5
		c5.2,1,12.5,1.6,20.5,1.6s15.3-0.6,20.5-1.6c4.6-0.9,6.8-1.7,6.8-2.5C350.3,422,348.1,421,343.5,420.2 M323,415.8
		c8.2,0,15.6,0.6,21,1.6c6,1.1,9.7,3,9.7,5.3s-3.7,4.1-9.7,5.3c-5.4,1-12.9,1.6-21,1.6c-8.2,0-15.6-0.6-21-1.6c-6-1.1-9.7-3-9.7-5.3
		s3.7-4.1,9.7-5.3C307.4,416.4,314.8,415.8,323,415.8z"/>
	<path class="st10" d="M323.6,446.1c5.6,0,10.1,5,10.1,11.2s-4.5,11.2-10.1,11.2s-10.1-5-10.1-11.2
		C313.4,451.1,318,446.1,323.6,446.1"/>
	<path class="st32" d="M327.5,444.5c-2.5,1.6-3.5,3.5-3.6,5.6c-0.2,2.3,0.6,4.9,1.3,7.5c0.6,2.2,1.1,4.4,0.7,6.7
		c-0.4,2.3-1.8,4.6-4.8,6.8l-1.5-2.1c2.4-1.7,3.5-3.4,3.8-5.1c0.3-1.8-0.1-3.6-0.7-5.5c-0.8-2.9-1.6-5.7-1.4-8.4
		c0.2-2.9,1.5-5.5,4.8-7.5L327.5,444.5z"/>
	<path class="st33" d="M324.3,408.6c2.5,5.6,3.5,11.5,0.7,13.9c-2.4,2-4.8,0.1-5-2.6c-0.2-2-0.2-4.5-1.2-7.2
		c-1.5-3.6-4.3-5.6-7.2-7.9c-8.9-7.2-9.8-18.9-4-27.1c3.7-5.3,11-6.7,9.7-13.8c-1.4-7.6-12.7-8.4-12.3-22.6
		c0.2-7.5,6.2-14.3,14.5-16.2c5.9-1.3,12.3,0.3,16.7,5.9c5.9,7.5,7.9,20.1,5,30.2c-2.4,8.2-8.1,12.6-15.3,16.7
		c-4.1,2.3-7.8,4.8-9.3,10.1C313.6,398.3,320.8,400.9,324.3,408.6"/>
	<path class="st18" d="M106.5,233.4c1.2,0,2.1,0.9,2.1,2.1c0,1.2-0.9,2.1-2.1,2.1s-2.1-0.9-2.1-2.1
		C104.4,234.4,105.3,233.4,106.5,233.4"/>
	<path class="st18" d="M170.8,213.6c0.7,0,1.3,0.6,1.3,1.3s-0.6,1.3-1.3,1.3s-1.3-0.6-1.3-1.3C169.5,214.2,170.1,213.6,170.8,213.6"
		/>
	<path class="st18" d="M206.1,287.6c0.7,0,1.3,0.6,1.3,1.3c0,0.7-0.6,1.3-1.3,1.3s-1.3-0.6-1.3-1.3
		C204.8,288.1,205.4,287.6,206.1,287.6"/>
	<path class="st18" d="M245.6,300.2c0.9,0,1.6,0.7,1.6,1.6s-0.7,1.6-1.6,1.6c-0.9,0-1.6-0.7-1.6-1.6
		C244,300.9,244.7,300.2,245.6,300.2"/>
	<path class="st18" d="M172.6,441.1c0.7,0,1.3,0.6,1.3,1.3c0,0.7-0.6,1.3-1.3,1.3s-1.3-0.6-1.3-1.3S171.8,441.1,172.6,441.1"/>
	<path class="st18" d="M360.6,387.1c1.2,0,2.1,0.9,2.1,2.1s-0.9,2.1-2.1,2.1s-2.1-0.9-2.1-2.1C358.5,388.1,359.4,387.1,360.6,387.1"
		/>
	<path class="st18" d="M410.2,495.8c1.1,0,2,0.9,2,2s-0.9,2-2,2s-2-0.9-2-2C408.2,496.7,409.1,495.8,410.2,495.8"/>
	<path class="st18" d="M374.8,472c0.7,0,1.2,0.6,1.2,1.2c0,0.7-0.6,1.2-1.2,1.2c-0.7,0-1.2-0.6-1.2-1.2
		C373.6,472.5,374.1,472,374.8,472"/>
	<path class="st18" d="M433,526.1c0.7,0,1.2,0.6,1.2,1.2c0,0.7-0.6,1.2-1.2,1.2c-0.7,0-1.2-0.6-1.2-1.2
		C431.8,526.7,432.3,526.1,433,526.1"/>
	<path class="st18" d="M290,468.5c0.8,0,1.4,0.6,1.4,1.4s-0.6,1.4-1.4,1.4s-1.4-0.6-1.4-1.4S289.2,468.5,290,468.5"/>
	<path class="st18" d="M306.2,73.2c0.8,0,1.5,0.7,1.5,1.5s-0.7,1.5-1.5,1.5s-1.5-0.7-1.5-1.5C304.7,73.9,305.4,73.2,306.2,73.2"/>
	<path class="st18" d="M234,498.8c1.1,0,2,0.9,2,2s-0.9,2-2,2s-2-0.9-2-2S232.9,498.8,234,498.8"/>
	<path class="st5" d="M496.7,224.2c2,0.8,3.9,0.6,4.3-0.4s-0.8-2.5-2.8-3.3s-3.9-0.6-4.3,0.4C493.5,221.9,494.8,223.4,496.7,224.2"
		/>
	<path class="st5" d="M506.8,304c-0.5,1.8-0.2,3.6,0.8,3.9s2.2-1,2.7-2.8s0.2-3.6-0.8-3.9C508.6,300.8,507.3,302.1,506.8,304"/>
	<path class="st5" d="M655.3,325.1c1.3,0.6,2.7,0.5,3-0.2s-0.5-1.7-1.8-2.3c-1.3-0.6-2.7-0.5-3,0.2
		C653.2,323.5,654,324.5,655.3,325.1"/>
	<path class="st5" d="M622.9,487.9c-1.4,0.6-2.7,1.2-4,1.8c0.3-1.6,0.4-3.3,0.5-4.9c1.3-13.2,1.6-26.5,1.1-39.8
		c-0.6-15.4-2.5-29.1-5.6-41.2c-0.2-0.9,0.3-1.9,1.3-2.1c0.9-0.2,1.9,0.3,2.1,1.3c3.2,12.3,5.1,26.3,5.7,41.9
		c0.2,4.2,0.3,8.5,0.2,12.9c4.2-16.4,10.8-32.2,19.4-46.8c0.5-0.8,1.6-1.1,2.4-0.6c0.8,0.5,1.1,1.6,0.6,2.4
		c-13.4,22.6-21.6,47.7-23.7,73.9C622.9,487.4,622.9,487.9,622.9,487.9 M611,490.4c-1.2-15.6-7.5-28.6-20.5-37.9
		c-0.8-0.6-1-1.7-0.4-2.4c0.6-0.8,1.7-1,2.4-0.4c13.9,9.8,20.7,23.7,22,40.4c0,0.4,0.1,0.8,0.1,1.3c-1.2,0.5-2.4,0.9-3.6,1.4
		C611.1,492.2,611.1,491.4,611,490.4z"/>
	<path class="st4" d="M597,462.3c9.2-7.2,16.3-17.6,13.9-28.7c-2.2-10.4-12.1-16.3-22.7-10.3c0.9-8.6-6.2-11.9-14.3-11.1
		c-24.3,2.4-29.3,30.7-19.4,49.7c3,6.2,4.9,11.6,5.6,16.1c0.5,3.3,2.5,3.6,5.9,0.8C575.9,470.5,585.9,471,597,462.3"/>
	<path class="st3" d="M597,462.3c9.2-7.2,16.3-17.6,13.9-28.7c-2-9.7-10.7-15.4-20.4-11.5c-16.4,18.9,10,28.4-12.3,49.6
		C584.3,469.4,590.4,467.5,597,462.3"/>
	<path class="st4" d="M646,423.8c-6.8-5.6-12.1-12.9-11.1-21.4c0.9-8.1,9.4-12.2,21.4-7.8c-7.6-11.9,1.6-21.3,13.6-18.1
		c21.5,5.7,27.2,33.5,21.3,55c-0.2,0.8-0.3,1.2-0.3,1.2c-3.2,4.3-6.9,8.9-11.1,13.6c0,0-0.4-0.5-1.3-1.6
		C670.6,435.3,656.1,432.2,646,423.8"/>
	<path class="st4" d="M643.4,475c-3.2-5.9-4.3-12.7-1.3-18.8c3.6-7.4,12-10,18.5-3.9c1.1-6.5,6.9-7.8,12.6-5.9
		c0.8,0.3,1.6,0.6,2.3,0.9l0,0l0,0c1.5,0.7,2.2,1.1,2.2,1.1c-10,10.6-21.1,19.9-33.4,27.7C644,475.9,643.7,475.5,643.4,475"/>
	<path class="st4" d="M625.4,409.6c7.6-5.7,13.3-14.3,11.6-24c-1.7-9.2-9.6-14.8-18.3-10.3c0.8-7.4-4.9-10.7-11.5-10.5
		c-19.7,0.7-24,24.9-16.2,41.8c2.4,5.5,3.9,10.3,4.4,14.2c0.4,2.9,2,3.3,4.8,1.1C608.3,415.5,616.4,416.5,625.4,409.6"/>
	<path class="st3" d="M625.4,409.6c7.6-5.7,13.3-14.3,11.6-24c-1.6-8.6-8.7-14.1-16.8-10.9c-12.2,17.5,5.7,27.6-13.5,43.5
		C612.6,415.5,618.8,414.7,625.4,409.6"/>
	<path class="st3" d="M686,416c-1.1,2.3-1.1,4.9,0.2,7.1s3.6,3.6,6.1,3.6c1-5.2,1.3-10.5,1-15.8c-0.3-4.7-1.2-9.4-2.8-13.9
		c-1.8-5.1-4.3-9.3-7.4-12.7c-3.6-3.9-8-6.5-13.2-8c-2.8-0.8-5.8-0.8-8.7-0.1c-3.6,1.2-5.7,4.9-5,8.6s4,6.4,7.7,6.3
		c6.9-0.5,14.2,0,19,5.3C687.7,401.9,688.9,409.5,686,416"/>
	<path class="st5" d="M642.2,472.6c-2.2-5.3-2.8-11-0.2-16.3c3.3-6.7,10.6-9.5,16.8-5.3c-2.7,4.8-4.5,10-5.3,15.4
		C651.4,471.8,647.5,474.1,642.2,472.6"/>
	<path class="st5" d="M605.8,365c-18.5,1.7-22.4,25.2-14.8,41.8c2.4,5.5,3.9,10.3,4.4,14.2c0.4,2.9,2,3.3,4.8,1.1
		c3.2-2.6,6.4-4,9.7-5.2c-6-7.1-9.8-16.1-10.4-26.1C598.9,381.4,601.3,372.4,605.8,365"/>
	<path class="st5" d="M646,423.8c-6.8-5.6-12.1-12.9-11.1-21.4c0.6-5,4-8.5,9.5-9.4c6.2,3.3,7.7,10.1,9.4,17.1
		c3.8,15,15.8,24.1,30.2,28c-0.7,1-1.3,2.1-1.9,3.2c-0.2,0.3-0.4,0.6-0.5,0.9c-0.1,0.2-0.3,0.3-0.4,0.5c-0.7,0.8-1.4,1.7-2,2.7
		C671.5,435.5,656.4,432.5,646,423.8"/>
	<path class="st4" d="M609.2,451c-1.9-5.3-2.2-11.1,1.7-15.4c3.8-4.1,10.6-3.6,16.3,2.8c0-9,9.5-11.1,15.6-5.4
		c13.5,12.7-1.4,35.9-18.2,42.6c-2.6,1.2-3.8,0.7-3.6-1.7C620.3,465.9,612.2,459.2,609.2,451"/>
	<path class="st5" d="M609.2,451c-1.9-5.3-2.2-11.1,1.7-15.4c1.6-1.7,3.6-2.6,5.9-2.6c5.5,6.5-7.4,28.8,16.7,37.4
		c-2.8,2.2-5.9,4-9,5.3c-2.6,1.2-3.8,0.7-3.6-1.7C620.3,465.9,612.2,459.2,609.2,451"/>
	<path class="st3" d="M628.9,432.9c3-4,9.4-4.1,13.9,0.2c10.1,9.5,4.3,24.9-6.3,34.8C648.1,444.1,628.8,448.3,628.9,432.9"/>
	<path class="st5" d="M570,412.8c-20.8,4.9-24.8,31.2-15.4,49c3,6.2,4.9,11.6,5.6,16.1c0.5,3.3,2.5,3.6,5.9,0.8
		c4.5-3.8,9.1-5.7,13.8-7.6c-17-13.6-21.9-37.9-10.6-57.2C569.5,413.6,569.7,413.2,570,412.8"/>
</g>
</svg>
