<?xml version="1.0" encoding="utf-8"?><!--Generator: Adobe Illustrator 24.3.0, SVG Export Plug-In . SVG Version: 6.00 Build 0)--><svg version="1.1" id="Capa_1" xmlns="http://www.w3.org/2000/svg" xmlns:xlink="http://www.w3.org/1999/xlink" x="0px" y="0px" viewBox="0 0 386.94 385.63" style="enable-background:new 0 0 386.94 385.63" xml:space="preserve"><style type="text/css">.st0{fill:#0000FF;stroke:#0000FF;stroke-width:4.5499;stroke-miterlimit:10;}</style><g><path class="st0" d="M370.48,210.26l-19.38-5.1c0.68-8.28,0.68-16.61,0-24.89l19.38-5.1c3.82-1,7.05-3.55,9.05-7.1
		c2.05-3.41,2.55-7.46,1.55-11.37l-7.19-26.75c-2.14-7.96-10.33-12.69-18.38-10.65l-19.29,5.23c-3.55-7.46-7.73-14.74-12.38-21.48
		L337.9,89c2.87-2.87,4.5-6.6,4.5-10.65c0-3.91-1.59-7.78-4.5-10.51l-19.56-19.61c-5.82-5.91-15.38-5.91-21.25,0L282.94,62.3
		c-6.69-4.6-13.97-8.83-21.38-12.38l5.19-19.29c2.09-7.96-2.64-16.24-10.56-18.47l-26.84-7.1c-7.96-2.18-16.24,2.55-18.38,10.69
		l-5.19,19.29c-8.19-0.68-16.52-0.68-24.8,0l-5.19-19.29c-1-3.91-3.46-7.14-7.01-9.15c-3.41-2.05-7.46-2.55-11.37-1.55l-26.75,7.1
		c-8.05,2.18-12.79,10.51-10.65,18.47l5.19,19.29c-7.46,3.55-14.65,7.78-21.38,12.38L89.66,48.24c-5.82-5.91-15.42-5.91-21.25,0
		L48.9,67.85c-5.91,5.73-5.91,15.24,0,21.16l14.06,14.06c-4.64,6.78-8.74,14.06-12.38,21.48l-19.29-5.23
		c-7.96-2.05-16.24,2.68-18.38,10.65l-7.19,26.75c-1,3.91-0.5,7.96,1.55,11.37c2.05,3.55,5.23,6.1,9.05,7.1l19.38,5.1
		c-0.59,8.28-0.59,16.61,0,24.89l-19.38,5.1c-3.82,1-7.05,3.55-9.05,7.1c-2.05,3.41-2.55,7.46-1.55,11.37l7.19,26.75
		c2.09,8.1,10.42,12.88,18.38,10.65l22.93-6.1c1-0.32,1.96-0.86,2.64-1.55l37.13-37.22c1.46-1.36,2.05-3.37,1.55-5.41
		c-8.46-34.85,1.59-70.75,26.84-96.14c25.48-25.39,62.79-35.35,97.41-26.43l-74.03,73.98c-1.46,1.55-2.05,3.55-1.55,5.6
		c8.55,34.22,35.03,60.6,69.16,69.07c1.96,0.68,4.05,0,5.51-1.36l74.07-74.12c8.87,34.53-1,71.93-26.48,97.5
		c-25.21,25.21-61.2,35.22-96.05,26.75c-1.96-0.5-4.05,0-5.51,1.55l-37.17,37.04c-0.68,0.68-1.18,1.68-1.46,2.73l-6.19,22.84
		c-1,3.91-0.5,7.96,1.55,11.51c2.05,3.37,5.23,5.91,9.15,6.96l26.75,7.1c1.27,0.32,2.64,0.68,3.91,0.68c2.64,0,5.19-0.68,7.46-2.05
		c3.55-2.05,6.01-5.41,7.01-9.15l5.19-19.29c8.28,0.5,16.61,0.5,24.8,0l5.19,19.29c2.09,7.96,10.33,12.69,18.38,10.51l26.84-7.1
		c7.96-2.18,12.69-10.33,10.56-18.47l-5.19-19.11c7.46-3.73,14.74-7.78,21.38-12.51l14.15,14.2c5.82,5.73,15.42,5.73,21.25,0
		l19.56-19.66c2.87-2.87,4.5-6.6,4.5-10.65c0-3.87-1.59-7.78-4.5-10.65l-14.06-14.06c4.64-6.78,8.83-14.06,12.38-21.48l19.29,5.23
		c7.96,2.18,16.24-2.55,18.38-10.65l7.19-26.75c1-3.91,0.5-7.96-1.55-11.37C377.53,213.81,374.3,211.3,370.48,210.26z
		 M369.89,225.68l-7.19,26.75c-0.41,2.05-2.37,3.05-4.23,2.55l-23.93-6.42c-2.78-0.68-5.69,0.68-6.82,3.23
		c-4.32,9.96-9.74,19.29-16.02,27.94c-1.68,2.18-1.46,5.41,0.5,7.46l17.61,17.61c0.68,0.68,1,1.55,1,2.37c0,1-0.32,1.87-1,2.55
		l-19.66,19.47c-1.36,1.36-3.46,1.36-4.82,0l-17.61-17.43c-2.05-2.05-5.19-2.37-7.55-0.68c-8.46,6.42-17.84,11.83-27.75,16.06
		c-2.64,1.18-4.1,4.05-3.32,6.78l6.42,24.02c0.5,1.87-0.59,3.73-2.46,4.23l-26.75,7.1c-1.87,0.5-3.73-0.5-4.23-2.37l-6.42-24.02
		c-0.68-2.55-3.05-4.23-5.6-4.23c-0.23,0-0.41,0-0.68,0c-10.65,1.18-21.38,1.18-32.08,0c-2.78-0.36-5.51,1.5-6.19,4.23l-6.42,24.02
		c-0.5,1.87-2.46,2.87-4.32,2.37l-26.75-7.1c-0.96-0.18-1.59-0.68-2.09-1.68c-0.41-0.68-0.59-1.68-0.32-2.55l5.73-21.48l33.76-33.71
		c37.81,7.96,76.39-3.37,103.83-30.62c30.71-30.8,41.13-77.35,26.48-118.48c-0.68-1.87-2.27-3.23-4.14-3.73
		c-2.05-0.36-3.96,0.32-5.41,1.68l-78.53,78.53c-27.44-8.14-48.73-29.44-56.78-56.87l78.53-78.53c1.36-1.36,1.96-3.37,1.55-5.41
		c-0.41-1.87-1.77-3.41-3.64-4.09c-41.22-14.7-87.68-4.37-118.48,26.43C86.75,139.1,75.51,177.68,83.57,215.4L49.8,249.25
		l-21.48,5.73c-1.87,0.5-3.73-0.5-4.23-2.55l-7.19-26.75c-0.5-1.87,0.59-3.73,2.46-4.23l24.02-6.42c2.78-0.68,4.6-3.23,4.23-6.28
		c-1.18-10.46-1.18-21.34,0-31.99c0.36-2.87-1.46-5.41-4.23-6.28l-24.02-6.42c-1.87-0.5-2.96-2.37-2.46-4.23l7.19-26.75
		c0.5-1.87,2.37-2.87,4.23-2.55l24.02,6.42c2.68,0.86,5.6-0.68,6.78-3.23c4.32-9.96,9.74-19.29,16.02-27.75
		c1.68-2.37,1.46-5.6-0.5-7.64L57.04,80.72c-1.36-1.18-1.36-3.41,0-4.73L76.6,56.33c1.36-1.36,3.64-1.36,5,0l17.52,17.61
		c2.05,2.05,5.23,2.18,7.55,0.5c8.55-6.28,17.84-11.69,27.75-16.06c2.64-1,4.09-4.05,3.32-6.78l-6.42-24.02
		c-0.5-1.87,0.59-3.73,2.46-4.23l26.75-7.1c1.87-0.5,3.82,0.68,4.32,2.55l6.42,23.89c0.68,2.87,3.41,4.6,6.19,4.23
		c10.65-1,21.38-1,32.08,0c2.87,0.36,5.51-1.36,6.28-4.23l6.42-23.89c0.5-1.87,2.37-3.05,4.23-2.55l26.75,7.1
		c1.87,0.5,2.96,2.37,2.46,4.23l-6.42,24.02c-0.77,2.68,0.68,5.73,3.32,6.78c9.92,4.41,19.29,9.83,27.75,16.06
		c2.37,1.68,5.51,1.55,7.55-0.5l17.61-17.61c1.27-1.36,3.5-1.36,4.82,0l19.66,19.66c0.68,0.68,1,1.55,1,2.37c0,1-0.32,1.87-1,2.37
		l-17.61,17.61c-1.96,2.05-2.18,5.23-0.5,7.64c6.28,8.46,11.69,17.93,16.02,27.75c1.18,2.55,4.05,4.09,6.82,3.23l23.93-6.42
		c1.87-0.36,3.82,0.68,4.23,2.55l7.19,26.75c0.5,1.87-0.59,3.73-2.46,4.23l-24.02,6.42c-2.68,0.86-4.6,3.41-4.23,6.28
		c1.18,10.65,1.18,21.48,0,31.99c-0.36,3.05,1.55,5.6,4.23,6.28l24.02,6.42C369.3,221.95,370.39,223.82,369.89,225.68z"/></g></svg>