<?xml version="1.0" encoding="utf-8"?><!--Generator: Adobe Illustrator 24.3.0, SVG Export Plug-In . SVG Version: 6.00 Build 0)--><svg version="1.1" id="Capa_1" xmlns="http://www.w3.org/2000/svg" xmlns:xlink="http://www.w3.org/1999/xlink" x="0px" y="0px" viewBox="0 0 386.94 385.63" style="enable-background:new 0 0 386.94 385.63" xml:space="preserve"><style type="text/css">.st0{fill:#0000FF;stroke:#0000FF;stroke-width:4.2124;stroke-miterlimit:10;}</style><g><g><path class="st0" d="M360.36,26.98h-24.52v-12.3c0-3.08-2.57-5.64-5.81-5.64c-3.16,0-5.73,2.57-5.73,5.64v12.3h-43.72v-12.3
			c0-3.08-2.57-5.64-5.73-5.64c-3.24,0-5.81,2.57-5.81,5.64v12.3h-43.72v-12.3c0-3.08-2.57-5.64-5.73-5.64s-5.73,2.57-5.73,5.64
			v12.3h-43.72v-12.3c0-3.08-2.65-5.64-5.81-5.64s-5.73,2.57-5.73,5.64v12.3h-43.68v-12.3c0-3.08-2.65-5.64-5.81-5.64
			c-3.16,0-5.73,2.57-5.73,5.64v12.3H59.64v-12.3c0-3.08-2.57-5.64-5.81-5.64c-3.16,0-5.73,2.57-5.73,5.64v12.3H26.57
			c-12.72,0-23,10.4-23,23.04v303.5c0,12.64,10.24,23.08,23,23.08h333.75c12.72,0,23.04-10.4,23.04-23.08V50.02
			C383.4,37.38,373.04,26.98,360.36,26.98z M360.36,365.14H26.62c-6.32,0-11.54-5.27-11.54-11.63V92.86h2.91
			c3.24,0,5.81-2.4,5.81-5.64c0-3.24-2.57-5.81-5.81-5.81h-2.91V49.97c0-6.32,5.22-11.46,11.54-11.46h21.53v12.3
			c0,3.08,2.57,5.64,5.73,5.64c3.24,0,5.81-2.57,5.81-5.64v-12.3h43.72v12.3c0,3.08,2.57,5.64,5.73,5.64c3.16,0,5.81-2.57,5.81-5.64
			v-12.3h43.72v12.3c0,3.08,2.57,5.64,5.73,5.64c3.16,0,5.81-2.57,5.81-5.64v-12.3h43.72v12.3c0,3.08,2.57,5.64,5.73,5.64
			s5.73-2.57,5.73-5.64v-12.3h43.72v12.3c0,3.08,2.57,5.64,5.81,5.64c3.16,0,5.73-2.57,5.73-5.64v-12.3h43.72v12.3
			c0,3.08,2.57,5.64,5.73,5.64c3.24,0,5.81-2.57,5.81-5.64v-12.3h24.52c6.4,0,11.54,5.14,11.54,11.46V81.4h-2.91
			c-3.16,0-5.73,2.57-5.73,5.81c0,3.24,2.57,5.64,5.73,5.64h2.91v260.66C371.86,359.88,366.76,365.14,360.36,365.14z"/></g><g><path class="st0" d="M69.79,87.25c0-3.24-2.65-5.81-5.81-5.81H46.71c-3.16,0-5.73,2.57-5.73,5.81c0,3.24,2.57,5.64,5.73,5.64
			h17.27C67.14,92.9,69.79,90.5,69.79,87.25z"/></g><g><path class="st0" d="M184.83,92.9h17.23c3.24,0,5.81-2.4,5.81-5.64c0-3.24-2.57-5.81-5.81-5.81h-17.23
			c-3.16,0-5.73,2.57-5.73,5.81C179.15,90.5,181.67,92.9,184.83,92.9z"/></g><g><path class="st0" d="M161.88,87.25c0-3.24-2.57-5.81-5.81-5.81h-17.23c-3.16,0-5.73,2.57-5.73,5.81c0,3.24,2.57,5.64,5.73,5.64
			h17.23C159.31,92.9,161.88,90.5,161.88,87.25z"/></g><g><path class="st0" d="M92.79,92.9h17.23c3.24,0,5.81-2.4,5.81-5.64c0-3.24-2.57-5.81-5.81-5.81H92.79c-3.16,0-5.73,2.57-5.73,5.81
			C87.06,90.5,89.59,92.9,92.79,92.9z"/></g><g><path class="st0" d="M276.91,92.9h17.27c3.24,0,5.81-2.4,5.81-5.64c0-3.24-2.57-5.81-5.81-5.81h-17.27
			c-3.16,0-5.73,2.57-5.73,5.81C271.19,90.5,273.76,92.9,276.91,92.9z"/></g><g><path class="st0" d="M248.14,81.44h-17.23c-3.16,0-5.73,2.57-5.73,5.81c0,3.24,2.57,5.64,5.73,5.64h17.23
			c3.16,0,5.81-2.4,5.81-5.64C253.92,84.01,251.3,81.44,248.14,81.44z"/></g><g><path class="st0" d="M340.27,81.44h-17.31c-3.16,0-5.73,2.57-5.73,5.81c0,3.24,2.57,5.64,5.73,5.64h17.31
			c3.16,0,5.73-2.4,5.73-5.64C346,84.01,343.43,81.44,340.27,81.44z"/></g><g><path class="st0" d="M177.76,199.13h31.42c6.4,0,11.54-5.14,11.54-11.46v-31.59c0-6.32-5.14-11.46-11.54-11.46h-31.42
			c-6.32,0-11.54,5.14-11.54,11.46v31.59C166.21,194,171.44,199.13,177.76,199.13z M177.76,156.08h31.42l0.08,31.59h-31.51
			L177.76,156.08L177.76,156.08z"/></g><g><path class="st0" d="M104.88,144.63H73.37c-6.32,0-11.54,5.14-11.54,11.46v31.59c0,6.32,5.18,11.46,11.54,11.46h31.51
			c6.32,0,11.46-5.14,11.46-11.46v-31.59C116.34,149.77,111.24,144.63,104.88,144.63z M73.37,187.68v-31.59h31.51v31.59H73.37z"/></g><g><path class="st0" d="M313.52,144.63H282.1c-6.32,0-11.54,5.14-11.54,11.46v31.59c0,6.32,5.22,11.46,11.54,11.46h31.42
			c6.4,0,11.54-5.14,11.54-11.46v-31.59C325.06,149.77,319.92,144.63,313.52,144.63z M282.1,187.68v-31.59h31.42l0.08,31.59H282.1z"/></g><g><path class="st0" d="M104.88,255.16H73.37c-6.32,0-11.54,5.14-11.54,11.46v31.59c0,6.32,5.18,11.46,11.54,11.46h31.51
			c6.32,0,11.46-5.14,11.46-11.46v-31.59C116.34,260.26,111.24,255.16,104.88,255.16z M73.37,298.17v-31.59h31.51v31.59H73.37z"/></g><g><path class="st0" d="M313.52,255.16H282.1c-6.32,0-11.54,5.14-11.54,11.46v31.59c0,6.32,5.22,11.46,11.54,11.46h31.42
			c6.4,0,11.54-5.14,11.54-11.46v-31.59C325.06,260.26,319.92,255.16,313.52,255.16z M282.1,298.17v-31.59h31.42l0.08,31.59H282.1z"/></g><g><path class="st0" d="M228.98,243.2l6.91-13.52c1.43-2.74,0.42-6.32-2.4-7.67c-2.91-1.56-6.32-0.34-7.75,2.4l-6.23,11.96
			c-6.91-3.58-14.79-5.81-23.13-5.81h-5.73c-27,0-48.95,22.03-48.95,49.03v5.64c0,27,21.95,49.03,48.95,49.03h5.73
			c27,0,48.95-22.03,48.95-49.03v-5.64C245.32,265.06,238.96,252.08,228.98,243.2z M233.78,285.19c0,20.68-16.81,37.41-37.41,37.41
			h-5.73c-20.68,0-37.41-16.72-37.41-37.41v-5.64c0-20.68,16.72-37.41,37.41-37.41h5.73c6.4,0,12.47,1.56,17.78,4.42l-21.19,40.65
			l-13.61-20.85c-1.68-2.74-5.27-3.41-7.96-1.73c-2.65,1.73-3.41,5.31-1.68,7.88l18.96,29.19c1.01,1.73,2.82,2.74,4.8,2.74
			c0.08,0,0.25,0,0.25,0c2.06-0.17,3.92-1.35,4.84-3.24l24.85-47.47c6.4,6.66,10.32,15.71,10.32,25.78v5.69H233.78z"/></g></g></svg>