<?xml version="1.0" encoding="utf-8"?>
<!-- Generator: Adobe Illustrator 16.0.3, SVG Export Plug-In . SVG Version: 6.00 Build 0)  -->
<!DOCTYPE svg PUBLIC "-//W3C//DTD SVG 1.1//EN" "http://www.w3.org/Graphics/SVG/1.1/DTD/svg11.dtd">
<svg version="1.1" id="Layer_1" xmlns="http://www.w3.org/2000/svg" xmlns:xlink="http://www.w3.org/1999/xlink" x="0px" y="0px"
	 width="612px" height="374.981px" viewBox="0 200.6 612 374.981" enable-background="new 0 200.6 612 374.981"
	 xml:space="preserve">
<g>
	
		<linearGradient id="SVGID_2_" gradientUnits="userSpaceOnUse" x1="-202.4041" y1="133.3" x2="-140.9236" y2="94.9197" gradientTransform="matrix(0.711 0 0 -0.711 366.9775 480.5135)">
		<stop  offset="0" style="stop-color:#000000"/>
		<stop  offset="1" style="stop-color:#FFFFFF"/>
	</linearGradient>
	<rect x="237.96" y="390.455" fill="url(#SVGID_2_)" width="32.705" height="29.576"/>
</g>
<g>
	
		<linearGradient id="SVGID_4_" gradientUnits="userSpaceOnUse" x1="-133.5544" y1="117.1418" x2="-189.6344" y2="105.862" gradientTransform="matrix(0.711 0 0 -0.711 350.792 481.3622)">
		<stop  offset="0" style="stop-color:#000000"/>
		<stop  offset="1" style="stop-color:#FFFFFF"/>
	</linearGradient>
	<rect x="221.75" y="384.553" fill="url(#SVGID_4_)" width="22.04" height="36.33"/>
</g>
<g>
	
		<linearGradient id="SVGID_6_" gradientUnits="userSpaceOnUse" x1="-194.4626" y1="128.7498" x2="-153.1731" y2="102.29" gradientTransform="matrix(0.711 0 0 -0.711 497.7812 433.3954)">
		<stop  offset="0" style="stop-color:#000000"/>
		<stop  offset="1" style="stop-color:#FFFFFF"/>
	</linearGradient>
	<rect x="368.779" y="332.298" fill="url(#SVGID_6_)" width="15.001" height="40.596"/>
</g>
<g>
	
		<linearGradient id="SVGID_8_" gradientUnits="userSpaceOnUse" x1="-157.0232" y1="141.7849" x2="-166.253" y2="72.0465" gradientTransform="matrix(0.711 0 0 -0.711 479.5625 438.9618)">
		<stop  offset="0" style="stop-color:#000000"/>
		<stop  offset="1" style="stop-color:#FFFFFF"/>
	</linearGradient>
	<rect x="350.577" y="348.365" fill="url(#SVGID_8_)" width="28.012" height="30.074"/>
</g>
<g>
	
		<linearGradient id="SVGID_10_" gradientUnits="userSpaceOnUse" x1="-157.8167" y1="80.5027" x2="-182.247" y2="116.4432" gradientTransform="matrix(0.711 0 0 -0.711 436.7216 408.9413)">
		<stop  offset="0" style="stop-color:#000000"/>
		<stop  offset="1" style="stop-color:#FFFFFF"/>
	</linearGradient>
	<rect x="307.706" y="326.041" fill="url(#SVGID_10_)" width="14.006" height="22.467"/>
</g>
<g>
	
		<linearGradient id="SVGID_11_" gradientUnits="userSpaceOnUse" x1="-210.7063" y1="162.4192" x2="-140.9967" y2="106.0195" gradientTransform="matrix(0.711 0 0 -0.711 484.3925 401.9628)">
		<stop  offset="0" style="stop-color:#000000"/>
		<stop  offset="1" style="stop-color:#FFFFFF"/>
	</linearGradient>
	<rect x="355.412" y="282.175" fill="url(#SVGID_11_)" width="20.973" height="59.294"/>
</g>
<g>
	
		<linearGradient id="SVGID_12_" gradientUnits="userSpaceOnUse" x1="-135.7078" y1="152.0554" x2="-169.4682" y2="96.2547" gradientTransform="matrix(0.711 0 0 -0.711 436.3271 387.0526)">
		<stop  offset="0" style="stop-color:#000000"/>
		<stop  offset="1" style="stop-color:#FFFFFF"/>
	</linearGradient>
	<rect x="307.351" y="281.464" fill="url(#SVGID_12_)" width="34.624" height="45.146"/>
</g>
<g>
	
		<linearGradient id="SVGID_13_" gradientUnits="userSpaceOnUse" x1="-146.1462" y1="91.1389" x2="-171.1862" y2="148.1786" gradientTransform="matrix(0.711 0 0 -0.711 436.4394 424.2245)">
		<stop  offset="0" style="stop-color:#000000"/>
		<stop  offset="1" style="stop-color:#FFFFFF"/>
	</linearGradient>
	<rect x="307.422" y="307.13" fill="url(#SVGID_13_)" width="29.149" height="56.593"/>
</g>
<g>
	
		<linearGradient id="SVGID_14_" gradientUnits="userSpaceOnUse" x1="-197.3132" y1="99.8665" x2="-164.4522" y2="107.0967" gradientTransform="matrix(0.711 0 0 -0.711 470.9746 426.9266)">
		<stop  offset="0" style="stop-color:#000000"/>
		<stop  offset="1" style="stop-color:#FFFFFF"/>
	</linearGradient>
	<rect x="341.975" y="336.706" fill="url(#SVGID_14_)" width="17.063" height="29.718"/>
</g>
<g>
	
		<linearGradient id="SVGID_15_" gradientUnits="userSpaceOnUse" x1="-117.6047" y1="68.0847" x2="-175.1443" y2="141.2342" gradientTransform="matrix(0.711 0 0 -0.711 434.7734 449.663)">
		<stop  offset="0" style="stop-color:#000000"/>
		<stop  offset="1" style="stop-color:#FFFFFF"/>
	</linearGradient>
	<rect x="305.786" y="352.205" fill="url(#SVGID_15_)" width="42.658" height="36.97"/>
</g>
<g>
	
		<linearGradient id="SVGID_16_" gradientUnits="userSpaceOnUse" x1="-101.3376" y1="201.6848" x2="-191.3176" y2="155.4348" gradientTransform="matrix(0.711 0 0 -0.711 487.7334 565.8134)">
		<stop  offset="0" style="stop-color:#000000"/>
		<stop  offset="1" style="stop-color:#FFFFFF"/>
	</linearGradient>
	<rect x="358.753" y="375.951" fill="url(#SVGID_16_)" width="42.942" height="129.396"/>
</g>
<g>
	
		<linearGradient id="SVGID_17_" gradientUnits="userSpaceOnUse" x1="-219.2747" y1="134.1638" x2="-142.7247" y2="96.6538" gradientTransform="matrix(0.711 0 0 -0.711 484.0966 559.8163)">
		<stop  offset="0" style="stop-color:#000000"/>
		<stop  offset="1" style="stop-color:#FFFFFF"/>
	</linearGradient>
	<rect x="355.057" y="465.319" fill="url(#SVGID_17_)" width="19.267" height="33.984"/>
</g>
<g>
	
		<linearGradient id="SVGID_18_" gradientUnits="userSpaceOnUse" x1="-219.2747" y1="134.1638" x2="-142.7247" y2="96.6538" gradientTransform="matrix(0.711 0 0 -0.711 484.0966 559.8163)">
		<stop  offset="0" style="stop-color:#000000"/>
		<stop  offset="1" style="stop-color:#FFFFFF"/>
	</linearGradient>
	<rect x="355.057" y="465.319" fill="url(#SVGID_18_)" width="19.267" height="33.984"/>
</g>
<g>
	
		<linearGradient id="SVGID_20_" gradientUnits="userSpaceOnUse" x1="-36.5676" y1="265.8118" x2="-155.9871" y2="120.4423" gradientTransform="matrix(0.711 0 0 -0.711 367.122 559.7089)">
		<stop  offset="0" style="stop-color:#000000"/>
		<stop  offset="1" style="stop-color:#FFFFFF"/>
	</linearGradient>
	<rect x="238.103" y="356.897" fill="url(#SVGID_20_)" width="111.835" height="142.335"/>
</g>
<g>
	
		<linearGradient id="SVGID_22_" gradientUnits="userSpaceOnUse" x1="-223.3406" y1="156.5364" x2="-122.8006" y2="145.8464" gradientTransform="matrix(0.711 0 0 -0.711 458.041 518.6366)">
		<stop  offset="0" style="stop-color:#000000"/>
		<stop  offset="1" style="stop-color:#FFFFFF"/>
	</linearGradient>
	<rect x="329.035" y="366.424" fill="url(#SVGID_22_)" width="33.983" height="91.786"/>
</g>
<g>
	
		<linearGradient id="SVGID_24_" gradientUnits="userSpaceOnUse" x1="-223.3406" y1="156.5364" x2="-122.8006" y2="145.8464" gradientTransform="matrix(0.711 0 0 -0.711 458.041 518.6366)">
		<stop  offset="0" style="stop-color:#000000"/>
		<stop  offset="1" style="stop-color:#FFFFFF"/>
	</linearGradient>
	<rect x="329.035" y="366.424" fill="url(#SVGID_24_)" width="33.983" height="91.786"/>
</g>
<g>
	<path fill="#3B9999" d="M118.66,414.556c2.417-4.195,4.053-8.461,4.764-11.802c0.711-3.342,0.568-5.901-0.782-6.826
		c-1.351-0.924-3.626-0.142-6.328,1.778c-2.701,1.919-5.9,5.048-8.674,9.029c-2.844,3.91-4.763,7.962-5.474,11.304
		c-0.711,3.413-0.285,6.114,1.422,7.323c1.706,1.209,4.337,0.711,7.038-1.279"/>
	<path fill="#3B9999" d="M110.698,424.012c2.701-1.92,5.546-5.333,7.963-9.527"/>
	<path fill="#3B9999" d="M79.486,355.831c-1.279-0.143-2.63,1.279-3.98,3.626c-1.28,2.346-2.56,5.688-3.271,9.385
		c-0.711,3.696-0.782,7.181-0.143,9.669c0.568,2.56,1.849,4.194,3.483,4.337c1.636,0.142,3.342-1.209,4.622-3.555
		c1.279-2.347,2.203-5.688,2.559-9.456c0.355-3.769,0.071-7.181-0.497-9.74C81.69,357.537,80.766,355.901,79.486,355.831z"/>
	<path fill="#3B9999" d="M108.92,381.71c-1.28-0.711-3.271,0.142-5.475,2.133c-2.204,1.99-4.621,5.048-6.612,8.745
		c-1.99,3.768-3.199,7.465-3.412,10.522c-0.214,3.057,0.568,5.474,2.275,6.398c1.706,0.924,3.91,0.213,6.114-1.777
		c2.203-1.991,4.266-5.19,5.9-9.172c1.636-3.981,2.56-7.82,2.773-10.878C110.698,384.696,110.199,382.421,108.92,381.71z"/>
	<path fill="#3B9999" d="M93.207,367.419c-1.351-0.426-2.914,0.854-4.55,3.2c-1.635,2.346-3.271,5.688-4.408,9.669
		c-1.138,3.91-1.563,7.679-1.208,10.593c0.355,2.915,1.492,4.978,3.199,5.475c1.706,0.498,3.626-0.64,5.261-2.985
		c1.636-2.347,2.986-5.83,3.769-9.883s0.853-7.892,0.497-10.807C95.411,369.837,94.559,367.845,93.207,367.419z"/>
	<path fill="#3B9999" d="M35.193,373.818c-0.142,1.138,1.138,2.346,3.342,3.341c2.204,0.996,5.19,1.92,8.674,2.347
		c3.412,0.427,6.612,0.213,9.029-0.498c2.346-0.711,3.91-1.99,4.123-3.483c0.143-1.493-1.066-2.915-3.199-3.981
		c-2.133-0.995-5.261-1.635-8.744-1.706c-3.484-0.071-6.684,0.427-9.101,1.138C36.899,371.685,35.335,372.68,35.193,373.818z"/>
	<path fill="#3B9999" d="M51.545,367.063c1.849,0.996,3.555,1.138,4.55,0.355c0.996-0.781,1.138-2.417,0.427-4.337
		c-0.711-1.919-2.204-4.123-4.266-6.256s-4.266-3.769-6.114-4.764s-3.342-1.279-4.124-0.711c-0.782,0.64-0.711,2.062,0,3.981
		s1.991,4.266,3.84,6.541C47.635,364.291,49.697,366.068,51.545,367.063z"/>
	<path fill="#3B9999" d="M66.262,346.872c-1.209-0.07-2.346,1.352-3.412,3.626c-1.066,2.347-1.92,5.546-2.347,9.172
		s-0.213,6.896,0.498,9.313s1.99,3.981,3.555,4.053c1.493,0.071,2.986-1.28,4.053-3.555c1.066-2.275,1.635-5.546,1.706-9.172
		s-0.427-6.968-1.138-9.385C68.395,348.508,67.4,346.943,66.262,346.872z"/>
	<path fill="#3B9999" d="M68.039,437.307c3.271,0.782,7.679,1.138,12.514,0.711c4.834-0.427,9.1-1.635,12.157-3.271
		c3.057-1.635,4.834-3.839,4.621-5.901c-0.213-2.133-2.275-3.696-5.546-4.479s-7.607-0.711-12.441,0.142
		c-4.764,0.925-9.029,2.418-12.087,4.124c-3.057,1.636-4.834,3.413-4.692,5.048C62.707,435.317,64.769,436.525,68.039,437.307z"/>
	<path fill="#3B9999" d="M61.641,420.599c2.986,0.711,7.038,1.066,11.446,0.641c4.408-0.428,8.39-1.494,11.162-2.986
		c2.773-1.493,4.408-3.484,4.266-5.403c-0.142-1.92-2.133-3.413-5.118-4.124c-2.986-0.711-7.039-0.711-11.376,0.143
		c-4.408,0.853-8.247,2.274-11.091,3.768c-2.772,1.493-4.479,3.128-4.337,4.621S58.655,419.817,61.641,420.599z"/>
	<path fill="#004545" d="M62.494,372.965c-0.427-0.427-1.066-0.355-1.493,0.071s-0.355,1.066,0.071,1.493
		c19.267,17.916,33.913,39.672,43.155,63.632c9.313,23.888,13.224,49.839,11.091,76.073c-0.071,0.568,0.355,1.066,0.995,1.138
		c0.569,0.071,1.066-0.355,1.138-0.996c2.133-26.519-1.849-52.824-11.233-76.997C96.763,413.206,81.975,391.094,62.494,372.965z"/>
	<path fill="#3B9999" d="M54.957,405.883c2.773,0.64,6.541,0.924,10.594,0.568s7.75-1.351,10.31-2.772
		c2.559-1.422,4.052-3.199,3.91-4.977c-0.143-1.777-1.92-3.129-4.692-3.84c-2.773-0.64-6.47-0.64-10.522,0.143
		s-7.679,2.062-10.238,3.483s-4.123,2.915-3.981,4.267C50.407,404.177,52.185,405.243,54.957,405.883z"/>
	<path fill="#3B9999" d="M56.736,392.872c3.768-0.143,7.181-0.925,9.598-2.133c2.417-1.209,3.91-2.844,3.839-4.479
		c-0.071-1.635-1.635-2.985-4.194-3.697c-2.488-0.711-5.973-0.853-9.669-0.284c-3.769,0.569-7.11,1.636-9.527,2.773
		c-2.417,1.208-3.91,2.488-3.839,3.768c0.071,1.28,1.635,2.275,4.123,2.986C49.484,392.658,52.967,393.085,56.736,392.872z"/>
	<path fill="#F4F2F2" d="M385.699,415.694c0.781,0,1.422-0.641,1.422-1.422V244.777c0-0.781-0.641-1.422-1.422-1.422H125.343
		c-0.781,0-1.422,0.641-1.422,1.422v169.495c0,0.781,0.641,1.422,1.422,1.422H385.699z"/>
	
		<rect x="139.634" y="325.543" transform="matrix(-0.9994 0.0346 -0.0346 -0.9994 380.1972 709.6356)" fill="#B3B3FF" width="88.658" height="65.124"/>
	
		<rect x="138.922" y="337.487" transform="matrix(-0.9994 0.0346 -0.0346 -0.9994 378.0729 669.0767)" fill="#5050FF" width="88.658" height="0.64"/>
	
		<rect x="139.065" y="342.323" transform="matrix(-0.9994 0.0346 -0.0346 -0.9994 378.5242 678.7407)" fill="#5050FF" width="88.658" height="0.64"/>
	
		<rect x="139.278" y="347.298" transform="matrix(-0.9994 0.0346 -0.0346 -0.9994 379.1266 688.6784)" fill="#5050FF" width="88.658" height="0.64"/>
	
		<rect x="139.42" y="352.134" transform="matrix(-0.9994 0.0346 -0.0346 -0.9994 379.5742 698.3436)" fill="#5050FF" width="88.658" height="0.64"/>
	
		<rect x="139.633" y="356.824" transform="matrix(-0.9994 0.0346 -0.0346 -0.9994 380.163 707.7144)" fill="#5050FF" width="88.658" height="0.64"/>
	
		<rect x="139.776" y="361.66" transform="matrix(-0.9994 0.0346 -0.0346 -0.9994 380.6144 717.3773)" fill="#5050FF" width="88.657" height="0.639"/>
	
		<rect x="139.918" y="366.638" transform="matrix(-0.9994 0.0346 -0.0346 -0.9994 381.0705 727.3256)" fill="#5050FF" width="88.658" height="0.64"/>
	
		<rect x="140.131" y="371.471" transform="matrix(-0.9994 0.0346 -0.0346 -0.9994 381.6644 736.9812)" fill="#5050FF" width="88.657" height="0.64"/>
	
		<rect x="140.273" y="376.377" transform="matrix(-0.9994 0.0346 -0.0346 -0.9994 382.117 746.786)" fill="#5050FF" width="88.658" height="0.64"/>
	
		<rect x="140.415" y="381.213" transform="matrix(-0.9994 0.0346 -0.0346 -0.9994 382.5683 756.4501)" fill="#5050FF" width="88.658" height="0.64"/>
	
		<rect x="140.628" y="386.189" transform="matrix(-0.9994 0.0346 -0.0346 -0.9994 383.1669 766.3899)" fill="#5050FF" width="88.658" height="0.639"/>
	<path fill="#293149" d="M488.007,294.545c-1.422,0-2.56,1.138-2.56,2.56v0.569l-31.638-27.088l-1.849,2.133l33.415,28.581v251.042
		c0,0.214,0,0.355,0,0.355c3.342-0.782,5.048-1.208,5.048-1.208V305.636l25.666,21.969c-1.563,2.062-1.279,5.048,0.711,6.683
		l10.522,9.029c2.062,1.777,5.19,1.493,6.968-0.568l1.422-1.636c1.777-2.062,1.493-5.189-0.568-6.967l-10.452-8.888
		c-1.99-1.706-4.905-1.563-6.683,0.284l-27.515-23.532v-4.906C490.495,295.682,489.358,294.545,488.007,294.545z"/>
	<path fill="#3636F2" d="M493.339,309.262v-11.233c0-2.915-2.417-5.332-5.332-5.332s-5.332,2.417-5.332,5.332v11.233
		c0,2.915,2.417,5.332,5.332,5.332S493.339,312.248,493.339,309.262z"/>
	<path fill="#1B223A" d="M466.821,235.819L466.821,235.819c-1.209-0.64-2.773-0.142-3.413,1.066l-6.754,12.939
		c-4.835-1.208-10.096,0.996-12.513,5.617l-7.892,15.072c-1.423-0.143-2.915-0.143-4.408-0.071
		c-10.665,0.711-20.05,7.252-24.315,17.063c15.57,10.949,32.563,19.836,50.407,26.448c5.617-9.101,5.759-20.547,0.214-29.719
		c-0.711-1.209-1.493-2.275-2.347-3.342l7.963-15.215c2.418-4.621,1.209-10.309-2.63-13.579l6.754-12.868
		C468.527,238.023,468.029,236.459,466.821,235.819z"/>
	<path fill="#3636F2" d="M453.596,319.003c1.564,0.853,3.484,0.213,4.337-1.352l0.214-0.355c0.853-1.563,0.213-3.483-1.351-4.337
		l-48.133-25.239c-1.564-0.853-3.483-0.213-4.337,1.352l-0.213,0.355c-0.854,1.563-0.214,3.483,1.351,4.337L453.596,319.003z"/>
	<path fill="#4848F7" d="M287.231,352.346c-12.584,1.777-26.732,3.199-38.179,6.541c-8.39,2.417-13.722,5.617-18.059,9.883
		c-15.286,15.072-33.345,52.683-43.228,73.514c-3.057,2.56-5.616,5.403-7.607,8.532c-3.98,6.398-6.043,16.85-5.189,26.731
		c1.138,12.727,5.261,20.121,11.873,22.822c15.783,6.541,38.677-11.304,43.085-26.234l13.508-19.48
		c1.422,28.937,2.347,44.577,2.347,44.577c85.528-0.07,131.03-0.426,129.893,0.285c6.896,8.887,14.291,11.02,21.188,9.171
		c19.48-5.261,33.131-38.107,23.817-56.877c-1.564-16.992-7.963-68.537-17.917-81.051c-3.128-3.91-7.394-7.323-13.437-9.953
		c-2.702-1.138-6.114-2.631-10.949-3.981c0,0-5.262,3.271-18.13,1.422C370.626,353.627,346.312,351.635,287.231,352.346z"/>
	<path fill="#3333E2" d="M362.522,446.124l-1.991-20.761l-5.403-43.369l-2.417-15.499c0.071-0.071-0.498-0.071-1.635-0.143
		c-2.063,11.233-8.745,20.974-18.485,26.946c-4.408,8.104-4.692,17.845-0.854,26.234c8.39,18.414,23.462,10.451,30.501,34.269
		c0.07,0.284,0.142,0.569,0.213,0.854c0-1.636,0.071-3.128,0.213-4.55L362.522,446.124z"/>
	<path fill="#0000FF" d="M362.45,458.138c0.143-0.213,0.355-0.427,0.568-0.568c-0.142-0.925-0.355-1.849-0.64-2.844
		C362.379,455.864,362.379,457.001,362.45,458.138z"/>
	<path fill="#3333E2" d="M286.52,356.897c-32.207,2.56-48.346,12.157-48.346,28.794c8.176,13.152,11.518,23.817,9.882,32.064
		c1.493,54.033,2.204,81.477,2.204,81.477c64.484-0.07,96.691-0.142,96.691-0.142c17.135-53.252-44.791-42.516-55.384-79.984
		c-3.84-13.65-0.071-28.296,9.953-38.321C301.449,380.785,296.473,372.822,286.52,356.897z"/>
	<path fill="#FFFFFF" d="M251.966,443.279c-0.497,0.498-1.351,0.498-1.848,0l-6.755-6.967c0,0.711,0,1.422-0.213,2.133l5.759,5.972
		c0.568,0.569,1.351,0.854,2.062,0.925c0.782,0,1.493-0.284,2.133-0.854l18.201-17.774l0.071-0.07l0.07,0.07l17.774,18.201
		c0.569,0.568,1.351,0.854,2.063,0.924c0.781,0,1.492-0.284,2.133-0.853l18.2-17.774l17.774,18.201
		c0.568,0.568,1.351,0.853,2.062,0.924c0.782,0,1.493-0.284,2.133-0.854l18.201-17.773c0.07-0.071,0.07-0.071,0.142-0.143
		c0.071,0.071,0.071,0.071,0.143,0.143l9.029,9.242c0.071-0.64,0.213-1.28,0.427-1.92l-8.247-8.46c-0.498-0.498-0.498-1.352,0-1.849
		l6.896-6.684c-0.142-0.64-0.213-1.279-0.213-1.92v-0.142l-7.749,7.607c-0.071,0.071-0.071,0.071-0.143,0.143
		c-0.071-0.071-0.071-0.071-0.143-0.143l-17.773-18.201c-0.569-0.568-1.352-0.853-2.063-0.924c-0.782,0-1.493,0.284-2.133,0.853
		l-18.2,17.774l-17.774-18.2c-0.568-0.569-1.351-0.854-2.062-0.925c-0.782,0-1.493,0.284-2.133,0.854l-18.201,17.774l-0.071,0.071
		l-0.07-0.071l-17.774-18.201l0,0c-0.569-0.568-1.351-0.854-2.063-0.924c-0.781,0-1.492,0.284-2.133,0.853l-1.422,1.422
		c0.214,0.64,0.355,1.28,0.355,1.92l2.204-2.204c0.498-0.498,1.352-0.498,1.849,0l17.774,18.201c0.498,0.497,0.498,1.351,0,1.849
		L251.966,443.279z M312.54,424.652c0.071-0.213,0.143-0.355,0.285-0.498l18.2-17.774c0.498-0.497,1.351-0.497,1.849,0
		l17.774,18.201c0.497,0.498,0.497,1.352,0,1.849l-18.201,17.774c-0.497,0.498-1.351,0.498-1.849,0l-17.773-18.201
		c-0.143-0.142-0.214-0.284-0.285-0.497C312.54,425.292,312.54,425.008,312.54,424.652z M272.727,423.657l18.201-17.774
		c0.497-0.498,1.351-0.498,1.848,0l17.774,18.201c0.142,0.142,0.213,0.284,0.284,0.497c-0.071,0.284-0.071,0.569,0,0.854
		c-0.071,0.213-0.143,0.355-0.284,0.498l-18.2,17.773c-0.498,0.498-1.352,0.498-1.849,0l-17.774-18.2
		C272.158,425.008,272.158,424.154,272.727,423.657z"/>
	<path fill="#0000FF" d="M362.948,465.319c0.07,0.569,0.142,1.138,0.213,1.636c0.071-0.427,0.143-0.854,0.143-1.28
		C363.161,465.604,363.019,465.462,362.948,465.319z"/>
	<path fill="#0000FF" d="M358.256,499.091c9.171,0.071,14.503,0.142,16.067,0.213c-5.189-10.735-8.603-19.552-10.38-26.377
		c-0.355-2.062-0.64-4.052-0.854-5.972C361.1,481.459,349.653,490.63,358.256,499.091z"/>
	<path fill="#3636F2" d="M398.283,398.204c4.053,13.58,14.361,12.016,18.271,21.472c-0.854-5.475-1.849-11.162-3.057-16.992
		c-1.636-7.75-3.129-13.65-4.337-17.632c-1.138-4.124-2.915-8.39-5.403-12.869c-2.986-4.479-7.466-8.104-13.438-10.878
		c-2.417-1.066-4.977-2.133-7.75-3.057c-1.635,2.204-1.279,6.043,1.138,11.589c0,0,0.711,0.995,2.204,2.985
		C385.984,372.822,390.107,381.283,398.283,398.204z"/>
	<path fill="#3636F2" d="M402.265,506.484c6.043-3.555,11.091-8.958,14.93-16.139c2.915-5.403,4.835-11.091,5.901-17.063
		c1.209-8.46,0.498-15.356-1.99-20.547c0,0-9.385-20.618-28.084-61.854c13.509,30.572-3.271,38.464,1.422,56.31
		c3.911,14.788,22.254,17.276,19.979,38.818C413.498,494.327,409.09,501.792,402.265,506.484z"/>
	<path fill="#3838FC" d="M393.022,390.881c-0.284-0.711-0.64-1.351-0.924-2.062C392.382,389.53,392.666,390.241,393.022,390.881z"/>
	<path fill="#3636F2" d="M199.994,501.01c6.328-1.848,11.447-4.407,15.357-7.606c3.839-2.773,7.465-6.612,10.878-11.519
		c1.493-2.274,2.631-4.55,3.412-6.754c2.063-3.412,2.488-7.607,1.422-12.655l14.291-42.871c0.924-6.541-1.066-6.328-5.901,0.497
		c-6.541,1.067-12.157,5.19-15.215,11.021c-7.892,15.286,8.674,25.95-1.138,38.89C215.707,479.823,197.933,481.956,199.994,501.01z"
		/>
	<path fill="#3333E2" d="M374.323,375.951c0,0-5.189,0.071-15.57,0.142c0,0,3.058,23.96,9.101,71.95
		c-2.417,10.736-0.854,22.751,4.621,36.046c3.129,7.607,11.731,25.595,22.183,20.405c6.612-3.342,9.242-16.068,5.048-24.102
		c-5.759-11.021-19.694-21.116-20.974-33.984C376.315,423.088,402.478,400.052,374.323,375.951z"/>
	<path fill="#FFFFFF" d="M332.59,393.37c11.802-4.195,19.622-14.931,20.191-27.657c-1.564-3.271-11.802-10.807-30.643-22.537
		c-6.043,3.199-11.518,7.82-18.201,9.171c-3.271,0.64-7.536-0.568-10.948-0.995c-2.063-0.213-4.551,0.355-5.759,0.924
		c-2.773,11.66,1.138,24.387,10.38,33.061C307.208,394.436,320.788,397.564,332.59,393.37z"/>
	<path fill="#FFA340" d="M331.31,387.61c10.025-3.555,16.708-12.726,17.206-23.604c-1.707-3.626-15.854-13.295-42.303-29.008
		c0,0-0.995,5.119-2.986,15.429c0,0-3.412,0.355-10.237,0.995c-2.986,10.237,0.284,21.685,8.531,29.434
		C309.625,388.535,321.214,391.166,331.31,387.61z"/>
	<path fill="#FC4C00" d="M321.499,389.175c9.455,0.355,18.343-4.479,23.248-12.584c2.133-3.555,3.342-7.465,3.697-11.589
		c-25.809-5.616-40.027-9.882-42.658-12.797c1.706,22.324,2.56,33.486,2.56,33.486c1.209,0.568,1.849,0.924,1.849,0.924
		C313.678,388.179,317.588,389.103,321.499,389.175z"/>
	
		<ellipse transform="matrix(-0.0625 -0.998 0.998 -0.0625 -5.4856 652.0361)" fill="#FFAF59" cx="303.495" cy="328.594" rx="11.233" ry="8.531"/>
	<path fill="#FF5D17" d="M305.786,336.065c2.631-0.284,4.55-3.341,4.266-6.825c-0.284-3.483-2.701-6.114-5.332-5.83
		c-2.631,0.285-4.55,3.342-4.266,6.825C300.739,333.719,303.156,336.35,305.786,336.065z"/>
	<path fill="#DE2104" d="M306.995,334.359c1.635-0.143,2.844-2.133,2.701-4.266c-0.213-2.204-1.706-3.839-3.342-3.697
		c-1.635,0.143-2.844,2.133-2.701,4.266C303.796,332.866,305.288,334.502,306.995,334.359z"/>
	<path fill="#FFAF59" d="M320.859,378.297c5.83,1.849,12.229,0.355,16.637-3.91c11.589-7.465,19.623-19.338,22.254-32.918
		c6.967-9.882,6.754-23.106-0.569-32.704s-19.907-13.224-31.354-9.313c-10.451,3.555-13.082,11.873-18.343,27.088
		c-5.475,12.441-5.475,26.59-0.071,39.032C310.621,371.614,315.029,376.448,320.859,378.297z"/>
	<path fill="#FF5D17" d="M344.392,366.424c2.347-2.204,3.555-3.271,3.555-3.271c-0.995-8.389,0.143-13.508,3.271-15.285
		c0.071-2.986,1.564-5.048,4.621-6.399c-0.213-1.351,0.925-2.985,3.199-4.834c-3.341,0-6.398,1.849-7.82,4.834
		c-1.422,0.214-2.631,0.996-3.483,2.133c-0.782,1.138-1.066,2.631-0.782,3.981C341.477,352.418,340.339,360.452,344.392,366.424z"/>
	<path fill="#FF5D17" d="M321.925,323.481c3.981-3.626,9.67-4.764,14.718-2.844c-14.148-18.2-22.254-17.987-24.173,0.64
		c-6.186,15.286-6.541,29.506-1.138,42.516C328.822,349.219,309.484,334.857,321.925,323.481z"/>
	<path fill="#63220A" d="M311.047,306.632c-1.777,4.053-2.844,8.247-3.412,12.513c1.849,1.991,2.56,4.764,1.849,7.466
		c5.83-10.736,8.674-16.068,8.674-16.068c3.697,5.332,9.456,8.887,15.854,9.883c6.398,0.995,12.939-0.641,18.13-4.479
		c-1.066,0.995-1.92,1.991-2.56,2.844c-4.977,6.968,5.616,7.963,11.375,3.84c-0.853,2.914-0.284,6.043,1.493,8.46
		c-0.711,3.626-1.351,7.536-2.772,10.451c1.563-0.995,3.057-1.493,4.834-1.351c2.844-4.266,5.333-8.531,7.11-13.295
		c3.768-4.053,5.403-9.599,4.407-15.002c-0.995-5.403-4.55-10.024-9.526-12.441c5.119-14.006-13.936-22.183-10.807-13.722
		C326.192,267.671,296.687,306.987,311.047,306.632z"/>
	<path fill="#451301" d="M311.047,306.632c-1.777,4.053-2.844,8.247-3.412,12.513c1.849,1.991,2.56,4.764,1.849,7.466l8.674-16.068
		c5.332,7.607,14.646,11.376,23.746,9.812c-3.769-4.053-6.612-8.887-8.247-14.291l-0.071-0.284
		c-2.772-8.247-2.417-16.707,0.284-24.314C314.033,285.16,300.383,306.916,311.047,306.632z"/>
	<path fill="#9E5116" d="M355.412,284.165c5.616,6.47,8.958,14.931,8.958,24.102c0,5.83-1.352,11.376-3.769,16.281
		c-0.142,2.275,0.498,4.551,1.92,6.47c-0.711,3.626-1.351,7.536-2.772,10.451c1.563-0.995,3.057-1.492,4.834-1.351
		c2.844-4.266,5.332-8.531,7.109-13.295c3.769-4.053,5.403-9.598,4.408-15.001s-4.55-10.025-9.526-12.442
		C371.337,286.226,354.914,278.193,355.412,284.165z"/>
	<path fill="#DE2104" d="M310.621,326.041c-1.422,4.337-2.418,8.745-2.915,13.295c0.213,3.271,1.99,6.186,4.834,7.821
		c2.844,1.635,6.257,1.706,9.172,0.284c-3.626-0.284-6.896-2.417-8.531-5.688c-1.636-3.271-1.493-7.11,0.426-10.238
		C313.962,330.592,312.967,328.743,310.621,326.041z"/>
	<path fill="#662811" d="M326.973,384.482c5.403-1.564,9.456-6.114,10.238-11.73c-4.337,3.626-10.238,4.834-15.642,3.128
		s-9.598-6.043-11.091-11.446c-2.56,5.048-1.849,11.091,1.706,15.428C315.74,384.198,321.57,386.047,326.973,384.482z"/>
	<path fill="#662811" d="M349.084,334.075c1.777,1.138,3.342,2.631,4.408,4.479c0.284,0.498,0.924,0.641,1.351,0.355
		c0.498-0.284,0.64-0.924,0.355-1.351c-1.279-2.133-3.057-3.91-5.119-5.189c-2.062-1.28-4.407-2.063-6.896-2.275
		c-0.568-0.071-1.066,0.355-1.066,0.924c-0.07,0.569,0.355,1.066,0.925,1.066C345.245,332.298,347.307,333.009,349.084,334.075z"/>
	<path fill="#662811" d="M318.584,327.107c2.274-0.924,4.621-1.208,6.967-0.995c2.347,0.213,4.621,1.066,6.684,2.346
		c0.497,0.285,1.066,0.143,1.422-0.284c0.284-0.497,0.142-1.066-0.284-1.422c-2.275-1.493-4.906-2.417-7.536-2.701
		c-2.631-0.285-5.404,0.07-7.963,1.137c-0.498,0.214-0.782,0.782-0.569,1.28C317.447,327.107,318.015,327.321,318.584,327.107z"/>
	<path d="M324.2,335.497c0-0.782-0.64-1.422-1.422-1.422s-1.422,0.64-1.422,1.422s0.64,1.422,1.422,1.422
		S324.2,336.279,324.2,335.497z"/>
	<path d="M345.956,342.465c0-0.711-0.569-1.352-1.351-1.352c-0.711,0-1.352,0.569-1.352,1.352c0,0.781,0.569,1.351,1.352,1.351
		C345.317,343.815,345.956,343.176,345.956,342.465z"/>
	<path fill="#FFFFFF" d="M337.14,351.423c1.849,1.849,4.479,3.057,7.323,3.057s5.403-1.138,7.323-3.057
		c1.848-1.849,3.057-4.479,3.057-7.323s-1.138-5.403-3.057-7.323c-1.849-1.849-4.479-3.057-7.323-3.057s-5.403,1.138-7.323,3.057
		c-0.284,0.285-0.497,0.569-0.782,0.854c-0.142-0.143-0.213-0.355-0.355-0.498c-0.426-0.426-0.924-0.781-1.492-1.066
		c-0.569-0.213-1.209-0.284-1.778-0.284c-0.213,0-0.355,0.071-0.568,0.071c-0.213-2.56-1.351-4.835-3.058-6.541
		c-1.919-1.92-4.55-3.057-7.465-3.057s-5.545,1.208-7.465,3.057c-0.071,0.071-0.143,0.143-0.214,0.213l-5.972-11.091
		c-0.143-0.284-0.568-0.427-0.854-0.284c-0.284,0.143-0.426,0.568-0.284,0.854l6.257,11.589c-1.28,1.706-1.991,3.839-1.991,6.185
		c0,2.915,1.209,5.546,3.058,7.466c1.92,1.919,4.55,3.057,7.465,3.057s5.546-1.208,7.465-3.057c1.849-1.849,2.986-4.266,3.058-7.039
		c0.213-0.071,0.427-0.142,0.64-0.142c0.427-0.071,0.782,0,1.209,0.142c0.355,0.143,0.711,0.427,0.995,0.711
		c0.214,0.214,0.355,0.498,0.498,0.782c-0.925,1.564-1.422,3.342-1.422,5.261C334.154,346.943,335.291,349.574,337.14,351.423z
		 M328.253,343.46c-1.636,1.635-3.981,2.701-6.541,2.701s-4.835-0.995-6.541-2.701c-1.635-1.636-2.701-3.981-2.701-6.541
		s0.995-4.835,2.701-6.541c1.636-1.635,3.981-2.701,6.541-2.701s4.835,0.995,6.541,2.701c1.635,1.636,2.701,3.981,2.701,6.541
		S329.888,341.754,328.253,343.46z M338.065,337.772c1.635-1.636,3.91-2.631,6.398-2.631s4.764,0.995,6.398,2.631
		c1.636,1.635,2.631,3.91,2.631,6.398s-0.995,4.764-2.631,6.398c-1.635,1.636-3.91,2.631-6.398,2.631s-4.764-0.995-6.398-2.631
		c-1.636-1.635-2.631-3.91-2.631-6.398C335.434,341.611,336.429,339.407,338.065,337.772z"/>
	<path fill="#FFFFFF" d="M351.288,340.971c0-1.209-0.924-2.133-2.133-2.133s-2.133,0.924-2.133,2.133
		c0,1.208,0.924,2.133,2.133,2.133C350.293,343.104,351.288,342.179,351.288,340.971z"/>
	<path fill="#FFFFFF" d="M329.248,334.217c0-1.208-0.924-2.133-2.133-2.133s-2.133,0.925-2.133,2.133
		c0,1.209,0.924,2.134,2.133,2.134S329.248,335.354,329.248,334.217z"/>
	<path fill="#DE2104" d="M325.551,363.935c1.564,0.498,3.199,0.64,4.764,0.427s3.128-0.782,4.479-1.706
		c0.427-0.285,0.497-0.782,0.284-1.209c-0.284-0.427-0.782-0.498-1.209-0.284c-1.138,0.782-2.417,1.208-3.768,1.422
		c-1.352,0.142-2.702,0.071-3.981-0.355c-1.28-0.427-2.488-1.138-3.413-2.062c-0.924-0.925-1.706-2.063-2.204-3.413
		c-0.142-0.427-0.64-0.711-1.138-0.498c-0.426,0.143-0.711,0.641-0.497,1.138c0.568,1.564,1.422,2.915,2.56,4.053
		C322.566,362.513,323.988,363.367,325.551,363.935z"/>
	<path fill="#FF5D17" d="M332.59,356.044c4.55-0.284,6.541-2.417,2.844-5.261c-0.143-1.066-0.427-10.31-2.133-10.594
		c-1.991-0.355-5.546,5.901-6.896,7.607c-4.55-0.854-5.901,2.204-1.351,6.186C326.76,356.683,329.32,357.323,332.59,356.044z"/>
	<path fill="#DE2104" d="M324.627,366.922c0.64,0.213,1.351,0.284,1.99,0.213c0.641-0.071,1.28-0.284,1.849-0.711
		c0.143-0.142,0.214-0.355,0.071-0.497c-0.143-0.143-0.355-0.214-0.498-0.071c-0.497,0.284-0.995,0.497-1.563,0.568
		c-0.569,0.071-1.138,0-1.636-0.142c-0.568-0.214-0.995-0.498-1.422-0.854s-0.711-0.854-0.924-1.422
		c-0.071-0.214-0.284-0.284-0.427-0.214c-0.213,0.071-0.284,0.285-0.213,0.427c0.213,0.641,0.568,1.209,1.066,1.636
		C323.418,366.352,323.988,366.708,324.627,366.922z"/>
	<path fill="#FFFFFF" d="M369.134,354.479c4.123-4.266,4.905-10.237,1.706-13.437c-3.199-3.2-9.101-2.275-13.153,1.919
		c-4.123,4.266-4.905,10.238-1.706,13.438S365.081,358.675,369.134,354.479z"/>
	<path fill="#FFFFFF" d="M365.01,351.423c2.417-2.488,2.915-6.114,0.995-7.963c-1.849-1.849-5.403-1.351-7.82,1.138
		s-2.915,6.114-0.995,7.963C359.037,354.409,362.522,353.911,365.01,351.423z"/>
	<path fill="#FFFFFF" d="M362.238,349.787c1.563-1.563,1.849-3.839,0.64-4.977c-1.209-1.209-3.342-0.854-4.906,0.711
		c-1.563,1.564-1.848,3.839-0.64,4.977C358.54,351.707,360.744,351.351,362.238,349.787z"/>
	<path fill="#FFAF59" d="M352.853,366.282c3.057,6.611,4.194,8.887,8.247,11.73c8.46,1.777,17.276-1.351,22.68-8.176
		c0,0-0.782-7.607-2.275-22.894c0,0,0.355-2.346,1.138-7.038c0.355-3.199-2.701-4.978-9.172-5.262
		c-1.848-2.062-3.696-2.844-6.47-1.849c-1.706,0.641-3.057,1.991-3.696,3.626c-1.707-0.568-3.556-0.284-4.978,0.711
		c-1.492,0.996-2.346,2.631-2.488,4.408c-2.772,0.711-4.621,3.342-4.266,6.186C345.245,350.356,346.667,368.77,352.853,366.282z"/>
	<path fill="#F24900" d="M357.971,358.105c-1.99,1.707-4.692,2.204-7.181,1.352c-0.497,1.279-0.213,1.99,0.925,2.203
		c3.199,7.466,6.896,13.011,11.162,16.637c5.475,0.711,11.02-0.568,15.642-3.626c-3.413,1.209-7.11,0.427-9.812-1.919
		c-9.172-8.247,5.475-16.779-4.337-24.315c-0.143,0.924-0.711,1.777-1.493,2.275c-0.782,0.568-1.777,0.711-2.702,0.568
		C360.816,353.768,359.962,356.399,357.971,358.105z"/>
	<path fill="#FFCC85" d="M382.286,337.772c-0.355-0.641-0.924-1.209-1.635-1.636c-0.854-0.497-1.92-0.853-3.2-1.138
		c-0.711-0.142-1.635-0.284-2.772-0.355c0,0-0.568-0.213-1.777-0.64c-1.351-1.279-2.701-1.849-4.194-1.706
		c13.863,6.398,10.237,15.641,6.754,22.111c-1.92,3.555-3.839,7.038-2.844,10.948c1.066,3.84,4.194,6.825,8.104,7.536
		c0.996-0.853,1.991-1.849,2.986-3.057c-0.711-6.825-1.422-14.433-2.275-22.894c0.355-2.346,0.782-4.692,1.138-7.038
		C382.784,339.264,382.642,338.553,382.286,337.772z"/>
	<path fill="#FC4C00" d="M377.239,337.985c0.284-0.284,0.284-0.782-0.071-1.066l-3.199-2.844c-0.284-0.284-0.782-0.284-1.066,0.071
		c-0.284,0.284-0.284,0.781,0.071,1.066l3.199,2.844C376.456,338.341,376.954,338.269,377.239,337.985z"/>
	<path fill="#FC4C00" d="M367,339.55c0.285-0.355,0.214-0.782-0.07-1.066l-3.129-2.631c-0.355-0.284-0.781-0.213-1.066,0.071
		c-0.284,0.355-0.213,0.782,0.071,1.066l3.128,2.63C366.289,339.905,366.716,339.905,367,339.55z"/>
	<path fill="#FC4C00" d="M358.612,343.601c0.284-0.355,0.213-0.853-0.143-1.066l-2.204-1.635c-0.355-0.284-0.853-0.213-1.066,0.143
		c-0.213,0.355-0.213,0.853,0.143,1.066l2.204,1.635C357.901,344.028,358.398,343.957,358.612,343.601z"/>
	<path fill="#FC4C00" d="M353.919,349.431c0.284-0.355,0.142-0.853-0.143-1.066l-1.706-1.279c-0.355-0.284-0.854-0.143-1.066,0.142
		c-0.284,0.355-0.143,0.854,0.142,1.066l1.707,1.28C353.137,349.858,353.634,349.787,353.919,349.431z"/>
	<path fill="#FC4C00" d="M370.485,340.118c0.355,0.355,0.711,0.782,0.853,1.209c0.143,0.427,0.569,0.568,0.996,0.427
		c0.426-0.143,0.568-0.569,0.426-0.996c-0.284-0.711-0.711-1.351-1.279-1.849c-0.568-0.497-1.279-0.853-1.99-0.995
		c-0.427-0.071-0.854,0.143-0.925,0.569c-0.071,0.426,0.143,0.853,0.569,0.924C369.631,339.55,370.058,339.762,370.485,340.118z"/>
	<path fill="#FC4C00" d="M364.156,345.308c0.285,0.213,0.498,0.568,0.641,0.924c0.142,0.355,0.64,0.569,0.995,0.427
		s0.568-0.64,0.427-0.995c-0.214-0.569-0.641-1.066-1.066-1.493c-0.427-0.427-0.996-0.711-1.636-0.854
		c-0.427-0.071-0.853,0.143-0.924,0.569s0.142,0.853,0.568,0.924S363.872,345.094,364.156,345.308z"/>
	<path fill="#FC4C00" d="M355.981,342.322c0.355-0.071,0.64-0.355,0.64-0.782c0.071-0.782,0.284-1.493,0.64-2.133
		s0.854-1.209,1.493-1.635c0.641-0.427,1.352-0.711,2.063-0.782s1.492-0.071,2.203,0.213c0.427,0.143,0.925-0.071,1.067-0.497
		c0.142-0.427-0.071-0.925-0.498-1.066c-0.995-0.285-1.991-0.427-2.915-0.285c-0.995,0.143-1.92,0.498-2.772,1.066
		c-0.854,0.569-1.493,1.352-1.991,2.204c-0.427,0.711-0.64,1.493-0.782,2.275c-1.351,0.498-2.417,1.351-3.199,2.488
		s-1.208,2.488-1.138,3.91c-0.711,0.427-1.279,0.995-1.849,1.636c-0.64,0.782-1.066,1.635-1.279,2.63
		c-0.355,1.066-0.568,2.063-0.711,3.129s-0.213,2.133-0.143,3.271c0,1.138,0.143,2.346,0.355,3.412
		c0.214,1.138,0.641,2.275,1.138,3.342c0.214,0.427,0.711,0.568,1.066,0.427c0.427-0.214,0.569-0.711,0.427-1.066
		c-0.427-0.925-0.782-1.92-0.995-2.986c-0.214-0.995-0.355-2.062-0.355-3.058v-0.07c-0.071-0.996,0-1.991,0.142-2.986
		c0.143-0.995,0.355-1.991,0.641-2.915l0,0c0,0,0,0,0-0.071c0.213-0.782,0.568-1.422,0.995-2.062
		c0.498-0.569,1.066-1.066,1.706-1.422c0.284-0.143,0.498-0.498,0.427-0.854c-0.143-1.208,0.213-2.417,0.854-3.342
		C353.848,343.317,354.843,342.606,355.981,342.322z"/>
	<path fill="#FC4C00" d="M353.137,366.993c0.355-0.143,0.568-0.641,0.427-0.996l-2.773-6.47c-0.142-0.355-0.64-0.568-0.995-0.427
		c-0.355,0.143-0.568,0.641-0.427,0.996l2.773,6.47C352.355,366.922,352.781,367.135,353.137,366.993z"/>
	<path fill="#FC4C00" d="M358.398,350.427c0.284,0.213,0.427,0.497,0.569,0.781c0.142,0.355,0.568,0.498,0.924,0.355
		c0.355-0.142,0.498-0.568,0.355-0.924c-0.213-0.498-0.568-0.995-0.995-1.351s-0.925-0.641-1.422-0.782
		c-0.355-0.071-0.711,0.142-0.854,0.497c-0.071,0.355,0.143,0.712,0.498,0.854C357.829,350.001,358.114,350.214,358.398,350.427z"/>
	<path fill="#3333E2" d="M229.713,419.888c0,0-2.488-5.332-7.465-15.997c0,0-11.162,14.007-33.486,42.019
		c-5.83,5.546-9.172,12.584-10.025,20.974c-2.133,21.4,5.973,29.719,24.244,14.361c2.275-1.919,4.337-4.194,6.043-6.683
		c14.788-21.756-5.261-33.345,5.546-47.706C218.053,422.021,223.812,419.39,229.713,419.888z"/>
	<path fill="#3535F9" d="M229.572,475.059c0.497,0.214,1.066,0,1.351-0.497c0.924-1.991,1.422-4.124,1.422-6.257
		c0-1.99-0.427-3.981-1.209-5.901l11.589-31.851l-0.213,24.102c0,0.568,0.426,0.995,0.995,0.995c0.568,0,0.995-0.427,0.995-0.995
		l0.284-29.647l2.418-6.684c0.213-0.497-0.071-1.066-0.569-1.279c-0.497-0.213-1.066,0.071-1.279,0.568l-16.21,44.436l0,0
		c-0.071,0.214-0.071,0.498,0,0.782c0.782,1.707,1.208,3.555,1.208,5.403s-0.426,3.697-1.208,5.403
		C228.861,474.207,229.073,474.775,229.572,475.059z"/>
	<path fill="#3535F9" d="M236.965,371.33c-0.427-0.285-1.066-0.143-1.351,0.284c-2.702,4.194-3.84,9.029-3.484,13.722
		s2.275,9.313,5.546,13.011c0.355,0.427,0.995,0.427,1.422,0.071s0.427-0.996,0.071-1.423c-3.058-3.341-4.764-7.536-5.048-11.873
		c-0.355-4.266,0.711-8.674,3.128-12.513C237.533,372.182,237.392,371.614,236.965,371.33z"/>
	<path fill="#3535F9" d="M202.198,433.681c-0.426-0.284-1.066-0.213-1.351,0.284c-3.412,4.977-4.905,10.807-4.692,16.565
		c0.214,5.759,2.275,11.447,6.043,16.14c0.355,0.426,0.996,0.497,1.352,0.142c0.426-0.355,0.497-0.995,0.142-1.351
		c-3.483-4.408-5.403-9.669-5.616-15.001c-0.214-5.333,1.208-10.736,4.408-15.357C202.768,434.605,202.625,433.966,202.198,433.681z
		"/>
	<path fill="#3535F9" d="M220.613,400.265c-0.426-0.355-1.066-0.284-1.351,0.143l-32.207,41.236
		c-0.355,0.427-0.284,1.066,0.143,1.351c0.427,0.355,1.066,0.284,1.351-0.142l32.207-41.236
		C221.111,401.19,221.039,400.551,220.613,400.265z"/>
	<path fill="#3535F9" d="M421.106,452.735c0.497-0.213,0.711-0.782,0.497-1.279l-35.548-81.192c-0.214-0.498-0.782-0.711-1.28-0.498
		c-0.497,0.213-0.711,0.782-0.497,1.279l35.548,81.193C420.038,452.735,420.608,453.019,421.106,452.735z"/>
	<path fill="#3535F9" d="M286.947,481.245c-0.569-0.071-1.067,0.355-1.067,0.854c-0.07,0.568,0.356,1.066,0.854,1.066
		c23.319,2.631,46.853-22.751,70.527-76.216c0.711,5.688,1.493,12.157,2.347,19.409c-11.802,41.663-22.538,62.494-32.136,62.423
		c-0.568,0-0.995,0.427-0.995,0.996c0,0.568,0.427,0.995,0.995,0.995c10.238,0.071,21.187-19.623,32.775-59.295
		c0.569,5.119,1.209,10.594,1.849,16.424c-1.422,8.887-0.924,17.773,1.209,26.377c2.274,9.1,6.327,17.845,11.659,25.736
		c0.285,0.427,0.925,0.569,1.352,0.284c0.426-0.284,0.568-0.924,0.284-1.351c-5.262-7.679-9.172-16.21-11.376-25.097
		c-2.062-8.39-2.559-17.063-1.137-25.737c0-0.071,0-0.143,0-0.284l0,0c-0.854-7.75-1.636-14.931-2.418-21.472c0,0,0,0,0-0.07
		c-3.91-33.559-6.398-50.408-6.398-50.479c-0.071-0.568-0.568-0.924-1.138-0.853c-0.568,0.07-0.924,0.568-0.853,1.137
		c0,0.071,1.351,9.029,3.555,26.946C333.017,457.854,309.768,483.876,286.947,481.245z"/>
	<path fill="#3535F9" d="M392.169,475.059c-0.498,0.143-0.782,0.711-0.641,1.28c0.143,0.497,0.711,0.782,1.28,0.64
		c7.181-2.417,12.939-7.323,16.494-13.509c3.555-6.185,4.906-13.65,3.271-21.044c-0.143-0.569-0.64-0.854-1.138-0.782
		c-0.568,0.143-0.853,0.64-0.782,1.138c1.493,6.968,0.214,13.863-3.057,19.693C404.255,468.164,398.923,472.785,392.169,475.059z"/>
	<path fill="#3535F9" d="M310.906,459.774c-8.247,3.981-16.992,2.346-26.234-4.906c-9.456-7.394-19.339-20.618-29.647-39.601
		c-0.284-0.498-0.854-0.64-1.351-0.427c-0.498,0.284-0.64,0.854-0.427,1.351c10.451,19.268,20.547,32.705,30.145,40.241
		c9.883,7.749,19.268,9.456,28.297,5.119c0.497-0.214,0.711-0.854,0.427-1.351C311.972,459.774,311.404,459.56,310.906,459.774z"/>
	<path fill="#FFFFFF" d="M268.674,382.492c2.488-0.498,5.119-0.071,7.395,1.422l2.346-3.697c-3.271-2.062-7.038-2.631-10.593-1.99
		c-3.556,0.711-6.826,2.63-9.101,5.759c-2.275,3.128-3.129,6.825-2.702,10.38s2.133,6.967,5.119,9.456
		c2.915,2.488,6.612,3.626,10.167,3.483c3.626-0.143,7.109-1.636,9.812-4.408l-3.129-3.057c-1.919,1.919-4.337,2.985-6.896,3.128
		c-2.488,0.143-5.118-0.711-7.181-2.417c-2.062-1.777-3.271-4.124-3.555-6.684c-0.284-2.488,0.284-5.119,1.92-7.323
		C263.91,384.411,266.186,382.989,268.674,382.492z"/>
	<path fill="#FFAF59" d="M267.536,374.174c0,0-4.194,0.071-12.513,0.213c0,0-2.133,1.066-6.47,3.271
		c-3.271,0.569-6.114,2.488-7.82,5.332c0,0-5.048,5.119-15.144,15.286c-5.048,4.905-5.333,12.868-0.711,18.13
		c4.621,5.261,12.584,5.901,18.058,1.563c3.058,0.285,6.115-0.213,8.888-1.351c3.697-1.422,7.323-2.915,11.02-4.337
		c2.063-0.711,3.271-2.844,2.844-5.048c1.636-0.64,2.845-2.062,3.342-3.768c0.498-1.707,0.143-3.556-0.924-4.906
		c1.635-0.924,2.56-2.701,2.417-4.55s-1.351-3.484-3.128-4.124c1.563-0.497,2.701-1.919,2.844-3.626
		c0.142-1.635-0.64-3.271-2.133-4.123c0,0-0.995-0.355-2.986-1.066C267.75,379.79,268.745,376.733,267.536,374.174z"/>
	<path fill="#FC4C00" d="M244.146,383.63c0.782-0.996,1.777-1.707,2.915-2.275c1.066-0.498,2.275-0.782,3.555-0.782l0,0
		l14.717,1.209c0.355,0,0.711-0.214,0.711-0.569s-0.213-0.711-0.568-0.711l-14.717-1.208h-0.071c-1.422,0-2.844,0.284-4.124,0.924
		c-1.279,0.568-2.417,1.493-3.341,2.631c-0.214,0.284-0.214,0.711,0.071,0.924C243.506,383.985,243.862,383.914,244.146,383.63z"/>
	<path fill="#FFFFFF" d="M307.28,412.85c1.564,0,2.844-1.28,2.844-2.845v-30.998c0-1.563-1.279-2.844-2.844-2.844h-28.723
		c-1.564,0-2.844,1.28-2.844,2.844v30.998c0,1.564,1.279,2.845,2.844,2.845H307.28z"/>
	<ellipse fill="#3636F2" cx="292.634" cy="395.858" rx="7.82" ry="9.669"/>
	<path fill="#FFFFFF" d="M292.207,404.674c-0.782,0.782-1.706,1.351-2.772,1.636l0.426,1.493c1.352-0.355,2.489-1.067,3.484-1.991
		c0.924-0.924,1.635-2.133,2.062-3.412c1.138-3.981-0.498-5.901-2.133-7.75c-1.209-1.422-2.346-2.772-1.635-5.119
		c0.284-0.995,0.853-1.849,1.635-2.417c0.782-0.569,1.706-0.995,2.772-0.995l-0.071-1.564c-1.351,0.071-2.63,0.498-3.625,1.351
		c-0.996,0.782-1.778,1.92-2.204,3.199c-0.925,3.2,0.497,4.835,1.99,6.541c1.351,1.564,2.702,3.129,1.777,6.328
		C293.558,402.968,292.99,403.963,292.207,404.674z"/>
	<path fill="#FC4C00" d="M233.623,406.167c3.271-1.92,7.466-3.555,9.456-9.313c1.422-4.124,0.925-8.674-1.422-12.3
		c-9.953,9.953-14.931,14.931-14.931,14.931c-2.985,2.488-4.763,6.185-4.905,10.096c0.854,6.327,6.186,11.091,12.513,11.375
		C227.865,418.324,227.154,410.006,233.623,406.167z"/>
	<path fill="#FC4C00" d="M242.795,392.232c-0.284-0.214-0.711-0.071-0.925,0.213c-0.426,0.782-0.64,1.706-0.568,2.56
		s0.355,1.706,0.995,2.417c0.214,0.285,0.641,0.355,0.925,0.071c0.284-0.213,0.355-0.64,0.071-0.924
		c-0.427-0.498-0.641-1.066-0.641-1.707c-0.071-0.64,0.071-1.208,0.427-1.777C243.222,392.801,243.079,392.445,242.795,392.232z"/>
	<path fill="#FC4C00" d="M243.079,400.763c-0.355-0.071-0.711,0.071-0.782,0.427c-0.213,0.782-0.213,1.564,0,2.346
		c0.214,0.711,0.64,1.422,1.28,1.92c0.284,0.213,0.711,0.213,0.924-0.071c0.214-0.284,0.214-0.711-0.071-0.924
		c-0.426-0.355-0.711-0.854-0.853-1.351c-0.143-0.498-0.143-1.066,0-1.564C243.577,401.19,243.364,400.835,243.079,400.763z"/>
	<path fill="#FFD28F" d="M270.665,394.294c-0.071-1.564-0.854-2.986-2.133-3.839c0,0-0.071,0.07-0.143,0.213
		c-4.337,0.711-4.977,8.461-9.313,12.016c-6.328,5.119-14.077-0.782-19.268,6.541c-2.275,3.199-2.417,7.536-0.284,10.877
		c0.995-0.355,1.92-0.853,2.772-1.492c0.925-0.355,1.422-0.498,1.422-0.498c1.636,0.071,3.058-0.071,4.337-0.284
		c1.493-0.284,2.915-0.711,4.266-1.28c4.195-1.635,7.821-3.057,10.808-4.266c1.777-0.711,2.914-2.417,2.772-4.337
		c0,0,0.142-0.284,0.497-0.924c1.352-0.711,2.347-1.991,2.773-3.484c0.427-1.492,0.213-3.057-0.569-4.407
		c0,0,0.071-0.285,0.214-0.925C269.954,397.28,270.665,395.787,270.665,394.294z"/>
	<path fill="#FC4C00" d="M247.985,389.459c0.854-0.711,1.849-1.137,2.915-1.208s2.134,0.071,3.129,0.64l0,0
		c0.071,0.071,0.142,0.071,0.213,0.071l13.65,1.777c0.355,0.071,0.711-0.214,0.711-0.569c0.071-0.355-0.213-0.711-0.568-0.711
		l-13.509-1.777c-1.208-0.64-2.488-0.853-3.768-0.711c-1.28,0.143-2.56,0.64-3.626,1.493c-0.284,0.214-0.284,0.64-0.071,0.925
		C247.274,389.673,247.7,389.744,247.985,389.459z"/>
	<path fill="#FC4C00" d="M250.829,405.456c-0.996-0.071-1.991-0.284-2.986-0.568c-0.355-0.143-0.711,0.07-0.854,0.426
		c-0.142,0.355,0.071,0.711,0.427,0.854c1.066,0.355,2.204,0.569,3.342,0.64c1.066,0.071,2.204,0,3.271-0.142l11.73,1.351
		c0.355,0.071,0.711-0.213,0.711-0.568c0.071-0.355-0.213-0.711-0.568-0.711l-11.802-1.352c-0.071,0-0.143,0-0.214,0l0,0
		C252.891,405.456,251.824,405.527,250.829,405.456z"/>
	<path fill="#FC4C00" d="M239.169,417.898c1.209,0.355,2.488,0.64,3.768,0.781c0.356,0.071,0.712-0.213,0.712-0.568
		c0.07-0.355-0.214-0.711-0.569-0.711c-1.209-0.143-2.417-0.355-3.555-0.711s-2.275-0.782-3.342-1.351
		c-0.355-0.143-0.711-0.071-0.853,0.284c-0.143,0.355-0.071,0.711,0.284,0.854C236.752,417.045,237.96,417.543,239.169,417.898z"/>
	<path fill="#FC4C00" d="M251.255,397.351c1.066,0.07,2.134,0.355,3.129,0.64c0.071,0,0.142,0,0.142,0.071l13.58,1.208
		c0.355,0,0.711-0.213,0.711-0.568s-0.214-0.711-0.569-0.711l-13.508-1.209c-1.066-0.355-2.204-0.568-3.342-0.711
		s-2.346-0.071-3.483,0.071c-0.355,0.071-0.641,0.355-0.569,0.711s0.355,0.64,0.711,0.568
		C249.122,397.209,250.189,397.209,251.255,397.351z"/>
	<path fill="#FFFFFF" d="M344.036,528.738L344.036,528.738L344.036,528.738c0,0.355,0.569,0.853,1.777,1.706
		c19.694,14.931,29.505,22.324,29.505,22.324s7.537-8.176,22.538-24.528h-49.555c0.427-1.138-0.995-2.062-4.266-2.844
		C344.036,527.316,344.036,528.383,344.036,528.738C344.036,528.667,344.036,528.738,344.036,528.738z"/>
	<path fill="#7878FF" d="M375.319,549.569c0,0,7.537-8.176,22.538-24.528c-34.481,0-51.759,0-51.759,0
		c-2.701,0-2.701,0.427-0.284,2.133C365.437,542.104,375.319,549.569,375.319,549.569z"/>
	<path fill="#FFFFFF" d="M528.248,552.981c1.351,0,2.63-1.137,2.844-2.488l15.926-95.767c0.213-1.352-0.711-2.488-2.063-2.488
		h-153.64c-1.351,0-2.631,1.137-2.844,2.488l-15.926,95.767c-0.213,1.352,0.711,2.488,2.062,2.488H528.248z"/>
	<path fill="#8383FF" d="M529.528,552.981c0.924,0,1.777-0.711,1.92-1.635l15.996-94.346c0.143-0.924-0.426-1.635-1.351-1.635
		H394.159c-0.924,0-1.777,0.711-1.919,1.635l-15.997,94.346c-0.143,0.924,0.427,1.635,1.351,1.635H529.528L529.528,552.981z"/>
	<path d="M568.062,524.259c0.143,0,0.214-0.071,0.214-0.213v-58.371c0-0.142-0.071-0.213-0.214-0.213h-2.346
		c-0.143,0-0.214,0.071-0.214,0.213v58.371c0,0.142,0.071,0.213,0.214,0.213H568.062z"/>
	<path fill="#FFFFFF" d="M568.204,465.817c0.142-0.071,0.142-0.213,0.142-0.355c-0.213-0.711-0.426-1.422-0.64-2.133
		c-0.213-0.711-0.427-1.422-0.64-2.133c-0.071-0.143-0.071-0.214-0.071-0.214s0,0.071-0.071,0.214
		c-0.213,0.711-0.426,1.422-0.64,2.133c-0.213,0.711-0.427,1.422-0.64,2.133c-0.071,0.143,0,0.284,0.143,0.355
		c0.355,0.213,0.711,0.711,1.279,0.711S567.778,466.03,568.204,465.817z"/>
	<path d="M567.635,518.428c0.143,0,0.214-0.071,0.285-0.213l9.526-57.589c0-0.142-0.071-0.213-0.213-0.284l-2.275-0.355
		c-0.142,0-0.213,0.071-0.284,0.214l-9.527,57.588c0,0.143,0.071,0.213,0.214,0.284L567.635,518.428z"/>
	<path fill="#FFFFFF" d="M575.953,461.267c0.498,0.07,0.925-0.355,1.352-0.498c0.142-0.071,0.213-0.213,0.213-0.284
		c-0.071-0.711-0.213-1.493-0.284-2.204s-0.214-1.493-0.284-2.204c0-0.143,0-0.213,0-0.213s-0.071,0.07-0.143,0.213
		c-0.355,0.64-0.64,1.351-0.995,1.99c-0.355,0.641-0.641,1.352-0.996,1.991c-0.07,0.143,0,0.284,0.071,0.355
		C575.172,460.698,575.456,461.196,575.953,461.267z"/>
	<path d="M568.062,529.804l2.275-0.569c0.143,0,0.213-0.142,0.143-0.284l-13.509-56.807c0-0.142-0.143-0.213-0.284-0.142
		l-2.275,0.568c-0.143,0-0.213,0.143-0.143,0.284l13.509,56.807C567.849,529.804,567.99,529.875,568.062,529.804z"/>
	<path fill="#FFFFFF" d="M555.905,473.425c0.498-0.143,0.711-0.64,1.066-0.925c0.071-0.07,0.143-0.213,0.071-0.355
		c-0.355-0.64-0.782-1.279-1.138-1.919s-0.782-1.28-1.138-1.92c-0.071-0.143-0.142-0.213-0.142-0.213s0,0.142,0,0.213
		c-0.071,0.711-0.071,1.493-0.143,2.204s-0.071,1.493-0.143,2.204c0,0.142,0.071,0.284,0.214,0.284
		C554.909,473.14,555.406,473.567,555.905,473.425z"/>
	<path d="M570.693,527.031c0.143,0.071,0.213,0,0.284-0.142l18.059-55.526c0.071-0.143,0-0.214-0.142-0.285l-2.204-0.711
		c-0.143-0.07-0.214,0-0.285,0.143l-18.059,55.526c-0.07,0.143,0,0.214,0.143,0.284L570.693,527.031z"/>
	<path fill="#FFFFFF" d="M587.471,471.789c0.498,0.143,0.996-0.213,1.422-0.284c0.143,0,0.214-0.142,0.214-0.284
		c0-0.711,0-1.493,0-2.204s0-1.493,0-2.204c0-0.142,0-0.213,0-0.213s-0.071,0.071-0.143,0.213c-0.427,0.64-0.853,1.209-1.279,1.849
		s-0.854,1.209-1.28,1.849c-0.07,0.143-0.07,0.284,0,0.355C586.831,471.078,587.045,471.647,587.471,471.789z"/>
	<path d="M570.48,530.16c0.142,0,0.213-0.071,0.284-0.214l9.526-57.588c0-0.143-0.07-0.214-0.213-0.284l-2.275-0.355
		c-0.142,0-0.213,0.07-0.284,0.213l-9.527,57.588c0,0.143,0.071,0.214,0.214,0.285L570.48,530.16z"/>
	<path fill="#FFFFFF" d="M578.797,472.998c0.498,0.071,0.925-0.355,1.352-0.498c0.142-0.07,0.213-0.213,0.213-0.284
		c-0.071-0.711-0.213-1.493-0.284-2.204s-0.214-1.492-0.284-2.204c0-0.142,0-0.213,0-0.213s-0.071,0.071-0.143,0.213
		c-0.355,0.641-0.64,1.352-0.995,1.991s-0.64,1.351-0.995,1.99c-0.071,0.143,0,0.285,0.07,0.355
		C578.016,472.358,578.3,472.927,578.797,472.998z"/>
	<path fill="#3333E2" d="M584.414,553.337c1.422,0,2.631-1.137,2.631-2.63v-44.009c0-1.422-1.138-2.631-2.631-2.631h-27.586
		c-1.422,0-2.63,1.138-2.63,2.631v44.009c0,1.422,1.138,2.63,2.63,2.63H584.414z"/>
	<ellipse fill="#FFFFFF" stroke="#D4C9E2" stroke-miterlimit="10" cx="62.727" cy="277.955" rx="40.099" ry="40.099"/>
	<ellipse fill="#4848F7" cx="62.713" cy="277.97" rx="32.916" ry="32.916"/>
	<path fill="#FFFFFF" d="M65.764,277.979c0-1.706-1.351-3.057-3.057-3.057s-3.058,1.351-3.058,3.057
		c0,1.707,1.352,3.058,3.058,3.058S65.764,279.615,65.764,277.979z"/>
	<path fill="#FFFFFF" d="M62.85,273.287c0.355,0,0.64-0.284,0.64-0.64v-21.969c0-0.355-0.284-0.64-0.64-0.64l0,0
		c-0.355,0-0.641,0.284-0.641,0.64v21.969C62.209,273.003,62.494,273.287,62.85,273.287L62.85,273.287z"/>
	<path fill="#FFFFFF" d="M57.659,275.705c0.284,0.142,0.711,0.07,0.854-0.214l0,0c0.142-0.284,0.07-0.711-0.214-0.853l-10.664-6.257
		c-0.284-0.143-0.711-0.071-0.854,0.213l0,0c-0.142,0.285-0.071,0.711,0.214,0.854L57.659,275.705z"/>
	<path fill="#004545" d="M62.352,397.137c-14.22,19.196-14.788,45.289-1.564,65.125C73.016,442.427,73.585,417.543,62.352,397.137z"
		/>
	<path fill="#217373" d="M78.917,425.719C61.783,441.502,54.389,465.249,59.579,488C78.562,473.425,86.24,448.469,78.917,425.719z"
		/>
	<path fill="#217373" d="M40.169,425.719c-7.322,22.751,0.427,47.635,19.339,62.281C64.698,465.319,57.304,441.502,40.169,425.719z"
		/>
	<path fill="#3B9999" d="M58.939,490.914c21.329-9.313,36.047-29.434,38.535-52.611C74.793,445.981,59.365,467.026,58.939,490.914z"
		/>
	<path fill="#3B9999" d="M22.893,438.374c2.418,23.178,17.135,43.227,38.535,52.611C60.93,467.026,45.573,445.981,22.893,438.374z"
		/>
	<path fill="#003333" d="M29.363,544.877c0.355,3.483,2.915,6.327,5.83,6.327c8.247,0,16.424,0,24.671,0s16.423,0,24.67,0
		c2.845,0,5.475-2.844,5.83-6.327c0.854-9.313,1.707-18.627,2.56-27.941c0.854-9.313,1.706-18.627,2.56-27.94
		c0.355-3.484-2.275-6.328-5.759-6.328c-9.953,0-19.907,0-29.86,0c-9.954,0-19.907,0-29.86,0c-3.484,0-6.044,2.844-5.759,6.328
		c0.853,9.313,1.706,18.627,2.559,27.94C27.656,526.25,28.51,535.563,29.363,544.877z"/>
	<path fill="#8383FF" d="M234.477,532.293c0,0-27.728-4.053-83.112-12.158c0,0-13.722,4.195-41.235,12.514
		c21.399,11.02,53.108,15.854,95.198,14.361C205.327,547.01,214.996,542.104,234.477,532.293z"/>
	<path fill="#FFFFFF" d="M193.24,559.025l41.236-12.514c0.854-0.284,1.493-1.208,1.493-2.133V533.43
		c0-0.925-0.711-1.422-1.493-1.209l-41.236,12.513c-0.853,0.285-1.493,1.209-1.493,2.133v10.949
		C191.677,558.74,192.388,559.238,193.24,559.025z"/>
	<path fill="#5C5CF7" d="M190.681,559.238c0.854,0.143,1.636-0.498,1.636-1.422v-10.949c0-0.924-0.711-1.777-1.636-1.919
		l-80.552-12.3c-0.854-0.143-1.636,0.497-1.636,1.422v10.949c0,0.924,0.711,1.777,1.636,1.919L190.681,559.238z"/>
	<path fill="#5C5CF7" d="M234.548,534.924c0.142,0,0.142-0.143,0.142-0.285c0-0.142-0.142-0.142-0.284-0.142l-40.738,12.157
		c-0.143,0-0.143,0.143-0.143,0.284c0,0.143,0.143,0.143,0.285,0.143L234.548,534.924z"/>
	<path fill="#5C5CF7" d="M234.548,537.341c0.142,0,0.142-0.143,0.142-0.284c0-0.143-0.142-0.143-0.284-0.143l-40.81,12.157
		c-0.142,0-0.142,0.143-0.142,0.284c0,0.143,0.142,0.143,0.284,0.143L234.548,537.341z"/>
	<path fill="#5C5CF7" d="M234.548,539.758c0.142,0,0.142-0.143,0.142-0.284c0-0.143-0.142-0.143-0.284-0.143l-40.81,12.158
		c-0.142,0-0.142,0.142-0.142,0.284c0,0.142,0.142,0.142,0.284,0.142L234.548,539.758z"/>
	<path fill="#5C5CF7" d="M234.548,542.175c0.142,0,0.142-0.142,0.142-0.284c0-0.142-0.142-0.142-0.284-0.142l-40.81,12.157
		c-0.142,0-0.142,0.143-0.142,0.284c0,0.143,0.142,0.143,0.284,0.143L234.548,542.175z"/>
	<path fill="#5C5CF7" d="M234.619,544.593c0.142,0,0.142-0.143,0.142-0.284c0-0.143-0.142-0.143-0.284-0.143l-40.81,12.157
		c-0.143,0-0.143,0.143-0.143,0.284c0,0.143,0.143,0.143,0.285,0.143L234.619,544.593z"/>
	<path fill="#8383FF" d="M224.381,514.447c0,0-27.728-4.053-83.112-12.157c0,0-13.722,4.194-41.235,12.513
		c21.399,11.021,53.108,15.854,95.198,14.361C195.232,529.164,204.972,524.259,224.381,514.447z"/>
	<path fill="#FFFFFF" d="M183.145,541.179l41.236-12.513c0.854-0.284,1.493-1.209,1.493-2.133v-10.949
		c0-0.924-0.711-1.422-1.493-1.209l-41.236,12.514c-0.853,0.284-1.493,1.208-1.493,2.133v10.948
		C181.652,540.895,182.363,541.393,183.145,541.179z"/>
	<path fill="#5C5CF7" d="M180.656,541.393c0.854,0.142,1.636-0.498,1.636-1.423v-10.948c0-0.925-0.711-1.777-1.636-1.92
		l-80.553-12.3c-0.853-0.142-1.635,0.498-1.635,1.422v10.949c0,0.924,0.711,1.777,1.635,1.92L180.656,541.393z"/>
	<path fill="#5C5CF7" d="M224.524,517.433c0.142,0,0.142-0.143,0.142-0.284c0-0.143-0.142-0.143-0.284-0.143l-40.81,12.157
		c-0.143,0-0.143,0.143-0.143,0.285c0,0.142,0.143,0.142,0.285,0.142L224.524,517.433z"/>
	<path fill="#5C5CF7" d="M224.524,519.922c0.142,0,0.142-0.143,0.142-0.284c0-0.143-0.142-0.143-0.284-0.143l-40.81,12.158
		c-0.143,0-0.143,0.142-0.143,0.284c0,0.142,0.143,0.142,0.285,0.142L224.524,519.922z"/>
	<path fill="#5C5CF7" d="M224.524,522.268c0.142,0,0.142-0.143,0.142-0.285c0-0.142-0.142-0.142-0.284-0.142l-40.81,12.157
		c-0.143,0-0.143,0.143-0.143,0.284c0,0.143,0.143,0.143,0.285,0.143L224.524,522.268z"/>
	<path fill="#5C5CF7" d="M224.524,524.685c0.142,0,0.142-0.143,0.142-0.284c0-0.143-0.142-0.143-0.284-0.143l-40.81,12.157
		c-0.143,0-0.143,0.143-0.143,0.285c0,0.142,0.143,0.142,0.285,0.142L224.524,524.685z"/>
	<path fill="#5C5CF7" d="M224.524,527.174c0.142,0,0.142-0.143,0.142-0.284c0-0.143-0.142-0.143-0.284-0.143l-40.81,12.157
		c-0.143,0-0.143,0.143-0.143,0.285c0,0.142,0.143,0.142,0.285,0.142L224.524,527.174z"/>
	<path fill="#8383FF" d="M255.663,493.971c0,0-27.728-4.053-83.111-12.157c0,0-13.722,4.194-41.236,12.513
		c21.4,11.02,53.109,15.854,95.198,14.361C226.514,508.688,236.254,503.783,255.663,493.971z"/>
	<path fill="#FFFFFF" d="M214.428,520.704l41.235-12.513c0.854-0.285,1.493-1.209,1.493-2.134v-10.948
		c0-0.925-0.711-1.422-1.493-1.209l-41.235,12.514c-0.854,0.284-1.493,1.208-1.493,2.133v10.948
		C212.935,520.42,213.646,520.988,214.428,520.704z"/>
	<path fill="#5C5CF7" d="M211.939,520.917c0.854,0.143,1.636-0.497,1.636-1.422v-10.948c0-0.925-0.711-1.777-1.636-1.92
		l-80.552-12.3c-0.854-0.143-1.636,0.498-1.636,1.422v10.949c0,0.924,0.711,1.777,1.636,1.919L211.939,520.917z"/>
	<path fill="#5C5CF7" d="M255.806,496.674c0.142,0,0.142-0.143,0.142-0.285c0-0.142-0.142-0.142-0.284-0.142l-40.81,12.157
		c-0.142,0-0.142,0.143-0.142,0.284c0,0.143,0.142,0.143,0.284,0.143L255.806,496.674z"/>
	<path fill="#5C5CF7" d="M255.806,499.091c0.142,0,0.142-0.143,0.142-0.284c0-0.143-0.142-0.143-0.284-0.143l-40.81,12.157
		c-0.142,0-0.142,0.143-0.142,0.284c0,0.143,0.142,0.143,0.284,0.143L255.806,499.091z"/>
	<path fill="#5C5CF7" d="M255.806,501.508c0.142,0,0.142-0.143,0.142-0.284c0-0.143-0.142-0.143-0.284-0.143l-40.738,12.158
		c-0.142,0-0.142,0.142-0.142,0.284c0,0.142,0.142,0.142,0.284,0.142L255.806,501.508z"/>
	<path fill="#5C5CF7" d="M255.806,503.925c0.142,0,0.142-0.142,0.142-0.284c0-0.142-0.142-0.142-0.284-0.142l-40.81,12.157
		c-0.142,0-0.142,0.143-0.142,0.284c0,0.143,0.142,0.143,0.284,0.143L255.806,503.925z"/>
	<path fill="#5C5CF7" d="M255.806,506.414c0.142,0,0.142-0.143,0.142-0.285c0-0.142-0.142-0.142-0.284-0.142l-40.81,12.157
		c-0.142,0-0.142,0.143-0.142,0.284c0,0.143,0.142,0.143,0.284,0.143L255.806,506.414z"/>
	<path fill="#1A1A1A" d="M259.859,516.438l56.308-2.986c0.143,0,0.214-0.071,0.214-0.213l-0.143-2.275
		c0-0.143-0.071-0.214-0.213-0.214l-56.309,2.986c-0.143,0-0.213,0.071-0.213,0.214l0.142,2.274
		C259.645,516.367,259.716,516.438,259.859,516.438z"/>
	<path fill="#CCCCCC" d="M316.309,513.452c0.64-0.213,1.351-0.498,1.99-0.711c0.641-0.213,1.352-0.498,1.991-0.711
		c0.142-0.071,0.213-0.071,0.213-0.071s-0.071,0-0.213-0.071c-0.711-0.142-1.422-0.355-2.062-0.497
		c-0.711-0.143-1.422-0.355-2.063-0.498c-0.142,0-0.284,0-0.355,0.143c-0.213,0.355-0.64,0.781-0.568,1.279
		c0,0.498,0.498,0.854,0.711,1.209C316.025,513.452,316.166,513.452,316.309,513.452z"/>
	<path fill="#B3B3FF" d="M335.789,531.012c-17.419,0.427-34.767-2.844-50.834-9.526c-13.224,9.171-29.221,13.508-45.288,12.3
		c17.702,12.3,37.752,20.831,58.938,24.954C313.749,553.906,326.831,544.166,335.789,531.012z"/>
	<path fill="#FFFFFF" d="M339.557,528.027c-16.067,0.355-32.135-2.631-46.994-8.745c-12.229,8.46-27.017,12.441-41.876,11.304
		c16.353,11.376,34.908,19.196,54.46,23.036C319.224,549.214,331.31,540.184,339.557,528.027z"/>
	
		<rect x="147.917" y="263.087" transform="matrix(-0.1086 0.9941 -0.9941 -0.1086 474.0526 151.5745)" fill="#E6E6E6" width="42.303" height="50.479"/>
	
		<rect x="164.424" y="247.667" transform="matrix(-0.1086 0.9941 -0.9941 -0.1086 460.5838 132.7926)" fill="#FFFFFF" width="12.656" height="50.479"/>
	<rect x="148.592" y="258.428" fill="#FFEDCA" width="5.616" height="8.46"/>
	<path fill="#E6E6E6" d="M213.787,271.723l-0.284-2.844l-5.475,0.568l4.408,43.582l77.14-7.749l-4.408-43.583l-5.972,0.569
		l0.284,2.986c0.498,0.284,0.925,0.853,0.925,1.492c0.142,1.138-0.711,2.134-1.777,2.204c-1.138,0.143-2.134-0.711-2.204-1.777
		c-0.071-0.711,0.213-1.422,0.782-1.777l-0.285-2.844l-4.123,0.427l0.284,2.986c0.498,0.284,0.924,0.853,0.924,1.492
		c0.143,1.138-0.711,2.134-1.777,2.204c-1.138,0.143-2.133-0.711-2.204-1.777c-0.07-0.711,0.214-1.422,0.782-1.777l-0.284-2.844
		l-4.053,0.427l0.284,2.986c0.498,0.284,0.925,0.853,0.925,1.493c0.143,1.137-0.711,2.133-1.777,2.203
		c-1.138,0.143-2.133-0.711-2.204-1.777c-0.071-0.711,0.213-1.422,0.782-1.777l-0.284-2.844l-4.053,0.427l0.284,2.986
		c0.498,0.284,0.924,0.853,0.924,1.493c0.143,1.137-0.711,2.133-1.777,2.203c-1.138,0.143-2.133-0.711-2.204-1.777
		c-0.07-0.711,0.214-1.422,0.782-1.777l-0.284-2.844l-4.053,0.427l0.285,2.986c0.497,0.284,0.924,0.853,0.924,1.493
		c0.143,1.137-0.711,2.133-1.777,2.203c-1.138,0.143-2.133-0.711-2.204-1.777c-0.071-0.711,0.213-1.422,0.782-1.777l-0.284-2.844
		l-4.124,0.427l0.284,2.986c0.498,0.284,0.925,0.853,0.925,1.493c0.142,1.137-0.711,2.133-1.777,2.203
		c-1.138,0.143-2.133-0.711-2.204-1.777c-0.071-0.711,0.213-1.422,0.782-1.777l-0.285-2.844l-4.052,0.427l0.284,2.986
		c0.497,0.284,0.924,0.853,0.924,1.493c0.143,1.137-0.711,2.133-1.777,2.203c-1.138,0.143-2.133-0.711-2.204-1.777
		c-0.071-0.711,0.214-1.422,0.782-1.777l-0.284-2.844l-3.981,0.427l0.284,2.986c0.498,0.284,0.925,0.853,0.925,1.493
		c0.142,1.137-0.712,2.133-1.778,2.204c-1.137,0.142-2.133-0.712-2.203-1.778c-0.071-0.711,0.213-1.422,0.781-1.777l-0.284-2.844
		l-4.053,0.427l0.285,2.986c0.497,0.284,0.924,0.853,0.924,1.493c0.143,1.138-0.711,2.133-1.777,2.204
		c-1.138,0.142-2.133-0.711-2.204-1.778c-0.071-0.711,0.213-1.422,0.782-1.777l-0.284-2.844l-4.124,0.427l0.284,2.986
		c0.498,0.284,0.925,0.853,0.925,1.493c0.142,1.138-0.711,2.133-1.777,2.204c-1.138,0.142-2.133-0.711-2.204-1.778
		c-0.071-0.711,0.213-1.422,0.782-1.777l-0.285-2.844l-4.052,0.427l0.284,2.986c0.497,0.284,0.924,0.853,0.924,1.493
		c0.143,1.138-0.711,2.133-1.777,2.204c-1.138,0.142-2.133-0.711-2.204-1.777C212.935,272.861,213.29,272.149,213.787,271.723z"/>
	
		<rect x="202.86" y="266.319" transform="matrix(-0.4049 0.9143 -0.9143 -0.4049 538.1471 188.7318)" fill="#FFEDCA" width="9.599" height="6.328"/>
	
		<rect x="285.159" y="302.473" transform="matrix(-0.4048 0.9144 -0.9144 -0.4048 686.8163 164.2389)" fill="#FFEDCA" width="9.598" height="6.328"/>
	
		<rect x="221.579" y="320.204" transform="matrix(-0.4049 0.9143 -0.9143 -0.4049 613.7169 247.3204)" fill="#FFEDCA" width="9.599" height="6.328"/>
	
		<rect x="135.498" y="320.057" transform="matrix(-0.8142 0.5806 -0.5806 -0.8142 440.179 508.8279)" fill="#FFEDCA" width="6.327" height="9.598"/>
	<path d="M173.547,298.953L173.547,298.953c-0.071,0.071-0.071,0.143-0.071,0.284l0,0
		C173.547,299.237,173.547,299.095,173.547,298.953L173.547,298.953z"/>
	<path d="M180.301,367.845c0-0.071,0-0.071,0-0.142c0,0.07,0,0.213,0,0.355C180.23,367.988,180.301,367.917,180.301,367.845z"/>
	<path fill="#5C5CF7" d="M544.103,458.849c0.142-0.853-0.427-1.563-1.28-1.563H396.862c-0.854,0-1.707,0.711-1.849,1.563
		l-15.428,90.648c0,0.071,0,0.071,0,0.143l164.518-90.72V458.849z"/>
	<path fill="#FFFFFF" d="M465.256,514.234c5.83,0,10.665-4.692,10.807-10.522c0.143-5.83-4.408-10.522-10.237-10.522
		c-5.83,0-10.665,4.692-10.807,10.522C454.805,509.47,459.426,514.234,465.256,514.234z"/>
	<path fill="#8383FF" d="M30.927,316.016c0-1.209-0.995-2.204-2.204-2.204c-1.208,0-2.204,0.995-2.204,2.204
		s0.996,2.204,2.204,2.204C29.932,318.22,30.927,317.296,30.927,316.016z"/>
	<path fill="#8383FF" d="M40.383,323.197c0-0.782-0.64-1.422-1.422-1.422s-1.422,0.64-1.422,1.422s0.64,1.422,1.422,1.422
		S40.383,323.979,40.383,323.197z"/>
	<path fill="#FFFFFF" d="M101.74,342.251c0-1.208-0.995-2.204-2.204-2.204s-2.204,0.996-2.204,2.204
		c0,1.209,0.995,2.204,2.204,2.204S101.74,343.46,101.74,342.251z"/>
	<path fill="#FFFFFF" d="M72.305,446.976c0-1.208-0.995-2.204-2.204-2.204c-1.208,0-2.203,0.996-2.203,2.204
		c0,1.209,0.995,2.204,2.203,2.204C71.31,449.18,72.305,448.185,72.305,446.976z"/>
	<path fill="#8383FF" d="M109.702,449.75c0-1.066-0.854-1.92-1.92-1.92s-1.92,0.854-1.92,1.92s0.854,1.919,1.92,1.919
		S109.702,450.816,109.702,449.75z"/>
	<path fill="#8383FF" d="M121.22,438.231c0-0.568-0.498-1.066-1.066-1.066c-0.569,0-1.066,0.498-1.066,1.066
		c0,0.569,0.497,1.067,1.066,1.067C120.722,439.299,121.22,438.872,121.22,438.231z"/>
	<path fill="#337A7A" d="M90.293,544.877c0.853-9.313,1.706-18.627,2.559-27.941c0.854-9.313,1.707-18.627,2.56-27.94
		c0.355-3.484-2.274-6.328-5.759-6.328H70.243v68.608h14.22C87.378,551.204,90.008,548.36,90.293,544.877z"/>
	<path fill="#8383FF" d="M30.643,386.26c0-1.208-0.995-2.204-2.204-2.204s-2.204,0.996-2.204,2.204c0,1.209,0.995,2.204,2.204,2.204
		S30.643,387.469,30.643,386.26z"/>
	<path fill="#8383FF" d="M165.3,458.992c0-1.209-0.996-2.204-2.204-2.204c-1.209,0-2.204,0.995-2.204,2.204s0.995,2.204,2.204,2.204
		C164.304,461.196,165.3,460.201,165.3,458.992z"/>
	<path fill="#FFFFFF" d="M186.487,432.047c0-0.569-0.427-0.996-0.995-0.996c-0.569,0-0.996,0.427-0.996,0.996
		c0,0.568,0.427,0.995,0.996,0.995C185.989,433.042,186.487,432.615,186.487,432.047z"/>
	<path fill="#FFFFFF" d="M70.243,516.865c0-1.209-0.995-2.204-2.204-2.204c-1.208,0-2.204,0.995-2.204,2.204
		c0,1.208,0.996,2.203,2.204,2.203C69.248,519.139,70.243,518.144,70.243,516.865z"/>
	<path fill="#FFFFFF" d="M408.095,491.554c0-0.641-0.498-1.138-1.138-1.138s-1.138,0.497-1.138,1.138
		c0,0.64,0.498,1.138,1.138,1.138S408.095,492.194,408.095,491.554z"/>
	<path fill="#FFFFFF" d="M455.73,428.065c0-0.641-0.498-1.138-1.138-1.138c-0.641,0-1.138,0.497-1.138,1.138
		c0,0.64,0.498,1.137,1.138,1.137S455.73,428.705,455.73,428.065z"/>
	<path fill="#8383FF" d="M549.079,374.174c0-1.209-0.995-2.204-2.204-2.204s-2.204,0.995-2.204,2.204
		c0,1.208,0.995,2.204,2.204,2.204S549.079,375.382,549.079,374.174z"/>
	<path fill="#FFFFFF" d="M523.698,490.133c0-1.209-0.995-2.204-2.204-2.204c-1.208,0-2.204,0.995-2.204,2.204
		c0,1.208,0.996,2.203,2.204,2.203C522.702,492.336,523.698,491.341,523.698,490.133z"/>
	<path fill="#8383FF" d="M422.528,350.569c0-0.853-0.711-1.564-1.564-1.564s-1.564,0.712-1.564,1.564
		c0,0.854,0.711,1.564,1.564,1.564S422.528,351.423,422.528,350.569z"/>
	<path fill="#FFFFFF" d="M418.546,528.027c0-0.641-0.498-1.138-1.138-1.138s-1.138,0.497-1.138,1.138
		c0,0.64,0.498,1.137,1.138,1.137S418.546,528.667,418.546,528.027z"/>
	<path fill="#FFFFFF" d="M437.955,508.475c0-0.854-0.64-1.493-1.493-1.493s-1.493,0.64-1.493,1.493c0,0.853,0.64,1.493,1.493,1.493
		C437.244,509.969,437.955,509.328,437.955,508.475z"/>
	<path fill="#8383FF" d="M606.312,378.297c0-0.853-0.64-1.493-1.493-1.493c-0.853,0-1.492,0.641-1.492,1.493
		c0,0.854,0.64,1.493,1.492,1.493C605.672,379.79,606.312,379.15,606.312,378.297z"/>
	<path fill="#FFFFFF" d="M567.99,530.373c0-0.498-0.355-0.854-0.853-0.854c-0.498,0-0.854,0.355-0.854,0.854
		s0.355,0.854,0.854,0.854C567.635,531.155,567.99,530.8,567.99,530.373z"/>
	<path fill="#8383FF" d="M404.966,316.727c0-0.498-0.355-0.854-0.853-0.854c-0.498,0-0.854,0.355-0.854,0.854
		s0.355,0.854,0.854,0.854C404.611,317.581,404.966,317.225,404.966,316.727z"/>
	<path fill="#8383FF" d="M396.506,280.326c0-0.64-0.498-1.138-1.138-1.138s-1.138,0.498-1.138,1.138s0.498,1.138,1.138,1.138
		S396.506,280.966,396.506,280.326z"/>
	<path fill="#8383FF" d="M253.744,234.184c0-0.641-0.498-1.138-1.138-1.138c-0.641,0-1.138,0.497-1.138,1.138
		c0,0.64,0.497,1.138,1.138,1.138C253.246,235.251,253.744,234.753,253.744,234.184z"/>
	<path fill="#FFFFFF" d="M45.36,523.263c0-0.355-0.284-0.569-0.568-0.569c-0.355,0-0.569,0.285-0.569,0.569
		c0,0.355,0.284,0.568,0.569,0.568C45.075,523.832,45.36,523.548,45.36,523.263z"/>
	<path fill="#8383FF" d="M459.071,333.435c0-1.209-0.995-2.133-2.133-2.133s-2.133,0.995-2.133,2.133
		c0,1.208,0.995,2.133,2.133,2.133S459.071,334.643,459.071,333.435z"/>
</g>
</svg>
