<?xml version="1.0" encoding="utf-8"?>
<!-- Generator: Adobe Illustrator 24.3.0, SVG Export Plug-In . SVG Version: 6.00 Build 0)  -->
<svg version="1.1" id="Layer_1" xmlns="http://www.w3.org/2000/svg" xmlns:xlink="http://www.w3.org/1999/xlink" x="0px" y="0px"
	 viewBox="0 0 612 388" style="enable-background:new 0 0 612 388;" xml:space="preserve">
<style type="text/css">
	.st0{fill:#3B9999;}
	.st1{fill:#004545;}
	.st2{fill:#242D44;}
	.st3{fill:#384259;}
	.st4{fill:#576277;}
	.st5{fill:#293149;}
	.st6{fill:#D31D49;}
	.st7{fill:#1B223A;}
	.st8{fill:#0000FF;}
	.st9{fill:#5050EF;}
	.st10{fill:#FFA340;}
	.st11{fill:#FC4C00;}
	.st12{fill:#FFAF59;}
	.st13{fill:#FF5D17;}
	.st14{fill:#DE2104;}
	.st15{fill:#63220A;}
	.st16{fill:#451301;}
	.st17{fill:#9E5116;}
	.st18{fill:#662811;}
	.st19{fill:#FFFFFF;}
	.st20{fill:#F24900;}
	.st21{fill:#FFCC85;}
	.st22{fill:#FFD28F;}
	.st23{fill:#293149;stroke:#3E4654;stroke-miterlimit:10.0001;}
	.st24{fill:#217373;}
	.st25{fill:#003333;}
	.st26{fill:#BEBEFC;}
	.st27{fill:#CCCCCC;}
	.st28{fill:#303747;}
	.st29{fill:#337A7A;}
</style>
<g>
	<path class="st0" d="M118.7,217.1c2.4-4.2,4.1-8.5,4.8-11.8c0.7-3.3,0.6-5.9-0.8-6.8c-1.4-0.9-3.6-0.1-6.3,1.8
		c-2.7,1.9-5.9,5-8.7,9c-2.8,3.9-4.8,8-5.5,11.3c-0.7,3.4-0.3,6.1,1.4,7.3c1.7,1.2,4.3,0.7,7-1.3"/>
	<path class="st0" d="M110.7,226.5c2.7-1.9,5.5-5.3,8-9.5"/>
	<path class="st0" d="M79.5,158.3c-1.3-0.1-2.6,1.3-4,3.6c-1.3,2.3-2.6,5.7-3.3,9.4c-0.7,3.7-0.8,7.2-0.1,9.7
		c0.6,2.6,1.8,4.2,3.5,4.3c1.6,0.1,3.3-1.2,4.6-3.6c1.3-2.3,2.2-5.7,2.6-9.5c0.4-3.8,0.1-7.2-0.5-9.7
		C81.7,160,80.8,158.4,79.5,158.3z"/>
	<path class="st0" d="M108.9,184.2c-1.3-0.7-3.3,0.1-5.5,2.1c-2.2,2-4.6,5-6.6,8.7c-2,3.8-3.2,7.5-3.4,10.5
		c-0.2,3.1,0.6,5.5,2.3,6.4c1.7,0.9,3.9,0.2,6.1-1.8c2.2-2,4.3-5.2,5.9-9.2c1.6-4,2.6-7.8,2.8-10.9
		C110.7,187.2,110.2,184.9,108.9,184.2z"/>
	<path class="st0" d="M93.2,169.9c-1.4-0.4-2.9,0.9-4.6,3.2c-1.6,2.3-3.3,5.7-4.4,9.7c-1.1,3.9-1.6,7.7-1.2,10.6
		c0.4,2.9,1.5,5,3.2,5.5c1.7,0.5,3.6-0.6,5.3-3c1.6-2.3,3-5.8,3.8-9.9s0.9-7.9,0.5-10.8C95.4,172.3,94.6,170.3,93.2,169.9z"/>
	<path class="st0" d="M35.2,176.3c-0.1,1.1,1.1,2.3,3.3,3.3c2.2,1,5.2,1.9,8.7,2.3c3.4,0.4,6.6,0.2,9-0.5c2.3-0.7,3.9-2,4.1-3.5
		c0.1-1.5-1.1-2.9-3.2-4c-2.1-1-5.3-1.6-8.7-1.7c-3.5-0.1-6.7,0.4-9.1,1.1C36.9,174.2,35.3,175.2,35.2,176.3z"/>
	<path class="st0" d="M51.5,169.6c1.8,1,3.6,1.1,4.5,0.4c1-0.8,1.1-2.4,0.4-4.3c-0.7-1.9-2.2-4.1-4.3-6.3s-4.3-3.8-6.1-4.8
		s-3.3-1.3-4.1-0.7c-0.8,0.6-0.7,2.1,0,4s2,4.3,3.8,6.5C47.6,166.8,49.7,168.6,51.5,169.6z"/>
	<path class="st0" d="M66.3,149.4c-1.2-0.1-2.3,1.4-3.4,3.6c-1.1,2.3-1.9,5.5-2.3,9.2s-0.2,6.9,0.5,9.3s2,4,3.6,4.1
		c1.5,0.1,3-1.3,4.1-3.6c1.1-2.3,1.6-5.5,1.7-9.2s-0.4-7-1.1-9.4C68.4,151,67.4,149.4,66.3,149.4z"/>
	<path class="st0" d="M68,239.8c3.3,0.8,7.7,1.1,12.5,0.7c4.8-0.4,9.1-1.6,12.2-3.3c3.1-1.6,4.8-3.8,4.6-5.9
		c-0.2-2.1-2.3-3.7-5.5-4.5s-7.6-0.7-12.4,0.1c-4.8,0.9-9,2.4-12.1,4.1c-3.1,1.6-4.8,3.4-4.7,5C62.7,237.8,64.8,239,68,239.8z"/>
	<path class="st0" d="M61.6,223.1c3,0.7,7,1.1,11.4,0.6c4.4-0.4,8.4-1.5,11.2-3c2.8-1.5,4.4-3.5,4.3-5.4c-0.1-1.9-2.1-3.4-5.1-4.1
		c-3-0.7-7-0.7-11.4,0.1c-4.4,0.9-8.2,2.3-11.1,3.8c-2.8,1.5-4.5,3.1-4.3,4.6S58.7,222.3,61.6,223.1z"/>
	<path class="st1" d="M62.5,175.5c-0.4-0.4-1.1-0.4-1.5,0.1s-0.4,1.1,0.1,1.5c19.3,17.9,33.9,39.7,43.2,63.6
		c9.3,23.9,13.2,49.8,11.1,76.1c-0.1,0.6,0.4,1.1,1,1.1c0.6,0.1,1.1-0.4,1.1-1c2.1-26.5-1.8-52.8-11.2-77
		C96.8,215.7,82,193.6,62.5,175.5z"/>
	<path class="st0" d="M55,208.4c2.8,0.6,6.5,0.9,10.6,0.6s7.8-1.4,10.3-2.8c2.6-1.4,4.1-3.2,3.9-5c-0.1-1.8-1.9-3.1-4.7-3.8
		c-2.8-0.6-6.5-0.6-10.5,0.1s-7.7,2.1-10.2,3.5s-4.1,2.9-4,4.3C50.4,206.7,52.2,207.7,55,208.4z"/>
	<path class="st0" d="M56.7,195.4c3.8-0.1,7.2-0.9,9.6-2.1c2.4-1.2,3.9-2.8,3.8-4.5c-0.1-1.6-1.6-3-4.2-3.7c-2.5-0.7-6-0.9-9.7-0.3
		c-3.8,0.6-7.1,1.6-9.5,2.8c-2.4,1.2-3.9,2.5-3.8,3.8s1.6,2.3,4.1,3C49.5,195.2,53,195.6,56.7,195.4z"/>
	<path class="st2" d="M385.7,218.2c0.8,0,1.4-0.6,1.4-1.4V47.3c0-0.8-0.6-1.4-1.4-1.4H125.3c-0.8,0-1.4,0.6-1.4,1.4v169.5
		c0,0.8,0.6,1.4,1.4,1.4L385.7,218.2L385.7,218.2z"/>
	
		<rect x="139.6" y="128" transform="matrix(0.9994 -3.460004e-02 3.460004e-02 0.9994 -5.447 6.461)" class="st3" width="88.7" height="65.1"/>
	
		<rect x="138.9" y="140" transform="matrix(0.9994 -3.460004e-02 3.460004e-02 0.9994 -4.7451 6.4243)" class="st4" width="88.7" height="0.6"/>
	
		<rect x="139.1" y="144.8" transform="matrix(0.9994 -3.460004e-02 3.460004e-02 0.9994 -4.9123 6.432)" class="st4" width="88.7" height="0.6"/>
	
		<rect x="139.3" y="149.8" transform="matrix(0.9994 -3.460004e-02 3.460004e-02 0.9994 -5.0843 6.4425)" class="st4" width="88.7" height="0.6"/>
	
		<rect x="139.4" y="154.6" transform="matrix(0.9994 -3.460004e-02 3.460004e-02 0.9994 -5.2515 6.4502)" class="st4" width="88.7" height="0.6"/>
	
		<rect x="139.6" y="159.3" transform="matrix(0.9994 -3.460004e-02 3.460004e-02 0.9994 -5.4138 6.4604)" class="st4" width="88.7" height="0.6"/>
	
		<rect x="139.8" y="164.2" transform="matrix(0.9994 -3.460004e-02 3.460004e-02 0.9994 -5.581 6.4682)" class="st4" width="88.7" height="0.6"/>
	
		<rect x="139.9" y="169.1" transform="matrix(0.9994 -3.460004e-02 3.460004e-02 0.9994 -5.7531 6.4761)" class="st4" width="88.7" height="0.6"/>
	
		<rect x="140.1" y="174" transform="matrix(0.9994 -3.460004e-02 3.460004e-02 0.9994 -5.9202 6.4864)" class="st4" width="88.7" height="0.6"/>
	
		<rect x="140.3" y="178.9" transform="matrix(0.9994 -3.460004e-02 3.460004e-02 0.9994 -6.0899 6.4942)" class="st4" width="88.7" height="0.6"/>
	
		<rect x="140.4" y="183.7" transform="matrix(0.9994 -3.460004e-02 3.460004e-02 0.9994 -6.2571 6.502)" class="st4" width="88.7" height="0.6"/>
	
		<rect x="140.6" y="188.7" transform="matrix(0.9994 -3.460004e-02 3.460004e-02 0.9994 -6.4291 6.5124)" class="st4" width="88.7" height="0.6"/>
	<path class="st5" d="M488,97c-1.4,0-2.6,1.1-2.6,2.6v0.6l-31.6-27.1l-1.8,2.1l33.4,28.6v251c0,0.2,0,0.4,0,0.4c3.3-0.8,5-1.2,5-1.2
		V108.1l25.7,22c-1.6,2.1-1.3,5,0.7,6.7l10.5,9c2.1,1.8,5.2,1.5,7-0.6l1.4-1.6c1.8-2.1,1.5-5.2-0.6-7l-10.5-8.9
		c-2-1.7-4.9-1.6-6.7,0.3l-27.5-23.5v-4.9C490.5,98.2,489.4,97,488,97z"/>
	<path class="st6" d="M493.3,111.8v-11.2c0-2.9-2.4-5.3-5.3-5.3s-5.3,2.4-5.3,5.3v11.2c0,2.9,2.4,5.3,5.3,5.3
		S493.3,114.7,493.3,111.8z"/>
	<path class="st7" d="M466.8,38.3L466.8,38.3c-1.2-0.6-2.8-0.1-3.4,1.1l-6.8,12.9c-4.8-1.2-10.1,1-12.5,5.6L436.2,73
		c-1.4-0.1-2.9-0.1-4.4-0.1c-10.7,0.7-20,7.3-24.3,17.1c15.6,10.9,32.6,19.8,50.4,26.4c5.6-9.1,5.8-20.5,0.2-29.7
		c-0.7-1.2-1.5-2.3-2.3-3.3l8-15.2c2.4-4.6,1.2-10.3-2.6-13.6l6.8-12.9C468.5,40.5,468,39,466.8,38.3z"/>
	<path class="st6" d="M453.6,121.5c1.6,0.9,3.5,0.2,4.3-1.4l0.2-0.4c0.9-1.6,0.2-3.5-1.4-4.3l-48.1-25.2c-1.6-0.9-3.5-0.2-4.3,1.4
		l-0.2,0.4c-0.9,1.6-0.2,3.5,1.4,4.3L453.6,121.5z"/>
	<path class="st6" d="M287.2,154.8c-12.6,1.8-26.7,3.2-38.2,6.5c-8.4,2.4-13.7,5.6-18.1,9.9c-15.3,15.1-33.3,52.7-43.2,73.5
		c-3.1,2.6-5.6,5.4-7.6,8.5c-4,6.4-6,16.9-5.2,26.7c1.1,12.7,5.3,20.1,11.9,22.8c15.8,6.5,38.7-11.3,43.1-26.2l13.5-19.5
		c1.4,28.9,2.3,44.6,2.3,44.6c85.5-0.1,131-0.4,129.9,0.3c6.9,8.9,14.3,11,21.2,9.2c19.5-5.3,33.1-38.1,23.8-56.9
		c-1.6-17-8-68.5-17.9-81.1c-3.1-3.9-7.4-7.3-13.4-10c-2.7-1.1-6.1-2.6-10.9-4c0,0-5.3,3.3-18.1,1.4
		C370.6,156.1,346.3,154.1,287.2,154.8z"/>
	<path class="st6" d="M362.5,248.6l-2-20.8l-5.4-43.4l-2.4-15.5c0.1-0.1-0.5-0.1-1.6-0.1c-2.1,11.2-8.7,21-18.5,26.9
		c-4.4,8.1-4.7,17.8-0.9,26.2c8.4,18.4,23.5,10.5,30.5,34.3c0.1,0.3,0.1,0.6,0.2,0.9c0-1.6,0.1-3.1,0.2-4.5L362.5,248.6z"/>
	<path class="st8" d="M362.5,260.6c0.1-0.2,0.4-0.4,0.6-0.6c-0.1-0.9-0.4-1.8-0.6-2.8C362.4,258.4,362.4,259.5,362.5,260.6z"/>
	<path class="st6" d="M286.5,159.4c-32.2,2.6-48.3,12.2-48.3,28.8c8.2,13.2,11.5,23.8,9.9,32.1c1.5,54,2.2,81.5,2.2,81.5
		c64.5-0.1,96.7-0.1,96.7-0.1c17.1-53.3-44.8-42.5-55.4-80c-3.8-13.6-0.1-28.3,10-38.3C301.4,183.3,296.5,175.3,286.5,159.4z"/>
	<path class="st8" d="M362.9,267.8c0.1,0.6,0.1,1.1,0.2,1.6c0.1-0.4,0.1-0.9,0.1-1.3C363.2,268.1,363,268,362.9,267.8z"/>
	<path class="st6" d="M358.3,301.6c9.2,0.1,14.5,0.1,16.1,0.2c-5.2-10.7-8.6-19.6-10.4-26.4c-0.4-2.1-0.6-4.1-0.9-6
		C361.1,284,349.7,293.1,358.3,301.6z"/>
	<path class="st6" d="M398.3,200.7c4.1,13.6,14.4,12,18.3,21.5c-0.9-5.5-1.8-11.2-3.1-17c-1.6-7.8-3.1-13.6-4.3-17.6
		c-1.1-4.1-2.9-8.4-5.4-12.9c-3-4.5-7.5-8.1-13.4-10.9c-2.4-1.1-5-2.1-7.8-3.1c-1.6,2.2-1.3,6,1.1,11.6c0,0,0.7,1,2.2,3
		C386,175.3,390.1,183.8,398.3,200.7z"/>
	<path class="st6" d="M402.3,309c6-3.6,11.1-9,14.9-16.1c2.9-5.4,4.8-11.1,5.9-17.1c1.2-8.5,0.5-15.4-2-20.5c0,0-9.4-20.6-28.1-61.9
		c13.5,30.6-3.3,38.5,1.4,56.3c3.9,14.8,22.3,17.3,20,38.8C413.5,296.8,409.1,304.3,402.3,309z"/>
	<path class="st9" d="M393,193.4c-0.3-0.7-0.6-1.4-0.9-2.1C392.4,192,392.7,192.7,393,193.4z"/>
	<path class="st6" d="M200,303.5c6.3-1.8,11.4-4.4,15.4-7.6c3.8-2.8,7.5-6.6,10.9-11.5c1.5-2.3,2.6-4.5,3.4-6.8
		c2.1-3.4,2.5-7.6,1.4-12.7l14.3-42.9c0.9-6.5-1.1-6.3-5.9,0.5c-6.5,1.1-12.2,5.2-15.2,11c-7.9,15.3,8.7,26-1.1,38.9
		C215.7,282.3,197.9,284.5,200,303.5z"/>
	<path class="st6" d="M374.3,178.5c0,0-5.2,0.1-15.6,0.1c0,0,3.1,24,9.1,71.9c-2.4,10.7-0.9,22.8,4.6,36
		c3.1,7.6,11.7,25.6,22.2,20.4c6.6-3.3,9.2-16.1,5-24.1c-5.8-11-19.7-21.1-21-34C376.3,225.6,402.5,202.6,374.3,178.5z"/>
	<path class="st2" d="M332.6,195.9c11.8-4.2,19.6-14.9,20.2-27.7c-1.6-3.3-11.8-10.8-30.6-22.5c-6,3.2-11.5,7.8-18.2,9.2
		c-3.3,0.6-7.5-0.6-10.9-1c-2.1-0.2-4.6,0.4-5.8,0.9c-2.8,11.7,1.1,24.4,10.4,33.1C307.2,196.9,320.8,200.1,332.6,195.9z"/>
	<path class="st10" d="M331.3,190.1c10-3.6,16.7-12.7,17.2-23.6c-1.7-3.6-15.9-13.3-42.3-29c0,0-1,5.1-3,15.4c0,0-3.4,0.4-10.2,1
		c-3,10.2,0.3,21.7,8.5,29.4C309.6,191,321.2,193.7,331.3,190.1z"/>
	<path class="st11" d="M321.5,191.7c9.5,0.4,18.3-4.5,23.2-12.6c2.1-3.6,3.3-7.5,3.7-11.6c-25.8-5.6-40-9.9-42.7-12.8
		c1.7,22.3,2.6,33.5,2.6,33.5c1.2,0.6,1.8,0.9,1.8,0.9C313.7,190.7,317.6,191.6,321.5,191.7z"/>
	
		<ellipse transform="matrix(0.998 -6.250280e-02 6.250280e-02 0.998 -7.6006 19.2241)" class="st12" cx="303.5" cy="131.1" rx="8.5" ry="11.2"/>
	<path class="st13" d="M305.8,138.6c2.6-0.3,4.5-3.3,4.3-6.8c-0.3-3.5-2.7-6.1-5.3-5.8c-2.6,0.3-4.5,3.3-4.3,6.8
		C300.7,136.2,303.2,138.9,305.8,138.6z"/>
	<path class="st14" d="M307,136.9c1.6-0.1,2.8-2.1,2.7-4.3c-0.2-2.2-1.7-3.8-3.3-3.7c-1.6,0.1-2.8,2.1-2.7,4.3
		C303.8,135.4,305.3,137,307,136.9z"/>
	<path class="st12" d="M320.9,180.8c5.8,1.8,12.2,0.4,16.6-3.9c11.6-7.5,19.6-19.3,22.3-32.9c7-9.9,6.8-23.1-0.6-32.7
		S339.3,98,327.8,102c-10.5,3.6-13.1,11.9-18.3,27.1c-5.5,12.4-5.5,26.6-0.1,39C310.6,174.1,315,178.9,320.9,180.8z"/>
	<path class="st13" d="M344.4,168.9c2.3-2.2,3.6-3.3,3.6-3.3c-1-8.4,0.1-13.5,3.3-15.3c0.1-3,1.6-5,4.6-6.4c-0.2-1.4,0.9-3,3.2-4.8
		c-3.3,0-6.4,1.8-7.8,4.8c-1.4,0.2-2.6,1-3.5,2.1c-0.8,1.1-1.1,2.6-0.8,4C341.5,154.9,340.3,163,344.4,168.9z"/>
	<path class="st13" d="M321.9,126c4-3.6,9.7-4.8,14.7-2.8c-14.1-18.2-22.3-18-24.2,0.6c-6.2,15.3-6.5,29.5-1.1,42.5
		C328.8,151.7,309.5,137.4,321.9,126z"/>
	<path class="st15" d="M311,109.1c-1.8,4.1-2.8,8.2-3.4,12.5c1.8,2,2.6,4.8,1.8,7.5c5.8-10.7,8.7-16.1,8.7-16.1
		c3.7,5.3,9.5,8.9,15.9,9.9c6.4,1,12.9-0.6,18.1-4.5c-1.1,1-1.9,2-2.6,2.8c-5,7,5.6,8,11.4,3.8c-0.9,2.9-0.3,6,1.5,8.5
		c-0.7,3.6-1.4,7.5-2.8,10.5c1.6-1,3.1-1.5,4.8-1.4c2.8-4.3,5.3-8.5,7.1-13.3c3.8-4.1,5.4-9.6,4.4-15c-1-5.4-4.5-10-9.5-12.4
		c5.1-14-13.9-22.2-10.8-13.7C326.2,70.2,296.7,109.5,311,109.1z"/>
	<path class="st16" d="M311,109.1c-1.8,4.1-2.8,8.2-3.4,12.5c1.8,2,2.6,4.8,1.8,7.5l8.7-16.1c5.3,7.6,14.6,11.4,23.7,9.8
		c-3.8-4.1-6.6-8.9-8.2-14.3l-0.1-0.3c-2.8-8.2-2.4-16.7,0.3-24.3C314,87.7,300.4,109.4,311,109.1z"/>
	<path class="st17" d="M355.4,86.7c5.6,6.5,9,14.9,9,24.1c0,5.8-1.4,11.4-3.8,16.3c-0.1,2.3,0.5,4.6,1.9,6.5
		c-0.7,3.6-1.4,7.5-2.8,10.5c1.6-1,3.1-1.5,4.8-1.4c2.8-4.3,5.3-8.5,7.1-13.3c3.8-4.1,5.4-9.6,4.4-15s-4.5-10-9.5-12.4
		C371.3,88.7,354.9,80.7,355.4,86.7z"/>
	<path class="st14" d="M310.6,128.5c-1.4,4.3-2.4,8.7-2.9,13.3c0.2,3.3,2,6.2,4.8,7.8c2.8,1.6,6.3,1.7,9.2,0.3
		c-3.6-0.3-6.9-2.4-8.5-5.7c-1.6-3.3-1.5-7.1,0.4-10.2C314,133.1,313,131.2,310.6,128.5z"/>
	<path class="st18" d="M327,187c5.4-1.6,9.5-6.1,10.2-11.7c-4.3,3.6-10.2,4.8-15.6,3.1s-9.6-6-11.1-11.4c-2.6,5-1.8,11.1,1.7,15.4
		C315.7,186.7,321.6,188.5,327,187z"/>
	<path class="st18" d="M349.1,136.6c1.8,1.1,3.3,2.6,4.4,4.5c0.3,0.5,0.9,0.6,1.4,0.4c0.5-0.3,0.6-0.9,0.4-1.4
		c-1.3-2.1-3.1-3.9-5.1-5.2c-2.1-1.3-4.4-2.1-6.9-2.3c-0.6-0.1-1.1,0.4-1.1,0.9c-0.1,0.6,0.4,1.1,0.9,1.1
		C345.2,134.8,347.3,135.5,349.1,136.6z"/>
	<path class="st18" d="M318.6,129.6c2.3-0.9,4.6-1.2,7-1c2.3,0.2,4.6,1.1,6.7,2.3c0.5,0.3,1.1,0.1,1.4-0.3c0.3-0.5,0.1-1.1-0.3-1.4
		c-2.3-1.5-4.9-2.4-7.5-2.7c-2.6-0.3-5.4,0.1-8,1.1c-0.5,0.2-0.8,0.8-0.6,1.3C317.4,129.6,318,129.8,318.6,129.6z"/>
	<path d="M324.2,138c0-0.8-0.6-1.4-1.4-1.4s-1.4,0.6-1.4,1.4s0.6,1.4,1.4,1.4S324.2,138.8,324.2,138z"/>
	<path d="M346,145c0-0.7-0.6-1.4-1.4-1.4c-0.7,0-1.4,0.6-1.4,1.4c0,0.8,0.6,1.4,1.4,1.4C345.3,146.3,346,145.7,346,145z"/>
	<path class="st19" d="M337.1,153.9c1.8,1.8,4.5,3.1,7.3,3.1s5.4-1.1,7.3-3.1c1.8-1.8,3.1-4.5,3.1-7.3s-1.1-5.4-3.1-7.3
		c-1.8-1.8-4.5-3.1-7.3-3.1s-5.4,1.1-7.3,3.1c-0.3,0.3-0.5,0.6-0.8,0.9c-0.1-0.1-0.2-0.4-0.4-0.5c-0.4-0.4-0.9-0.8-1.5-1.1
		c-0.6-0.2-1.2-0.3-1.8-0.3c-0.2,0-0.4,0.1-0.6,0.1c-0.2-2.6-1.4-4.8-3.1-6.5c-1.9-1.9-4.5-3.1-7.5-3.1s-5.5,1.2-7.5,3.1
		c-0.1,0.1-0.1,0.1-0.2,0.2l-6-11.1c-0.1-0.3-0.6-0.4-0.9-0.3c-0.3,0.1-0.4,0.6-0.3,0.9l6.3,11.6c-1.3,1.7-2,3.8-2,6.2
		c0,2.9,1.2,5.5,3.1,7.5c1.9,1.9,4.5,3.1,7.5,3.1s5.5-1.2,7.5-3.1c1.8-1.8,3-4.3,3.1-7c0.2-0.1,0.4-0.1,0.6-0.1
		c0.4-0.1,0.8,0,1.2,0.1c0.4,0.1,0.7,0.4,1,0.7c0.2,0.2,0.4,0.5,0.5,0.8c-0.9,1.6-1.4,3.3-1.4,5.3
		C334.2,149.4,335.3,152.1,337.1,153.9z M328.3,146c-1.6,1.6-4,2.7-6.5,2.7s-4.8-1-6.5-2.7c-1.6-1.6-2.7-4-2.7-6.5s1-4.8,2.7-6.5
		c1.6-1.6,4-2.7,6.5-2.7s4.8,1,6.5,2.7c1.6,1.6,2.7,4,2.7,6.5S329.9,144.3,328.3,146z M338.1,140.3c1.6-1.6,3.9-2.6,6.4-2.6
		s4.8,1,6.4,2.6c1.6,1.6,2.6,3.9,2.6,6.4s-1,4.8-2.6,6.4c-1.6,1.6-3.9,2.6-6.4,2.6s-4.8-1-6.4-2.6c-1.6-1.6-2.6-3.9-2.6-6.4
		C335.4,144.1,336.4,141.9,338.1,140.3z"/>
	<path class="st19" d="M351.3,143.5c0-1.2-0.9-2.1-2.1-2.1s-2.1,0.9-2.1,2.1c0,1.2,0.9,2.1,2.1,2.1
		C350.3,145.6,351.3,144.7,351.3,143.5z"/>
	<path class="st19" d="M329.2,136.7c0-1.2-0.9-2.1-2.1-2.1s-2.1,0.9-2.1,2.1c0,1.2,0.9,2.1,2.1,2.1S329.2,137.9,329.2,136.7z"/>
	<path class="st14" d="M325.6,166.4c1.6,0.5,3.2,0.6,4.8,0.4s3.1-0.8,4.5-1.7c0.4-0.3,0.5-0.8,0.3-1.2c-0.3-0.4-0.8-0.5-1.2-0.3
		c-1.1,0.8-2.4,1.2-3.8,1.4c-1.4,0.1-2.7,0.1-4-0.4c-1.3-0.4-2.5-1.1-3.4-2.1c-0.9-0.9-1.7-2.1-2.2-3.4c-0.1-0.4-0.6-0.7-1.1-0.5
		c-0.4,0.1-0.7,0.6-0.5,1.1c0.6,1.6,1.4,2.9,2.6,4.1C322.6,165,324,165.9,325.6,166.4z"/>
	<path class="st13" d="M332.6,158.5c4.5-0.3,6.5-2.4,2.8-5.3c-0.1-1.1-0.4-10.3-2.1-10.6c-2-0.4-5.5,5.9-6.9,7.6
		c-4.5-0.9-5.9,2.2-1.4,6.2C326.8,159.2,329.3,159.8,332.6,158.5z"/>
	<path class="st14" d="M324.6,169.4c0.6,0.2,1.4,0.3,2,0.2c0.6-0.1,1.3-0.3,1.8-0.7c0.1-0.1,0.2-0.4,0.1-0.5
		c-0.1-0.1-0.4-0.2-0.5-0.1c-0.5,0.3-1,0.5-1.6,0.6c-0.6,0.1-1.1,0-1.6-0.1c-0.6-0.2-1-0.5-1.4-0.9s-0.7-0.9-0.9-1.4
		c-0.1-0.2-0.3-0.3-0.4-0.2c-0.2,0.1-0.3,0.3-0.2,0.4c0.2,0.6,0.6,1.2,1.1,1.6C323.4,168.9,324,169.2,324.6,169.4z"/>
	<path class="st19" d="M369.1,157c4.1-4.3,4.9-10.2,1.7-13.4s-9.1-2.3-13.2,1.9c-4.1,4.3-4.9,10.2-1.7,13.4S365.1,161.2,369.1,157z"
		/>
	<path class="st19" d="M365,153.9c2.4-2.5,2.9-6.1,1-8c-1.8-1.8-5.4-1.4-7.8,1.1s-2.9,6.1-1,8C359,156.9,362.5,156.4,365,153.9z"/>
	<path class="st19" d="M362.2,152.3c1.6-1.6,1.8-3.8,0.6-5c-1.2-1.2-3.3-0.9-4.9,0.7c-1.6,1.6-1.8,3.8-0.6,5
		C358.5,154.2,360.7,153.9,362.2,152.3z"/>
	<path class="st12" d="M352.9,168.8c3.1,6.6,4.2,8.9,8.2,11.7c8.5,1.8,17.3-1.4,22.7-8.2c0,0-0.8-7.6-2.3-22.9c0,0,0.4-2.3,1.1-7
		c0.4-3.2-2.7-5-9.2-5.3c-1.8-2.1-3.7-2.8-6.5-1.8c-1.7,0.6-3.1,2-3.7,3.6c-1.7-0.6-3.6-0.3-5,0.7c-1.5,1-2.3,2.6-2.5,4.4
		c-2.8,0.7-4.6,3.3-4.3,6.2C345.2,152.9,346.7,171.3,352.9,168.8z"/>
	<path class="st20" d="M358,160.6c-2,1.7-4.7,2.2-7.2,1.4c-0.5,1.3-0.2,2,0.9,2.2c3.2,7.5,6.9,13,11.2,16.6c5.5,0.7,11-0.6,15.6-3.6
		c-3.4,1.2-7.1,0.4-9.8-1.9c-9.2-8.2,5.5-16.8-4.3-24.3c-0.1,0.9-0.7,1.8-1.5,2.3c-0.8,0.6-1.8,0.7-2.7,0.6
		C360.8,156.3,360,158.9,358,160.6z"/>
	<path class="st21" d="M382.3,140.3c-0.4-0.6-0.9-1.2-1.6-1.6c-0.9-0.5-1.9-0.9-3.2-1.1c-0.7-0.1-1.6-0.3-2.8-0.4
		c0,0-0.6-0.2-1.8-0.6c-1.4-1.3-2.7-1.8-4.2-1.7c13.9,6.4,10.2,15.6,6.8,22.1c-1.9,3.6-3.8,7-2.8,10.9c1.1,3.8,4.2,6.8,8.1,7.5
		c1-0.9,2-1.8,3-3.1c-0.7-6.8-1.4-14.4-2.3-22.9c0.4-2.3,0.8-4.7,1.1-7C382.8,141.8,382.6,141.1,382.3,140.3z"/>
	<path class="st11" d="M377.2,140.5c0.3-0.3,0.3-0.8-0.1-1.1l-3.2-2.8c-0.3-0.3-0.8-0.3-1.1,0.1c-0.3,0.3-0.3,0.8,0.1,1.1l3.2,2.8
		C376.5,140.8,377,140.8,377.2,140.5z"/>
	<path class="st11" d="M367,142c0.3-0.4,0.2-0.8-0.1-1.1l-3.1-2.6c-0.4-0.3-0.8-0.2-1.1,0.1c-0.3,0.4-0.2,0.8,0.1,1.1l3.1,2.6
		C366.3,142.4,366.7,142.4,367,142z"/>
	<path class="st11" d="M358.6,146.1c0.3-0.4,0.2-0.9-0.1-1.1l-2.2-1.6c-0.4-0.3-0.9-0.2-1.1,0.1c-0.2,0.4-0.2,0.9,0.1,1.1l2.2,1.6
		C357.9,146.5,358.4,146.5,358.6,146.1z"/>
	<path class="st11" d="M353.9,151.9c0.3-0.4,0.1-0.9-0.1-1.1l-1.7-1.3c-0.4-0.3-0.9-0.1-1.1,0.1c-0.3,0.4-0.1,0.9,0.1,1.1l1.7,1.3
		C353.1,152.4,353.6,152.3,353.9,151.9z"/>
	<path class="st11" d="M370.5,142.6c0.4,0.4,0.7,0.8,0.9,1.2c0.1,0.4,0.6,0.6,1,0.4c0.4-0.1,0.6-0.6,0.4-1c-0.3-0.7-0.7-1.4-1.3-1.8
		c-0.6-0.5-1.3-0.9-2-1c-0.4-0.1-0.9,0.1-0.9,0.6c-0.1,0.4,0.1,0.9,0.6,0.9C369.6,142,370.1,142.3,370.5,142.6z"/>
	<path class="st11" d="M364.2,147.8c0.3,0.2,0.5,0.6,0.6,0.9c0.1,0.4,0.6,0.6,1,0.4s0.6-0.6,0.4-1c-0.2-0.6-0.6-1.1-1.1-1.5
		c-0.4-0.4-1-0.7-1.6-0.9c-0.4-0.1-0.9,0.1-0.9,0.6s0.1,0.9,0.6,0.9S363.9,147.6,364.2,147.8z"/>
	<path class="st11" d="M356,144.8c0.4-0.1,0.6-0.4,0.6-0.8c0.1-0.8,0.3-1.5,0.6-2.1s0.9-1.2,1.5-1.6c0.6-0.4,1.4-0.7,2.1-0.8
		s1.5-0.1,2.2,0.2c0.4,0.1,0.9-0.1,1.1-0.5c0.1-0.4-0.1-0.9-0.5-1.1c-1-0.3-2-0.4-2.9-0.3c-1,0.1-1.9,0.5-2.8,1.1
		c-0.9,0.6-1.5,1.4-2,2.2c-0.4,0.7-0.6,1.5-0.8,2.3c-1.4,0.5-2.4,1.4-3.2,2.5s-1.2,2.5-1.1,3.9c-0.7,0.4-1.3,1-1.8,1.6
		c-0.6,0.8-1.1,1.6-1.3,2.6c-0.4,1.1-0.6,2.1-0.7,3.1s-0.2,2.1-0.1,3.3c0,1.1,0.1,2.3,0.4,3.4c0.2,1.1,0.6,2.3,1.1,3.3
		c0.2,0.4,0.7,0.6,1.1,0.4c0.4-0.2,0.6-0.7,0.4-1.1c-0.4-0.9-0.8-1.9-1-3c-0.2-1-0.4-2.1-0.4-3.1v-0.1c-0.1-1,0-2,0.1-3
		c0.1-1,0.4-2,0.6-2.9l0,0c0,0,0,0,0-0.1c0.2-0.8,0.6-1.4,1-2.1c0.5-0.6,1.1-1.1,1.7-1.4c0.3-0.1,0.5-0.5,0.4-0.9
		c-0.1-1.2,0.2-2.4,0.9-3.3C353.8,145.8,354.8,145.1,356,144.8z"/>
	<path class="st11" d="M353.1,169.5c0.4-0.1,0.6-0.6,0.4-1l-2.8-6.5c-0.1-0.4-0.6-0.6-1-0.4c-0.4,0.1-0.6,0.6-0.4,1l2.8,6.5
		C352.4,169.4,352.8,169.6,353.1,169.5z"/>
	<path class="st11" d="M358.4,152.9c0.3,0.2,0.4,0.5,0.6,0.8c0.1,0.4,0.6,0.5,0.9,0.4c0.4-0.1,0.5-0.6,0.4-0.9c-0.2-0.5-0.6-1-1-1.4
		s-0.9-0.6-1.4-0.8c-0.4-0.1-0.7,0.1-0.9,0.5c-0.1,0.4,0.1,0.7,0.5,0.9C357.8,152.5,358.1,152.7,358.4,152.9z"/>
	<path class="st6" d="M229.7,222.4c0,0-2.5-5.3-7.5-16c0,0-11.2,14-33.5,42c-5.8,5.5-9.2,12.6-10,21c-2.1,21.4,6,29.7,24.2,14.4
		c2.3-1.9,4.3-4.2,6-6.7c14.8-21.8-5.3-33.3,5.5-47.7C218.1,224.5,223.8,221.9,229.7,222.4z"/>
	<path class="st19" d="M229.6,277.6c0.5,0.2,1.1,0,1.4-0.5c0.9-2,1.4-4.1,1.4-6.3c0-2-0.4-4-1.2-5.9l11.6-31.9l-0.2,24.1
		c0,0.6,0.4,1,1,1c0.6,0,1-0.4,1-1l0.3-29.6l2.4-6.7c0.2-0.5-0.1-1.1-0.6-1.3c-0.5-0.2-1.1,0.1-1.3,0.6l-16.2,44.4l0,0
		c-0.1,0.2-0.1,0.5,0,0.8c0.8,1.7,1.2,3.6,1.2,5.4s-0.4,3.7-1.2,5.4C228.9,276.7,229.1,277.3,229.6,277.6z"/>
	<path class="st2" d="M237,173.8c-0.4-0.3-1.1-0.1-1.4,0.3c-2.7,4.2-3.8,9-3.5,13.7s2.3,9.3,5.5,13c0.4,0.4,1,0.4,1.4,0.1
		s0.4-1,0.1-1.4c-3.1-3.3-4.8-7.5-5-11.9c-0.4-4.3,0.7-8.7,3.1-12.5C237.5,174.7,237.4,174.1,237,173.8z"/>
	<path class="st2" d="M202.2,236.2c-0.4-0.3-1.1-0.2-1.4,0.3c-3.4,5-4.9,10.8-4.7,16.6c0.2,5.8,2.3,11.4,6,16.1
		c0.4,0.4,1,0.5,1.4,0.1c0.4-0.4,0.5-1,0.1-1.4c-3.5-4.4-5.4-9.7-5.6-15c-0.2-5.3,1.2-10.7,4.4-15.4
		C202.8,237.1,202.6,236.5,202.2,236.2z"/>
	<path class="st2" d="M220.6,202.8c-0.4-0.4-1.1-0.3-1.4,0.1l-32.2,41.2c-0.4,0.4-0.3,1.1,0.1,1.4c0.4,0.4,1.1,0.3,1.4-0.1
		l32.2-41.2C221.1,203.7,221,203.1,220.6,202.8z"/>
	<path class="st2" d="M421.1,255.2c0.5-0.2,0.7-0.8,0.5-1.3l-35.5-81.2c-0.2-0.5-0.8-0.7-1.3-0.5c-0.5,0.2-0.7,0.8-0.5,1.3
		l35.5,81.2C420,255.2,420.6,255.5,421.1,255.2z"/>
	<path class="st2" d="M286.9,283.7c-0.6-0.1-1.1,0.4-1.1,0.9c-0.1,0.6,0.4,1.1,0.9,1.1c23.3,2.6,46.9-22.8,70.5-76.2
		c0.7,5.7,1.5,12.2,2.3,19.4c-11.8,41.7-22.5,62.5-32.1,62.4c-0.6,0-1,0.4-1,1c0,0.6,0.4,1,1,1c10.2,0.1,21.2-19.6,32.8-59.3
		c0.6,5.1,1.2,10.6,1.8,16.4c-1.4,8.9-0.9,17.8,1.2,26.4c2.3,9.1,6.3,17.8,11.7,25.7c0.3,0.4,0.9,0.6,1.4,0.3
		c0.4-0.3,0.6-0.9,0.3-1.4c-5.3-7.7-9.2-16.2-11.4-25.1c-2.1-8.4-2.6-17.1-1.1-25.7c0-0.1,0-0.1,0-0.3l0,0
		c-0.9-7.8-1.6-14.9-2.4-21.5c0,0,0,0,0-0.1c-3.9-33.6-6.4-50.4-6.4-50.5c-0.1-0.6-0.6-0.9-1.1-0.9c-0.6,0.1-0.9,0.6-0.9,1.1
		c0,0.1,1.4,9,3.6,26.9C333,260.4,309.8,286.4,286.9,283.7z"/>
	<path class="st2" d="M392.2,277.6c-0.5,0.1-0.8,0.7-0.6,1.3c0.1,0.5,0.7,0.8,1.3,0.6c7.2-2.4,12.9-7.3,16.5-13.5
		c3.6-6.2,4.9-13.6,3.3-21c-0.1-0.6-0.6-0.9-1.1-0.8c-0.6,0.1-0.9,0.6-0.8,1.1c1.5,7,0.2,13.9-3.1,19.7
		C404.3,270.7,398.9,275.3,392.2,277.6z"/>
	<path class="st2" d="M310.9,262.3c-8.2,4-17,2.3-26.2-4.9c-9.5-7.4-19.3-20.6-29.6-39.6c-0.3-0.5-0.9-0.6-1.4-0.4
		c-0.5,0.3-0.6,0.9-0.4,1.4c10.5,19.3,20.5,32.7,30.1,40.2c9.9,7.7,19.3,9.5,28.3,5.1c0.5-0.2,0.7-0.9,0.4-1.4
		C312,262.3,311.4,262.1,310.9,262.3z"/>
	<path class="st2" d="M268.7,185c2.5-0.5,5.1-0.1,7.4,1.4l2.3-3.7c-3.3-2.1-7-2.6-10.6-2c-3.6,0.7-6.8,2.6-9.1,5.8
		c-2.3,3.1-3.1,6.8-2.7,10.4s2.1,7,5.1,9.5c2.9,2.5,6.6,3.6,10.2,3.5c3.6-0.1,7.1-1.6,9.8-4.4l-3.1-3.1c-1.9,1.9-4.3,3-6.9,3.1
		c-2.5,0.1-5.1-0.7-7.2-2.4c-2.1-1.8-3.3-4.1-3.6-6.7c-0.3-2.5,0.3-5.1,1.9-7.3C263.9,186.9,266.2,185.5,268.7,185z"/>
	<path class="st12" d="M267.5,176.7c0,0-4.2,0.1-12.5,0.2c0,0-2.1,1.1-6.5,3.3c-3.3,0.6-6.1,2.5-7.8,5.3c0,0-5,5.1-15.1,15.3
		c-5,4.9-5.3,12.9-0.7,18.1c4.6,5.3,12.6,5.9,18.1,1.6c3.1,0.3,6.1-0.2,8.9-1.4c3.7-1.4,7.3-2.9,11-4.3c2.1-0.7,3.3-2.8,2.8-5
		c1.6-0.6,2.8-2.1,3.3-3.8c0.5-1.7,0.1-3.6-0.9-4.9c1.6-0.9,2.6-2.7,2.4-4.5s-1.4-3.5-3.1-4.1c1.6-0.5,2.7-1.9,2.8-3.6
		c0.1-1.6-0.6-3.3-2.1-4.1c0,0-1-0.4-3-1.1C267.8,182.3,268.7,179.2,267.5,176.7z"/>
	<path class="st11" d="M244.1,186.1c0.8-1,1.8-1.7,2.9-2.3c1.1-0.5,2.3-0.8,3.6-0.8l0,0l14.7,1.2c0.4,0,0.7-0.2,0.7-0.6
		s-0.2-0.7-0.6-0.7l-14.7-1.2h-0.1c-1.4,0-2.8,0.3-4.1,0.9c-1.3,0.6-2.4,1.5-3.3,2.6c-0.2,0.3-0.2,0.7,0.1,0.9
		C243.5,186.5,243.9,186.4,244.1,186.1z"/>
	<path class="st2" d="M307.3,215.4c1.6,0,2.8-1.3,2.8-2.8v-31c0-1.6-1.3-2.8-2.8-2.8h-28.7c-1.6,0-2.8,1.3-2.8,2.8v31
		c0,1.6,1.3,2.8,2.8,2.8H307.3z"/>
	<path class="st11" d="M233.6,208.7c3.3-1.9,7.5-3.6,9.5-9.3c1.4-4.1,0.9-8.7-1.4-12.3c-10,10-14.9,14.9-14.9,14.9
		c-3,2.5-4.8,6.2-4.9,10.1c0.9,6.3,6.2,11.1,12.5,11.4C227.9,220.8,227.2,212.5,233.6,208.7z"/>
	<path class="st11" d="M242.8,194.7c-0.3-0.2-0.7-0.1-0.9,0.2c-0.4,0.8-0.6,1.7-0.6,2.6s0.4,1.7,1,2.4c0.2,0.3,0.6,0.4,0.9,0.1
		c0.3-0.2,0.4-0.6,0.1-0.9c-0.4-0.5-0.6-1.1-0.6-1.7c-0.1-0.6,0.1-1.2,0.4-1.8C243.2,195.3,243.1,194.9,242.8,194.7z"/>
	<path class="st11" d="M243.1,203.3c-0.4-0.1-0.7,0.1-0.8,0.4c-0.2,0.8-0.2,1.6,0,2.3c0.2,0.7,0.6,1.4,1.3,1.9
		c0.3,0.2,0.7,0.2,0.9-0.1c0.2-0.3,0.2-0.7-0.1-0.9c-0.4-0.4-0.7-0.9-0.9-1.4c-0.1-0.5-0.1-1.1,0-1.6
		C243.6,203.7,243.4,203.3,243.1,203.3z"/>
	<path class="st22" d="M270.7,196.8c-0.1-1.6-0.9-3-2.1-3.8c0,0-0.1,0.1-0.1,0.2c-4.3,0.7-5,8.5-9.3,12c-6.3,5.1-14.1-0.8-19.3,6.5
		c-2.3,3.2-2.4,7.5-0.3,10.9c1-0.4,1.9-0.9,2.8-1.5c0.9-0.4,1.4-0.5,1.4-0.5c1.6,0.1,3.1-0.1,4.3-0.3c1.5-0.3,2.9-0.7,4.3-1.3
		c4.2-1.6,7.8-3.1,10.8-4.3c1.8-0.7,2.9-2.4,2.8-4.3c0,0,0.1-0.3,0.5-0.9c1.4-0.7,2.3-2,2.8-3.5c0.4-1.5,0.2-3.1-0.6-4.4
		c0,0,0.1-0.3,0.2-0.9C270,199.8,270.7,198.3,270.7,196.8z"/>
	<path class="st11" d="M248,192c0.9-0.7,1.8-1.1,2.9-1.2s2.1,0.1,3.1,0.6l0,0c0.1,0.1,0.1,0.1,0.2,0.1l13.7,1.8
		c0.4,0.1,0.7-0.2,0.7-0.6c0.1-0.4-0.2-0.7-0.6-0.7l-13.5-1.8c-1.2-0.6-2.5-0.9-3.8-0.7c-1.3,0.1-2.6,0.6-3.6,1.5
		c-0.3,0.2-0.3,0.6-0.1,0.9C247.3,192.2,247.7,192.2,248,192z"/>
	<path class="st11" d="M250.8,208c-1-0.1-2-0.3-3-0.6c-0.4-0.1-0.7,0.1-0.9,0.4c-0.1,0.4,0.1,0.7,0.4,0.9c1.1,0.4,2.2,0.6,3.3,0.6
		c1.1,0.1,2.2,0,3.3-0.1l11.7,1.4c0.4,0.1,0.7-0.2,0.7-0.6c0.1-0.4-0.2-0.7-0.6-0.7l-11.8-1.4c-0.1,0-0.1,0-0.2,0l0,0
		C252.9,208,251.8,208,250.8,208z"/>
	<path class="st11" d="M239.2,220.4c1.2,0.4,2.5,0.6,3.8,0.8c0.4,0.1,0.7-0.2,0.7-0.6c0.1-0.4-0.2-0.7-0.6-0.7
		c-1.2-0.1-2.4-0.4-3.6-0.7s-2.3-0.8-3.3-1.4c-0.4-0.1-0.7-0.1-0.9,0.3c-0.1,0.4-0.1,0.7,0.3,0.9C236.8,219.5,238,220,239.2,220.4z"
		/>
	<path class="st11" d="M251.3,199.9c1.1,0.1,2.1,0.4,3.1,0.6c0.1,0,0.1,0,0.1,0.1l13.6,1.2c0.4,0,0.7-0.2,0.7-0.6s-0.2-0.7-0.6-0.7
		l-13.5-1.2c-1.1-0.4-2.2-0.6-3.3-0.7s-2.3-0.1-3.5,0.1c-0.4,0.1-0.6,0.4-0.6,0.7s0.4,0.6,0.7,0.6
		C249.1,199.7,250.2,199.7,251.3,199.9z"/>
	<path class="st5" d="M344,331.2L344,331.2L344,331.2c0,0.4,0.6,0.9,1.8,1.7c19.7,14.9,29.5,22.3,29.5,22.3s7.5-8.2,22.5-24.5h-49.6
		c0.4-1.1-1-2.1-4.3-2.8C344,329.8,344,330.9,344,331.2C344,331.2,344,331.2,344,331.2z"/>
	<path class="st6" d="M375.3,352.1c0,0,7.5-8.2,22.5-24.5c-34.5,0-51.8,0-51.8,0c-2.7,0-2.7,0.4-0.3,2.1
		C365.4,344.6,375.3,352.1,375.3,352.1z"/>
	<path class="st5" d="M528.2,355.5c1.4,0,2.6-1.1,2.8-2.5l15.9-95.8c0.2-1.4-0.7-2.5-2.1-2.5H391.3c-1.4,0-2.6,1.1-2.8,2.5
		L372.5,353c-0.2,1.4,0.7,2.5,2.1,2.5H528.2z"/>
	<path class="st6" d="M529.5,355.5c0.9,0,1.8-0.7,1.9-1.6l16-94.3c0.1-0.9-0.4-1.6-1.4-1.6H394.2c-0.9,0-1.8,0.7-1.9,1.6l-16,94.3
		c-0.1,0.9,0.4,1.6,1.4,1.6H529.5L529.5,355.5z"/>
	<path d="M568.1,326.8c0.1,0,0.2-0.1,0.2-0.2v-58.4c0-0.1-0.1-0.2-0.2-0.2h-2.3c-0.1,0-0.2,0.1-0.2,0.2v58.4c0,0.1,0.1,0.2,0.2,0.2
		H568.1z"/>
	<path class="st19" d="M568.2,268.3c0.1-0.1,0.1-0.2,0.1-0.4c-0.2-0.7-0.4-1.4-0.6-2.1c-0.2-0.7-0.4-1.4-0.6-2.1
		c-0.1-0.1-0.1-0.2-0.1-0.2s0,0.1-0.1,0.2c-0.2,0.7-0.4,1.4-0.6,2.1c-0.2,0.7-0.4,1.4-0.6,2.1c-0.1,0.1,0,0.3,0.1,0.4
		c0.4,0.2,0.7,0.7,1.3,0.7S567.8,268.5,568.2,268.3z"/>
	<path d="M567.6,320.9c0.1,0,0.2-0.1,0.3-0.2l9.5-57.6c0-0.1-0.1-0.2-0.2-0.3l-2.3-0.4c-0.1,0-0.2,0.1-0.3,0.2l-9.5,57.6
		c0,0.1,0.1,0.2,0.2,0.3L567.6,320.9z"/>
	<path class="st19" d="M576,263.8c0.5,0.1,0.9-0.4,1.4-0.5c0.1-0.1,0.2-0.2,0.2-0.3c-0.1-0.7-0.2-1.5-0.3-2.2s-0.2-1.5-0.3-2.2
		c0-0.1,0-0.2,0-0.2s-0.1,0.1-0.1,0.2c-0.4,0.6-0.6,1.4-1,2c-0.4,0.6-0.6,1.4-1,2c-0.1,0.1,0,0.3,0.1,0.4
		C575.2,263.2,575.5,263.7,576,263.8z"/>
	<path d="M568.1,332.3l2.3-0.6c0.1,0,0.2-0.1,0.1-0.3L557,274.6c0-0.1-0.1-0.2-0.3-0.1l-2.3,0.6c-0.1,0-0.2,0.1-0.1,0.3l13.5,56.8
		C567.8,332.3,568,332.4,568.1,332.3z"/>
	<path class="st19" d="M555.9,275.9c0.5-0.1,0.7-0.6,1.1-0.9c0.1-0.1,0.1-0.2,0.1-0.4c-0.4-0.6-0.8-1.3-1.1-1.9s-0.8-1.3-1.1-1.9
		c-0.1-0.1-0.1-0.2-0.1-0.2s0,0.1,0,0.2c-0.1,0.7-0.1,1.5-0.1,2.2s-0.1,1.5-0.1,2.2c0,0.1,0.1,0.3,0.2,0.3
		C554.9,275.6,555.4,276.1,555.9,275.9z"/>
	<path d="M570.7,329.5c0.1,0.1,0.2,0,0.3-0.1l18.1-55.5c0.1-0.1,0-0.2-0.1-0.3l-2.2-0.7c-0.1-0.1-0.2,0-0.3,0.1l-18.1,55.5
		c-0.1,0.1,0,0.2,0.1,0.3L570.7,329.5z"/>
	<path class="st19" d="M587.5,274.3c0.5,0.1,1-0.2,1.4-0.3c0.1,0,0.2-0.1,0.2-0.3c0-0.7,0-1.5,0-2.2s0-1.5,0-2.2c0-0.1,0-0.2,0-0.2
		s-0.1,0.1-0.1,0.2c-0.4,0.6-0.9,1.2-1.3,1.8s-0.9,1.2-1.3,1.8c-0.1,0.1-0.1,0.3,0,0.4C586.8,273.6,587,274.1,587.5,274.3z"/>
	<path d="M570.5,332.7c0.1,0,0.2-0.1,0.3-0.2l9.5-57.6c0-0.1-0.1-0.2-0.2-0.3l-2.3-0.4c-0.1,0-0.2,0.1-0.3,0.2L568,332
		c0,0.1,0.1,0.2,0.2,0.3L570.5,332.7z"/>
	<path class="st19" d="M578.8,275.5c0.5,0.1,0.9-0.4,1.4-0.5c0.1-0.1,0.2-0.2,0.2-0.3c-0.1-0.7-0.2-1.5-0.3-2.2s-0.2-1.5-0.3-2.2
		c0-0.1,0-0.2,0-0.2s-0.1,0.1-0.1,0.2c-0.4,0.6-0.6,1.4-1,2s-0.6,1.4-1,2c-0.1,0.1,0,0.3,0.1,0.4C578,274.9,578.3,275.4,578.8,275.5
		z"/>
	<path class="st6" d="M584.4,355.8c1.4,0,2.6-1.1,2.6-2.6v-44c0-1.4-1.1-2.6-2.6-2.6h-27.6c-1.4,0-2.6,1.1-2.6,2.6v44
		c0,1.4,1.1,2.6,2.6,2.6H584.4z"/>
	<ellipse class="st23" cx="62.7" cy="80.5" rx="40.1" ry="40.1"/>
	<ellipse class="st6" cx="62.7" cy="80.5" rx="32.9" ry="32.9"/>
	<path class="st19" d="M65.8,80.5c0-1.7-1.4-3.1-3.1-3.1s-3.1,1.4-3.1,3.1c0,1.7,1.4,3.1,3.1,3.1C64.4,83.5,65.8,82.1,65.8,80.5z"/>
	<path class="st19" d="M62.8,75.8c0.4,0,0.6-0.3,0.6-0.6v-22c0-0.4-0.3-0.6-0.6-0.6l0,0c-0.4,0-0.6,0.3-0.6,0.6v22
		C62.2,75.5,62.5,75.8,62.8,75.8L62.8,75.8z"/>
	<path class="st19" d="M57.7,78.2c0.3,0.1,0.7,0.1,0.9-0.2l0,0c0.1-0.3,0.1-0.7-0.2-0.9l-10.7-6.3c-0.3-0.1-0.7-0.1-0.9,0.2l0,0
		c-0.1,0.3-0.1,0.7,0.2,0.9L57.7,78.2z"/>
	<path class="st1" d="M62.4,199.6c-14.2,19.2-14.8,45.3-1.6,65.1C73,244.9,73.6,220,62.4,199.6z"/>
	<path class="st24" d="M78.9,228.2c-17.1,15.8-24.5,39.5-19.3,62.3C78.6,275.9,86.2,251,78.9,228.2z"/>
	<path class="st24" d="M40.2,228.2c-7.3,22.8,0.4,47.6,19.3,62.3C64.7,267.8,57.3,244,40.2,228.2z"/>
	<path class="st0" d="M58.9,293.4c21.3-9.3,36-29.4,38.5-52.6C74.8,248.5,59.4,269.5,58.9,293.4z"/>
	<path class="st0" d="M22.9,240.9c2.4,23.2,17.1,43.2,38.5,52.6C60.9,269.5,45.6,248.5,22.9,240.9z"/>
	<path class="st25" d="M29.4,347.4c0.4,3.5,2.9,6.3,5.8,6.3c8.2,0,16.4,0,24.7,0s16.4,0,24.7,0c2.8,0,5.5-2.8,5.8-6.3
		c0.9-9.3,1.7-18.6,2.6-27.9c0.9-9.3,1.7-18.6,2.6-27.9c0.4-3.5-2.3-6.3-5.8-6.3c-10,0-19.9,0-29.9,0c-10,0-19.9,0-29.9,0
		c-3.5,0-6,2.8-5.8,6.3c0.9,9.3,1.7,18.6,2.6,27.9C27.7,328.8,28.5,338.1,29.4,347.4z"/>
	<path class="st6" d="M234.5,334.8c0,0-27.7-4.1-83.1-12.2c0,0-13.7,4.2-41.2,12.5c21.4,11,53.1,15.9,95.2,14.4
		C205.3,349.5,215,344.6,234.5,334.8z"/>
	<path class="st19" d="M193.2,361.5l41.2-12.5c0.9-0.3,1.5-1.2,1.5-2.1v-10.9c0-0.9-0.7-1.4-1.5-1.2l-41.2,12.5
		c-0.9,0.3-1.5,1.2-1.5,2.1v10.9C191.7,361.2,192.4,361.7,193.2,361.5z"/>
	<path class="st6" d="M190.7,361.7c0.9,0.1,1.6-0.5,1.6-1.4v-10.9c0-0.9-0.7-1.8-1.6-1.9l-80.6-12.3c-0.9-0.1-1.6,0.5-1.6,1.4v10.9
		c0,0.9,0.7,1.8,1.6,1.9L190.7,361.7z"/>
	<path class="st26" d="M234.5,337.4c0.1,0,0.1-0.1,0.1-0.3c0-0.1-0.1-0.1-0.3-0.1l-40.7,12.2c-0.1,0-0.1,0.1-0.1,0.3
		c0,0.1,0.1,0.1,0.3,0.1L234.5,337.4z"/>
	<path class="st26" d="M234.5,339.8c0.1,0,0.1-0.1,0.1-0.3c0-0.1-0.1-0.1-0.3-0.1l-40.8,12.2c-0.1,0-0.1,0.1-0.1,0.3
		c0,0.1,0.1,0.1,0.3,0.1L234.5,339.8z"/>
	<path class="st26" d="M234.5,342.3c0.1,0,0.1-0.1,0.1-0.3c0-0.1-0.1-0.1-0.3-0.1L193.6,354c-0.1,0-0.1,0.1-0.1,0.3
		c0,0.1,0.1,0.1,0.3,0.1L234.5,342.3z"/>
	<path class="st26" d="M234.5,344.7c0.1,0,0.1-0.1,0.1-0.3c0-0.1-0.1-0.1-0.3-0.1l-40.8,12.2c-0.1,0-0.1,0.1-0.1,0.3
		c0,0.1,0.1,0.1,0.3,0.1L234.5,344.7z"/>
	<path class="st26" d="M234.6,347.1c0.1,0,0.1-0.1,0.1-0.3c0-0.1-0.1-0.1-0.3-0.1l-40.8,12.2c-0.1,0-0.1,0.1-0.1,0.3
		c0,0.1,0.1,0.1,0.3,0.1L234.6,347.1z"/>
	<path class="st6" d="M224.4,316.9c0,0-27.7-4.1-83.1-12.2c0,0-13.7,4.2-41.2,12.5c21.4,11,53.1,15.9,95.2,14.4
		C195.2,331.7,205,326.8,224.4,316.9z"/>
	<path class="st19" d="M183.1,343.7l41.2-12.5c0.9-0.3,1.5-1.2,1.5-2.1v-10.9c0-0.9-0.7-1.4-1.5-1.2l-41.2,12.5
		c-0.9,0.3-1.5,1.2-1.5,2.1v10.9C181.7,343.4,182.4,343.9,183.1,343.7z"/>
	<path class="st6" d="M180.7,343.9c0.9,0.1,1.6-0.5,1.6-1.4v-10.9c0-0.9-0.7-1.8-1.6-1.9l-80.6-12.3c-0.9-0.1-1.6,0.5-1.6,1.4v10.9
		c0,0.9,0.7,1.8,1.6,1.9L180.7,343.9z"/>
	<path class="st26" d="M224.5,319.9c0.1,0,0.1-0.1,0.1-0.3c0-0.1-0.1-0.1-0.3-0.1l-40.8,12.2c-0.1,0-0.1,0.1-0.1,0.3
		c0,0.1,0.1,0.1,0.3,0.1L224.5,319.9z"/>
	<path class="st26" d="M224.5,322.4c0.1,0,0.1-0.1,0.1-0.3c0-0.1-0.1-0.1-0.3-0.1l-40.8,12.2c-0.1,0-0.1,0.1-0.1,0.3
		c0,0.1,0.1,0.1,0.3,0.1L224.5,322.4z"/>
	<path class="st26" d="M224.5,324.8c0.1,0,0.1-0.1,0.1-0.3c0-0.1-0.1-0.1-0.3-0.1l-40.8,12.2c-0.1,0-0.1,0.1-0.1,0.3
		c0,0.1,0.1,0.1,0.3,0.1L224.5,324.8z"/>
	<path class="st26" d="M224.5,327.2c0.1,0,0.1-0.1,0.1-0.3c0-0.1-0.1-0.1-0.3-0.1l-40.8,12.2c-0.1,0-0.1,0.1-0.1,0.3
		c0,0.1,0.1,0.1,0.3,0.1L224.5,327.2z"/>
	<path class="st26" d="M224.5,329.7c0.1,0,0.1-0.1,0.1-0.3c0-0.1-0.1-0.1-0.3-0.1l-40.8,12.2c-0.1,0-0.1,0.1-0.1,0.3
		c0,0.1,0.1,0.1,0.3,0.1L224.5,329.7z"/>
	<path class="st6" d="M255.7,296.5c0,0-27.7-4.1-83.1-12.2c0,0-13.7,4.2-41.2,12.5c21.4,11,53.1,15.9,95.2,14.4
		C226.5,311.2,236.3,306.3,255.7,296.5z"/>
	<path class="st19" d="M214.4,323.2l41.2-12.5c0.9-0.3,1.5-1.2,1.5-2.1v-10.9c0-0.9-0.7-1.4-1.5-1.2l-41.2,12.5
		c-0.9,0.3-1.5,1.2-1.5,2.1V322C212.9,322.9,213.6,323.5,214.4,323.2z"/>
	<path class="st6" d="M211.9,323.4c0.9,0.1,1.6-0.5,1.6-1.4V311c0-0.9-0.7-1.8-1.6-1.9l-80.6-12.3c-0.9-0.1-1.6,0.5-1.6,1.4v10.9
		c0,0.9,0.7,1.8,1.6,1.9L211.9,323.4z"/>
	<path class="st26" d="M255.8,299.2c0.1,0,0.1-0.1,0.1-0.3s-0.1-0.1-0.3-0.1l-40.8,12.2c-0.1,0-0.1,0.1-0.1,0.3
		c0,0.1,0.1,0.1,0.3,0.1L255.8,299.2z"/>
	<path class="st26" d="M255.8,301.6c0.1,0,0.1-0.1,0.1-0.3c0-0.1-0.1-0.1-0.3-0.1l-40.8,12.2c-0.1,0-0.1,0.1-0.1,0.3
		c0,0.1,0.1,0.1,0.3,0.1L255.8,301.6z"/>
	<path class="st26" d="M255.8,304c0.1,0,0.1-0.1,0.1-0.3c0-0.1-0.1-0.1-0.3-0.1l-40.7,12.2c-0.1,0-0.1,0.1-0.1,0.3
		c0,0.1,0.1,0.1,0.3,0.1L255.8,304z"/>
	<path class="st26" d="M255.8,306.4c0.1,0,0.1-0.1,0.1-0.3s-0.1-0.1-0.3-0.1l-40.8,12.2c-0.1,0-0.1,0.1-0.1,0.3
		c0,0.1,0.1,0.1,0.3,0.1L255.8,306.4z"/>
	<path class="st26" d="M255.8,308.9c0.1,0,0.1-0.1,0.1-0.3s-0.1-0.1-0.3-0.1l-40.8,12.2c-0.1,0-0.1,0.1-0.1,0.3
		c0,0.1,0.1,0.1,0.3,0.1L255.8,308.9z"/>
	<path class="st3" d="M259.9,318.9l56.3-3c0.1,0,0.2-0.1,0.2-0.2l-0.1-2.3c0-0.1-0.1-0.2-0.2-0.2l-56.3,3c-0.1,0-0.2,0.1-0.2,0.2
		l0.1,2.3C259.6,318.9,259.7,318.9,259.9,318.9z"/>
	<path class="st27" d="M316.3,316c0.6-0.2,1.4-0.5,2-0.7c0.6-0.2,1.4-0.5,2-0.7c0.1-0.1,0.2-0.1,0.2-0.1s-0.1,0-0.2-0.1
		c-0.7-0.1-1.4-0.4-2.1-0.5c-0.7-0.1-1.4-0.4-2.1-0.5c-0.1,0-0.3,0-0.4,0.1c-0.2,0.4-0.6,0.8-0.6,1.3c0,0.5,0.5,0.9,0.7,1.2
		C316,316,316.2,316,316.3,316z"/>
	<path class="st3" d="M335.8,333.5c-17.4,0.4-34.8-2.8-50.8-9.5c-13.2,9.2-29.2,13.5-45.3,12.3c17.7,12.3,37.8,20.8,58.9,25
		C313.7,356.4,326.8,346.7,335.8,333.5z"/>
	<path class="st2" d="M339.6,330.5c-16.1,0.4-32.1-2.6-47-8.7c-12.2,8.5-27,12.4-41.9,11.3c16.4,11.4,34.9,19.2,54.5,23
		C319.2,351.7,331.3,342.7,339.6,330.5z"/>
	
		<rect x="147.9" y="65.6" transform="matrix(0.1086 -0.9941 0.9941 0.1086 60.4815 249.0345)" class="st3" width="42.3" height="50.5"/>
	
		<rect x="164.5" y="50.2" transform="matrix(0.1086 -0.9941 0.9941 0.1086 77.2825 236.9858)" class="st4" width="12.7" height="50.5"/>
	<rect x="148.6" y="60.9" class="st28" width="5.6" height="8.5"/>
	<path class="st3" d="M213.8,74.2l-0.3-2.8l-5.5,0.6l4.4,43.6l77.1-7.7l-4.4-43.6l-6,0.6l0.3,3c0.5,0.3,0.9,0.9,0.9,1.5
		c0.1,1.1-0.7,2.1-1.8,2.2c-1.1,0.1-2.1-0.7-2.2-1.8c-0.1-0.7,0.2-1.4,0.8-1.8l-0.3-2.8l-4.1,0.4l0.3,3c0.5,0.3,0.9,0.9,0.9,1.5
		c0.1,1.1-0.7,2.1-1.8,2.2c-1.1,0.1-2.1-0.7-2.2-1.8c-0.1-0.7,0.2-1.4,0.8-1.8l-0.3-2.8l-4.1,0.4l0.3,3c0.5,0.3,0.9,0.9,0.9,1.5
		c0.1,1.1-0.7,2.1-1.8,2.2c-1.1,0.1-2.1-0.7-2.2-1.8c-0.1-0.7,0.2-1.4,0.8-1.8l-0.3-2.8l-4.1,0.4l0.3,3c0.5,0.3,0.9,0.9,0.9,1.5
		c0.1,1.1-0.7,2.1-1.8,2.2c-1.1,0.1-2.1-0.7-2.2-1.8c-0.1-0.7,0.2-1.4,0.8-1.8l-0.3-2.8l-4.1,0.4l0.3,3c0.5,0.3,0.9,0.9,0.9,1.5
		c0.1,1.1-0.7,2.1-1.8,2.2c-1.1,0.1-2.1-0.7-2.2-1.8c-0.1-0.7,0.2-1.4,0.8-1.8l-0.3-2.8l-4.1,0.4l0.3,3c0.5,0.3,0.9,0.9,0.9,1.5
		c0.1,1.1-0.7,2.1-1.8,2.2c-1.1,0.1-2.1-0.7-2.2-1.8c-0.1-0.7,0.2-1.4,0.8-1.8l-0.3-2.8l-4.1,0.4l0.3,3c0.5,0.3,0.9,0.9,0.9,1.5
		c0.1,1.1-0.7,2.1-1.8,2.2c-1.1,0.1-2.1-0.7-2.2-1.8c-0.1-0.7,0.2-1.4,0.8-1.8l-0.3-2.8l-4,0.4l0.3,3c0.5,0.3,0.9,0.9,0.9,1.5
		c0.1,1.1-0.7,2.1-1.8,2.2c-1.1,0.1-2.1-0.7-2.2-1.8c-0.1-0.7,0.2-1.4,0.8-1.8l-0.3-2.8l-4.1,0.4l0.3,3c0.5,0.3,0.9,0.9,0.9,1.5
		c0.1,1.1-0.7,2.1-1.8,2.2c-1.1,0.1-2.1-0.7-2.2-1.8c-0.1-0.7,0.2-1.4,0.8-1.8l-0.3-2.8l-4.1,0.4l0.3,3c0.5,0.3,0.9,0.9,0.9,1.5
		c0.1,1.1-0.7,2.1-1.8,2.2c-1.1,0.1-2.1-0.7-2.2-1.8c-0.1-0.7,0.2-1.4,0.8-1.8l-0.3-2.8l-4.1,0.4l0.3,3c0.5,0.3,0.9,0.9,0.9,1.5
		c0.1,1.1-0.7,2.1-1.8,2.2c-1.1,0.1-2.1-0.7-2.2-1.8C212.9,75.4,213.3,74.6,213.8,74.2z"/>
	
		<rect x="202.9" y="68.8" transform="matrix(0.4049 -0.9144 0.9144 0.4049 57.7542 232.7295)" class="st28" width="9.6" height="6.3"/>
	
		<rect x="285.2" y="105" transform="matrix(0.4049 -0.9144 0.9144 0.4049 73.7189 329.529)" class="st28" width="9.6" height="6.3"/>
	
		<rect x="221.6" y="122.7" transform="matrix(0.4049 -0.9144 0.9144 0.4049 19.6805 281.9149)" class="st28" width="9.6" height="6.3"/>
	
		<rect x="135.5" y="122.5" transform="matrix(0.8141 -0.5807 0.5807 0.8141 -48.172 104.2097)" class="st28" width="6.3" height="9.6"/>
	<path d="M173.5,101.5L173.5,101.5c-0.1,0.1-0.1,0.1-0.1,0.3l0,0C173.5,101.7,173.5,101.6,173.5,101.5L173.5,101.5z"/>
	<path d="M180.3,170.3c0-0.1,0-0.1,0-0.1c0,0.1,0,0.2,0,0.4C180.2,170.5,180.3,170.4,180.3,170.3z"/>
	<path class="st6" d="M544.1,261.3c0.1-0.9-0.4-1.6-1.3-1.6h-146c-0.9,0-1.7,0.7-1.8,1.6L379.6,352c0,0.1,0,0.1,0,0.1L544.1,261.3
		L544.1,261.3z"/>
	<path class="st2" d="M465.3,316.7c5.8,0,10.7-4.7,10.8-10.5c0.1-5.8-4.4-10.5-10.2-10.5c-5.8,0-10.7,4.7-10.8,10.5
		C454.8,312,459.4,316.7,465.3,316.7z"/>
	<path class="st3" d="M30.9,118.5c0-1.2-1-2.2-2.2-2.2c-1.2,0-2.2,1-2.2,2.2s1,2.2,2.2,2.2C29.9,120.7,30.9,119.8,30.9,118.5z"/>
	<path class="st3" d="M40.4,125.7c0-0.8-0.6-1.4-1.4-1.4s-1.4,0.6-1.4,1.4s0.6,1.4,1.4,1.4S40.4,126.5,40.4,125.7z"/>
	<path class="st6" d="M101.7,144.8c0-1.2-1-2.2-2.2-2.2s-2.2,1-2.2,2.2c0,1.2,1,2.2,2.2,2.2S101.7,146,101.7,144.8z"/>
	<path class="st6" d="M72.3,249.5c0-1.2-1-2.2-2.2-2.2c-1.2,0-2.2,1-2.2,2.2c0,1.2,1,2.2,2.2,2.2C71.3,251.7,72.3,250.7,72.3,249.5z
		"/>
	<path class="st3" d="M109.7,252.2c0-1.1-0.9-1.9-1.9-1.9s-1.9,0.9-1.9,1.9s0.9,1.9,1.9,1.9S109.7,253.3,109.7,252.2z"/>
	<path class="st3" d="M121.2,240.7c0-0.6-0.5-1.1-1.1-1.1c-0.6,0-1.1,0.5-1.1,1.1c0,0.6,0.5,1.1,1.1,1.1
		C120.7,241.8,121.2,241.4,121.2,240.7z"/>
	<path class="st29" d="M90.3,347.4c0.9-9.3,1.7-18.6,2.6-27.9c0.9-9.3,1.7-18.6,2.6-27.9c0.4-3.5-2.3-6.3-5.8-6.3H70.2v68.6h14.2
		C87.4,353.7,90,350.9,90.3,347.4z"/>
	<path class="st3" d="M30.6,188.8c0-1.2-1-2.2-2.2-2.2s-2.2,1-2.2,2.2c0,1.2,1,2.2,2.2,2.2S30.6,190,30.6,188.8z"/>
	<path class="st6" d="M165.3,261.5c0-1.2-1-2.2-2.2-2.2c-1.2,0-2.2,1-2.2,2.2s1,2.2,2.2,2.2C164.3,263.7,165.3,262.7,165.3,261.5z"
		/>
	<path class="st3" d="M186.5,234.5c0-0.6-0.4-1-1-1c-0.6,0-1,0.4-1,1c0,0.6,0.4,1,1,1C186,235.5,186.5,235.1,186.5,234.5z"/>
	<path class="st6" d="M70.2,319.4c0-1.2-1-2.2-2.2-2.2c-1.2,0-2.2,1-2.2,2.2c0,1.2,1,2.2,2.2,2.2C69.2,321.6,70.2,320.6,70.2,319.4z
		"/>
	<path class="st2" d="M408.1,294.1c0-0.6-0.5-1.1-1.1-1.1s-1.1,0.5-1.1,1.1c0,0.6,0.5,1.1,1.1,1.1S408.1,294.7,408.1,294.1z"/>
	<path class="st3" d="M455.7,230.6c0-0.6-0.5-1.1-1.1-1.1c-0.6,0-1.1,0.5-1.1,1.1c0,0.6,0.5,1.1,1.1,1.1S455.7,231.2,455.7,230.6z"
		/>
	<path class="st3" d="M549.1,176.7c0-1.2-1-2.2-2.2-2.2s-2.2,1-2.2,2.2c0,1.2,1,2.2,2.2,2.2S549.1,177.9,549.1,176.7z"/>
	<path class="st2" d="M523.7,292.6c0-1.2-1-2.2-2.2-2.2c-1.2,0-2.2,1-2.2,2.2c0,1.2,1,2.2,2.2,2.2S523.7,293.8,523.7,292.6z"/>
	<path class="st3" d="M422.5,153.1c0-0.9-0.7-1.6-1.6-1.6s-1.6,0.7-1.6,1.6c0,0.9,0.7,1.6,1.6,1.6S422.5,153.9,422.5,153.1z"/>
	<path class="st2" d="M418.5,330.5c0-0.6-0.5-1.1-1.1-1.1s-1.1,0.5-1.1,1.1c0,0.6,0.5,1.1,1.1,1.1S418.5,331.2,418.5,330.5z"/>
	<path class="st2" d="M438,311c0-0.9-0.6-1.5-1.5-1.5s-1.5,0.6-1.5,1.5s0.6,1.5,1.5,1.5C437.2,312.5,438,311.8,438,311z"/>
	<path class="st3" d="M606.3,180.8c0-0.9-0.6-1.5-1.5-1.5c-0.9,0-1.5,0.6-1.5,1.5c0,0.9,0.6,1.5,1.5,1.5
		C605.7,182.3,606.3,181.6,606.3,180.8z"/>
	<path d="M568,332.9c0-0.5-0.4-0.9-0.9-0.9c-0.5,0-0.9,0.4-0.9,0.9s0.4,0.9,0.9,0.9C567.6,333.7,568,333.3,568,332.9z"/>
	<path class="st3" d="M405,119.2c0-0.5-0.4-0.9-0.9-0.9s-0.9,0.4-0.9,0.9s0.4,0.9,0.9,0.9C404.6,120.1,405,119.7,405,119.2z"/>
	<path class="st6" d="M396.5,82.8c0-0.6-0.5-1.1-1.1-1.1s-1.1,0.5-1.1,1.1s0.5,1.1,1.1,1.1S396.5,83.5,396.5,82.8z"/>
	<path class="st6" d="M253.7,36.7c0-0.6-0.5-1.1-1.1-1.1c-0.6,0-1.1,0.5-1.1,1.1c0,0.6,0.5,1.1,1.1,1.1
		C253.2,37.8,253.7,37.3,253.7,36.7z"/>
	<path class="st6" d="M45.4,325.8c0-0.4-0.3-0.6-0.6-0.6c-0.4,0-0.6,0.3-0.6,0.6c0,0.4,0.3,0.6,0.6,0.6
		C45.1,326.3,45.4,326,45.4,325.8z"/>
	<path class="st3" d="M459.1,135.9c0-1.2-1-2.1-2.1-2.1s-2.1,1-2.1,2.1c0,1.2,1,2.1,2.1,2.1S459.1,137.1,459.1,135.9z"/>
</g>
</svg>
