<?xml version="1.0" encoding="utf-8"?>
<!-- Generator: Adobe Illustrator 24.3.0, SVG Export Plug-In . SVG Version: 6.00 Build 0)  -->
<svg version="1.1" id="Layer_1" xmlns="http://www.w3.org/2000/svg" xmlns:xlink="http://www.w3.org/1999/xlink" x="0px" y="0px"
	 viewBox="0 0 612 375" style="enable-background:new 0 0 612 375;" xml:space="preserve">
<style type="text/css">
	.st0{fill:url(#SVGID_1_);}
	.st1{fill:url(#SVGID_2_);}
	.st2{fill:url(#SVGID_3_);}
	.st3{fill:url(#SVGID_4_);}
	.st4{fill:url(#SVGID_5_);}
	.st5{fill:url(#SVGID_6_);}
	.st6{fill:url(#SVGID_7_);}
	.st7{fill:url(#SVGID_8_);}
	.st8{fill:url(#SVGID_9_);}
	.st9{fill:url(#SVGID_10_);}
	.st10{fill:url(#SVGID_11_);}
	.st11{fill:url(#SVGID_12_);}
	.st12{fill:url(#SVGID_13_);}
	.st13{fill:url(#SVGID_14_);}
	.st14{fill:url(#SVGID_15_);}
	.st15{fill:url(#SVGID_16_);}
	.st16{fill:#3B9999;}
	.st17{fill:#004545;}
	.st18{fill:#F4F2F2;}
	.st19{fill:#FFFFFF;}
	.st20{fill:#D31D49;}
	.st21{fill:#293149;}
	.st22{fill:#1B223A;}
	.st23{fill:#0000FF;}
	.st24{fill:#3838FC;}
	.st25{fill:#FFA340;}
	.st26{fill:#FC4C00;}
	.st27{fill:#FFAF59;}
	.st28{fill:#FF5D17;}
	.st29{fill:#DE2104;}
	.st30{fill:#63220A;}
	.st31{fill:#451301;}
	.st32{fill:#9E5116;}
	.st33{fill:#662811;}
	.st34{fill:#F24900;}
	.st35{fill:#FFCC85;}
	.st36{fill:#FFD28F;}
	.st37{fill:#FFFFFF;stroke:#D31D49;stroke-miterlimit:10;}
	.st38{fill:#217373;}
	.st39{fill:#003333;}
	.st40{fill:#5C5CF7;}
	.st41{fill:#1A1A1A;}
	.st42{fill:#CCCCCC;}
	.st43{fill:#E6E6E6;}
	.st44{fill:#FFEDCA;}
	.st45{fill:#337A7A;}
	.st46{fill:#8383FF;}
</style>
<g>
	
		<linearGradient id="SVGID_1_" gradientUnits="userSpaceOnUse" x1="-164.603" y1="230.0878" x2="-103.1225" y2="268.468" gradientTransform="matrix(0.711 0 0 0.711 340.1005 21.5455)">
		<stop  offset="0" style="stop-color:#000000"/>
		<stop  offset="1" style="stop-color:#FFFFFF"/>
	</linearGradient>
	<rect x="238" y="189.9" class="st0" width="32.7" height="29.6"/>
</g>
<g>
	
		<linearGradient id="SVGID_2_" gradientUnits="userSpaceOnUse" x1="-95.7515" y1="246.2509" x2="-151.8315" y2="257.5307" gradientTransform="matrix(0.711 0 0 0.711 323.915 22.3942)">
		<stop  offset="0" style="stop-color:#000000"/>
		<stop  offset="1" style="stop-color:#FFFFFF"/>
	</linearGradient>
	<rect x="221.8" y="184" class="st1" width="22" height="36.3"/>
</g>
<g>
	
		<linearGradient id="SVGID_3_" gradientUnits="userSpaceOnUse" x1="-156.6613" y1="234.6375" x2="-115.3718" y2="261.0973" gradientTransform="matrix(0.711 0 0 0.711 470.9042 -25.5726)">
		<stop  offset="0" style="stop-color:#000000"/>
		<stop  offset="1" style="stop-color:#FFFFFF"/>
	</linearGradient>
	<rect x="368.8" y="131.7" class="st2" width="15" height="40.6"/>
</g>
<g>
	
		<linearGradient id="SVGID_4_" gradientUnits="userSpaceOnUse" x1="-119.2136" y1="221.6029" x2="-128.4434" y2="291.3413" gradientTransform="matrix(0.711 0 0 0.711 452.6855 -20.0062)">
		<stop  offset="0" style="stop-color:#000000"/>
		<stop  offset="1" style="stop-color:#FFFFFF"/>
	</linearGradient>
	<rect x="350.6" y="147.8" class="st3" width="28" height="30.1"/>
</g>
<g>
	
		<linearGradient id="SVGID_5_" gradientUnits="userSpaceOnUse" x1="-120.0118" y1="282.8819" x2="-144.4421" y2="246.9414" gradientTransform="matrix(0.711 0 0 0.711 409.8446 -50.0267)">
		<stop  offset="0" style="stop-color:#000000"/>
		<stop  offset="1" style="stop-color:#FFFFFF"/>
	</linearGradient>
	<rect x="307.7" y="125.4" class="st4" width="14" height="22.5"/>
</g>
<g>
	
		<linearGradient id="SVGID_6_" gradientUnits="userSpaceOnUse" x1="-172.9051" y1="200.9682" x2="-103.1955" y2="257.3679" gradientTransform="matrix(0.711 0 0 0.711 457.5155 -57.0052)">
		<stop  offset="0" style="stop-color:#000000"/>
		<stop  offset="1" style="stop-color:#FFFFFF"/>
	</linearGradient>
	<rect x="355.4" y="81.6" class="st5" width="21" height="59.3"/>
</g>
<g>
	
		<linearGradient id="SVGID_7_" gradientUnits="userSpaceOnUse" x1="-97.8983" y1="211.3361" x2="-131.6588" y2="267.1368" gradientTransform="matrix(0.711 0 0 0.711 409.4501 -71.9154)">
		<stop  offset="0" style="stop-color:#000000"/>
		<stop  offset="1" style="stop-color:#FFFFFF"/>
	</linearGradient>
	<rect x="307.4" y="80.9" class="st6" width="34.6" height="45.1"/>
</g>
<g>
	
		<linearGradient id="SVGID_8_" gradientUnits="userSpaceOnUse" x1="-108.342" y1="272.2468" x2="-133.382" y2="215.2071" gradientTransform="matrix(0.711 0 0 0.711 409.5624 -34.7435)">
		<stop  offset="0" style="stop-color:#000000"/>
		<stop  offset="1" style="stop-color:#FFFFFF"/>
	</linearGradient>
	<rect x="307.4" y="106.5" class="st7" width="29.1" height="56.6"/>
</g>
<g>
	
		<linearGradient id="SVGID_9_" gradientUnits="userSpaceOnUse" x1="-159.5101" y1="263.5266" x2="-126.6491" y2="256.2964" gradientTransform="matrix(0.711 0 0 0.711 444.0976 -32.0414)">
		<stop  offset="0" style="stop-color:#000000"/>
		<stop  offset="1" style="stop-color:#FFFFFF"/>
	</linearGradient>
	<rect x="342" y="136.1" class="st8" width="17.1" height="29.7"/>
</g>
<g>
	
		<linearGradient id="SVGID_10_" gradientUnits="userSpaceOnUse" x1="-79.8022" y1="295.3015" x2="-137.3418" y2="222.152" gradientTransform="matrix(0.711 0 0 0.711 407.8964 -9.305)">
		<stop  offset="0" style="stop-color:#000000"/>
		<stop  offset="1" style="stop-color:#FFFFFF"/>
	</linearGradient>
	<rect x="305.8" y="151.6" class="st9" width="42.7" height="37"/>
</g>
<g>
	
		<linearGradient id="SVGID_11_" gradientUnits="userSpaceOnUse" x1="-63.5315" y1="161.7106" x2="-153.5115" y2="207.9606" gradientTransform="matrix(0.711 0 0 0.711 460.8564 106.8454)">
		<stop  offset="0" style="stop-color:#000000"/>
		<stop  offset="1" style="stop-color:#FFFFFF"/>
	</linearGradient>
	<rect x="358.8" y="175.4" class="st10" width="42.9" height="129.4"/>
</g>
<g>
	
		<linearGradient id="SVGID_12_" gradientUnits="userSpaceOnUse" x1="-181.4735" y1="229.2239" x2="-104.9235" y2="266.7339" gradientTransform="matrix(0.711 0 0 0.711 457.2196 100.8483)">
		<stop  offset="0" style="stop-color:#000000"/>
		<stop  offset="1" style="stop-color:#FFFFFF"/>
	</linearGradient>
	<rect x="355.1" y="264.7" class="st11" width="19.3" height="34"/>
</g>
<g>
	
		<linearGradient id="SVGID_13_" gradientUnits="userSpaceOnUse" x1="-181.4735" y1="229.2239" x2="-104.9235" y2="266.7339" gradientTransform="matrix(0.711 0 0 0.711 457.2196 100.8483)">
		<stop  offset="0" style="stop-color:#000000"/>
		<stop  offset="1" style="stop-color:#FFFFFF"/>
	</linearGradient>
	<rect x="355.1" y="264.7" class="st12" width="19.3" height="34"/>
</g>
<g>
	
		<linearGradient id="SVGID_14_" gradientUnits="userSpaceOnUse" x1="1.2413" y1="97.5809" x2="-118.1782" y2="242.9504" gradientTransform="matrix(0.711 0 0 0.711 340.245 100.7409)">
		<stop  offset="0" style="stop-color:#000000"/>
		<stop  offset="1" style="stop-color:#FFFFFF"/>
	</linearGradient>
	<rect x="238.1" y="156.3" class="st13" width="111.8" height="142.3"/>
</g>
<g>
	
		<linearGradient id="SVGID_15_" gradientUnits="userSpaceOnUse" x1="-185.5395" y1="206.8557" x2="-84.9995" y2="217.5457" gradientTransform="matrix(0.711 0 0 0.711 431.164 59.6686)">
		<stop  offset="0" style="stop-color:#000000"/>
		<stop  offset="1" style="stop-color:#FFFFFF"/>
	</linearGradient>
	<rect x="329" y="165.8" class="st14" width="34" height="91.8"/>
</g>
<g>
	
		<linearGradient id="SVGID_16_" gradientUnits="userSpaceOnUse" x1="-185.5395" y1="206.8557" x2="-84.9995" y2="217.5457" gradientTransform="matrix(0.711 0 0 0.711 431.164 59.6686)">
		<stop  offset="0" style="stop-color:#000000"/>
		<stop  offset="1" style="stop-color:#FFFFFF"/>
	</linearGradient>
	<rect x="329" y="165.8" class="st15" width="34" height="91.8"/>
</g>
<g>
	<path class="st16" d="M118.7,214c2.4-4.2,4.1-8.5,4.8-11.8c0.7-3.3,0.6-5.9-0.8-6.8c-1.4-0.9-3.6-0.1-6.3,1.8c-2.7,1.9-5.9,5-8.7,9
		c-2.8,3.9-4.8,8-5.5,11.3c-0.7,3.4-0.3,6.1,1.4,7.3c1.7,1.2,4.3,0.7,7-1.3"/>
	<path class="st16" d="M110.7,223.4c2.7-1.9,5.5-5.3,8-9.5"/>
	<path class="st16" d="M79.5,155.2c-1.3-0.1-2.6,1.3-4,3.6c-1.3,2.3-2.6,5.7-3.3,9.4c-0.7,3.7-0.8,7.2-0.1,9.7
		c0.6,2.6,1.8,4.2,3.5,4.3c1.6,0.1,3.3-1.2,4.6-3.6c1.3-2.3,2.2-5.7,2.6-9.5c0.4-3.8,0.1-7.2-0.5-9.7
		C81.7,156.9,80.8,155.3,79.5,155.2z"/>
	<path class="st16" d="M108.9,181.1c-1.3-0.7-3.3,0.1-5.5,2.1c-2.2,2-4.6,5-6.6,8.7c-2,3.8-3.2,7.5-3.4,10.5
		c-0.2,3.1,0.6,5.5,2.3,6.4c1.7,0.9,3.9,0.2,6.1-1.8c2.2-2,4.3-5.2,5.9-9.2c1.6-4,2.6-7.8,2.8-10.9
		C110.7,184.1,110.2,181.8,108.9,181.1z"/>
	<path class="st16" d="M93.2,166.8c-1.4-0.4-2.9,0.9-4.6,3.2c-1.6,2.3-3.3,5.7-4.4,9.7c-1.1,3.9-1.6,7.7-1.2,10.6
		c0.4,2.9,1.5,5,3.2,5.5c1.7,0.5,3.6-0.6,5.3-3c1.6-2.3,3-5.8,3.8-9.9s0.9-7.9,0.5-10.8C95.4,169.2,94.6,167.2,93.2,166.8z"/>
	<path class="st16" d="M35.2,173.2c-0.1,1.1,1.1,2.3,3.3,3.3c2.2,1,5.2,1.9,8.7,2.3c3.4,0.4,6.6,0.2,9-0.5c2.3-0.7,3.9-2,4.1-3.5
		c0.1-1.5-1.1-2.9-3.2-4c-2.1-1-5.3-1.6-8.7-1.7c-3.5-0.1-6.7,0.4-9.1,1.1C36.9,171.1,35.3,172.1,35.2,173.2z"/>
	<path class="st16" d="M51.5,166.5c1.8,1,3.6,1.1,4.5,0.4c1-0.8,1.1-2.4,0.4-4.3c-0.7-1.9-2.2-4.1-4.3-6.3s-4.3-3.8-6.1-4.8
		s-3.3-1.3-4.1-0.7c-0.8,0.6-0.7,2.1,0,4s2,4.3,3.8,6.5C47.6,163.7,49.7,165.5,51.5,166.5z"/>
	<path class="st16" d="M66.3,146.3c-1.2-0.1-2.3,1.4-3.4,3.6c-1.1,2.3-1.9,5.5-2.3,9.2s-0.2,6.9,0.5,9.3s2,4,3.6,4.1
		c1.5,0.1,3-1.3,4.1-3.6c1.1-2.3,1.6-5.5,1.7-9.2s-0.4-7-1.1-9.4C68.4,147.9,67.4,146.3,66.3,146.3z"/>
	<path class="st16" d="M68,236.7c3.3,0.8,7.7,1.1,12.5,0.7c4.8-0.4,9.1-1.6,12.2-3.3c3.1-1.6,4.8-3.8,4.6-5.9
		c-0.2-2.1-2.3-3.7-5.5-4.5s-7.6-0.7-12.4,0.1c-4.8,0.9-9,2.4-12.1,4.1c-3.1,1.6-4.8,3.4-4.7,5C62.7,234.7,64.8,235.9,68,236.7z"/>
	<path class="st16" d="M61.6,220c3,0.7,7,1.1,11.4,0.6c4.4-0.4,8.4-1.5,11.2-3c2.8-1.5,4.4-3.5,4.3-5.4c-0.1-1.9-2.1-3.4-5.1-4.1
		c-3-0.7-7-0.7-11.4,0.1c-4.4,0.9-8.2,2.3-11.1,3.8c-2.8,1.5-4.5,3.1-4.3,4.6S58.7,219.2,61.6,220z"/>
	<path class="st17" d="M62.5,172.4c-0.4-0.4-1.1-0.4-1.5,0.1s-0.4,1.1,0.1,1.5c19.3,17.9,33.9,39.7,43.2,63.6
		c9.3,23.9,13.2,49.8,11.1,76.1c-0.1,0.6,0.4,1.1,1,1.1c0.6,0.1,1.1-0.4,1.1-1c2.1-26.5-1.8-52.8-11.2-77
		C96.8,212.6,82,190.5,62.5,172.4z"/>
	<path class="st16" d="M55,205.3c2.8,0.6,6.5,0.9,10.6,0.6s7.8-1.4,10.3-2.8c2.6-1.4,4.1-3.2,3.9-5c-0.1-1.8-1.9-3.1-4.7-3.8
		c-2.8-0.6-6.5-0.6-10.5,0.1s-7.7,2.1-10.2,3.5s-4.1,2.9-4,4.3C50.4,203.6,52.2,204.6,55,205.3z"/>
	<path class="st16" d="M56.7,192.3c3.8-0.1,7.2-0.9,9.6-2.1c2.4-1.2,3.9-2.8,3.8-4.5c-0.1-1.6-1.6-3-4.2-3.7c-2.5-0.7-6-0.9-9.7-0.3
		c-3.8,0.6-7.1,1.6-9.5,2.8c-2.4,1.2-3.9,2.5-3.8,3.8s1.6,2.3,4.1,3C49.5,192.1,53,192.5,56.7,192.3z"/>
	<path class="st18" d="M385.7,215.1c0.8,0,1.4-0.6,1.4-1.4V44.2c0-0.8-0.6-1.4-1.4-1.4H125.3c-0.8,0-1.4,0.6-1.4,1.4v169.5
		c0,0.8,0.6,1.4,1.4,1.4L385.7,215.1L385.7,215.1z"/>
	
		<rect x="139.6" y="124.9" transform="matrix(0.9994 -3.460004e-02 3.460004e-02 0.9994 -5.3397 6.4591)" class="st19" width="88.7" height="65.1"/>
	
		<rect x="138.9" y="136.9" transform="matrix(0.9994 -3.460004e-02 3.460004e-02 0.9994 -4.6379 6.4224)" class="st20" width="88.7" height="0.6"/>
	
		<rect x="139.1" y="141.7" transform="matrix(0.9994 -3.460004e-02 3.460004e-02 0.9994 -4.8051 6.4302)" class="st20" width="88.7" height="0.6"/>
	
		<rect x="139.3" y="146.7" transform="matrix(0.9994 -3.460004e-02 3.460004e-02 0.9994 -4.977 6.4407)" class="st20" width="88.7" height="0.6"/>
	
		<rect x="139.4" y="151.5" transform="matrix(0.9994 -3.460004e-02 3.460004e-02 0.9994 -5.1443 6.4484)" class="st20" width="88.7" height="0.6"/>
	
		<rect x="139.6" y="156.2" transform="matrix(0.9994 -3.460004e-02 3.460004e-02 0.9994 -5.3065 6.4586)" class="st20" width="88.7" height="0.6"/>
	
		<rect x="139.8" y="161.1" transform="matrix(0.9994 -3.460004e-02 3.460004e-02 0.9994 -5.4737 6.4664)" class="st20" width="88.7" height="0.6"/>
	
		<rect x="139.9" y="166" transform="matrix(0.9994 -3.460004e-02 3.460004e-02 0.9994 -5.6458 6.4742)" class="st20" width="88.7" height="0.6"/>
	
		<rect x="140.1" y="170.9" transform="matrix(0.9994 -3.460004e-02 3.460004e-02 0.9994 -5.8129 6.4845)" class="st20" width="88.7" height="0.6"/>
	
		<rect x="140.3" y="175.8" transform="matrix(0.9994 -3.460004e-02 3.460004e-02 0.9994 -5.9826 6.4923)" class="st20" width="88.7" height="0.6"/>
	
		<rect x="140.4" y="180.6" transform="matrix(0.9994 -3.460004e-02 3.460004e-02 0.9994 -6.1499 6.5001)" class="st20" width="88.7" height="0.6"/>
	
		<rect x="140.6" y="185.6" transform="matrix(0.9994 -3.460004e-02 3.460004e-02 0.9994 -6.3219 6.5105)" class="st20" width="88.7" height="0.6"/>
	<path class="st21" d="M488,93.9c-1.4,0-2.6,1.1-2.6,2.6v0.6L453.8,70l-1.8,2.1l33.4,28.6v251c0,0.2,0,0.4,0,0.4
		c3.3-0.8,5-1.2,5-1.2V105l25.7,22c-1.6,2.1-1.3,5,0.7,6.7l10.5,9c2.1,1.8,5.2,1.5,7-0.6l1.4-1.6c1.8-2.1,1.5-5.2-0.6-7l-10.5-8.9
		c-2-1.7-4.9-1.6-6.7,0.3l-27.5-23.5v-4.9C490.5,95.1,489.4,93.9,488,93.9z"/>
	<path class="st20" d="M493.3,108.7V97.4c0-2.9-2.4-5.3-5.3-5.3s-5.3,2.4-5.3,5.3v11.2c0,2.9,2.4,5.3,5.3,5.3
		S493.3,111.6,493.3,108.7z"/>
	<path class="st22" d="M466.8,35.2L466.8,35.2c-1.2-0.6-2.8-0.1-3.4,1.1l-6.8,12.9c-4.8-1.2-10.1,1-12.5,5.6l-7.9,15.1
		c-1.4-0.1-2.9-0.1-4.4-0.1c-10.7,0.7-20,7.3-24.3,17.1c15.6,10.9,32.6,19.8,50.4,26.4c5.6-9.1,5.8-20.5,0.2-29.7
		c-0.7-1.2-1.5-2.3-2.3-3.3l8-15.2c2.4-4.6,1.2-10.3-2.6-13.6l6.8-12.9C468.5,37.4,468,35.9,466.8,35.2z"/>
	<path class="st20" d="M453.6,118.4c1.6,0.9,3.5,0.2,4.3-1.4l0.2-0.4c0.9-1.6,0.2-3.5-1.4-4.3l-48.1-25.2c-1.6-0.9-3.5-0.2-4.3,1.4
		l-0.2,0.4c-0.9,1.6-0.2,3.5,1.4,4.3L453.6,118.4z"/>
	<path class="st20" d="M287.2,151.7c-12.6,1.8-26.7,3.2-38.2,6.5c-8.4,2.4-13.7,5.6-18.1,9.9c-15.3,15.1-33.3,52.7-43.2,73.5
		c-3.1,2.6-5.6,5.4-7.6,8.5c-4,6.4-6,16.9-5.2,26.7c1.1,12.7,5.3,20.1,11.9,22.8c15.8,6.5,38.7-11.3,43.1-26.2l13.5-19.5
		c1.4,28.9,2.3,44.6,2.3,44.6c85.5-0.1,131-0.4,129.9,0.3c6.9,8.9,14.3,11,21.2,9.2c19.5-5.3,33.1-38.1,23.8-56.9
		c-1.6-17-8-68.5-17.9-81.1c-3.1-3.9-7.4-7.3-13.4-10c-2.7-1.1-6.1-2.6-10.9-4c0,0-5.3,3.3-18.1,1.4
		C370.6,153,346.3,151,287.2,151.7z"/>
	<path class="st20" d="M362.5,245.5l-2-20.8l-5.4-43.4l-2.4-15.5c0.1-0.1-0.5-0.1-1.6-0.1c-2.1,11.2-8.7,21-18.5,26.9
		c-4.4,8.1-4.7,17.8-0.9,26.2c8.4,18.4,23.5,10.5,30.5,34.3c0.1,0.3,0.1,0.6,0.2,0.9c0-1.6,0.1-3.1,0.2-4.5L362.5,245.5z"/>
	<path class="st23" d="M362.5,257.5c0.1-0.2,0.4-0.4,0.6-0.6c-0.1-0.9-0.4-1.8-0.6-2.8C362.4,255.3,362.4,256.4,362.5,257.5z"/>
	<path class="st20" d="M286.5,156.3c-32.2,2.6-48.3,12.2-48.3,28.8c8.2,13.2,11.5,23.8,9.9,32.1c1.5,54,2.2,81.5,2.2,81.5
		c64.5-0.1,96.7-0.1,96.7-0.1c17.1-53.3-44.8-42.5-55.4-80c-3.8-13.6-0.1-28.3,10-38.3C301.4,180.2,296.5,172.2,286.5,156.3z"/>
	<path class="st23" d="M362.9,264.7c0.1,0.6,0.1,1.1,0.2,1.6c0.1-0.4,0.1-0.9,0.1-1.3C363.2,265,363,264.9,362.9,264.7z"/>
	<path class="st20" d="M358.3,298.5c9.2,0.1,14.5,0.1,16.1,0.2c-5.2-10.7-8.6-19.6-10.4-26.4c-0.4-2.1-0.6-4.1-0.9-6
		C361.1,280.9,349.7,290,358.3,298.5z"/>
	<path class="st20" d="M398.3,197.6c4.1,13.6,14.4,12,18.3,21.5c-0.9-5.5-1.8-11.2-3.1-17c-1.6-7.8-3.1-13.6-4.3-17.6
		c-1.1-4.1-2.9-8.4-5.4-12.9c-3-4.5-7.5-8.1-13.4-10.9c-2.4-1.1-5-2.1-7.8-3.1c-1.6,2.2-1.3,6,1.1,11.6c0,0,0.7,1,2.2,3
		C386,172.2,390.1,180.7,398.3,197.6z"/>
	<path class="st20" d="M402.3,305.9c6-3.6,11.1-9,14.9-16.1c2.9-5.4,4.8-11.1,5.9-17.1c1.2-8.5,0.5-15.4-2-20.5
		c0,0-9.4-20.6-28.1-61.9c13.5,30.6-3.3,38.5,1.4,56.3c3.9,14.8,22.3,17.3,20,38.8C413.5,293.7,409.1,301.2,402.3,305.9z"/>
	<path class="st24" d="M393,190.3c-0.3-0.7-0.6-1.4-0.9-2.1C392.4,188.9,392.7,189.6,393,190.3z"/>
	<path class="st20" d="M200,300.4c6.3-1.8,11.4-4.4,15.4-7.6c3.8-2.8,7.5-6.6,10.9-11.5c1.5-2.3,2.6-4.5,3.4-6.8
		c2.1-3.4,2.5-7.6,1.4-12.7l14.3-42.9c0.9-6.5-1.1-6.3-5.9,0.5c-6.5,1.1-12.2,5.2-15.2,11c-7.9,15.3,8.7,26-1.1,38.9
		C215.7,279.2,197.9,281.4,200,300.4z"/>
	<path class="st20" d="M374.3,175.4c0,0-5.2,0.1-15.6,0.1c0,0,3.1,24,9.1,71.9c-2.4,10.7-0.9,22.8,4.6,36
		c3.1,7.6,11.7,25.6,22.2,20.4c6.6-3.3,9.2-16.1,5-24.1c-5.8-11-19.7-21.1-21-34C376.3,222.5,402.5,199.5,374.3,175.4z"/>
	<path class="st19" d="M332.6,192.8c11.8-4.2,19.6-14.9,20.2-27.7c-1.6-3.3-11.8-10.8-30.6-22.5c-6,3.2-11.5,7.8-18.2,9.2
		c-3.3,0.6-7.5-0.6-10.9-1c-2.1-0.2-4.6,0.4-5.8,0.9c-2.8,11.7,1.1,24.4,10.4,33.1C307.2,193.8,320.8,197,332.6,192.8z"/>
	<path class="st25" d="M331.3,187c10-3.6,16.7-12.7,17.2-23.6c-1.7-3.6-15.9-13.3-42.3-29c0,0-1,5.1-3,15.4c0,0-3.4,0.4-10.2,1
		c-3,10.2,0.3,21.7,8.5,29.4C309.6,187.9,321.2,190.6,331.3,187z"/>
	<path class="st26" d="M321.5,188.6c9.5,0.4,18.3-4.5,23.2-12.6c2.1-3.6,3.3-7.5,3.7-11.6c-25.8-5.6-40-9.9-42.7-12.8
		c1.7,22.3,2.6,33.5,2.6,33.5c1.2,0.6,1.8,0.9,1.8,0.9C313.7,187.6,317.6,188.5,321.5,188.6z"/>
	
		<ellipse transform="matrix(0.998 -6.250280e-02 6.250280e-02 0.998 -7.4077 19.2188)" class="st27" cx="303.5" cy="128" rx="8.5" ry="11.2"/>
	<path class="st28" d="M305.8,135.5c2.6-0.3,4.5-3.3,4.3-6.8c-0.3-3.5-2.7-6.1-5.3-5.8c-2.6,0.3-4.5,3.3-4.3,6.8
		C300.7,133.1,303.2,135.8,305.8,135.5z"/>
	<path class="st29" d="M307,133.8c1.6-0.1,2.8-2.1,2.7-4.3c-0.2-2.2-1.7-3.8-3.3-3.7c-1.6,0.1-2.8,2.1-2.7,4.3
		C303.8,132.3,305.3,133.9,307,133.8z"/>
	<path class="st27" d="M320.9,177.7c5.8,1.8,12.2,0.4,16.6-3.9c11.6-7.5,19.6-19.3,22.3-32.9c7-9.9,6.8-23.1-0.6-32.7
		s-19.9-13.2-31.4-9.3c-10.5,3.6-13.1,11.9-18.3,27.1c-5.5,12.4-5.5,26.6-0.1,39C310.6,171,315,175.8,320.9,177.7z"/>
	<path class="st28" d="M344.4,165.8c2.3-2.2,3.6-3.3,3.6-3.3c-1-8.4,0.1-13.5,3.3-15.3c0.1-3,1.6-5,4.6-6.4c-0.2-1.4,0.9-3,3.2-4.8
		c-3.3,0-6.4,1.8-7.8,4.8c-1.4,0.2-2.6,1-3.5,2.1c-0.8,1.1-1.1,2.6-0.8,4C341.5,151.8,340.3,159.9,344.4,165.8z"/>
	<path class="st28" d="M321.9,122.9c4-3.6,9.7-4.8,14.7-2.8c-14.1-18.2-22.3-18-24.2,0.6c-6.2,15.3-6.5,29.5-1.1,42.5
		C328.8,148.6,309.5,134.3,321.9,122.9z"/>
	<path class="st30" d="M311,106c-1.8,4.1-2.8,8.2-3.4,12.5c1.8,2,2.6,4.8,1.8,7.5c5.8-10.7,8.7-16.1,8.7-16.1
		c3.7,5.3,9.5,8.9,15.9,9.9c6.4,1,12.9-0.6,18.1-4.5c-1.1,1-1.9,2-2.6,2.8c-5,7,5.6,8,11.4,3.8c-0.9,2.9-0.3,6,1.5,8.5
		c-0.7,3.6-1.4,7.5-2.8,10.5c1.6-1,3.1-1.5,4.8-1.4c2.8-4.3,5.3-8.5,7.1-13.3c3.8-4.1,5.4-9.6,4.4-15c-1-5.4-4.5-10-9.5-12.4
		c5.1-14-13.9-22.2-10.8-13.7C326.2,67.1,296.7,106.4,311,106z"/>
	<path class="st31" d="M311,106c-1.8,4.1-2.8,8.2-3.4,12.5c1.8,2,2.6,4.8,1.8,7.5l8.7-16.1c5.3,7.6,14.6,11.4,23.7,9.8
		c-3.8-4.1-6.6-8.9-8.2-14.3l-0.1-0.3c-2.8-8.2-2.4-16.7,0.3-24.3C314,84.6,300.4,106.3,311,106z"/>
	<path class="st32" d="M355.4,83.6c5.6,6.5,9,14.9,9,24.1c0,5.8-1.4,11.4-3.8,16.3c-0.1,2.3,0.5,4.6,1.9,6.5
		c-0.7,3.6-1.4,7.5-2.8,10.5c1.6-1,3.1-1.5,4.8-1.4c2.8-4.3,5.3-8.5,7.1-13.3c3.8-4.1,5.4-9.6,4.4-15s-4.5-10-9.5-12.4
		C371.3,85.6,354.9,77.6,355.4,83.6z"/>
	<path class="st29" d="M310.6,125.4c-1.4,4.3-2.4,8.7-2.9,13.3c0.2,3.3,2,6.2,4.8,7.8c2.8,1.6,6.3,1.7,9.2,0.3
		c-3.6-0.3-6.9-2.4-8.5-5.7c-1.6-3.3-1.5-7.1,0.4-10.2C314,130,313,128.1,310.6,125.4z"/>
	<path class="st33" d="M327,183.9c5.4-1.6,9.5-6.1,10.2-11.7c-4.3,3.6-10.2,4.8-15.6,3.1s-9.6-6-11.1-11.4c-2.6,5-1.8,11.1,1.7,15.4
		C315.7,183.6,321.6,185.4,327,183.9z"/>
	<path class="st33" d="M349.1,133.5c1.8,1.1,3.3,2.6,4.4,4.5c0.3,0.5,0.9,0.6,1.4,0.4c0.5-0.3,0.6-0.9,0.4-1.4
		c-1.3-2.1-3.1-3.9-5.1-5.2c-2.1-1.3-4.4-2.1-6.9-2.3c-0.6-0.1-1.1,0.4-1.1,0.9c-0.1,0.6,0.4,1.1,0.9,1.1
		C345.2,131.7,347.3,132.4,349.1,133.5z"/>
	<path class="st33" d="M318.6,126.5c2.3-0.9,4.6-1.2,7-1c2.3,0.2,4.6,1.1,6.7,2.3c0.5,0.3,1.1,0.1,1.4-0.3c0.3-0.5,0.1-1.1-0.3-1.4
		c-2.3-1.5-4.9-2.4-7.5-2.7c-2.6-0.3-5.4,0.1-8,1.1c-0.5,0.2-0.8,0.8-0.6,1.3C317.4,126.5,318,126.7,318.6,126.5z"/>
	<path d="M324.2,134.9c0-0.8-0.6-1.4-1.4-1.4s-1.4,0.6-1.4,1.4s0.6,1.4,1.4,1.4S324.2,135.7,324.2,134.9z"/>
	<path d="M346,141.9c0-0.7-0.6-1.4-1.4-1.4c-0.7,0-1.4,0.6-1.4,1.4c0,0.8,0.6,1.4,1.4,1.4C345.3,143.2,346,142.6,346,141.9z"/>
	<path class="st19" d="M337.1,150.8c1.8,1.8,4.5,3.1,7.3,3.1s5.4-1.1,7.3-3.1c1.8-1.8,3.1-4.5,3.1-7.3s-1.1-5.4-3.1-7.3
		c-1.8-1.8-4.5-3.1-7.3-3.1s-5.4,1.1-7.3,3.1c-0.3,0.3-0.5,0.6-0.8,0.9c-0.1-0.1-0.2-0.4-0.4-0.5c-0.4-0.4-0.9-0.8-1.5-1.1
		c-0.6-0.2-1.2-0.3-1.8-0.3c-0.2,0-0.4,0.1-0.6,0.1c-0.2-2.6-1.4-4.8-3.1-6.5c-1.9-1.9-4.5-3.1-7.5-3.1s-5.5,1.2-7.5,3.1
		c-0.1,0.1-0.1,0.1-0.2,0.2l-6-11.1c-0.1-0.3-0.6-0.4-0.9-0.3c-0.3,0.1-0.4,0.6-0.3,0.9l6.3,11.6c-1.3,1.7-2,3.8-2,6.2
		c0,2.9,1.2,5.5,3.1,7.5c1.9,1.9,4.5,3.1,7.5,3.1s5.5-1.2,7.5-3.1c1.8-1.8,3-4.3,3.1-7c0.2-0.1,0.4-0.1,0.6-0.1
		c0.4-0.1,0.8,0,1.2,0.1c0.4,0.1,0.7,0.4,1,0.7c0.2,0.2,0.4,0.5,0.5,0.8c-0.9,1.6-1.4,3.3-1.4,5.3
		C334.2,146.3,335.3,149,337.1,150.8z M328.3,142.9c-1.6,1.6-4,2.7-6.5,2.7s-4.8-1-6.5-2.7c-1.6-1.6-2.7-4-2.7-6.5s1-4.8,2.7-6.5
		c1.6-1.6,4-2.7,6.5-2.7s4.8,1,6.5,2.7c1.6,1.6,2.7,4,2.7,6.5S329.9,141.2,328.3,142.9z M338.1,137.2c1.6-1.6,3.9-2.6,6.4-2.6
		s4.8,1,6.4,2.6c1.6,1.6,2.6,3.9,2.6,6.4s-1,4.8-2.6,6.4c-1.6,1.6-3.9,2.6-6.4,2.6s-4.8-1-6.4-2.6c-1.6-1.6-2.6-3.9-2.6-6.4
		C335.4,141,336.4,138.8,338.1,137.2z"/>
	<path class="st19" d="M351.3,140.4c0-1.2-0.9-2.1-2.1-2.1s-2.1,0.9-2.1,2.1c0,1.2,0.9,2.1,2.1,2.1
		C350.3,142.5,351.3,141.6,351.3,140.4z"/>
	<path class="st19" d="M329.2,133.6c0-1.2-0.9-2.1-2.1-2.1s-2.1,0.9-2.1,2.1c0,1.2,0.9,2.1,2.1,2.1S329.2,134.8,329.2,133.6z"/>
	<path class="st29" d="M325.6,163.3c1.6,0.5,3.2,0.6,4.8,0.4s3.1-0.8,4.5-1.7c0.4-0.3,0.5-0.8,0.3-1.2c-0.3-0.4-0.8-0.5-1.2-0.3
		c-1.1,0.8-2.4,1.2-3.8,1.4c-1.4,0.1-2.7,0.1-4-0.4c-1.3-0.4-2.5-1.1-3.4-2.1c-0.9-0.9-1.7-2.1-2.2-3.4c-0.1-0.4-0.6-0.7-1.1-0.5
		c-0.4,0.1-0.7,0.6-0.5,1.1c0.6,1.6,1.4,2.9,2.6,4.1C322.6,161.9,324,162.8,325.6,163.3z"/>
	<path class="st28" d="M332.6,155.4c4.5-0.3,6.5-2.4,2.8-5.3c-0.1-1.1-0.4-10.3-2.1-10.6c-2-0.4-5.5,5.9-6.9,7.6
		c-4.5-0.9-5.9,2.2-1.4,6.2C326.8,156.1,329.3,156.7,332.6,155.4z"/>
	<path class="st29" d="M324.6,166.3c0.6,0.2,1.4,0.3,2,0.2c0.6-0.1,1.3-0.3,1.8-0.7c0.1-0.1,0.2-0.4,0.1-0.5
		c-0.1-0.1-0.4-0.2-0.5-0.1c-0.5,0.3-1,0.5-1.6,0.6c-0.6,0.1-1.1,0-1.6-0.1c-0.6-0.2-1-0.5-1.4-0.9s-0.7-0.9-0.9-1.4
		c-0.1-0.2-0.3-0.3-0.4-0.2c-0.2,0.1-0.3,0.3-0.2,0.4c0.2,0.6,0.6,1.2,1.1,1.6C323.4,165.8,324,166.1,324.6,166.3z"/>
	<path class="st19" d="M369.1,153.9c4.1-4.3,4.9-10.2,1.7-13.4s-9.1-2.3-13.2,1.9c-4.1,4.3-4.9,10.2-1.7,13.4
		S365.1,158.1,369.1,153.9z"/>
	<path class="st19" d="M365,150.8c2.4-2.5,2.9-6.1,1-8c-1.8-1.8-5.4-1.4-7.8,1.1s-2.9,6.1-1,8C359,153.8,362.5,153.3,365,150.8z"/>
	<path class="st19" d="M362.2,149.2c1.6-1.6,1.8-3.8,0.6-5c-1.2-1.2-3.3-0.9-4.9,0.7c-1.6,1.6-1.8,3.8-0.6,5
		C358.5,151.1,360.7,150.8,362.2,149.2z"/>
	<path class="st27" d="M352.9,165.7c3.1,6.6,4.2,8.9,8.2,11.7c8.5,1.8,17.3-1.4,22.7-8.2c0,0-0.8-7.6-2.3-22.9c0,0,0.4-2.3,1.1-7
		c0.4-3.2-2.7-5-9.2-5.3c-1.8-2.1-3.7-2.8-6.5-1.8c-1.7,0.6-3.1,2-3.7,3.6c-1.7-0.6-3.6-0.3-5,0.7c-1.5,1-2.3,2.6-2.5,4.4
		c-2.8,0.7-4.6,3.3-4.3,6.2C345.2,149.8,346.7,168.2,352.9,165.7z"/>
	<path class="st34" d="M358,157.5c-2,1.7-4.7,2.2-7.2,1.4c-0.5,1.3-0.2,2,0.9,2.2c3.2,7.5,6.9,13,11.2,16.6c5.5,0.7,11-0.6,15.6-3.6
		c-3.4,1.2-7.1,0.4-9.8-1.9c-9.2-8.2,5.5-16.8-4.3-24.3c-0.1,0.9-0.7,1.8-1.5,2.3c-0.8,0.6-1.8,0.7-2.7,0.6
		C360.8,153.2,360,155.8,358,157.5z"/>
	<path class="st35" d="M382.3,137.2c-0.4-0.6-0.9-1.2-1.6-1.6c-0.9-0.5-1.9-0.9-3.2-1.1c-0.7-0.1-1.6-0.3-2.8-0.4
		c0,0-0.6-0.2-1.8-0.6c-1.4-1.3-2.7-1.8-4.2-1.7c13.9,6.4,10.2,15.6,6.8,22.1c-1.9,3.6-3.8,7-2.8,10.9c1.1,3.8,4.2,6.8,8.1,7.5
		c1-0.9,2-1.8,3-3.1c-0.7-6.8-1.4-14.4-2.3-22.9c0.4-2.3,0.8-4.7,1.1-7C382.8,138.7,382.6,138,382.3,137.2z"/>
	<path class="st26" d="M377.2,137.4c0.3-0.3,0.3-0.8-0.1-1.1l-3.2-2.8c-0.3-0.3-0.8-0.3-1.1,0.1c-0.3,0.3-0.3,0.8,0.1,1.1l3.2,2.8
		C376.5,137.7,377,137.7,377.2,137.4z"/>
	<path class="st26" d="M367,138.9c0.3-0.4,0.2-0.8-0.1-1.1l-3.1-2.6c-0.4-0.3-0.8-0.2-1.1,0.1c-0.3,0.4-0.2,0.8,0.1,1.1l3.1,2.6
		C366.3,139.3,366.7,139.3,367,138.9z"/>
	<path class="st26" d="M358.6,143c0.3-0.4,0.2-0.9-0.1-1.1l-2.2-1.6c-0.4-0.3-0.9-0.2-1.1,0.1c-0.2,0.4-0.2,0.9,0.1,1.1l2.2,1.6
		C357.9,143.4,358.4,143.4,358.6,143z"/>
	<path class="st26" d="M353.9,148.8c0.3-0.4,0.1-0.9-0.1-1.1l-1.7-1.3c-0.4-0.3-0.9-0.1-1.1,0.1c-0.3,0.4-0.1,0.9,0.1,1.1l1.7,1.3
		C353.1,149.3,353.6,149.2,353.9,148.8z"/>
	<path class="st26" d="M370.5,139.5c0.4,0.4,0.7,0.8,0.9,1.2c0.1,0.4,0.6,0.6,1,0.4c0.4-0.1,0.6-0.6,0.4-1c-0.3-0.7-0.7-1.4-1.3-1.8
		c-0.6-0.5-1.3-0.9-2-1c-0.4-0.1-0.9,0.1-0.9,0.6c-0.1,0.4,0.1,0.9,0.6,0.9C369.6,138.9,370.1,139.2,370.5,139.5z"/>
	<path class="st26" d="M364.2,144.7c0.3,0.2,0.5,0.6,0.6,0.9c0.1,0.4,0.6,0.6,1,0.4s0.6-0.6,0.4-1c-0.2-0.6-0.6-1.1-1.1-1.5
		c-0.4-0.4-1-0.7-1.6-0.9c-0.4-0.1-0.9,0.1-0.9,0.6s0.1,0.9,0.6,0.9S363.9,144.5,364.2,144.7z"/>
	<path class="st26" d="M356,141.7c0.4-0.1,0.6-0.4,0.6-0.8c0.1-0.8,0.3-1.5,0.6-2.1s0.9-1.2,1.5-1.6c0.6-0.4,1.4-0.7,2.1-0.8
		s1.5-0.1,2.2,0.2c0.4,0.1,0.9-0.1,1.1-0.5c0.1-0.4-0.1-0.9-0.5-1.1c-1-0.3-2-0.4-2.9-0.3c-1,0.1-1.9,0.5-2.8,1.1
		c-0.9,0.6-1.5,1.4-2,2.2c-0.4,0.7-0.6,1.5-0.8,2.3c-1.4,0.5-2.4,1.4-3.2,2.5s-1.2,2.5-1.1,3.9c-0.7,0.4-1.3,1-1.8,1.6
		c-0.6,0.8-1.1,1.6-1.3,2.6c-0.4,1.1-0.6,2.1-0.7,3.1s-0.2,2.1-0.1,3.3c0,1.1,0.1,2.3,0.4,3.4c0.2,1.1,0.6,2.3,1.1,3.3
		c0.2,0.4,0.7,0.6,1.1,0.4c0.4-0.2,0.6-0.7,0.4-1.1c-0.4-0.9-0.8-1.9-1-3c-0.2-1-0.4-2.1-0.4-3.1v-0.1c-0.1-1,0-2,0.1-3
		c0.1-1,0.4-2,0.6-2.9l0,0c0,0,0,0,0-0.1c0.2-0.8,0.6-1.4,1-2.1c0.5-0.6,1.1-1.1,1.7-1.4c0.3-0.1,0.5-0.5,0.4-0.9
		c-0.1-1.2,0.2-2.4,0.9-3.3C353.8,142.7,354.8,142,356,141.7z"/>
	<path class="st26" d="M353.1,166.4c0.4-0.1,0.6-0.6,0.4-1l-2.8-6.5c-0.1-0.4-0.6-0.6-1-0.4c-0.4,0.1-0.6,0.6-0.4,1l2.8,6.5
		C352.4,166.3,352.8,166.5,353.1,166.4z"/>
	<path class="st26" d="M358.4,149.8c0.3,0.2,0.4,0.5,0.6,0.8c0.1,0.4,0.6,0.5,0.9,0.4c0.4-0.1,0.5-0.6,0.4-0.9c-0.2-0.5-0.6-1-1-1.4
		s-0.9-0.6-1.4-0.8c-0.4-0.1-0.7,0.1-0.9,0.5c-0.1,0.4,0.1,0.7,0.5,0.9C357.8,149.4,358.1,149.6,358.4,149.8z"/>
	<path class="st20" d="M229.7,219.3c0,0-2.5-5.3-7.5-16c0,0-11.2,14-33.5,42c-5.8,5.5-9.2,12.6-10,21c-2.1,21.4,6,29.7,24.2,14.4
		c2.3-1.9,4.3-4.2,6-6.7c14.8-21.8-5.3-33.3,5.5-47.7C218.1,221.4,223.8,218.8,229.7,219.3z"/>
	<path class="st19" d="M229.6,274.5c0.5,0.2,1.1,0,1.4-0.5c0.9-2,1.4-4.1,1.4-6.3c0-2-0.4-4-1.2-5.9l11.6-31.9l-0.2,24.1
		c0,0.6,0.4,1,1,1c0.6,0,1-0.4,1-1l0.3-29.6l2.4-6.7c0.2-0.5-0.1-1.1-0.6-1.3c-0.5-0.2-1.1,0.1-1.3,0.6l-16.2,44.4l0,0
		c-0.1,0.2-0.1,0.5,0,0.8c0.8,1.7,1.2,3.6,1.2,5.4s-0.4,3.7-1.2,5.4C228.9,273.6,229.1,274.2,229.6,274.5z"/>
	<path class="st19" d="M237,170.7c-0.4-0.3-1.1-0.1-1.4,0.3c-2.7,4.2-3.8,9-3.5,13.7s2.3,9.3,5.5,13c0.4,0.4,1,0.4,1.4,0.1
		s0.4-1,0.1-1.4c-3.1-3.3-4.8-7.5-5-11.9c-0.4-4.3,0.7-8.7,3.1-12.5C237.5,171.6,237.4,171,237,170.7z"/>
	<path class="st19" d="M202.2,233.1c-0.4-0.3-1.1-0.2-1.4,0.3c-3.4,5-4.9,10.8-4.7,16.6c0.2,5.8,2.3,11.4,6,16.1
		c0.4,0.4,1,0.5,1.4,0.1c0.4-0.4,0.5-1,0.1-1.4c-3.5-4.4-5.4-9.7-5.6-15c-0.2-5.3,1.2-10.7,4.4-15.4
		C202.8,234,202.6,233.4,202.2,233.1z"/>
	<path class="st19" d="M220.6,199.7c-0.4-0.4-1.1-0.3-1.4,0.1L187.1,241c-0.4,0.4-0.3,1.1,0.1,1.4c0.4,0.4,1.1,0.3,1.4-0.1
		l32.2-41.2C221.1,200.6,221,200,220.6,199.7z"/>
	<path class="st19" d="M421.1,252.1c0.5-0.2,0.7-0.8,0.5-1.3l-35.5-81.2c-0.2-0.5-0.8-0.7-1.3-0.5c-0.5,0.2-0.7,0.8-0.5,1.3
		l35.5,81.2C420,252.1,420.6,252.4,421.1,252.1z"/>
	<path class="st19" d="M286.9,280.6c-0.6-0.1-1.1,0.4-1.1,0.9c-0.1,0.6,0.4,1.1,0.9,1.1c23.3,2.6,46.9-22.8,70.5-76.2
		c0.7,5.7,1.5,12.2,2.3,19.4c-11.8,41.7-22.5,62.5-32.1,62.4c-0.6,0-1,0.4-1,1c0,0.6,0.4,1,1,1c10.2,0.1,21.2-19.6,32.8-59.3
		c0.6,5.1,1.2,10.6,1.8,16.4c-1.4,8.9-0.9,17.8,1.2,26.4c2.3,9.1,6.3,17.8,11.7,25.7c0.3,0.4,0.9,0.6,1.4,0.3
		c0.4-0.3,0.6-0.9,0.3-1.4c-5.3-7.7-9.2-16.2-11.4-25.1c-2.1-8.4-2.6-17.1-1.1-25.7c0-0.1,0-0.1,0-0.3l0,0
		c-0.9-7.8-1.6-14.9-2.4-21.5c0,0,0,0,0-0.1c-3.9-33.6-6.4-50.4-6.4-50.5c-0.1-0.6-0.6-0.9-1.1-0.9c-0.6,0.1-0.9,0.6-0.9,1.1
		c0,0.1,1.4,9,3.6,26.9C333,257.3,309.8,283.3,286.9,280.6z"/>
	<path class="st19" d="M392.2,274.5c-0.5,0.1-0.8,0.7-0.6,1.3c0.1,0.5,0.7,0.8,1.3,0.6c7.2-2.4,12.9-7.3,16.5-13.5
		c3.6-6.2,4.9-13.6,3.3-21c-0.1-0.6-0.6-0.9-1.1-0.8c-0.6,0.1-0.9,0.6-0.8,1.1c1.5,7,0.2,13.9-3.1,19.7
		C404.3,267.6,398.9,272.2,392.2,274.5z"/>
	<path class="st19" d="M310.9,259.2c-8.2,4-17,2.3-26.2-4.9c-9.5-7.4-19.3-20.6-29.6-39.6c-0.3-0.5-0.9-0.6-1.4-0.4
		c-0.5,0.3-0.6,0.9-0.4,1.4c10.5,19.3,20.5,32.7,30.1,40.2c9.9,7.7,19.3,9.5,28.3,5.1c0.5-0.2,0.7-0.9,0.4-1.4
		C312,259.2,311.4,259,310.9,259.2z"/>
	<path class="st19" d="M268.7,181.9c2.5-0.5,5.1-0.1,7.4,1.4l2.3-3.7c-3.3-2.1-7-2.6-10.6-2c-3.6,0.7-6.8,2.6-9.1,5.8
		c-2.3,3.1-3.1,6.8-2.7,10.4s2.1,7,5.1,9.5c2.9,2.5,6.6,3.6,10.2,3.5c3.6-0.1,7.1-1.6,9.8-4.4l-3.1-3.1c-1.9,1.9-4.3,3-6.9,3.1
		c-2.5,0.1-5.1-0.7-7.2-2.4c-2.1-1.8-3.3-4.1-3.6-6.7c-0.3-2.5,0.3-5.1,1.9-7.3C263.9,183.8,266.2,182.4,268.7,181.9z"/>
	<path class="st27" d="M267.5,173.6c0,0-4.2,0.1-12.5,0.2c0,0-2.1,1.1-6.5,3.3c-3.3,0.6-6.1,2.5-7.8,5.3c0,0-5,5.1-15.1,15.3
		c-5,4.9-5.3,12.9-0.7,18.1c4.6,5.3,12.6,5.9,18.1,1.6c3.1,0.3,6.1-0.2,8.9-1.4c3.7-1.4,7.3-2.9,11-4.3c2.1-0.7,3.3-2.8,2.8-5
		c1.6-0.6,2.8-2.1,3.3-3.8c0.5-1.7,0.1-3.6-0.9-4.9c1.6-0.9,2.6-2.7,2.4-4.5s-1.4-3.5-3.1-4.1c1.6-0.5,2.7-1.9,2.8-3.6
		c0.1-1.6-0.6-3.3-2.1-4.1c0,0-1-0.4-3-1.1C267.8,179.2,268.7,176.1,267.5,173.6z"/>
	<path class="st26" d="M244.1,183c0.8-1,1.8-1.7,2.9-2.3c1.1-0.5,2.3-0.8,3.6-0.8l0,0l14.7,1.2c0.4,0,0.7-0.2,0.7-0.6
		s-0.2-0.7-0.6-0.7l-14.7-1.2h-0.1c-1.4,0-2.8,0.3-4.1,0.9c-1.3,0.6-2.4,1.5-3.3,2.6c-0.2,0.3-0.2,0.7,0.1,0.9
		C243.5,183.4,243.9,183.3,244.1,183z"/>
	<path class="st19" d="M307.3,212.2c1.6,0,2.8-1.3,2.8-2.8v-31c0-1.6-1.3-2.8-2.8-2.8h-28.7c-1.6,0-2.8,1.3-2.8,2.8v31
		c0,1.6,1.3,2.8,2.8,2.8H307.3z"/>
	<path class="st26" d="M233.6,205.6c3.3-1.9,7.5-3.6,9.5-9.3c1.4-4.1,0.9-8.7-1.4-12.3c-10,10-14.9,14.9-14.9,14.9
		c-3,2.5-4.8,6.2-4.9,10.1c0.9,6.3,6.2,11.1,12.5,11.4C227.9,217.7,227.2,209.4,233.6,205.6z"/>
	<path class="st26" d="M242.8,191.6c-0.3-0.2-0.7-0.1-0.9,0.2c-0.4,0.8-0.6,1.7-0.6,2.6s0.4,1.7,1,2.4c0.2,0.3,0.6,0.4,0.9,0.1
		c0.3-0.2,0.4-0.6,0.1-0.9c-0.4-0.5-0.6-1.1-0.6-1.7c-0.1-0.6,0.1-1.2,0.4-1.8C243.2,192.2,243.1,191.8,242.8,191.6z"/>
	<path class="st26" d="M243.1,200.2c-0.4-0.1-0.7,0.1-0.8,0.4c-0.2,0.8-0.2,1.6,0,2.3c0.2,0.7,0.6,1.4,1.3,1.9
		c0.3,0.2,0.7,0.2,0.9-0.1c0.2-0.3,0.2-0.7-0.1-0.9c-0.4-0.4-0.7-0.9-0.9-1.4c-0.1-0.5-0.1-1.1,0-1.6
		C243.6,200.6,243.4,200.2,243.1,200.2z"/>
	<path class="st36" d="M270.7,193.7c-0.1-1.6-0.9-3-2.1-3.8c0,0-0.1,0.1-0.1,0.2c-4.3,0.7-5,8.5-9.3,12c-6.3,5.1-14.1-0.8-19.3,6.5
		c-2.3,3.2-2.4,7.5-0.3,10.9c1-0.4,1.9-0.9,2.8-1.5c0.9-0.4,1.4-0.5,1.4-0.5c1.6,0.1,3.1-0.1,4.3-0.3c1.5-0.3,2.9-0.7,4.3-1.3
		c4.2-1.6,7.8-3.1,10.8-4.3c1.8-0.7,2.9-2.4,2.8-4.3c0,0,0.1-0.3,0.5-0.9c1.4-0.7,2.3-2,2.8-3.5c0.4-1.5,0.2-3.1-0.6-4.4
		c0,0,0.1-0.3,0.2-0.9C270,196.7,270.7,195.2,270.7,193.7z"/>
	<path class="st26" d="M248,188.9c0.9-0.7,1.8-1.1,2.9-1.2s2.1,0.1,3.1,0.6l0,0c0.1,0.1,0.1,0.1,0.2,0.1l13.7,1.8
		c0.4,0.1,0.7-0.2,0.7-0.6c0.1-0.4-0.2-0.7-0.6-0.7l-13.5-1.8c-1.2-0.6-2.5-0.9-3.8-0.7c-1.3,0.1-2.6,0.6-3.6,1.5
		c-0.3,0.2-0.3,0.6-0.1,0.9C247.3,189.1,247.7,189.1,248,188.9z"/>
	<path class="st26" d="M250.8,204.9c-1-0.1-2-0.3-3-0.6c-0.4-0.1-0.7,0.1-0.9,0.4c-0.1,0.4,0.1,0.7,0.4,0.9c1.1,0.4,2.2,0.6,3.3,0.6
		c1.1,0.1,2.2,0,3.3-0.1l11.7,1.4c0.4,0.1,0.7-0.2,0.7-0.6c0.1-0.4-0.2-0.7-0.6-0.7l-11.8-1.4c-0.1,0-0.1,0-0.2,0l0,0
		C252.9,204.9,251.8,204.9,250.8,204.9z"/>
	<path class="st26" d="M239.2,217.3c1.2,0.4,2.5,0.6,3.8,0.8c0.4,0.1,0.7-0.2,0.7-0.6c0.1-0.4-0.2-0.7-0.6-0.7
		c-1.2-0.1-2.4-0.4-3.6-0.7s-2.3-0.8-3.3-1.4c-0.4-0.1-0.7-0.1-0.9,0.3c-0.1,0.4-0.1,0.7,0.3,0.9C236.8,216.4,238,216.9,239.2,217.3
		z"/>
	<path class="st26" d="M251.3,196.8c1.1,0.1,2.1,0.4,3.1,0.6c0.1,0,0.1,0,0.1,0.1l13.6,1.2c0.4,0,0.7-0.2,0.7-0.6s-0.2-0.7-0.6-0.7
		l-13.5-1.2c-1.1-0.4-2.2-0.6-3.3-0.7s-2.3-0.1-3.5,0.1c-0.4,0.1-0.6,0.4-0.6,0.7s0.4,0.6,0.7,0.6
		C249.1,196.6,250.2,196.6,251.3,196.8z"/>
	<path class="st19" d="M344,328.1L344,328.1L344,328.1c0,0.4,0.6,0.9,1.8,1.7c19.7,14.9,29.5,22.3,29.5,22.3s7.5-8.2,22.5-24.5
		h-49.6c0.4-1.1-1-2.1-4.3-2.8C344,326.7,344,327.8,344,328.1C344,328.1,344,328.1,344,328.1z"/>
	<path class="st20" d="M375.3,349c0,0,7.5-8.2,22.5-24.5c-34.5,0-51.8,0-51.8,0c-2.7,0-2.7,0.4-0.3,2.1
		C365.4,341.5,375.3,349,375.3,349z"/>
	<path class="st19" d="M528.2,352.4c1.4,0,2.6-1.1,2.8-2.5l15.9-95.8c0.2-1.4-0.7-2.5-2.1-2.5H391.3c-1.4,0-2.6,1.1-2.8,2.5
		l-15.9,95.8c-0.2,1.4,0.7,2.5,2.1,2.5H528.2z"/>
	<path class="st20" d="M529.5,352.4c0.9,0,1.8-0.7,1.9-1.6l16-94.3c0.1-0.9-0.4-1.6-1.4-1.6H394.2c-0.9,0-1.8,0.7-1.9,1.6l-16,94.3
		c-0.1,0.9,0.4,1.6,1.4,1.6H529.5L529.5,352.4z"/>
	<path d="M568.1,323.7c0.1,0,0.2-0.1,0.2-0.2v-58.4c0-0.1-0.1-0.2-0.2-0.2h-2.3c-0.1,0-0.2,0.1-0.2,0.2v58.4c0,0.1,0.1,0.2,0.2,0.2
		H568.1z"/>
	<path class="st19" d="M568.2,265.2c0.1-0.1,0.1-0.2,0.1-0.4c-0.2-0.7-0.4-1.4-0.6-2.1c-0.2-0.7-0.4-1.4-0.6-2.1
		c-0.1-0.1-0.1-0.2-0.1-0.2s0,0.1-0.1,0.2c-0.2,0.7-0.4,1.4-0.6,2.1c-0.2,0.7-0.4,1.4-0.6,2.1c-0.1,0.1,0,0.3,0.1,0.4
		c0.4,0.2,0.7,0.7,1.3,0.7S567.8,265.4,568.2,265.2z"/>
	<path d="M567.6,317.8c0.1,0,0.2-0.1,0.3-0.2l9.5-57.6c0-0.1-0.1-0.2-0.2-0.3l-2.3-0.4c-0.1,0-0.2,0.1-0.3,0.2l-9.5,57.6
		c0,0.1,0.1,0.2,0.2,0.3L567.6,317.8z"/>
	<path class="st19" d="M576,260.7c0.5,0.1,0.9-0.4,1.4-0.5c0.1-0.1,0.2-0.2,0.2-0.3c-0.1-0.7-0.2-1.5-0.3-2.2s-0.2-1.5-0.3-2.2
		c0-0.1,0-0.2,0-0.2s-0.1,0.1-0.1,0.2c-0.4,0.6-0.6,1.4-1,2c-0.4,0.6-0.6,1.4-1,2c-0.1,0.1,0,0.3,0.1,0.4
		C575.2,260.1,575.5,260.6,576,260.7z"/>
	<path d="M568.1,329.2l2.3-0.6c0.1,0,0.2-0.1,0.1-0.3L557,271.5c0-0.1-0.1-0.2-0.3-0.1l-2.3,0.6c-0.1,0-0.2,0.1-0.1,0.3l13.5,56.8
		C567.8,329.2,568,329.3,568.1,329.2z"/>
	<path class="st19" d="M555.9,272.8c0.5-0.1,0.7-0.6,1.1-0.9c0.1-0.1,0.1-0.2,0.1-0.4c-0.4-0.6-0.8-1.3-1.1-1.9s-0.8-1.3-1.1-1.9
		c-0.1-0.1-0.1-0.2-0.1-0.2s0,0.1,0,0.2c-0.1,0.7-0.1,1.5-0.1,2.2s-0.1,1.5-0.1,2.2c0,0.1,0.1,0.3,0.2,0.3
		C554.9,272.5,555.4,273,555.9,272.8z"/>
	<path d="M570.7,326.4c0.1,0.1,0.2,0,0.3-0.1l18.1-55.5c0.1-0.1,0-0.2-0.1-0.3l-2.2-0.7c-0.1-0.1-0.2,0-0.3,0.1l-18.1,55.5
		c-0.1,0.1,0,0.2,0.1,0.3L570.7,326.4z"/>
	<path class="st19" d="M587.5,271.2c0.5,0.1,1-0.2,1.4-0.3c0.1,0,0.2-0.1,0.2-0.3c0-0.7,0-1.5,0-2.2s0-1.5,0-2.2c0-0.1,0-0.2,0-0.2
		s-0.1,0.1-0.1,0.2c-0.4,0.6-0.9,1.2-1.3,1.8s-0.9,1.2-1.3,1.8c-0.1,0.1-0.1,0.3,0,0.4C586.8,270.5,587,271,587.5,271.2z"/>
	<path d="M570.5,329.6c0.1,0,0.2-0.1,0.3-0.2l9.5-57.6c0-0.1-0.1-0.2-0.2-0.3l-2.3-0.4c-0.1,0-0.2,0.1-0.3,0.2l-9.5,57.6
		c0,0.1,0.1,0.2,0.2,0.3L570.5,329.6z"/>
	<path class="st19" d="M578.8,272.4c0.5,0.1,0.9-0.4,1.4-0.5c0.1-0.1,0.2-0.2,0.2-0.3c-0.1-0.7-0.2-1.5-0.3-2.2s-0.2-1.5-0.3-2.2
		c0-0.1,0-0.2,0-0.2s-0.1,0.1-0.1,0.2c-0.4,0.6-0.6,1.4-1,2s-0.6,1.4-1,2c-0.1,0.1,0,0.3,0.1,0.4C578,271.8,578.3,272.3,578.8,272.4
		z"/>
	<path class="st20" d="M584.4,352.7c1.4,0,2.6-1.1,2.6-2.6v-44c0-1.4-1.1-2.6-2.6-2.6h-27.6c-1.4,0-2.6,1.1-2.6,2.6v44
		c0,1.4,1.1,2.6,2.6,2.6H584.4z"/>
	<ellipse class="st37" cx="62.7" cy="77.4" rx="40.1" ry="40.1"/>
	
		<ellipse transform="matrix(0.9985 -5.530036e-02 5.530036e-02 0.9985 -4.1826 3.5864)" class="st20" cx="62.7" cy="77.4" rx="32.9" ry="32.9"/>
	<path class="st19" d="M65.8,77.4c0-1.7-1.4-3.1-3.1-3.1s-3.1,1.4-3.1,3.1c0,1.7,1.4,3.1,3.1,3.1C64.4,80.4,65.8,79,65.8,77.4z"/>
	<path class="st19" d="M62.8,72.7c0.4,0,0.6-0.3,0.6-0.6v-22c0-0.4-0.3-0.6-0.6-0.6l0,0c-0.4,0-0.6,0.3-0.6,0.6v22
		C62.2,72.4,62.5,72.7,62.8,72.7L62.8,72.7z"/>
	<path class="st19" d="M57.7,75.1c0.3,0.1,0.7,0.1,0.9-0.2l0,0c0.1-0.3,0.1-0.7-0.2-0.9l-10.7-6.3c-0.3-0.1-0.7-0.1-0.9,0.2l0,0
		c-0.1,0.3-0.1,0.7,0.2,0.9L57.7,75.1z"/>
	<path class="st17" d="M62.4,196.5c-14.2,19.2-14.8,45.3-1.6,65.1C73,241.8,73.6,216.9,62.4,196.5z"/>
	<path class="st38" d="M78.9,225.1c-17.1,15.8-24.5,39.5-19.3,62.3C78.6,272.8,86.2,247.9,78.9,225.1z"/>
	<path class="st38" d="M40.2,225.1c-7.3,22.8,0.4,47.6,19.3,62.3C64.7,264.7,57.3,240.9,40.2,225.1z"/>
	<path class="st16" d="M58.9,290.3c21.3-9.3,36-29.4,38.5-52.6C74.8,245.4,59.4,266.4,58.9,290.3z"/>
	<path class="st16" d="M22.9,237.8C25.3,261,40,281,61.4,290.4C60.9,266.4,45.6,245.4,22.9,237.8z"/>
	<path class="st39" d="M29.4,344.3c0.4,3.5,2.9,6.3,5.8,6.3c8.2,0,16.4,0,24.7,0s16.4,0,24.7,0c2.8,0,5.5-2.8,5.8-6.3
		c0.9-9.3,1.7-18.6,2.6-27.9c0.9-9.3,1.7-18.6,2.6-27.9c0.4-3.5-2.3-6.3-5.8-6.3c-10,0-19.9,0-29.9,0c-10,0-19.9,0-29.9,0
		c-3.5,0-6,2.8-5.8,6.3c0.9,9.3,1.7,18.6,2.6,27.9C27.7,325.6,28.5,335,29.4,344.3z"/>
	<path class="st20" d="M234.5,331.7c0,0-27.7-4.1-83.1-12.2c0,0-13.7,4.2-41.2,12.5c21.4,11,53.1,15.9,95.2,14.4
		C205.3,346.4,215,341.5,234.5,331.7z"/>
	<path class="st19" d="M193.2,358.4l41.2-12.5c0.9-0.3,1.5-1.2,1.5-2.1v-10.9c0-0.9-0.7-1.4-1.5-1.2l-41.2,12.5
		c-0.9,0.3-1.5,1.2-1.5,2.1v10.9C191.7,358.1,192.4,358.6,193.2,358.4z"/>
	<path class="st20" d="M190.7,358.6c0.9,0.1,1.6-0.5,1.6-1.4v-10.9c0-0.9-0.7-1.8-1.6-1.9L110.1,332c-0.9-0.1-1.6,0.5-1.6,1.4v10.9
		c0,0.9,0.7,1.8,1.6,1.9L190.7,358.6z"/>
	<path class="st40" d="M234.5,334.3c0.1,0,0.1-0.1,0.1-0.3c0-0.1-0.1-0.1-0.3-0.1l-40.7,12.2c-0.1,0-0.1,0.1-0.1,0.3
		c0,0.1,0.1,0.1,0.3,0.1L234.5,334.3z"/>
	<path class="st40" d="M234.5,336.7c0.1,0,0.1-0.1,0.1-0.3c0-0.1-0.1-0.1-0.3-0.1l-40.8,12.2c-0.1,0-0.1,0.1-0.1,0.3
		c0,0.1,0.1,0.1,0.3,0.1L234.5,336.7z"/>
	<path class="st40" d="M234.5,339.2c0.1,0,0.1-0.1,0.1-0.3c0-0.1-0.1-0.1-0.3-0.1l-40.8,12.2c-0.1,0-0.1,0.1-0.1,0.3
		c0,0.1,0.1,0.1,0.3,0.1L234.5,339.2z"/>
	<path class="st40" d="M234.5,341.6c0.1,0,0.1-0.1,0.1-0.3c0-0.1-0.1-0.1-0.3-0.1l-40.8,12.2c-0.1,0-0.1,0.1-0.1,0.3
		c0,0.1,0.1,0.1,0.3,0.1L234.5,341.6z"/>
	<path class="st40" d="M234.6,344c0.1,0,0.1-0.1,0.1-0.3c0-0.1-0.1-0.1-0.3-0.1l-40.8,12.2c-0.1,0-0.1,0.1-0.1,0.3
		c0,0.1,0.1,0.1,0.3,0.1L234.6,344z"/>
	<path class="st20" d="M224.4,313.8c0,0-27.7-4.1-83.1-12.2c0,0-13.7,4.2-41.2,12.5c21.4,11,53.1,15.9,95.2,14.4
		C195.2,328.6,205,323.7,224.4,313.8z"/>
	<path class="st19" d="M183.1,340.6l41.2-12.5c0.9-0.3,1.5-1.2,1.5-2.1V315c0-0.9-0.7-1.4-1.5-1.2l-41.2,12.5
		c-0.9,0.3-1.5,1.2-1.5,2.1v10.9C181.7,340.3,182.4,340.8,183.1,340.6z"/>
	<path class="st20" d="M180.7,340.8c0.9,0.1,1.6-0.5,1.6-1.4v-10.9c0-0.9-0.7-1.8-1.6-1.9l-80.6-12.3c-0.9-0.1-1.6,0.5-1.6,1.4v10.9
		c0,0.9,0.7,1.8,1.6,1.9L180.7,340.8z"/>
	<path class="st40" d="M224.5,316.8c0.1,0,0.1-0.1,0.1-0.3c0-0.1-0.1-0.1-0.3-0.1l-40.8,12.2c-0.1,0-0.1,0.1-0.1,0.3
		c0,0.1,0.1,0.1,0.3,0.1L224.5,316.8z"/>
	<path class="st40" d="M224.5,319.3c0.1,0,0.1-0.1,0.1-0.3c0-0.1-0.1-0.1-0.3-0.1l-40.8,12.2c-0.1,0-0.1,0.1-0.1,0.3
		c0,0.1,0.1,0.1,0.3,0.1L224.5,319.3z"/>
	<path class="st40" d="M224.5,321.7c0.1,0,0.1-0.1,0.1-0.3c0-0.1-0.1-0.1-0.3-0.1l-40.8,12.2c-0.1,0-0.1,0.1-0.1,0.3
		c0,0.1,0.1,0.1,0.3,0.1L224.5,321.7z"/>
	<path class="st40" d="M224.5,324.1c0.1,0,0.1-0.1,0.1-0.3c0-0.1-0.1-0.1-0.3-0.1l-40.8,12.2c-0.1,0-0.1,0.1-0.1,0.3
		c0,0.1,0.1,0.1,0.3,0.1L224.5,324.1z"/>
	<path class="st40" d="M224.5,326.6c0.1,0,0.1-0.1,0.1-0.3c0-0.1-0.1-0.1-0.3-0.1l-40.8,12.2c-0.1,0-0.1,0.1-0.1,0.3
		c0,0.1,0.1,0.1,0.3,0.1L224.5,326.6z"/>
	<path class="st20" d="M255.7,293.4c0,0-27.7-4.1-83.1-12.2c0,0-13.7,4.2-41.2,12.5c21.4,11,53.1,15.9,95.2,14.4
		C226.5,308.1,236.3,303.2,255.7,293.4z"/>
	<path class="st19" d="M214.4,320.1l41.2-12.5c0.9-0.3,1.5-1.2,1.5-2.1v-10.9c0-0.9-0.7-1.4-1.5-1.2l-41.2,12.5
		c-0.9,0.3-1.5,1.2-1.5,2.1v10.9C212.9,319.8,213.6,320.4,214.4,320.1z"/>
	<path class="st20" d="M211.9,320.3c0.9,0.1,1.6-0.5,1.6-1.4v-10.9c0-0.9-0.7-1.8-1.6-1.9l-80.6-12.3c-0.9-0.1-1.6,0.5-1.6,1.4v10.9
		c0,0.9,0.7,1.8,1.6,1.9L211.9,320.3z"/>
	<path class="st40" d="M255.8,296.1c0.1,0,0.1-0.1,0.1-0.3s-0.1-0.1-0.3-0.1l-40.8,12.2c-0.1,0-0.1,0.1-0.1,0.3
		c0,0.1,0.1,0.1,0.3,0.1L255.8,296.1z"/>
	<path class="st40" d="M255.8,298.5c0.1,0,0.1-0.1,0.1-0.3c0-0.1-0.1-0.1-0.3-0.1l-40.8,12.2c-0.1,0-0.1,0.1-0.1,0.3
		c0,0.1,0.1,0.1,0.3,0.1L255.8,298.5z"/>
	<path class="st40" d="M255.8,300.9c0.1,0,0.1-0.1,0.1-0.3c0-0.1-0.1-0.1-0.3-0.1l-40.7,12.2c-0.1,0-0.1,0.1-0.1,0.3
		c0,0.1,0.1,0.1,0.3,0.1L255.8,300.9z"/>
	<path class="st40" d="M255.8,303.3c0.1,0,0.1-0.1,0.1-0.3s-0.1-0.1-0.3-0.1l-40.8,12.2c-0.1,0-0.1,0.1-0.1,0.3
		c0,0.1,0.1,0.1,0.3,0.1L255.8,303.3z"/>
	<path class="st40" d="M255.8,305.8c0.1,0,0.1-0.1,0.1-0.3s-0.1-0.1-0.3-0.1l-40.8,12.2c-0.1,0-0.1,0.1-0.1,0.3
		c0,0.1,0.1,0.1,0.3,0.1L255.8,305.8z"/>
	<path class="st41" d="M259.9,315.8l56.3-3c0.1,0,0.2-0.1,0.2-0.2l-0.1-2.3c0-0.1-0.1-0.2-0.2-0.2l-56.3,3c-0.1,0-0.2,0.1-0.2,0.2
		l0.1,2.3C259.6,315.8,259.7,315.8,259.9,315.8z"/>
	<path class="st42" d="M316.3,312.9c0.6-0.2,1.4-0.5,2-0.7c0.6-0.2,1.4-0.5,2-0.7c0.1-0.1,0.2-0.1,0.2-0.1s-0.1,0-0.2-0.1
		c-0.7-0.1-1.4-0.4-2.1-0.5c-0.7-0.1-1.4-0.4-2.1-0.5c-0.1,0-0.3,0-0.4,0.1c-0.2,0.4-0.6,0.8-0.6,1.3c0,0.5,0.5,0.9,0.7,1.2
		C316,312.9,316.2,312.9,316.3,312.9z"/>
	<path class="st20" d="M335.8,330.4c-17.4,0.4-34.8-2.8-50.8-9.5c-13.2,9.2-29.2,13.5-45.3,12.3c17.7,12.3,37.8,20.8,58.9,25
		C313.7,353.3,326.8,343.6,335.8,330.4z"/>
	<path class="st19" d="M339.6,327.4c-16.1,0.4-32.1-2.6-47-8.7c-12.2,8.5-27,12.4-41.9,11.3c16.4,11.4,34.9,19.2,54.5,23
		C319.2,348.6,331.3,339.6,339.6,327.4z"/>
	
		<rect x="147.9" y="62.5" transform="matrix(0.1086 -0.9941 0.9941 0.1086 63.4917 246.272)" class="st43" width="42.3" height="50.5"/>
	
		<rect x="164.4" y="47.1" transform="matrix(0.1086 -0.9941 0.9941 0.1086 80.3294 234.1819)" class="st19" width="12.7" height="50.5"/>
	<rect x="148.6" y="57.8" class="st44" width="5.6" height="8.5"/>
	<path class="st43" d="M213.8,71.1l-0.3-2.8l-5.5,0.6l4.4,43.6l77.1-7.7l-4.4-43.6l-6,0.6l0.3,3c0.5,0.3,0.9,0.9,0.9,1.5
		c0.1,1.1-0.7,2.1-1.8,2.2c-1.1,0.1-2.1-0.7-2.2-1.8c-0.1-0.7,0.2-1.4,0.8-1.8l-0.3-2.8l-4.1,0.4l0.3,3c0.5,0.3,0.9,0.9,0.9,1.5
		c0.1,1.1-0.7,2.1-1.8,2.2c-1.1,0.1-2.1-0.7-2.2-1.8c-0.1-0.7,0.2-1.4,0.8-1.8l-0.3-2.8l-4.1,0.4l0.3,3c0.5,0.3,0.9,0.9,0.9,1.5
		c0.1,1.1-0.7,2.1-1.8,2.2c-1.1,0.1-2.1-0.7-2.2-1.8c-0.1-0.7,0.2-1.4,0.8-1.8l-0.3-2.8l-4.1,0.4l0.3,3c0.5,0.3,0.9,0.9,0.9,1.5
		c0.1,1.1-0.7,2.1-1.8,2.2c-1.1,0.1-2.1-0.7-2.2-1.8c-0.1-0.7,0.2-1.4,0.8-1.8l-0.3-2.8l-4.1,0.4l0.3,3c0.5,0.3,0.9,0.9,0.9,1.5
		c0.1,1.1-0.7,2.1-1.8,2.2c-1.1,0.1-2.1-0.7-2.2-1.8c-0.1-0.7,0.2-1.4,0.8-1.8l-0.3-2.8l-4.1,0.4l0.3,3c0.5,0.3,0.9,0.9,0.9,1.5
		c0.1,1.1-0.7,2.1-1.8,2.2c-1.1,0.1-2.1-0.7-2.2-1.8c-0.1-0.7,0.2-1.4,0.8-1.8l-0.3-2.8l-4.1,0.4l0.3,3c0.5,0.3,0.9,0.9,0.9,1.5
		c0.1,1.1-0.7,2.1-1.8,2.2c-1.1,0.1-2.1-0.7-2.2-1.8c-0.1-0.7,0.2-1.4,0.8-1.8l-0.3-2.8l-4,0.4l0.3,3c0.5,0.3,0.9,0.9,0.9,1.5
		c0.1,1.1-0.7,2.1-1.8,2.2c-1.1,0.1-2.1-0.7-2.2-1.8c-0.1-0.7,0.2-1.4,0.8-1.8l-0.3-2.8l-4.1,0.4l0.3,3c0.5,0.3,0.9,0.9,0.9,1.5
		c0.1,1.1-0.7,2.1-1.8,2.2c-1.1,0.1-2.1-0.7-2.2-1.8c-0.1-0.7,0.2-1.4,0.8-1.8l-0.3-2.8l-4.1,0.4l0.3,3c0.5,0.3,0.9,0.9,0.9,1.5
		c0.1,1.1-0.7,2.1-1.8,2.2c-1.1,0.1-2.1-0.7-2.2-1.8c-0.1-0.7,0.2-1.4,0.8-1.8l-0.3-2.8l-4.1,0.4l0.3,3c0.5,0.3,0.9,0.9,0.9,1.5
		c0.1,1.1-0.7,2.1-1.8,2.2c-1.1,0.1-2.1-0.7-2.2-1.8C212.9,72.3,213.3,71.5,213.8,71.1z"/>
	
		<rect x="202.9" y="65.7" transform="matrix(0.4049 -0.9144 0.9144 0.4049 60.6026 230.8797)" class="st44" width="9.6" height="6.3"/>
	
		<rect x="285.2" y="101.9" transform="matrix(0.4048 -0.9144 0.9144 0.4048 76.5253 327.6753)" class="st44" width="9.6" height="6.3"/>
	
		<rect x="221.6" y="119.6" transform="matrix(0.4049 -0.9144 0.9144 0.4049 22.4743 280.0655)" class="st44" width="9.6" height="6.3"/>
	
		<rect x="135.5" y="119.4" transform="matrix(0.8142 -0.5806 0.5806 0.8142 -46.3656 103.5949)" class="st44" width="6.3" height="9.6"/>
	<path d="M173.5,98.4L173.5,98.4c-0.1,0.1-0.1,0.1-0.1,0.3l0,0C173.5,98.6,173.5,98.5,173.5,98.4L173.5,98.4z"/>
	<path d="M180.3,167.2c0-0.1,0-0.1,0-0.1c0,0.1,0,0.2,0,0.4C180.2,167.4,180.3,167.3,180.3,167.2z"/>
	<path class="st20" d="M544.1,258.2c0.1-0.9-0.4-1.6-1.3-1.6h-146c-0.9,0-1.7,0.7-1.8,1.6l-15.4,90.6c0,0.1,0,0.1,0,0.1L544.1,258.2
		L544.1,258.2z"/>
	<path class="st19" d="M465.3,313.6c5.8,0,10.7-4.7,10.8-10.5c0.1-5.8-4.4-10.5-10.2-10.5c-5.8,0-10.7,4.7-10.8,10.5
		C454.8,308.9,459.4,313.6,465.3,313.6z"/>
	<path class="st20" d="M30.9,115.4c0-1.2-1-2.2-2.2-2.2c-1.2,0-2.2,1-2.2,2.2s1,2.2,2.2,2.2C29.9,117.6,30.9,116.7,30.9,115.4z"/>
	<path class="st20" d="M40.4,122.6c0-0.8-0.6-1.4-1.4-1.4s-1.4,0.6-1.4,1.4s0.6,1.4,1.4,1.4S40.4,123.4,40.4,122.6z"/>
	<path class="st19" d="M101.7,141.7c0-1.2-1-2.2-2.2-2.2s-2.2,1-2.2,2.2c0,1.2,1,2.2,2.2,2.2S101.7,142.9,101.7,141.7z"/>
	<path class="st19" d="M72.3,246.4c0-1.2-1-2.2-2.2-2.2c-1.2,0-2.2,1-2.2,2.2c0,1.2,1,2.2,2.2,2.2C71.3,248.6,72.3,247.6,72.3,246.4
		z"/>
	<path class="st20" d="M109.7,249.1c0-1.1-0.9-1.9-1.9-1.9s-1.9,0.9-1.9,1.9s0.9,1.9,1.9,1.9S109.7,250.2,109.7,249.1z"/>
	<path class="st20" d="M121.2,237.6c0-0.6-0.5-1.1-1.1-1.1c-0.6,0-1.1,0.5-1.1,1.1c0,0.6,0.5,1.1,1.1,1.1
		C120.7,238.7,121.2,238.3,121.2,237.6z"/>
	<path class="st45" d="M90.3,344.3c0.9-9.3,1.7-18.6,2.6-27.9c0.9-9.3,1.7-18.6,2.6-27.9c0.4-3.5-2.3-6.3-5.8-6.3H70.2v68.6h14.2
		C87.4,350.6,90,347.8,90.3,344.3z"/>
	<path class="st20" d="M30.6,185.7c0-1.2-1-2.2-2.2-2.2s-2.2,1-2.2,2.2c0,1.2,1,2.2,2.2,2.2S30.6,186.9,30.6,185.7z"/>
	<path class="st20" d="M165.3,258.4c0-1.2-1-2.2-2.2-2.2c-1.2,0-2.2,1-2.2,2.2s1,2.2,2.2,2.2C164.3,260.6,165.3,259.6,165.3,258.4z"
		/>
	<path class="st19" d="M186.5,231.4c0-0.6-0.4-1-1-1c-0.6,0-1,0.4-1,1c0,0.6,0.4,1,1,1C186,232.4,186.5,232,186.5,231.4z"/>
	<path class="st19" d="M70.2,316.3c0-1.2-1-2.2-2.2-2.2c-1.2,0-2.2,1-2.2,2.2c0,1.2,1,2.2,2.2,2.2C69.2,318.5,70.2,317.5,70.2,316.3
		z"/>
	<path class="st19" d="M408.1,291c0-0.6-0.5-1.1-1.1-1.1s-1.1,0.5-1.1,1.1c0,0.6,0.5,1.1,1.1,1.1S408.1,291.6,408.1,291z"/>
	<path class="st19" d="M455.7,227.5c0-0.6-0.5-1.1-1.1-1.1c-0.6,0-1.1,0.5-1.1,1.1c0,0.6,0.5,1.1,1.1,1.1S455.7,228.1,455.7,227.5z"
		/>
	<path class="st20" d="M549.1,173.6c0-1.2-1-2.2-2.2-2.2s-2.2,1-2.2,2.2c0,1.2,1,2.2,2.2,2.2S549.1,174.8,549.1,173.6z"/>
	<path class="st19" d="M523.7,289.5c0-1.2-1-2.2-2.2-2.2c-1.2,0-2.2,1-2.2,2.2c0,1.2,1,2.2,2.2,2.2S523.7,290.7,523.7,289.5z"/>
	<path class="st20" d="M422.5,150c0-0.9-0.7-1.6-1.6-1.6s-1.6,0.7-1.6,1.6c0,0.9,0.7,1.6,1.6,1.6S422.5,150.8,422.5,150z"/>
	<path class="st19" d="M418.5,327.4c0-0.6-0.5-1.1-1.1-1.1s-1.1,0.5-1.1,1.1c0,0.6,0.5,1.1,1.1,1.1S418.5,328.1,418.5,327.4z"/>
	<path class="st19" d="M438,307.9c0-0.9-0.6-1.5-1.5-1.5s-1.5,0.6-1.5,1.5s0.6,1.5,1.5,1.5C437.2,309.4,438,308.7,438,307.9z"/>
	<path class="st20" d="M606.3,177.7c0-0.9-0.6-1.5-1.5-1.5c-0.9,0-1.5,0.6-1.5,1.5c0,0.9,0.6,1.5,1.5,1.5
		C605.7,179.2,606.3,178.5,606.3,177.7z"/>
	<path class="st19" d="M568,329.8c0-0.5-0.4-0.9-0.9-0.9c-0.5,0-0.9,0.4-0.9,0.9s0.4,0.9,0.9,0.9C567.6,330.6,568,330.2,568,329.8z"
		/>
	<path class="st20" d="M405,116.1c0-0.5-0.4-0.9-0.9-0.9s-0.9,0.4-0.9,0.9s0.4,0.9,0.9,0.9C404.6,117,405,116.6,405,116.1z"/>
	<path class="st20" d="M396.5,79.7c0-0.6-0.5-1.1-1.1-1.1s-1.1,0.5-1.1,1.1s0.5,1.1,1.1,1.1S396.5,80.4,396.5,79.7z"/>
	<path class="st46" d="M253.7,33.6c0-0.6-0.5-1.1-1.1-1.1c-0.6,0-1.1,0.5-1.1,1.1c0,0.6,0.5,1.1,1.1,1.1
		C253.2,34.7,253.7,34.2,253.7,33.6z"/>
	<path class="st19" d="M45.4,322.7c0-0.4-0.3-0.6-0.6-0.6c-0.4,0-0.6,0.3-0.6,0.6c0,0.4,0.3,0.6,0.6,0.6
		C45.1,323.2,45.4,322.9,45.4,322.7z"/>
	<path class="st20" d="M459.1,132.8c0-1.2-1-2.1-2.1-2.1s-2.1,1-2.1,2.1c0,1.2,1,2.1,2.1,2.1S459.1,134,459.1,132.8z"/>
</g>
</svg>
