<?xml version="1.0" encoding="utf-8"?>
<!-- Generator: Adobe Illustrator 24.3.0, SVG Export Plug-In . SVG Version: 6.00 Build 0)  -->
<svg version="1.1" id="Capa_1" xmlns="http://www.w3.org/2000/svg" xmlns:xlink="http://www.w3.org/1999/xlink" x="0px" y="0px"
	 viewBox="0 0 595.28 841.89" style="enable-background:new 0 0 595.28 841.89;" xml:space="preserve">
<style type="text/css">
	.st0{fill:#0000FF;}
</style>
<g>
	<g>
		<path class="st0" d="M275.24,371.99c-0.03-0.22-0.08-0.44-0.16-0.65h-0.03l-11.95-22.47c-0.65-1.2-2.63-1.2-3.25,0l-11.97,22.47
			l0,0c-0.11,0.22-0.16,0.44-0.19,0.65c0,0-0.03,0.06-0.03,0.11s0,0.05,0,0.11v78.28l0,0l0,0c0,0,0,0,0,0.06v15.14
			c0,0.82,0.52,1.53,1.26,1.75c4.13,1.31,8.34,1.96,12.55,1.96c4.21,0,8.45-0.65,12.55-1.96c0.77-0.22,1.26-0.93,1.26-1.75v-15.2
			v-78.28c0-0.06,0-0.06,0-0.11C275.27,372.05,275.27,371.99,275.24,371.99z M269.61,449.57c-0.55,0.17-1.09,0.27-1.64,0.33
			c-0.35,0.11-0.71,0.16-1.06,0.22c-0.6,0.06-1.23,0.11-1.84,0.16c-0.3,0.06-0.57,0.11-0.87,0.11c-0.3,0.06-0.6,0.06-0.9,0.06
			v-74.57c2.79-0.11,5.58-0.49,8.31-1.2v74.4c-0.3,0.05-0.6,0.16-0.9,0.22C270.35,449.4,269.96,449.52,269.61,449.57z
			 M257.88,450.33c-0.63-0.11-1.25-0.16-1.86-0.22c-0.35-0.06-0.68-0.11-1.04-0.16c-0.55-0.11-1.13-0.22-1.67-0.39
			c-0.36-0.05-0.74-0.16-1.1-0.27c-0.3-0.06-0.57-0.17-0.9-0.22v-74.4c2.74,0.71,5.53,1.09,8.29,1.2v74.57c-0.27,0-0.58,0-0.87-0.06
			C258.46,450.39,258.16,450.33,257.88,450.33z M255.75,364.34c1.89,0.54,3.8,0.82,5.72,0.82c1.91,0,3.82-0.27,5.71-0.82l3.55,6.72
			c-3.03,0.77-6.12,1.2-9.24,1.2c0,0,0,0-0.03,0h-0.06c-3.09,0-6.17-0.44-9.21-1.2L255.75,364.34z M261.46,353.63l3.91,7.38
			c-2.57,0.6-5.25,0.6-7.81,0L261.46,353.63z M271.6,464.33c-6.67,1.91-13.61,1.91-20.28,0V452.9c0.14,0.06,0.27,0.06,0.41,0.11
			c0.3,0.05,0.63,0.11,0.93,0.22c0.65,0.11,1.31,0.27,1.96,0.38c0.36,0.06,0.68,0.11,1.04,0.16c0.65,0.11,1.31,0.17,1.96,0.22
			c0.3,0,0.63,0.06,0.96,0.11c0.9,0.06,1.83,0.06,2.73,0.11c0.06,0,0.11,0,0.11,0c0.06,0,0.11,0,0.11,0
			c0.95-0.06,1.88-0.06,2.79-0.11c0.32-0.06,0.65-0.11,0.98-0.11c0.66-0.05,1.29-0.11,1.94-0.22c0.36-0.05,0.71-0.11,1.06-0.22
			c0.63-0.05,1.29-0.22,1.91-0.32c0.33-0.11,0.65-0.17,0.96-0.22c0.14-0.06,0.27-0.06,0.41-0.11v11.43H271.6z"/>
	</g>
	<g>
		<path class="st0" d="M313.95,357.13v-7.38c0-1.04-0.82-1.86-1.83-1.86h-12.19h-0.03h-8.03c-1.01,0-1.86,0.82-1.86,1.81l0,0
			c0,0,0,0,0,0.05v117.81l0,0c0,0.06,0,0.06,0,0.06c0,0.99,0.85,1.8,1.86,1.8h8.03h0.03h12.19c1.01,0,1.83-0.82,1.83-1.86v-7.38
			c27.58-0.99,49.72-23.72,49.72-51.5C363.67,380.85,341.53,358.11,313.95,357.13z M312.12,456.56c-1.04,0-1.86,0.82-1.86,1.81v7.38
			H293.7v-11.04h6.2c1.01,0,1.83-0.82,1.83-1.86s-0.82-1.8-1.83-1.8h-6.2v-11.1h6.2c1.01,0,1.83-0.82,1.83-1.81
			c0-1.04-0.82-1.86-1.83-1.86h-6.2v-11.04h6.2c1.01,0,1.83-0.82,1.83-1.86c0-0.99-0.82-1.81-1.83-1.81h-6.2v-11.1h6.2
			c1.01,0,1.83-0.77,1.83-1.8c0-1.04-0.82-1.86-1.83-1.86h-6.2v-11.04h6.2c1.01,0,1.83-0.82,1.83-1.86s-0.82-1.86-1.83-1.86h-6.2
			v-11.04h6.2c1.01,0,1.83-0.82,1.83-1.8c0-1.04-0.82-1.86-1.83-1.86h-6.2v-11.04h6.2c1.01,0,1.83-0.82,1.83-1.86
			c0-0.98-0.82-1.86-1.83-1.86h-6.2v-11.04h16.56v7.38c0,1.04,0.82,1.86,1.86,1.86c26.41,0,47.89,21.49,47.89,47.89
			C360,435.08,338.52,456.56,312.12,456.56z"/>
	</g>
	<g>
		<path class="st0" d="M312.12,375.49c-1.04,0-1.86,0.82-1.86,1.86v62.6c0,1.04,0.82,1.86,1.86,1.86
			c18.26,0,33.13-14.87,33.13-33.13C345.24,390.36,330.37,375.49,312.12,375.49z M313.95,438.03v-58.77
			c15.39,0.93,27.63,13.78,27.63,29.41C341.58,424.26,329.34,437.11,313.95,438.03z"/>
	</g>
</g>
</svg>
