<?xml version="1.0" encoding="utf-8"?>
<!-- Generator: Adobe Illustrator 24.3.0, SVG Export Plug-In . SVG Version: 6.00 Build 0)  -->
<svg version="1.1" id="Capa_1" xmlns="http://www.w3.org/2000/svg" xmlns:xlink="http://www.w3.org/1999/xlink" x="0px" y="0px"
	 viewBox="0 0 595.28 841.89" style="enable-background:new 0 0 595.28 841.89;" xml:space="preserve">
<style type="text/css">
	.st0{fill:#0000FF;stroke:#0000FF;stroke-width:1.0913;stroke-miterlimit:10;}
</style>
<g>
	<path class="st0" d="M307.81,230.46l-3.06-11.32c0,0,0,0,0-0.05l0,0l-2.08-7.66c-0.25-0.9-1.18-1.45-2.08-1.2l-88.41,23.94
		c-0.4,0.1-0.77,0.4-1,0.75c-0.23,0.4-0.3,0.9-0.17,1.3l1.13,4.16l-14.38,3.86c-0.93,0.25-1.45,1.2-1.21,2.1l2.03,7.46
		c0.12,0.45,0.4,0.8,0.77,1.05c0.28,0.15,0.55,0.2,0.85,0.2c0.15,0,0.3,0,0.45-0.05l14.38-3.86l1.13,4.11
		c0.2,0.75,0.88,1.25,1.63,1.25c0.15,0,0.3-0.05,0.43-0.05l39.5-10.72v7.26c-3.83,0.8-6.73,4.21-6.73,8.26
		c0,2.41,1.03,4.56,2.63,6.11l-23.72,37.72c-0.5,0.8-0.27,1.85,0.53,2.35c0.28,0.15,0.57,0.25,0.9,0.25c0.55,0,1.1-0.25,1.43-0.81
		l23.72-37.72c0.4,0.15,0.83,0.3,1.25,0.4v43.18c0,0.95,0.75,1.7,1.7,1.7c0.93,0,1.68-0.75,1.68-1.7v-43.15
		c0.45-0.1,0.85-0.25,1.28-0.4l23.72,37.72c0.33,0.55,0.88,0.81,1.43,0.81c0.3,0,0.63-0.1,0.9-0.25c0.77-0.5,1.03-1.55,0.52-2.35
		l-23.72-37.72c1.61-1.55,2.63-3.7,2.63-6.11c0-4.06-2.91-7.46-6.77-8.26v-8.17l45.53-12.33c0.43-0.1,0.81-0.4,1.03-0.75
		C307.89,231.36,307.94,230.91,307.81,230.46z M201.42,251.3l-1.15-4.26l12.75-3.41l1.15,4.21L201.42,251.3z M264.49,261.27
		c0,2.81-2.28,5.11-5.06,5.11c-2.81,0-5.06-2.3-5.06-5.11c0-2.75,2.25-5.06,5.06-5.06C262.2,256.21,264.49,258.51,264.49,261.27z
		 M219,252.75l-4.28-15.78l85.13-23.05l1.21,4.46l-77.04,20.84c-0.9,0.2-1.43,1.15-1.17,2.05c0.2,0.75,0.87,1.26,1.63,1.26
		c0.15,0,0.3,0,0.45-0.05l77.01-20.84l2.21,8.07L219,252.75z"/>
</g>
</svg>
