<?xml version="1.0" encoding="utf-8"?>
<!-- Generator: Adobe Illustrator 24.3.0, SVG Export Plug-In . SVG Version: 6.00 Build 0)  -->
<svg version="1.1" id="Capa_1" xmlns="http://www.w3.org/2000/svg" xmlns:xlink="http://www.w3.org/1999/xlink" x="0px" y="0px"
	 viewBox="0 0 595.28 841.89" style="enable-background:new 0 0 595.28 841.89;" xml:space="preserve">
<style type="text/css">
	.st0{fill:#0000FF;}
</style>
<g>
	<g>
		<path class="st0" d="M420.77,440.96c-3.73-0.78-6.92-1.93-9.2-3.25c-1.14-0.67-1.84-1.93-1.84-3.31v-15.22
			c0-2.23-1.62-4.57-6.17-4.57c-0.33,0-0.57,0.06-0.57,0.06c-0.12,0-0.7,0-1.53,0c-8.61,0-14.74-1.74-15.22-4.45
			c-1.23-6.44,0.18-19.68,0.18-19.8c0.12-0.96-0.42-1.81-1.26-2.17c-0.06,0-5.42-2.05-9.86-4.63c-0.91-0.54-1.45-1.14-1.56-1.74
			c-0.21-0.84,0.24-1.74,0.48-2.11c11.13-17.33,11.91-22.44,11.94-23.16c2.08-17.87,10.2-30.02,24.07-36.17
			c1.05-0.48,1.5-1.68,1.05-2.7c-0.45-1.02-1.65-1.5-2.67-1.02c-10.53,4.63-23.65,15.22-26.51,39.47c0,0.24-0.69,4.87-11.25,21.3
			c-0.18,0.3-1.68,2.53-1.08,5.24c0.27,1.2,1.08,3.01,3.49,4.39c3.34,1.92,7.04,3.55,9,4.39c-0.33,3.79-1.08,13.78,0,19.49
			c1.29,6.73,12.6,7.7,19.22,7.7c1.05,0,1.71,0,1.77,0c0,0,0.15,0,0.33,0c1.32,0,2.02,0.3,2.11,0.48v15.22
			c0,2.83,1.48,5.41,3.82,6.8c2.74,1.63,6.26,2.89,10.47,3.73c0.15,0.06,0.27,0.06,0.42,0.06c0.93,0,1.77-0.66,1.98-1.62
			C422.57,442.29,421.88,441.2,420.77,440.96z"/>
	</g>
	<g>
		<path class="st0" d="M481.66,357.03c-0.12-24.19-13.81-35.08-25.27-39.95c-1.02-0.43-2.23,0.06-2.65,1.08
			c-0.45,1.02,0.03,2.23,1.05,2.65c15.07,6.38,22.74,18.59,22.8,36.28l0.03,0.24c0,24.48-6.86,32.85-12.33,39.53
			c-2.19,2.7-4.24,5.23-5.66,8.36c-5.18,11.37-4.45,23.34-3.55,29.43c0.18,1.26-0.39,2.59-1.45,3.19
			c-2.56,1.45-6.11,2.59-10.28,3.37c-1.12,0.18-1.87,1.26-1.66,2.35c0.18,0.96,1.05,1.68,2.01,1.68c0.09,0,0.21,0,0.36-0.06
			c4.69-0.84,8.6-2.11,11.58-3.85c2.5-1.45,3.88-4.34,3.46-7.28c-0.84-5.66-1.53-16.73,3.19-27.13c1.2-2.65,3.01-4.94,5.11-7.46
			c5.9-7.22,13.27-16.25,13.27-42.12L481.66,357.03z"/>
	</g>
	<g>
		<path class="st0" d="M446.97,419.49c0.12-0.24,0.18-0.54,0.18-0.84v-87.79l0,0v-0.06v-0.06v-13.3c0-0.78-0.43-1.44-1.12-1.81
			c-8.72-4.33-18.35-4.33-27.08,0c-0.72,0.36-1.14,1.02-1.14,1.81v13.42v87.79c0,0.3,0.06,0.6,0.18,0.84l0.03,0.06L430.66,445
			c0.36,0.72,1.05,1.15,1.84,1.15c0.75,0,1.47-0.43,1.81-1.15l12.63-25.45L446.97,419.49z M438.52,427.43
			c-3.85-1.39-8.21-1.39-12.06,0l-3.85-7.76c3.25-1.32,6.53-2.05,9.84-2.05c0.03,0,0.03,0,0.03,0h0.03c3.31,0,6.62,0.72,9.86,2.05
			L438.52,427.43z M424.05,331.34c0.57-0.24,1.14-0.36,1.71-0.54c0.36-0.12,0.72-0.24,1.08-0.3c0.63-0.12,1.29-0.24,1.95-0.36
			c0.3,0,0.57-0.12,0.84-0.12c0.27-0.06,0.54-0.06,0.81-0.06v83.76c-2.89,0.18-5.78,0.78-8.58,1.87V332.2
			c0.33-0.12,0.69-0.3,1.02-0.43C423.3,331.58,423.66,331.46,424.05,331.34z M436.2,330.14c0.63,0.12,1.29,0.24,1.93,0.36
			c0.36,0.06,0.72,0.18,1.08,0.3c0.57,0.18,1.14,0.3,1.71,0.54c0.39,0.12,0.78,0.24,1.14,0.42c0.36,0.12,0.7,0.3,1.02,0.43v83.39
			c-2.8-1.08-5.68-1.69-8.57-1.87v-83.76c0.27,0,0.54,0,0.81,0.06C435.64,330.01,435.9,330.14,436.2,330.14z M421.88,318.7
			c6.95-3.13,14.26-3.13,21.21,0v9.09c-0.06-0.06-0.12-0.06-0.21-0.06c-0.24-0.12-0.48-0.18-0.72-0.24
			c-0.78-0.3-1.56-0.54-2.35-0.72c-0.36-0.12-0.69-0.18-1.05-0.24c-0.72-0.18-1.44-0.3-2.16-0.43c-0.33-0.06-0.67-0.06-0.99-0.12
			c-1.02-0.12-2.05-0.18-3.07-0.18c-0.03,0-0.06,0-0.09,0c-1.02,0-2.05,0.06-3.07,0.18c-0.33,0.06-0.63,0.06-0.96,0.12
			c-0.73,0.12-1.48,0.24-2.2,0.43c-0.36,0.06-0.69,0.12-1.05,0.24c-0.78,0.18-1.57,0.42-2.35,0.72c-0.24,0.06-0.48,0.12-0.72,0.24
			c-0.06,0-0.15,0-0.21,0.06v-9.09H421.88z M432.51,439.58l-4.21-8.48c2.71-0.84,5.72-0.84,8.39,0L432.51,439.58z"/>
	</g>
</g>
</svg>
