<?xml version="1.0" encoding="utf-8"?>
<!-- Generator: Adobe Illustrator 24.3.0, SVG Export Plug-In . SVG Version: 6.00 Build 0)  -->
<svg version="1.1" id="Layer_1" xmlns="http://www.w3.org/2000/svg" xmlns:xlink="http://www.w3.org/1999/xlink" x="0px" y="0px"
	 viewBox="0 0 2040 1800" style="enable-background:new 0 0 2040 1800;" xml:space="preserve">
<style type="text/css">
	.st0{opacity:0.1;}
	.st1{fill:none;stroke:#000FFF;stroke-width:5;stroke-miterlimit:10;}
	.st2{fill:none;stroke:#000FFF;stroke-width:5;stroke-miterlimit:10;stroke-dasharray:40,25;}
	.st3{fill:none;stroke:#000FFF;stroke-width:5;stroke-miterlimit:10;stroke-dasharray:40.1097,25.0685;}
	.st4{fill:none;stroke:#D21643;stroke-width:5;stroke-miterlimit:10;}
	.st5{fill:none;stroke:#D216FF;stroke-width:5;stroke-miterlimit:10;stroke-dasharray:40,25;}
	.st6{fill:#D21643;}
	.st7{fill:#FFA726;}
	.st8{fill:#D216FF;}
	.st9{fill:#000FFF;}
	.st10{fill:none;stroke:#D216FF;stroke-width:4;stroke-miterlimit:10;}
	.st11{fill:none;stroke:#FFA726;stroke-width:4;stroke-miterlimit:10;}
	.st12{fill:none;stroke:#000FFF;stroke-width:3;stroke-miterlimit:10;stroke-dasharray:40,25,5;}
	.st13{fill:none;stroke:#D216FF;stroke-width:5;stroke-miterlimit:10;stroke-dasharray:40,25,5;}
</style>
<g>
	<g>
		<g>
			<g class="st0">
				<g>
					<g>
						<circle class="st1" cx="1012.54" cy="917.89" r="675.67"/>
						<path class="st2" d="M798.28,978.9c-376.26-189.74-635.17-391.5-597.35-473.93c29.86-65.09,236.78-38.46,514.13,55.12"/>
						<path class="st1" d="M1773.12,1123.37c59.43,1.11,98.17-10.32,109.85-35.76c37.61-81.96-218.17-281.92-590.97-470.71"/>
						<g>
							<g>
								<g>
									<path class="st1" d="M593.17,590.17c-0.66-6.74-1.23-13.38-1.7-19.93"/>
									<path class="st3" d="M590.13,545.2c-3.67-106.3,20.44-182.86,74.39-208.74c122.58-58.79,352.76,166.32,514.13,502.78
										s192.82,656.88,70.25,715.67c-92.86,44.54-247.49-73.87-387.17-280.2"/>
									<path class="st1" d="M854.75,1264.32c-3.67-5.52-7.32-11.09-10.97-16.72"/>
								</g>
							</g>
						</g>
						<path class="st4" d="M1070.28,787.47c339.17,155.61,592.95,327.9,566.84,384.81c-26.11,56.91-322.23-23.11-661.39-178.72"/>
						<path class="st5" d="M952.09,350.64c114.52-73.82,233.91-96.56,332.98-51.11c205.27,94.18,245.53,445.48,89.91,784.65
							s-448.17,537.77-653.44,443.59c-109.48-50.23-172.02-173.6-182.94-329.26"/>
					</g>
					<g>
						
							<ellipse transform="matrix(0.985 -0.1723 0.1723 0.985 -156.7018 152.156)" class="st6" cx="798.28" cy="978.9" rx="22.07" ry="22.07"/>
						
							<ellipse transform="matrix(0.9376 -0.3478 0.3478 0.9376 -496.1285 410.5245)" class="st6" cx="895.39" cy="1587.15" rx="22.07" ry="22.07"/>
						
							<ellipse transform="matrix(0.9842 -0.1771 0.1771 0.9842 -171.4631 333.333)" class="st6" cx="1781.25" cy="1127.02" rx="22.07" ry="22.07"/>
						
							<ellipse transform="matrix(0.9998 -0.02 0.02 0.9998 -24.6873 16.9848)" class="st7" cx="838.26" cy="1244.83" rx="22.07" ry="22.07"/>
						
							<ellipse transform="matrix(0.6752 -0.7377 0.7377 0.6752 -179.8935 710.666)" class="st7" cx="717" cy="559.6" rx="22.07" ry="22.07"/>
						
							<ellipse transform="matrix(0.9376 -0.3478 0.3478 0.9376 -465.2123 529.612)" class="st7" cx="1242.55" cy="1560.58" rx="22.07" ry="22.07"/>
						
							<ellipse transform="matrix(0.9998 -0.02 0.02 0.9998 -15.5248 21.561)" class="st7" cx="1072.01" cy="788.26" rx="22.07" ry="22.07"/>
						
							<ellipse transform="matrix(0.9998 -0.02 0.02 0.9998 -23.0949 32.9553)" class="st7" cx="1638.85" cy="1173.07" rx="22.07" ry="22.07"/>
						
							<ellipse transform="matrix(0.3839 -0.9234 0.9234 0.3839 -911.623 1192.8263)" class="st7" cx="438.07" cy="1279.57" rx="22.07" ry="22.07"/>
						
							<ellipse transform="matrix(0.9376 -0.3478 0.3478 0.9376 -77.4654 250.5918)" class="st8" cx="659.25" cy="341.06" rx="22.07" ry="22.07"/>
						
							<ellipse transform="matrix(0.6752 -0.7377 0.7377 0.6752 -35.392 1153.4277)" class="st8" cx="1291.99" cy="616.9" rx="22.07" ry="22.07"/>
						
							<ellipse transform="matrix(0.8254 -0.5645 0.5645 0.8254 -580.9766 513.516)" class="st8" cx="539.73" cy="1196.04" rx="22.07" ry="22.07"/>
						
							<ellipse transform="matrix(0.6752 -0.7377 0.7377 0.6752 -245.577 629.459)" class="st9" cx="591.95" cy="593.58" rx="22.07" ry="22.07"/>
						
							<ellipse transform="matrix(0.9376 -0.3478 0.3478 0.9376 -284.6508 401.4055)" class="st9" cx="975.72" cy="993.55" rx="22.07" ry="22.07"/>
						
							<ellipse transform="matrix(0.987 -0.1607 0.1607 0.987 -235.707 135.0969)" class="st9" cx="717.56" cy="1525.12" rx="22.07" ry="22.07"/>
						
							<ellipse transform="matrix(0.9376 -0.3478 0.3478 0.9376 -377.3135 617.0148)" class="st9" cx="1529.94" cy="1359.46" rx="22.07" ry="22.07"/>
						<circle class="st9" cx="952.09" cy="350.64" r="22.07"/>
					</g>
				</g>
				<g>
					<g>
						<path class="st10" d="M805.72,428.92c52.2-119.21,118.4-190.78,186.24-186.48c135.67,8.61,226.49,317.49,202.86,689.9
							s-152.78,667.33-288.45,658.72c-107.21-6.8-186.41-201.11-203.27-466.1"/>
						<path class="st11" d="M1235.92,395.34c135.99-8.44,251.27,30.07,315.49,118.13c133.07,182.48-3.48,508.65-305,728.51
							s-653.81,250.17-786.88,67.69c-70.97-97.33-65.25-235.53,1.29-376.67"/>
					</g>
					<g>
						
							<ellipse transform="matrix(0.1547 -0.988 0.988 0.1547 -514.9885 1637.8092)" class="st7" cx="699.63" cy="1119.86" rx="22.07" ry="22.07"/>
						
							<ellipse transform="matrix(0.8709 -0.4915 0.4915 0.8709 -398.0141 347.8604)" class="st8" cx="463.02" cy="931.41" rx="22.07" ry="22.07"/>
						
							<ellipse transform="matrix(0.1236 -0.9923 0.9923 0.1236 275.765 1174.8286)" class="st9" cx="802.99" cy="431.29" rx="22.07" ry="22.07"/>
						
							<ellipse transform="matrix(0.074 -0.9973 0.9973 0.074 750.2462 1598.6333)" class="st9" cx="1235.92" cy="395.34" rx="22.07" ry="22.07"/>
					</g>
				</g>
			</g>
			<g>
				<g>
					<g>
						<circle class="st1" cx="1014.5" cy="914.54" r="675.67"/>
						<path class="st12" d="M659.25,200.49c106.97-53.32,227.61-83.32,355.26-83.32c364.29,0,671.52,244.29,766.81,577.99"/>
						<path class="st2" d="M1183.81,769.74c421.11,15.55,740.57,90.96,740.57,181.65c0,71.61-199.17,133.69-490.28,164.3"/>
						<path class="st1" d="M237.52,1044.95c-54.48,23.77-84.93,50.31-84.93,78.31c0,90.18,315.86,165.25,733.43,181.38"/>
						<g>
							<g>
								<g>
									<path class="st1" d="M1532.33,1037.52c3.41,5.85,6.7,11.65,9.85,17.41"/>
									<path class="st3" d="M1553.84,1077.12c47.67,95.09,57.68,174.73,19.43,220.75c-86.89,104.55-389.98-4.06-676.96-242.58
										C609.33,816.77,447.13,538.66,534.02,434.11c65.83-79.21,255.75-36.07,468.74,93.21"/>
									<path class="st1" d="M1013.45,533.87c5.63,3.48,11.28,7.03,16.94,10.63"/>
								</g>
							</g>
						</g>
						<path class="st4" d="M1016.41,1057.15c-373.16,0-675.67-50.76-675.67-113.37s302.51-113.37,675.67-113.37"/>
						<path class="st13" d="M1305.99,1404.9c-73.3,114.85-172.34,185.31-281.33,185.31c-225.85,0-408.93-302.51-408.93-675.67
							s183.09-675.67,408.93-675.67c120.45,0,228.75,86.05,303.58,222.98"/>
					</g>
					<g>
						<circle class="st6" cx="1183.81" cy="769.74" r="22.07"/>
						<circle class="st6" cx="841.89" cy="257.39" r="22.07"/>
						<circle class="st6" cx="228.61" cy="1045.02" r="22.07"/>
						
							<ellipse transform="matrix(0.9239 -0.3827 0.3827 0.9239 -129.5425 438.1399)" class="st7" cx="1036.57" cy="544.7" rx="22.07" ry="22.07"/>
						<circle class="st7" cx="1432.54" cy="1116.94" r="22.07"/>
						
							<ellipse transform="matrix(0.1602 -0.9871 0.9871 0.1602 30.5451 888.519)" class="st7" cx="537.44" cy="426.31" rx="22.07" ry="22.07"/>
						
							<ellipse transform="matrix(0.7071 -0.7071 0.7071 0.7071 -450.3797 1026.9955)" class="st7" cx="1014.5" cy="1057.15" rx="22.07" ry="22.07"/>
						
							<ellipse transform="matrix(0.2298 -0.9732 0.9732 0.2298 -657.5527 1056.715)" class="st7" cx="338.83" cy="943.78" rx="22.07" ry="22.07"/>
						<circle class="st7" cx="1385.81" cy="346.25" r="22.07"/>
						
							<ellipse transform="matrix(0.9239 -0.3827 0.3827 0.9239 -374.2527 701.476)" class="st8" cx="1576.15" cy="1291.49" rx="22.07" ry="22.07"/>
						
							<ellipse transform="matrix(0.1602 -0.9871 0.9871 0.1602 -543.6959 1970.2455)" class="st8" cx="886.03" cy="1304.64" rx="22.07" ry="22.07"/>
						
							<ellipse transform="matrix(0.7071 -0.7071 0.7071 0.7071 60.5445 1075.276)" class="st8" cx="1328.25" cy="464.55" rx="22.07" ry="22.07"/>
						<circle class="st9" cx="1532.02" cy="1033.91" r="22.07"/>
						<circle class="st9" cx="1016.41" cy="830.41" r="22.07"/>
						
							<ellipse transform="matrix(0.1602 -0.9871 0.9871 0.1602 627.9736 1217.3202)" class="st9" cx="1029.38" cy="239.61" rx="22.07" ry="22.07"/>
						
							<ellipse transform="matrix(0.2298 -0.9732 0.9732 0.2298 -432.0988 911.9438)" class="st9" cx="360.1" cy="728.96" rx="22.07" ry="22.07"/>
						<circle class="st9" cx="1305.99" cy="1404.9" r="22.07"/>
					</g>
				</g>
				<g>
					<g>
						<path class="st10" d="M1406.39,1272.72c2.27,130.11-28.06,222.78-91.51,247.15c-126.9,48.75-338.26-194.12-472.08-542.46
							s-139.43-670.25-12.53-719c100.28-38.52,253.3,105.05,379.12,338.88"/>
						<path class="st11" d="M1029.38,1482.64c-120.08,64.38-240.91,77.46-336.01,24.19c-197.04-110.37-208.95-463.76-26.59-789.33
							s489.92-500.03,686.97-389.66c105.09,58.86,157.52,186.86,155.9,342.89"/>
					</g>
					<g>
						
							<ellipse transform="matrix(0.8589 -0.5122 0.5122 0.8589 -136.1351 706.8632)" class="st7" cx="1214.68" cy="600.48" rx="22.07" ry="22.07"/>
						
							<ellipse transform="matrix(0.7147 -0.6995 0.6995 0.7147 -361.8921 656.2432)" class="st6" cx="623.39" cy="771.68" rx="10.78" ry="10.78"/>
						
							<ellipse transform="matrix(0.6981 -0.716 0.716 0.6981 -83.1091 1453.7225)" class="st7" cx="1682.32" cy="825.41" rx="14.81" ry="14.81"/>
						
							<ellipse transform="matrix(0.7825 -0.6226 0.6226 0.7825 -347.7015 677.0494)" class="st7" cx="795.28" cy="836.22" rx="14.81" ry="14.81"/>
						<path class="st8" d="M1527.58,683.87c-5.96,10.63-19.4,14.42-30.03,8.47s-14.42-19.4-8.47-30.03
							c5.96-10.63,19.4-14.42,30.03-8.47C1529.74,659.8,1533.53,673.24,1527.58,683.87z"/>
						<path class="st9" d="M1791.69,701.01c-3.23,5.77-10.52,7.82-16.29,4.59c-5.77-3.23-7.82-10.52-4.59-16.29
							c3.23-5.77,10.52-7.82,16.29-4.59C1792.87,687.95,1794.92,695.24,1791.69,701.01z"/>
						
							<ellipse transform="matrix(0.2888 -0.9574 0.9574 0.2888 -46.0004 1139.0323)" class="st9" cx="743.63" cy="600.48" rx="11.97" ry="11.97"/>
						<path class="st9" d="M694.76,1297.33c-3.23,5.77-10.52,7.82-16.29,4.59c-5.77-3.23-7.82-10.52-4.59-16.29
							c3.23-5.77,10.52-7.82,16.29-4.59C695.94,1284.28,697.99,1291.57,694.76,1297.33z"/>
						<path class="st9" d="M561.94,1032.44c-3.23,5.77-10.52,7.82-16.29,4.59c-5.77-3.23-7.82-10.52-4.59-16.29
							c3.23-5.77,10.52-7.82,16.29-4.59C563.12,1019.38,565.17,1026.67,561.94,1032.44z"/>
						
							<ellipse transform="matrix(0.9959 -0.09 0.09 0.9959 -15.1905 60.1519)" class="st8" cx="659.25" cy="198.48" rx="12.81" ry="12.81"/>
						
							<ellipse transform="matrix(0.9625 -0.2714 0.2714 0.9625 -230.5684 493.0537)" class="st8" cx="1667.51" cy="1080.22" rx="12.81" ry="12.81"/>
						
							<ellipse transform="matrix(0.4531 -0.8914 0.8914 0.4531 -839.5454 1184.5973)" class="st8" cx="545.73" cy="1276.57" rx="12.81" ry="12.81"/>
						
							<ellipse transform="matrix(0.8767 -0.481 0.481 0.8767 -437.012 833.6193)" class="st9" cx="1407.88" cy="1269.42" rx="22.07" ry="22.07"/>
						
							<ellipse transform="matrix(0.9187 -0.395 0.395 0.9187 -501.8846 527.0928)" class="st9" cx="1029.38" cy="1482.64" rx="22.07" ry="22.07"/>
					</g>
				</g>
			</g>
		</g>
	</g>
	<g>
		<g>
			<line class="st2" x1="403.65" y1="386.09" x2="157.12" y2="139.56"/>
			<circle class="st8" cx="157.12" cy="139.56" r="17.55"/>
			<circle class="st6" cx="403.65" cy="386.09" r="17.55"/>
		</g>
		<g>
			<line class="st10" x1="312.3" y1="387.55" x2="175.72" y2="250.98"/>
			
				<ellipse transform="matrix(0.9239 -0.3827 0.3827 0.9239 -82.8223 86.5801)" class="st7" cx="176.22" cy="251.48" rx="17.55" ry="17.55"/>
			<circle class="st9" cx="312.3" cy="387.55" r="17.55"/>
		</g>
	</g>
	<g>
		<g>
			<line class="st2" x1="1680.06" y1="1341.72" x2="1926.59" y2="1588.24"/>
			<circle class="st8" cx="1926.59" cy="1588.24" r="17.55"/>
			<circle class="st6" cx="1680.06" cy="1341.72" r="17.55"/>
		</g>
		<g>
			<line class="st10" x1="1768.24" y1="1350.65" x2="1904.82" y2="1487.23"/>
			
				<ellipse transform="matrix(0.9239 -0.3827 0.3827 0.9239 -423.9892 841.9207)" class="st7" cx="1904.31" cy="1486.73" rx="17.55" ry="17.55"/>
			<circle class="st9" cx="1768.24" cy="1350.65" r="17.55"/>
		</g>
	</g>
</g>
</svg>
